<svg viewBox="0 0 360 100.74" xmlns="http://www.w3.org/2000/svg" xmlns:xlink="http://www.w3.org/1999/xlink"><clipPath id="a"><path d="m0 0h360v100.74h-360z"/></clipPath><g clip-path="url(#a)"><path d="m18.56 3.76c-3.83-.03-7.65-.06-11.48-.1-.65 0-1.31 0-1.96 0-.63 0-1.27 0-1.9 0-.38 0-.75 0-1.13 0h-.49s-.08 0-.12 0c-.05-.01-.09-.04-.13-.07-.12-.08-.12-.28 0-.36.04-.02.08-.06.13-.07.07-.01.14 0 .21 0h.57 1.79 2.83c.45 0 .89-.02 1.33-.02.47 0 .93-.02 1.39-.02 3.87-.06 7.74-.12 11.61-.17 1.88-.03 3.75-.04 5.63-.04 1.8 0 3.6-.02 5.4-.02 3.97-.02 7.94-.03 11.91-.04 15.36-.05 30.71-.1 46.07-.15 15.35-.04 30.7-.1 46.05-.15l46.5-.15c15.34-.05 30.68-.1 46.02-.15 15.46-.04 30.91-.1 46.37-.15 15.47-.05 30.95-.1 46.42-.15 12.22-.04 24.45-.08 36.67-.13-.02.17-.04.33-.06.49-.02.14-.04.28-.03.41-1.97 0-3.94.01-5.91.02-7.26.02-14.52.05-21.78.07-15.5.05-31 .1-46.49.15-15.18.04-30.36.1-45.54.14-15.6.05-31.2.1-46.79.16-15.59.05-31.18.1-46.77.15-15.12.05-30.24.09-45.36.14-15.59.05-31.17.1-46.76.15-7.66.03-15.32.05-22.98.07-1.24 0-2.49 0-3.74 0-2.49 0-4.98 0-7.47-.03z"/><path d="m20.03 98.57c-1.92 0-3.85 0-5.77 0-1.8 0-3.6 0-5.4-.03-.87-.02-1.74-.02-2.61-.05-.94-.03-1.88-.07-2.83-.09-.26 0-.51 0-.77 0-.24 0-.48 0-.72 0-.14 0-.28.01-.41-.01-.22-.04-.22-.43 0-.47.09-.02.18-.01.27-.01h.87 1.13c.53-.02 1.05-.03 1.58-.06.9-.04 1.8-.05 2.71-.07.97-.02 1.95-.03 2.92-.04 3.72-.04 7.44-.03 11.16-.05 7.72-.02 15.44-.02 23.16-.03 15.32-.02 30.63-.03 45.94-.05 15.17-.02 30.34-.03 45.51-.05 8 0 16-.02 24-.02 7.48-.01 14.96-.02 22.44-.02s14.85-.02 22.27-.02c7.88 0 15.75-.02 23.63-.02 15.48-.02 30.96-.03 46.44-.05 15.56-.02 31.11-.04 46.66-.05 7.35 0 14.71-.02 22.06-.03 3.73 0 7.46 0 11.19-.02h1.69c.24 0 .37.25.37.46 0 .11-.04.24-.12.33-.12.03-.24.07-.36.12-10.42 0-20.85 0-31.27.02-15.73.02-31.47.03-47.21.05-7.65.01-15.31.02-22.96.03-7.4 0-14.8.02-22.2.02s-15.31.02-22.96.02c-7.88 0-15.77.03-23.65.03s-15.48.02-23.22.03c-7.83 0-15.66.02-23.48.03-15.03.02-30.06.04-45.09.05-15.31.01-30.62.03-45.94.05-7.75 0-15.5.02-23.25.02h-5.77z"/><path d="m1.71 98.53c-.23-.09-.5-.14-.72-.03 0-.63 0-1.26 0-1.88 0-2.04-.02-4.07-.02-6.11-.02-4.17-.04-8.35-.05-12.52-.02-4.26-.03-8.51-.05-12.77-.02-4.36-.04-8.73-.06-13.09-.02-4.24-.04-8.49-.06-12.74-.02-4.33-.03-8.66-.06-12.98-.02-4.26-.04-8.53-.05-12.79 0-1.65-.02-3.3 0-4.95 0-.82.02-1.63.03-2.45 0-.47 0-.94.01-1.41 0-.19 0-.37 0-.56 0-.14 0-.26.07-.38 0-.13 0-.26 0-.39 0-.11.07-.25.2-.24.13 0 .2.14.2.25v.38s.05.09.07.14c.02.1.01.23.02.34 0 .28.01.56.02.84 0 .5.02 1.01.03 1.51.02 1.05.05 2.09.06 3.14.03 2.11.03 4.22.04 6.33.02 4.28.03 8.55.05 12.82.02 4.29.03 8.58.05 12.87.02 4.24.04 8.49.06 12.74.02 4.38.03 8.75.05 13.13.02 4.25.04 8.5.06 12.75.02 4.18.04 8.36.06 12.53 0 1.85.01 3.69.02 5.54z"/><path d="m.96 3.81c-.12-.09-.11-.27-.04-.38.06-.1.17-.15.27-.08.3-.1.64.15.38.43-.13.06-.48.11-.6.03z"/><path d="m1.4 3.7c-.3.04-.36-.46-.06-.5.47-.09.5.67.06.5z"/><path d="m357.27 95.67c0-2.1.01-4.2.02-6.3.01-4.24.02-8.49.03-12.73 0-4.32.02-8.64.03-12.96.01-4.24.02-8.47.03-12.71.02-4.28.02-8.56.03-12.83.01-4.3.02-8.61.03-12.92.01-4.35.02-8.7.03-13.06 0-.91.01-1.81.03-2.72.02-1.02.05-2.03.08-3.04.02-.88.06-1.77.07-2.65 0-.34 0-.68 0-1.02 0-.11.07-.25.2-.25s.2.14.2.25v1.14c0 .48.02.97.03 1.45.02.59.03 1.19.04 1.78.02 1 .05 2.01.06 3.02v3.12c0 4.31-.02 8.62-.03 12.93 0 4.34-.02 8.69-.03 13.03 0 4.33-.02 8.66-.03 12.99 0 4.28-.02 8.56-.03 12.84-.01 4.21-.02 8.42-.03 12.64 0 4.28-.02 8.55-.03 12.83 0 2.49-.01 4.97-.01 7.45-.1.02-.2.05-.3.08-.13.04-.28.08-.43.12 0-.82 0-1.65 0-2.47z"/><path d="m357.85 4.12c-.15-.59-.21-1.25-.21-1.84 0-.11.07-.25.2-.25s.2.14.2.25c.03.63 0 1.25-.17 1.85 0 0 0 0-.01 0z"/><path d="m357.99 5.38c-.11-.32-.61-4.33.14-3.1 0 1.02 0 2.13-.14 3.1z"/><path d="m358.15 9.09c-.45-2.2-.14-4.45-.23-6.67-.15-.16-.02-.5.21-.47.25.08.17.41.19.62-.05 2.17.13 4.39-.16 6.54 0 0 0 0 0-.01z"/><path d="m.8 3.65c-.06-.33.52-.47.59-.13-.02.27-.54.52-.59.13z"/><path d="m.82 3.78c-.3-.17-.15-.62.23-.46 1.04.04 2.2-.02 3.18.15-1.13.14-2.28.41-3.41.31z"/><path d="m12.3 3.89c-2.35-.07-4.69-.3-7.03-.39-1.36.08-2.71.23-4.06.32-.14 0-.24-.09-.3-.21-.25-.04-.2-.49.03-.5 3.52-.98 7.35-.26 10.97 0 1.42.11 2.85 0 4.23.41-1.17.39-2.57.34-3.83.36z"/><path d="m33.02 20.35c-3.53-.01-7.06-.05-10.59-.1-1.76-.02-3.52-.05-5.28-.09 0-.19.01-.37.02-.56.05-.09.11-.18.17-.27.14-.19.29-.37.44-.55 1.06-.02 2.12-.04 3.17-.06 3.43-.06 6.87-.08 10.3-.11 3.48-.03 6.97-.02 10.46-.03h11.07 43.24s28.41 0 42.61-.02h43.62c14.21 0 28.43-.01 42.64-.01s28.71 0 43.06 0c14.44 0 28.88-.01 43.32-.02 10.89 0 21.77-.01 32.66-.02.1.27.2.54.31.81.01.34.01.68.03 1.02-7.07 0-14.13 0-21.2 0-13.91-.02-27.83 0-41.75 0-14.57 0-29.15 0-43.72 0-14.23 0-28.45.01-42.68.02-14.39 0-28.77 0-43.16 0-14.35 0-28.7.01-43.05.01s-28.69 0-43.03.02c-7.36 0-14.71 0-22.07 0-3.53 0-7.07 0-10.6-.02z"/><path d="m17.49 82.55c0-2.72-.02-5.45-.02-8.17-.02-4.19-.03-8.37-.05-12.55-.02-4.15-.03-8.3-.04-12.46-.02-4.3-.03-8.59-.05-12.89-.02-4.2-.03-8.41-.04-12.61 0-1.48 0-2.96 0-4.45.02-.03.04-.06.06-.1.17-.23.36-.45.54-.67.02-.02.04-.05.05-.07h.04.4c.21.17.32.48.32.74.04 4.19.05 8.37.06 12.56.02 4.24.03 8.48.04 12.72.02 4.24.03 8.47.05 12.71.02 4.18.03 8.36.05 12.54.01 3.9.03 7.8.04 11.7v1c0 .41-.26.91-.73.91s-.73-.5-.73-.91z"/><path d="m340.67 83.47c-2.74-.01-5.47-.02-8.21-.02-6.85-.01-13.69-.01-20.54-.02-13.84-.02-27.67-.02-41.51-.03-13.74 0-27.48-.03-41.21-.03s-27.36-.03-41.05-.03c-13.9-.01-27.8-.02-41.7-.03-13.85 0-27.7 0-41.55-.03-13.96-.02-27.91-.02-41.86-.03-6.99 0-13.97 0-20.95-.02-6.85-.01-13.71 0-20.56-.13-.83-.02-1.64-.06-2.46-.14-.28-.02-.55-.05-.83-.11-.14-.03-.28-.07-.38-.14-.03-.02-.05-.04-.08-.06-.16-.19-.16-.47 0-.67.14-.17.43-.2.63-.23.67-.1 1.34-.14 2.01-.18.84-.05 1.69-.04 2.52-.05.85-.02 1.69-.02 2.54-.03 3.54-.03 7.08-.03 10.63-.04 6.79-.01 13.58 0 20.37 0 13.93.02 27.85.03 41.78.03 13.94 0 27.87.02 41.81.03 13.75 0 27.5.04 41.26.04s27.79.02 41.7.02c13.73 0 27.46.02 41.19.03 13.8.02 27.6.03 41.41.03 6.92 0 13.85 0 20.77.01h9.92c1.58 0 3.16-.01 4.74-.01h.02c.47 0 .73.5.74.91 0 .41-.26.92-.73.92-.14 0-.29 0-.43 0z"/><path d="m341.54 80.66c0-.15 0-.3 0-.45.02-.91.03-1.83.05-2.74.03-1.94.07-3.88.1-5.83.07-4.2.15-8.4.22-12.61.07-4.22.14-8.44.22-12.66.07-4.29.15-8.58.22-12.87.03-2.1.09-4.21.14-6.32.02-1.09.05-2.17.08-3.26.02-.57.03-1.15.04-1.73 0-.22 0-.43.01-.65 0-.21 0-.42.02-.62.03-.27.15-.51.36-.67h.02v-.02s.02 0 .01 0c.02-.02.05-.04.07-.06s0-.05 0-.08c0-.11.06-.25.19-.25.12 0 .21.13.21.24v.1h.01s.04.05.05.07v.02c.24.18.36.46.37.76 0 .56-.02 1.12-.02 1.69-.01 1.03-.02 2.05-.03 3.09-.02 2.16-.04 4.33-.07 6.49-.06 4.28-.14 8.55-.21 12.83-.07 4.26-.15 8.52-.22 12.79-.07 4.16-.14 8.33-.21 12.49-.03 2.02-.07 4.04-.1 6.06-.02 1.38-.03 2.77-.07 4.15 0 .42-.24.93-.71.94h-.01c-.45 0-.74-.49-.74-.9z"/><path d="m341.59 82.57c-.5.02-.92-.25-1.3-.51-.21-.17-.02-.61.24-.41.37-.17.79-.16 1.19-.25.29-.48.93-.14.88.36.03.54-.51.89-1.01.81z"/><path d="m341.28 83.58c-.52-.43-.26-1.27.31-1.51 0-.51.28-.92.52-1.34-.04-.2.12-.62.36-.4.13.6.48 1.19.49 1.83.13.92-.76 2.19-1.69 1.41z"/><path d="m343.06 22.35c-.15-.22-.21-.49-.17-.76 0-.05.02-.1.03-.15-.69-.2-.17-2.56.55-1.82.07-.04.15-.05.23-.02.14.05.22.17.26.3.37.36.14.97.25 1.43.31.74-.46 1.86-1.14 1.02z"/><path d="m342.47 14.75c-6.67-.03-13.33-.03-20-.04-14.45-.03-28.89-.05-43.34-.07-14.39-.02-28.78-.05-43.16-.07-14.4-.02-28.81-.04-43.21-.07-14.59-.03-29.19-.05-43.78-.07l-42.88-.07c-14.32-.02-28.64-.05-42.96-.07-7.34-.01-14.67-.02-22.01-.04-3.62-.01-7.25-.03-10.87-.04-3.45-.02-6.91-.03-10.37-.08-1.89-.02-3.78-.04-5.67-.11-.34-.02-.68 0-1.02 0h-.68c.04-.15.07-.3.08-.45v-.05h.44c.39 0 .79.01 1.18 0 1.89-.06 3.78-.08 5.67-.1 3.45-.03 6.91-.04 10.37-.04 7.26-.02 14.53-.01 21.79 0 14.37.02 28.74.05 43.11.07 14.48.03 28.96.05 43.44.07 14.52.02 29.03.05 43.55.07 14.32.02 28.63.04 42.95.07 14.32.02 28.63.05 42.95.07 14.54.03 29.07.05 43.6.07 7.14 0 14.28.02 21.41.03 4.8 0 9.59 0 14.39.02h.48c.23 0 .36.25.36.46s-.14.46-.37.46c-1.81 0-3.63 0-5.45-.01z"/><path d="m348.81 85.5c0-.94-.02-1.88-.02-2.81-.01-1.86-.03-3.72-.04-5.57-.03-3.93-.06-7.87-.09-11.81-.03-4.02-.07-8.03-.1-12.05-.03-4.06-.06-8.12-.09-12.18-.03-4.05-.07-8.09-.1-12.14-.01-2.14-.03-4.27-.03-6.41 0-1.07 0-2.15 0-3.22 0-1.1 0-2.2.03-3.29 0-.11 0-.22.01-.33 0-.1.02-.18.04-.26v-.02-.05c0-.22 0-.45 0-.67 0-.11.07-.25.2-.25s.2.14.2.25v.67c.01.06.03.12.04.18.02.1.03.21.03.31.01.28.02.55.03.83.02.48.03.97.04 1.46.02 1.09.03 2.17.05 3.26.03 2.21.05 4.43.07 6.64.04 4.04.07 8.08.1 12.13.03 4.07.07 8.14.1 12.21.03 4.01.07 8.02.1 12.04.03 3.93.06 7.86.09 11.78.02 1.92.03 3.85.05 5.76 0 1.19.03 2.37.03 3.55 0 .21-.13.46-.36.46s-.36-.25-.36-.46z"/><path d="m12.31 87.5c-.24 0-.36-.26-.36-.47 0-1.02.02-2.03.02-3.04.02-2.05.03-4.09.05-6.13.03-4.27.06-8.54.09-12.81.03-4.26.07-8.53.1-12.79.03-4.3.06-8.6.09-12.89.03-4.26.06-8.52.1-12.78.02-2.11.04-4.23.08-6.34.02-1.02.03-2.04.06-3.06.02-.6.03-1.2.05-1.79 0-.23.02-.46.03-.69.01-.26.03-.51.03-.76 0-.11 0-.21 0-.32s.08-.24.21-.24.19.14.19.25c0 .37.01.73.02 1.1.01.52.02 1.05.03 1.57.02 1.13.02 2.26.03 3.39.01 2.05 0 4.1 0 6.15-.03 4.29-.06 8.57-.09 12.86-.03 4.26-.06 8.52-.09 12.79-.03 4.29-.06 8.57-.09 12.86-.03 4.26-.07 8.51-.1 12.77-.02 3.31-.04 6.62-.07 9.93 0 .21-.14.45-.37.45z"/><path d="m21.36 88.5c-1.53-.02-3.05-.07-4.58-.11-.76-.02-1.53-.04-2.29-.03h-.56c-.1 0-.21.01-.31-.02-.21-.06-.21-.41 0-.47.1-.03.21-.02.31-.02h.81c.89 0 1.78-.04 2.67-.07.87-.03 1.74-.05 2.62-.08.93-.02 1.87-.03 2.81-.04 3.39-.04 6.79-.04 10.18-.05 6.85-.02 13.7-.02 20.55-.04 14.28-.02 28.55-.05 42.83-.07 14.31-.02 28.63-.05 42.94-.07 14.21-.03 28.41-.05 42.62-.07 14.44-.02 28.88-.05 43.32-.07s28.88-.05 43.33-.07c14.57-.02 29.14-.05 43.71-.08 11.64-.02 23.29-.04 34.93-.07h2.24c-.02.16-.03.32-.04.49 0 .14-.01.28-.02.42-1.12 0-2.24 0-3.35 0-5.23 0-10.47.02-15.7.02-14.2.02-28.4.04-42.6.07-14.69.03-29.38.05-44.06.07-14.38.02-28.75.05-43.13.07-14.19.03-28.38.04-42.57.07-14.4.03-28.81.05-43.22.08-14.38.02-28.77.05-43.15.07-13.82.02-27.64.06-41.47.07-.93 0-1.86 0-2.79 0-2 0-4.02 0-6.02-.03z"/><path d="m349.05 87.55c-.53-.15-.28-.8-.18-1.17-.02-.34.02-.79.02-1.1-.01-.24-.02-.57.27-.64.65 0 .39.91.44 1.36-.03.19-.05.38-.07.57-.03.3-.06.6-.09.9-.06.03-.13.05-.22.05-.04.02-.09.03-.13.03-.01 0-.02 0-.04 0z"/><path d="m348.32 15.68c-.19-.29-.07-.67-.05-1-.14 0-.29.04-.43 0-.21-.07-.19-.42-.02-.48-.06-.25.14-.47.39-.41.38-.1.7-.08.64.38.09.06.14.18.14.28 0 .12-.04.23-.12.31.03.36.01 1.39-.56.92z"/><path d="m12.45 88.33c-.23-.02-.56.12-.6-.24.04-.23.36-.19.52-.19.55-.09 1.16-.08 1.61.27.01.02.06.03.04.05-.46.31-1.05.24-1.57.11z"/><path d="m12.26 88.26c-.17 0-.34-.23-.25-.4.08-.29-.07-.75.2-.95.03-.04.08-.07.13-.07.32-.05.37.31.33.55-.03.24.05.48-.06.7v.02c-.07.13-.22.14-.35.15z"/><path d="m1.58 98.19c-.43-.07-.05-.69.14-.87 3.43-3.13 6.83-6.29 10.4-9.27-.04-.18.15-.32.29-.39.43-.08.2.45.04.62-1.97 2.59-4.84 4.33-7.06 6.67-.9.95-1.89 1.81-2.89 2.64-.27.24-.52.61-.91.6z"/><path d="m348.21 14.63c-.1-.04-.13-.17-.13-.28.3-.93 1.16-1.62 1.72-2.41 2.51-3.2 5.13-6.28 7.77-9.37.09-.19.49-.42.51-.07-.16.4-.55.71-.75 1.12-1.9 2.63-4.04 5.09-6.07 7.62-.94 1.08-1.72 2.36-2.73 3.36-.1.05-.22.07-.32.02z"/><path d="m357.15 97.9c-.13-.04-.25-.21-.16-.33.02-.03.04-.04.07-.06-2.13-1.96-3.84-4.37-5.84-6.46-.9-.91-1.73-1.9-2.57-2.85-.4-.38-.56-1.15.23-.86 2.6 2.95 5.26 5.85 7.79 8.87.38.38 1.74 1.7.48 1.7z"/><path d="m12.88 13.94c-2.97-1.77-5.43-4.38-8.1-6.52-1.37-.96-2.45-2.23-3.7-3.32-.34-.2-.27-.8.19-.65 3.82 3.3 7.72 6.63 11.57 9.93.22-.16.58.22.32.38-.02.12-.16.21-.28.18z"/><path d="m166.48 14.89c-7.59-.44-15.18-.34-22.77-.41-4.27-.08-8.55.22-12.75-.68-6.27-.44-12.55.07-18.82.09-7.81-.34-15.63-.53-23.46-.32-12.44.12-24.89-.05-37.32.56-4.09-.04-8.17.11-12.23-.36-4.01.38-8.06.17-12.06 0-1.56 0-3.11.53-4.66.09-2.4-.47-4.82.09-7.23.07-.55-.04-1.25.33-1.69-.05-.12-.23.15-.52.36-.34 3.23-.23 6.48-.94 9.69-.22 1.68.03 3.34-.37 5.02-.12 3.38.03 6.75.29 10.11-.14 6.44.54 12.9.47 19.36 0 18.13-.07 36.29-.61 54.41.08 5.67-.02 11.33-.49 16.99-.16 2.93.12 5.78 1.01 8.73.77 11.32.13 22.67-.15 33.95.8-1.78.3-3.76.35-5.62.33z"/><path d="m190.16 89.08c-4.08-.28-8.14-.06-12.22-.16-2.08-.06-4.14-.53-6.23-.42-4.39.45-8.72-.69-13.09-.39-.16.02-.33.12-.44-.05-.11-.15 0-.4.19-.4 4.68-.4 9.37.41 14.06-.04 3.94.24 7.86.57 11.82.4 4.92.08 9.82.25 14.73-.05 18.28-.02 36.54-1.71 54.82-1.02 11.48.34 23-.59 34.45.34 10.47.37 20.94-.63 31.4-.9 5.72.41 11.42-.05 17.15.09 2.35 0 4.7.42 7.04.48 1.98.13 4.01-.39 5.92.21-.33.2-.71.28-1.1.39-3.65.48-7.39-.08-11.02-.27-6.03-.19-12.08.22-18.1 0-11.15.26-22.34 1.53-33.49.73-13.81-.61-27.64.22-41.45-.35-8.22-.19-16.42.58-24.64.68-9.92.43-19.86.52-29.79.73z"/><path d="m156.7 88.38c-7.59-.26-15.17-.25-22.75-.13-15.91-.97-31.9-1-47.81-.02-12.03.28-24.05-.31-36.07-.24-7.13.67-14.29-.26-21.42.26-4.03.15-8.08-.35-12.1-.1-.73.02-1.5-.16-2.11-.47 1.25-.65 2.68-.36 4.02-.47 2.91-.19 5.88.23 8.79.18 4.77-.27 9.55-.3 14.32-.03 10.8-.33 21.6-.31 32.4.05 9.92.31 19.8-.85 29.71-.7 6.45.05 12.89-.25 19.34.1 4.7 0 9.43.65 14.13.54 8.36-.49 16.72.45 25.07-.05 4.1-.17 8.21.49 12.3.1.18.03.36.09.49.22.07.09.12.26.03.34-2.03-.1-4.24.21-6.35.26-4.02-.13-7.99.12-11.99.16z"/><path d="m348.79 88.29c-.91-1.47-.44-3.47-.53-5.13.16-3.81.26-7.6.12-11.4-.61-5.54-.48-11.13-.42-16.68.13-5.78-.25-11.61.16-17.38-.07-4.76.03-9.51.05-14.26-.14-2.92-.01-5.86-.14-8.77 0-.14.11-.3.24-.29.32-.16.44.34.16.45.67 7.73.36 15.47.4 23.21-.4 6.41-.02 12.84-.12 19.27-.45 6.83.6 13.54.47 20.36-.04 2.75-.3 5.5-.17 8.24.05.8.16 1.65-.2 2.37z"/><path d="m348.33 14.17c-.11-.02-.16-.16-.15-.26 0-.19.14-.51.37-.47 2.59-3.24 5.1-6.56 7.77-9.71 2.02-1.46-1.22 2.86-1.62 3.27-2.13 2.32-4.01 5.17-6.37 7.16z"/><path d="m342.7 53.65c-.58-11.16.96-22.36.8-33.52.1-.34-.09-.91.27-1.09.25 0 .22.32.18.49.41 6.49 0 12.99-.36 19.48-.35 4.88-.1 9.82-.89 14.65 0 0 0 0 0-.01z"/><path d="m12.61 88.96c-.5-.15-.55-.77-.57-1.21 0-2.98-.29-6.07-.14-9.03-.36-10.56.33-21.1.75-31.65.21-3.84-.07-7.63-.33-11.44.15-3.52.77-7.11.07-10.59.09-3.2-.24-6.36.12-9.53.16-.49.13-1.23.64-1.47.42-.02.41.85-.02.66-.41 5.01.32 10.77.28 15.59-.69 5.16.18 10.26 0 15.43-.63 14.12-1.27 28.26-.61 42.36.77.1 1.46-.37 2.2-.33 1.45.83-1.88 1.38-2.41 1.22z"/><path d="m310.97 15.13c-5.36-.37-10.68-.12-16.02-.03-9.4-.63-18.86-.33-28.27-.61-5-.05-9.97.86-14.97.58-7.9-.04-15.77-.72-23.67-.72-9.49-.35-18.95-.04-28.41.48-9.17-.26-18.3.34-27.46-.2-.15.14-.45.34-.55.05-.04-.11 0-.27.12-.32.08-.04.13-.06.18-.1.09-.16.29-.13.45-.1 4.1.28 8.21-.29 12.32-.13 4.57-.4 9.18-.06 13.77-.12 3.61.12 7.17-.38 10.77-.48 4.78-.17 9.59-.02 14.36-.1 4.77.19 9.54.16 14.31.32 4.41.38 8.82.5 13.25.5 6.5.33 12.99-.9 19.5-.52 8.35.35 16.7-.02 25.04.58 4.9-.14 9.79-.33 14.69 0 8.3.17 16.6-.22 24.88-.38 3.67-.31 7.32-.29 10.98-.1.4-.03.8.17 1.07.42-.07.29-.53.47-.83.49-1.69-.07-3.46-.16-5.12-.14-10.12.3-20.25.74-30.38.64z"/><path d="m188.44 4.64c-8.76-.65-17.53-.21-26.31-.32-10.74-.52-21.55-.13-32.28-.16-14.7.24-29.23-.6-43.95.04-5.43.26-10.85.06-16.27-.14-8.47.28-16.9.09-25.35-.5-4.37-.25-8.7.4-13.07.32-4.51-.1-9.07-.61-13.58-.28-2.75.31-5.46 1.01-8.24.82-2.46-.27-5.19.08-7.45-.88-.14-.22.06-.46.29-.49 3.82-.28 7.71.01 11.51-.63 4.71-1.04 9.54-.71 14.32-.48 6.03.49 12.05-.6 18.08-.09 9.54.87 19.09.25 28.64.57 8.03.33 16.06-.2 24.08-.34 7.8-.06 15.58.36 23.37.35 13.76-.02 27.37-.47 41.09.09 8.06.09 16.12-.33 24.16.26 15.39-.14 30.78-.66 46.16-.39 12.64-.29 25.25-.14 37.85.08 13.75.35 27.43-.62 41.13-1.53 7.13.18 14.16-.25 21.25-.29 3.49-.05 7.05.35 10.52.28 2.74-.02 5.45-.69 8.19-.46 2.01.47 4.16.13 6.11.79.42.27.28 1.09-.22 1.16-.36 0-.7-.17-1.07-.2-1.97-.15-4.07-.28-6.03-.41-3.38.2-6.75.9-10.16.76-8.23-.53-16.41.41-24.63.16-5.16-.18-10.28.48-15.42.79-7.24.44-14.49.72-21.74.8-30.32-.36-60.69-.38-90.98.31z"/><path d="m180.34 99.84c-19.7-.32-39.4-.64-59.1-.62-3.66-.03-7.25.51-10.89.28-7.12-.66-14.2-1.22-21.35-1.35-6.92-.31-13.86.09-20.73.31-14.31-.15-28.64.48-42.93-.41-3.93-.08-7.75.32-11.65.37-3.65.39-7.35.87-10.99.18.04.14.11.27.1.42 0 .1-.08.26-.2.23-.32-.1-.22-.53-.36-.78-.07-.19.05-.43.27-.43 3.26-.04 6.47-.47 9.65-1.16 2.16-.31 4.58-.29 6.71-.42 4.36-.42 8.72-.08 13.08.13 6.35-.06 12.69.3 19.04.15 5.42-.21 10.84-.08 16.26-.06 7.21-.16 14.29-.67 21.48-.34 7.85.06 15.64.92 23.44 1.47 6.29-.36 12.54-.46 18.84-.36 11.93.22 23.86-.12 35.78.42 14.51.38 29.01.02 43.51-.36 7.22-.46 14.44.26 21.67.19 5.48-.04 10.95-.43 16.43-.22 7.26.27 14.51-.55 21.77-.04 10.81.14 21.62-.45 32.43-.47 12.77.35 25.61 1.21 38.38.73 5.01-.37 10.03-.48 15.05-.29.98 0 1.97 0 2.94-.02.52.02.78.66.62 1.12-.1.38-.43.63-.82.6-2.92.09-5.83 0-8.76.02-15.3.87-30.57.38-45.87-.31-10.9-.1-21.79.49-32.69.49-6.35-.4-12.71-.13-19.06.08-7.11-.31-14.21.02-21.32.14-16.92-.75-33.83.4-50.73.33z"/><path d="m2.94 99.43c-.52-.06-1.11.08-1.53-.29-.79-.6-.05-1.73.83-1.57 2.72.3 5.29-.22 7.97-.08.46.17 1.09-.01 1.44.38.12.17-.05.51-.26.35-.05-.05-.16-.09-.22-.1-2.65.67-5.4 1.62-8.22 1.3z"/><path d="m356.95 97.62c-.21-.27-.28-.61-.27-.95.08-2.33.21-4.66.2-6.99.08-6.36.25-12.8.01-19.11-.68-10.77.42-21.59 0-32.35-.26-11.64-.28-23.21-.02-34.84.04-.3-.15-.64.05-.89.28-.23.49.16.53.41.47-.21.55.38.11.48.94 4.97.57 10.08.51 15.11.07 4.03.12 7.88.09 11.88.17 5.23.24 10.42.31 15.62-.05 6.61-.74 13.22-.26 19.83.34 9.39.26 18.63.02 28.01-.14.99.33 4.92-1.29 3.78z"/><path d="m.89 99.15c.53-8.62-.16-17.23-.53-25.81-.12-9.62.57-19.25.67-28.88.47-6.91-.36-13.74-.64-20.63.02-6.85 0-13.68.46-20.51.05-.24.12-.49.28-.67.19-.18.41.04.4.25.04.5.14.94.23 1.42.42 6.79-.03 13.59.09 20.37.29 4.4.64 8.8.76 13.21-.02 12.22-.97 24.47-.78 36.69.49 8.09.99 16.23.5 24.33.12 1-1.28 1.56-1.45.22z"/><path d="m230.74 21.73c-10.15.22-20.28-.59-30.43-.68-6.63.38-13.25-.18-19.89-.17-6.66-.11-13.3.39-19.96.28-9.7-.64-19.38-.22-29.08-.2-13.02-.7-26.05-.94-39.11-.94-16.03.6-32.1 1-48.11-.38-5.26-.14-10.54.06-15.78.51-3.1.37-6.21.99-9.31.38-.15.11-.35.31-.48.07-.05-.12-.02-.25.07-.34.52-.6 1.34-.52 2.06-.71 6.97-1.31 14.04-1.77 21.12-1.78 7.52.3 15.03.98 22.57.97 10.99.35 21.96-.66 32.95-.52 7.64.01 15.27.35 22.91.27 4.64.41 9.29.71 13.96.67 9.69-.3 19.31-.17 29 .21 11.61-.59 23.23-.03 34.83-.07 8.31-.31 16.61.56 24.91.62 13.55-.02 27.08-.09 40.63-.19 10.65.17 21.34.26 31.98-.14 12.5-.98 25.01-1.68 37.54-.66 2.77.01 5.62.58 8.34.31.98-.24 1.26 1.48.35 1.76-1.1.44-2.31.01-3.46.03-6.85-.31-13.71-.93-20.57-.8-9.04-.12-18.01 1.2-27.04 1.32-20.01.17-40.02-.04-60.02.14z"/><path d="m18.85 82.93c-.71-.54-.34-1.56-.4-2.32.06-2.48-.1-4.9-.12-7.26-.48-12.72-.5-25.42.03-38.14-.02-2.83.18-5.87.09-8.66-.06-.83-.42-9.71 1.04-6.89.42.07.37.58.03.53.97 13.51-.41 27.08-.13 40.61.21 4.42.38 8.91.42 13.33-.2 1.24.98 9.83-.95 8.79z"/><path d="m341.55 82.73c-.24-4.99.6-9.98.54-14.97-.12-9.38.45-18.76.45-28.14-.03-5.2.07-10.41-.07-15.6-.06-1.43-.17-2.87-.04-4.3 0-.29.22-.54.42-.73-.01.02-.02.04-.03.06.72-.91 1.2.36 1.03 1.21.28 12.39.18 24.79-.23 37.18-.14 7.11 0 14.24-.62 21.32-.03 1.23-.13 2.48-.01 3.71.05.41-.16.95-.62 1.04-.45.09-.78-.36-.83-.77z"/><path d="m342.75 22.44c-.48-.22-1.25-.69-1.02-1.32.04-.53.55-.63.44-.06.38.14.93.19 1.09.62.14.34-.09.83-.5.76z"/><path d="m341.99 83.24c-20.68-.7-41.4-.19-62.09-.75-4.33-.22-8.62.18-12.92.33-11-.28-22 .08-32.98-.55-11.41-.03-22.83.15-34.24.48-8.44.16-16.9.7-25.32-.02-12.39-.19-24.79-.48-37.18-.66-7.68.27-15.33 1.03-23.02.94-5 .17-9.96-.67-14.95-.62-6.76-.05-13.52.48-20.27-.01-9.85-.64-19.74-.24-29.6-.1-4.57-.06-9.13-.5-13.71-.32-5.3.18-10.65.23-15.92.69-.35.01-.58-.35-.62-.66-.08-1.37 1.89-.91 2.76-1.23 5.39-.5 10.84-.54 16.25-.62 11.31.45 22.61.1 33.93.14 4.97 0 9.93.67 14.9.54 5.03-.13 10.06-.29 15.09-.19 13.43 1.57 26.88-.48 40.32-.3 14.04.32 28.08.54 42.1.97 17.31-.28 34.62-1.06 51.94-.77 8.58.61 17.19.22 25.79.41 4.61.35 9.17-.34 13.78-.29 13.88.2 27.77.35 41.65.49 8.19.06 16.4-.27 24.57.31.97.17.89 2.06-.26 1.8z"/><g fill="#fff"><path d="m356.83 2.72c-.02.21.07.45.04.66s-.03.04-.04.06c-.1.03-.27.12-.51.29-2.67 3.15-5.19 6.48-7.77 9.71-.18-.03-.3.16-.34.34-.1-.02-.2 0-.27.06h-1.07c-.19-.09-.41-.14-.62-.12-3.66-.19-7.31-.2-10.98.1-.09 0-.19 0-.28 0-.64 0-1.28 0-1.92 0-7.14-.01-14.27-.02-21.41-.03-12.37-.02-24.74-.04-37.11-.06-1.29-.03-2.59-.06-3.88-.12-2.5-.15-5.01-.05-7.5.1-8.24-.02-16.49-.03-24.73-.04-.17-.01-.35-.03-.52-.04-4.77-.16-9.54-.12-14.31-.32-4.78.08-9.58-.07-14.36.1-1.2.03-2.4.12-3.6.2h-.02l-23.47-.03c-14.52-.02-29.03-.05-43.55-.07-1.59 0-3.17 0-4.76 0-1.46-.21-2.92-.47-4.4-.52-5.66-.33-11.32.14-16.99.16-18.11-.69-36.28-.16-54.41-.08-1.93.14-3.86.24-5.79.31h-.2c-2.75 0-5.5 0-8.25 0-1.7-.06-3.41-.16-5.11-.31-3.37.42-6.73.17-10.11.14-1.68-.25-3.34.16-5.02.12-3.13-.71-6.3-.04-9.45.2-.09 0-.18 0-.27 0-.08-.06-.17-.05-.24 0-.12 0-.24 0-.36 0-.07-.13-.25-.23-.38-.13-3.75-3.2-7.51-6.42-11.2-9.61.16 0 .33-.02.49-.04l.29-.02c2.16.72 4.66.45 6.95.69 2.43.16 4.81-.35 7.2-.69.66 0 1.31.01 1.97.02 2.49.02 4.98.03 7.47.03h2.39c.93.05 1.86.09 2.79.1 1.57.03 3.14-.04 4.71-.12 3.62 0 7.23-.02 10.85-.03 7.62.46 15.22.59 22.85.34 5.42.2 10.84.4 16.27.14 14.73-.64 29.26.2 43.95-.04 10.73.02 21.54-.36 32.28.16 8.78.11 17.55-.33 26.31.32 30.29-.68 60.66-.67 90.98-.31 7.25-.08 14.5-.35 21.74-.8 3.06-.18 6.11-.49 9.16-.67 6.71-.02 13.42-.04 20.14-.07l21.78-.07c1.54 0 3.07 0 4.6-.01z"/><path d="m12.5 14.01h.14c0 .23-.02.46-.03.69 0 .17-.02.35-.02.53-.02.1-.05.19-.07.28-.36 3.18-.03 6.33-.12 9.53v.06 1.49c-.03 4.26-.07 8.52-.1 12.78-.03 4.3-.06 8.59-.09 12.89l-.05 6.12c-.29 6.78-.49 13.56-.26 20.34-.1 1.94-.01 3.92.06 5.9 0 .81-.02 1.61-.02 2.42 0 .1.03.22.09.31v.1.05c0 .13 0 .26-.03.37-.02.02-.02.05-.02.08-.07.03-.12.07-.13.16 0 .06.02.1.04.14-3.23 2.71-6.33 5.57-9.44 8.4.28-7.34-.18-14.7-.62-22.03-.19-12.21.76-24.46.78-36.69-.12-4.41-.48-8.81-.76-13.21-.12-6.65.31-13.31-.07-19.96.97.92 1.89 1.9 2.99 2.67 2.58 2.07 4.95 4.57 7.78 6.32-.02.09-.03.18-.06.27z"/><path d="m348.37 71.76c.14 3.8.04 7.59-.12 11.4.07 1.19-.15 2.55.05 3.76-1.47-.12-2.99.15-4.47.05-2.35-.07-4.69-.48-7.04-.48-5.73-.14-11.43.32-17.15-.09-5.96.15-11.92.54-17.89.78-4.92 0-9.83.02-14.75.03-11.05-.78-22.14.07-33.21-.25-10.13-.38-20.25-.03-30.38.36-13.82.02-27.65.05-41.47.07-4.81 0-9.61.02-14.42.02-1.76-.09-3.53-.16-5.29-.09-.79.05-1.58.08-2.37.1-2.19 0-4.39 0-6.59.01-5.36-.1-10.73-.38-16.1-.06-4.7.11-9.42-.54-14.13-.54-6.45-.35-12.89-.06-19.34-.1-9.92-.15-19.79 1.01-29.71.7-10.81-.36-21.6-.38-32.4-.05-4.78-.28-9.55-.24-14.32.03-2.91.05-5.88-.37-8.79-.18-1.35.11-2.78-.17-4.02.47l.18.09c-.15.02-.29.05-.43.09h-.27c-.1 0-.21-.01-.31.02-.04.01-.07.03-.09.05-.23-.07-.47-.09-.72-.08-.04-.96-.08-1.91-.11-2.87.02-2.62.03-5.24.05-7.86.03-4.26.06-8.51.1-12.77.02-1.91.03-3.82.04-5.73.16-4.3.35-8.61.54-12.91.18-5.17-.69-10.26 0-15.43.02-2.52-.16-5.28-.29-8.07 0-.84 0-1.68 0-2.52 0-1.13-.01-2.26-.03-3.39 0-.28 0-.55-.01-.83.02-.26.03-.53.05-.79.43.19.43-.68.02-.66-.04.02-.08.04-.11.07v-.09h.13.54c.18.06.39.05.6.02 1.85.06 3.69.08 5.54.1 3.45.05 6.91.07 10.37.08 3.62.02 7.25.03 10.87.04 7.34.02 14.67.03 22.01.04 14.32.02 28.64.04 42.96.07 10.01.02 20.01.03 30.02.05 2.52.11 5.06.02 7.6.07 7.59.07 15.18-.04 22.77.41 1.69.02 3.49-.02 5.13-.26v.05c.1.29.4.09.55-.05 9.15.54 18.29-.06 27.45.2 2.07-.11 4.14-.22 6.21-.31 10.04.02 20.09.03 30.13.05h.99c4.92.2 9.83.47 14.75.5 3.7.21 7.38-.23 11.07-.46 4.24 0 8.49.02 12.73.02h.38c6.36.04 12.72.04 19.06.47 5.34-.09 10.67-.34 16.02.03 7.69.08 15.39-.16 23.07-.41 2.81 0 5.62.01 8.43.02 1.82 0 3.64.01 5.45.01.04 0 .07 0 .1-.02.12 2.89 0 5.8.14 8.69-.02 4.75-.12 9.5-.05 14.26-.4 5.77-.03 11.6-.16 17.38-.05 5.55-.19 11.14.42 16.68zm-4.23-51.44h.13c-.02-.34-.02-.67-.03-1.02-.1-.27-.21-.54-.31-.81-6.71 0-13.42.01-20.13.02-2.63-.05-5.26-.05-7.88 0-1.55 0-3.1 0-4.64 0-14.44 0-28.88.02-43.32.02-14.35 0-28.71 0-43.06 0s-28.43 0-42.64.01c-14.54 0-29.08 0-43.62 0-5.88 0-11.76 0-17.64 0-.24-.02-.47-.04-.71-.06-7.64.08-15.27-.26-22.91-.27-5.48-.07-10.95.15-16.42.34-7.97 0-15.94 0-23.91 0-5.07-.22-10.13-.59-15.19-.79-5.1 0-10.19.25-15.25.87-1.88.02-3.76.04-5.65.07-.8.02-1.61.03-2.42.04-.05-.07-.1-.13-.16-.18-.14 0-.27 0-.4 0-.01 0-.03 0-.04 0-.02.02-.03.05-.05.07-.03.04-.07.08-.1.12l-.17.21c-.09.11-.19.22-.27.34-.02.03-.04.07-.06.1-.04.06-.08.12-.11.17 0 .19-.02.38-.02.56h.14v3.71c0 4.2.03 8.41.04 12.61.02 4.3.03 8.59.05 12.89.02 4.15.03 8.3.04 12.45.02 4.18.03 8.37.05 12.55 0 2.72.02 5.45.02 8.17 0 .41.26.91.73.91.32 0 .54-.23.65-.52.16.08.3.09.42.04.74.07 1.49.1 2.24.12 6.85.12 13.71.12 20.56.13 6.99.01 13.97.02 20.95.02 13.95 0 27.91.01 41.86.03 13.85.02 27.7.02 41.55.03 13.9.01 27.8.02 41.7.03 13.68 0 27.36.04 41.05.04s27.47.02 41.21.03c13.84 0 27.67.02 41.51.03 6.85 0 13.69 0 20.54.02 2.74 0 5.47 0 8.21.02h.43.07c.03.04.07.08.11.11.52.43 1.02.23 1.35-.19.29-.19.41-.6.37-.94 0-.03 0-.07 0-.1v-.02s0-.08 0-.12c0-.03 0-.05 0-.08 0-.04 0-.07 0-.1-.02-.34-.02-.68-.02-1.02.04-.12.06-.26.06-.38.02-.79.03-1.57.04-2.36.58-6.92.44-13.89.57-20.84.29-8.71.42-17.43.38-26.15.12-2.99.18-5.97.09-8.96.18-.27.26-.67.12-1-.08-.31 0-.69-.05-1.02z"/><path d="m356.73 97.2s.02.07.04.1c-.44 0-.87 0-1.31 0-.84 0-1.67 0-2.51 0-1.36-.02-2.72-.02-4.07 0-1.53 0-3.07 0-4.61 0-7.35.01-14.71.02-22.06.03-2.66 0-5.31 0-7.97 0-3.88-.15-7.76-.3-11.64-.41-7.77.02-15.54.33-23.31.45-1.25 0-2.5 0-3.75 0-1.86 0-3.73 0-5.59 0-4.29-.29-8.57-.11-12.87.02-3.21 0-6.42 0-9.63 0-1.91-.05-3.83-.03-5.73 0-.01 0-.02 0-.03 0-4.19 0-8.39.01-12.58.02-2.47 0-4.94 0-7.42 0-3.64-.12-7.28-.2-10.92.01-1.76 0-3.53 0-5.29 0-7.42 0-14.85.02-22.27.02s-14.96.01-22.44.02c-3.12 0-6.24 0-9.36 0h-.26c-6.71-.03-13.42.03-20.13-.1-4.66-.07-9.28-.03-13.92.14-2.62 0-5.23 0-7.85 0-6.82-.54-13.65-1.2-20.51-1.25-7.19-.33-14.27.19-21.48.34-5.42-.02-10.84-.15-16.26.06-6.35.15-12.69-.21-19.04-.15-4.36-.21-8.71-.55-13.08-.13-2.12.13-4.55.11-6.71.42-1.05.23-2.1.43-3.16.6-2.17.02-4.3.33-6.52.12 0 0 .01-.01.02-.02 1-.83 1.99-1.69 2.89-2.64 2.13-2.26 4.86-3.94 6.81-6.37.08.17.21.31.41.38.38.12 2.22-.13 2.67-.59.5 0 1 .01 1.5.03 1.53.04 3.05.09 4.58.11 2 .02 4.02.03 6.02.03h2.79c13.82 0 27.64-.04 41.47-.07 14.38-.02 28.77-.05 43.15-.07 13.3-.02 26.6-.04 39.89-.07.68.02 1.35.04 2.03.06 1.25 0 2.5-.04 3.74-.07h4.05c2.4.21 4.79.44 7.21.2 2.09-.12 4.15.36 6.23.42 4.07.1 8.14-.12 12.22.16 9.93-.21 19.86-.3 29.79-.73 1.88-.02 3.75-.08 5.62-.15 6.04-.01 12.09-.02 18.13-.03 14.46-.02 28.93-.05 43.4-.07 5.09.3 10.19.2 15.29-.02 9.32-.02 18.65-.03 27.97-.05 5.23 0 10.47-.01 15.7-.02h2.43c.05.07.1.14.16.19.84.95 1.67 1.94 2.57 2.85 1.89 1.98 3.52 4.25 5.51 6.16z"/><path d="m356.89 70.57c.23 6.31.06 12.75-.01 19.11.01 2.17-.1 4.36-.18 6.54l-.02-.02c-2.36-2.8-4.83-5.51-7.25-8.26 0-.12.01-.24.02-.36v-.21s.02-.03.02-.05c.1-.04.21-.09.3-.14-.09-.03-.19-.05-.28-.08.02-.18.03-.36.05-.53.02-.19.04-.38.07-.57-.04-.31.08-.84-.07-1.14 0-.97-.02-1.94-.02-2.91-.02-1.92-.03-3.84-.05-5.76-.03-3.93-.06-7.85-.09-11.78-.03-4.01-.06-8.02-.1-12.04-.03-4.07-.06-8.14-.1-12.21-.03-4.04-.06-8.08-.1-12.13-.02-2.21-.05-4.42-.07-6.64-.02-1.09-.03-2.17-.05-3.26-.01-.49-.02-.98-.04-1.46 0-.28-.02-.55-.03-.83 0-.1 0-.21-.03-.31 0-.03-.01-.06-.02-.09.05-.24.05-.53.03-.69.08-.08.12-.19.12-.31 0-.08-.03-.17-.09-.23.84-.93 1.54-2.02 2.36-2.97 1.86-2.32 3.81-4.57 5.59-6.97-.24 11.33-.22 22.61.04 33.95.41 10.76-.69 21.58 0 32.35z"/></g><path d="m342.39 40.7c-.45-.21-.57-.8-.54-1.25-.1-4.29.83-8.6.09-12.85-.53-2.27-.65-5.57-3.21-6.43-.47-.12-.89-.5-.74-1.02.18-.85 1.18-.48 1.77-.37.77.18 1.58.32 2.25.75.23-.09.48.06.57.28.06.01.12.03.18.05.94-1.16.64 1.9.77 2.34.44 4.34.09 8.72.18 13.08 0 .44.13 1.03-.33 1.28-.19 1.09.41 3.88-.98 4.14z"/><path d="m342.41 50.05c-.88-1.88-.24-3.98-.4-5.97-.5-5.67.76-11.52-.83-17.04-.64-1.96-.77-4.26-2.47-5.53-1.1-.55-2.36-.57-3.53-.92-.36-.03-.71-.31-.31-.58.21-.05.44-.04.65-.08 2.14-.44 4.48-.66 5.47 1.76 2.25 4.97 2.8 10.55 2.34 15.95-.12 2.63.19 5.26.13 7.89-.01 1.57-.03 3.24-1.05 4.53h-.02z"/><path d="m337.41 83.15c-.21-.09-.34-.27-.36-.5 0-.09 0-.17 0-.25-.77.19-1.59.59-2.37.29-.31-.11-.53-.33-.75-.56.17-.23.4-.45.62-.65.63-.58 1.53-.6 2.3-.88 1.35-.55 2.65-1.57 3.34-2.87 1.31-3.4 1.1-7.14 1.92-10.66.04-.17.19-.33.37-.31.1-1.34 1.05-2.59.76-.31.2 4.07.01 8.14-.52 12.18.41 1.6-.84 2.94-1.99 3.87-.47.3-1.04 1.08-1.62.58-.53.22-1.16.26-1.71.06z"/><path d="m18.78 31.73c-1.28-.85-.49-2.59-.5-3.85.06-1.34.01-2.69.4-3.99-.62-.44-.19-1.27.27-1.67-.17-.37.04-.78.12-1.15.02-.33.16-.85.59-.75.04-.02.09-.03.14-.03.44-.48 1.24-.28 1.11.44.6-.25 1.47-.92 2.09-.49 1.53-1.01 3.44-1.25 5.23-1.32.34-.03 1.16-.34 1.13.24-.03.1-.13.22-.25.18-3.16.44-6.65 2.12-8.21 5.03-.75 1.69-.3 3.83-1.34 5.38-.05.71-.24 1.47-.76 1.98z"/><path d="m18.96 35.34c-1.46-2.77-.16-6.07.55-8.9.74-2.36 2.15-4.55 4.04-6.14 1.63-.77 3.56-1.18 5.36-1.11.13-.02.27-.03.4-.02.26.03.2.52-.06.49-.11 0-.22 0-.33.02-1.77.61-3.46 1.43-5.13 2.27-3.94 3.3-3.29 8.97-4.83 13.4z"/><path d="m27.21 82.67c-1.33-.18-2.66-.62-3.89-1.17-.34 1.07-1.67.17-2.17-.32-.11.03-.23.01-.35-.02.07 1.15-1.77.6-1.53-.33-.16-.38-.21-.94.21-1.16-.2-.29-.44-.76-.07-1.02-.08-.24-.14-.49-.17-.74-.02-.16 0-.34.07-.49-.6-1.27-1.1-2.66-.97-4.08 0-.33.12-.66.02-.98-.02-.09.01-.19.1-.22.23-.08.5.33.41.52 1.01 2.46 1.79 5.39 4.34 6.68 1.4 1.01 3.28 1.06 4.69 1.91.69.63.23 1.59-.71 1.42z"/><path d="m12.81 15.93c-.06-.09-.05-.21-.05-.31 0-.11.03-.23.05-.34-.16-.24 0-2.05.48-1.56.08-.2.36-.18.39.04.22-.2.57-.08.42.24-.13.2-.41.23-.55.47-.2.35-.34.72-.35 1.12.02.21-.19.57-.39.32z"/><path d="m12.91 16.5c-.19-.48-.17-.99-.1-1.5.01-.11.11-.23.24-.21s.17.17.16.28c-.07.45.04 1.08-.29 1.43z"/><path d="m12.67 16.21c-.17-.65.16-1.44.55-1.97.52-.49 1.51-.78 2.14-.47-.59.35-1.3.39-1.84.78-.32.39-.47.92-.5 1.39.05.19-.17.48-.34.27z"/><path d="m13.59 88.55c-1.39-.44-1.6-2.61-1.29-3.81.07-.28.41-.27.4.03-.02.26-.06.52-.07.78.18.14.04.37.06.55.21.52.55 1.02.97 1.41.29.26.61.45.97.56.01.05-.12.03-.16.05.16.31-.2.51-.47.39-.11.11-.29.06-.41.03z"/><path d="m10.45 90c.62-.84 1.42-1.55 2.41-1.89.08-.03.16 0 .21.07.1.13.03.34-.11.4-.88.31-1.75 1-2.5 1.42z"/><path d="m13.4 88.09c.19-.26 2.11-1.01 1.56-.1-.48.17-1.05.1-1.56.1z"/><path d="m348.37 17.16c-.28-.46-.38-1.04-.52-1.52-.17-.43-.53-.74-.9-1.01-.16.03-.31-.03-.3-.21-.18-.1-.17-.4.02-.48.19-.06.34.13.5.22.34.06.66.24.91.47.33.17 1.09 2.04.31 1.72 0 .27.05.59-.02.82z"/><path d="m346.99 87.77c-.46-.58.54-.66.79-.96.31-.33.4-2.68.98-1.42.53.13.09 1.16-.14 1.43-.26.36-.69.52-1.04.78-.17.11-.39.31-.59.17z"/><g fill="#fff"><path d="m17.94 84.02c-.29-.06-.9.17-.87-.3-.07-.07-.08-.18-.06-.27-.03-.06-.05-.13-.04-.19v-.02c0-.14.12-.22.24-.23.63-.05 1.27-.04 1.9 0 .36-.04.49.51.11.56 0 .1-.06.22-.17.23-.1.01-.2.02-.3.02-.08.35-.57.16-.83.2z"/><path d="m18.23 83.94c-.28 0-.53-.15-.74-.33-.05.04-.11.06-.17.03-.09-.03-.13-.13-.14-.22-.15-.16-.31-.36-.27-.6-.14-.28-.58-.67-.26-.95-.07-.3.27-.49.46-.23.38.53.54 1.17 1.09 1.55.22.06.47.09.68.11.19.01.24.24.17.38-.12.22-.42.06-.62.06-.02.1-.09.2-.19.2z"/><path d="m16.92 21.18c-.12-.05-.16-.18-.18-.29-.03-.16-.03-.32-.02-.49-.13-.07-.14-.25-.09-.36.08-.45-.03-.92.22-1.32 0-.04 0-.09 0-.14-.18-.52.6-.45.91-.56-.04-.38.26-.29.5-.25.25.05.57-.13.78.07h.07c.09 0 .14.09.16.18.45.89-.92.62-1.41.78-.15.18-.44.05-.62.15-.2.16-.16.42-.18.64.24.28.14.72.16 1.07 0 .19-.01.58-.29.51z"/></g></g></svg>