<svg viewBox="0 0 155 220.72" xmlns="http://www.w3.org/2000/svg" xmlns:xlink="http://www.w3.org/1999/xlink"><clipPath id="a"><path d="m0 0h155v220.72h-155z"/></clipPath><g clip-path="url(#a)"><path d="m153.09 2.63c-.13 0-.25 0-.38 0-.29 0-.57 0-.86 0-.76 0-1.53-.01-2.29-.02-3.26-.02-6.52-.02-9.78-.03-6.41-.02-12.83-.03-19.24-.04-6.64-.02-13.28-.04-19.91-.05-6.59-.01-13.19-.01-19.79-.02-6.72 0-13.44 0-20.16-.02-3.44 0-6.88-.03-10.33-.04-3.33-.02-6.67-.02-10-.03-6.57-.02-13.13-.04-19.69-.1-3.47-.04-6.94-.06-10.42-.06-1.51 0-3.03 0-4.54 0-.92 0-1.83 0-2.75 0h-1.47s-.08 0-.12 0c.02-.06.04-.11.05-.16.05-.04.1-.07.15-.11l.02-.02h-.01s0 0 .01 0c0 0 .02-.01.03-.02.09-.02.18-.05.28-.08.07-.02.13-.04.2-.07.05-.02.1-.04.15-.05h.51 2.65 4.62c3.44 0 6.88-.02 10.33-.05 6.57-.05 13.14-.06 19.71-.07 3.34 0 6.68 0 10.03-.02 3.43-.01 6.86-.03 10.29-.03h20.27c6.56 0 13.11.02 19.67.02 6.67 0 13.35-.01 20.01-.02h19.31c3.26 0 6.52-.01 9.77-.02h2.25.7c.08.09.18.16.27.24.05.04.09.08.14.12.13.18.26.36.4.54.02.07.03.14.05.21-.05.01-.1 0-.15 0z"/><path d="m152.33 217.81c0-.12 0-.23 0-.35 0-1.2-.03-2.41-.05-3.61-.04-2.02-.09-4.05-.1-6.07 0-2.2 0-4.4-.01-6.59-.02-9.04-.04-18.09-.05-27.13 0-4.61-.02-9.22 0-13.83.03-4.62 0-9.23-.04-13.85-.07-9.41-.07-18.83-.1-28.24-.02-9.41-.04-18.81-.06-28.21-.02-9.2-.04-18.41-.06-27.61-.02-8.69-.04-17.38-.07-26.07 0-4.02-.02-8.04-.02-12.06 0-1.99-.01-3.97-.01-5.96 0-2.21.02-4.42.03-6.63 0-1.47.03-2.94.07-4.41 0-.32.02-.65.04-.97.01-.33.04-.67.1-.99.08-.38.18-.74.25-1.12 0-.04 0-.08 0-.12 0-.28 0-.55 0-.83 0-.2-.04-.49.17-.61.02-.01.04-.01.06 0 .2.12.17.41.17.61v.83s0 .08 0 .12c.05.25.12.49.18.74.04.15.07.31.1.46.05.27.06.54.08.81.04.55.05 1.1.06 1.65.02.57.03 1.13.04 1.7.03 1.17.03 2.35.05 3.53 0 1.1.02 2.19.03 3.29.04 3.94.03 7.88.04 11.82.02 8.46.04 16.93.05 25.4.02 9.05.04 18.09.06 27.14.02 9.4.04 18.81.06 28.21.02 9.35.04 18.7.05 28.04 0 4.58 0 9.16-.02 13.74 0 2.36 0 4.73.01 7.1.02 2.4.04 4.8.05 7.2.05 9.12.06 18.23.08 27.35.01 4.47.02 8.95.03 13.42 0 2.05 0 4.11-.04 6.16-.02 1.61-.06 3.21-.06 4.82v1.13c0 .34-.22.76-.61.76s-.61-.42-.61-.76z"/><path d="m152.78 6.57c-.13-.02-.21-.12-.25-.23-.11-.05-.19-.14-.24-.26-.17.03-.3-.12-.34-.27-.11-.69-.06-1.39-.07-2.09.04-.36-.2-2.52.5-1.68.07-.21.31-.23.44-.1l.05.07s.02.05.02.07h.03c.09.12.18.24.27.36l.02.11s-.03.07-.06.09c-.02.09-.03.18-.04.27.04 1.13.19 2.3.04 3.43-.05.14-.18.25-.32.25-.02 0-.03 0-.05 0z"/><path d="m1.97 218.45c-.14 0-.27.02-.39.08-.04-.12-.06-.24-.06-.36 0-5.31-.01-10.62-.02-15.94-.02-9.2-.03-18.4-.05-27.59-.02-9.22-.03-18.44-.05-27.67-.02-9.24-.04-18.48-.05-27.72-.02-9.52-.04-19.03-.06-28.55-.02-9.12-.03-18.24-.05-27.36-.02-9.21-.04-18.42-.06-27.64 0-4.54-.02-9.08-.03-13.62 0-2.1 0-4.21 0-6.32 0-2.2 0-4.4.04-6.6.02-1.05.05-2.1.07-3.16.03-1.06.05-2.11.09-3.17 0-.21.09-.47.29-.57v-.04c0-.11.07-.25.2-.25s.2.14.2.25v.03s.01 0 .02 0c.2.1.28.36.29.57.04 1.12.07 2.25.11 3.37.04 1.11.07 2.21.09 3.32.05 2.18.05 4.36.06 6.54.02 4.38.02 8.77.02 13.15.02 9.16.03 18.32.05 27.49.02 9.25.04 18.5.05 27.76.02 9.31.04 18.62.05 27.93.02 9.25.04 18.49.05 27.74.02 9.39.03 18.77.05 28.16.02 9.06.04 18.12.05 27.18.02 7.49.03 14.98.05 22.47v.23c0 .2-.06.41-.17.58-.27-.15-.54-.29-.85-.31z"/><path d="m150.74 220.23c-1.41-.02-2.83-.03-4.24-.04-3.13-.02-6.26-.05-9.39-.07-6.62-.04-13.25-.09-19.87-.13-6.32-.04-12.64-.09-18.97-.13-6.41-.04-12.83-.09-19.24-.13-6.39-.04-12.78-.08-19.17-.13-6.45-.05-12.9-.09-19.36-.13-6.51-.04-13.02-.08-19.53-.14-3.22-.03-6.44-.09-9.66-.16-1.59-.04-3.18-.1-4.77-.16-.75-.03-1.51-.06-2.26-.12-.34-.03-.69-.05-1.03-.11-.18-.03-.44-.08-.57-.22-.2-.05-.2-.43 0-.49.02-.02.04-.04.07-.06.09-.05.2-.1.31-.12.34-.07.68-.1 1.02-.13.75-.05 1.51-.07 2.26-.1 1.65-.05 3.29-.08 4.94-.11 1.6-.03 3.2-.03 4.81-.03h4.87c6.43.02 12.86.08 19.29.12 6.49.05 12.97.09 19.46.13 6.35.04 12.7.08 19.06.13 6.41.04 12.83.09 19.25.13 6.34.05 12.68.09 19.02.13 6.61.04 13.23.09 19.85.13 4.8.04 9.6.09 14.4.09.47 0 .74.51.74.92 0 .42-.27.92-.74.92-.17 0-.34 0-.51 0z"/><path d="m150.92 219.85c-.41-.02-.51-.45-.13-.62.18-.46.65-.76 1.15-.79.2-.44.19-.86.56-1.17.51-.39 1.05.2 1.07.71.03.6-.26 1.19-.53 1.71-.42.7-1.6.74-2.13.15z"/><path d="m2.88 218.79c-.12-.07-.25-.14-.37-.2-.03-.02-.05-.04-.07-.06-.32-.03-.28-.6.06-.5.95-.82 1.9.73.53.82-.05-.02-.1-.04-.15-.06z"/><path d="m3.05 218.69c-.91.07-1.6-.06-1.09-1.13.33-.29.6.49.23.59.35.12.76-.01 1.13.05.56.16.14.61-.28.49z"/><path d="m3.17 218.15c.27 0 .27.5 0 .5s-.27-.5 0-.5z"/><path d="m3.05 218.97c-.36-.09-1.34.23-1.33-.31.04-.11.06-.29.19-.33.17-.03.41-.16.5.05.26.06.63-.12.82.09.33 0 .74.08.99.26-.37.19-.77.26-1.18.24z"/><path d="m1.84 3.33c-.14-.16-.07-.42-.04-.61 0-.33-.01-.79.29-.97.06-.02.11-.04.17-.06.99.03 1.96-.05 2.93-.12.94-.07 1.88-.15 2.84-.13 2.15.16 4.26-.12 6.38-.35 4.24-.25 8.48.12 12.71.18 12.78.18 25.55.45 38.32.04 6.3.14 12.58.54 18.88.29.36.01.72 0 1.08 0 1.03-.02 2.07-.05 3.01.42-.41.29-.98.47-1.51.48-2.44-.12-4.87-.09-7.31-.05-1.23.02-2.47.03-3.7.03-1.6.01-3.2-.07-4.8-.16-2.11-.11-4.22-.22-6.33-.11-8.97.34-17.93.62-26.92.48-7.01-.02-14.01-.29-21.02-.34-1.26-.01-2.51.13-3.75.26-1.62.18-3.23.36-4.86.22-.75-.05-1.52-.02-2.28.02-1.22.06-2.44.12-3.62-.2-.05.09-.14.19-.15.3.21.18.06.48-.15.48-.06 0-.13-.02-.19-.08z"/><path d="m66.17 1.93c.27 0 .27.5 0 .5s-.27-.5 0-.5z"/><path d="m150.27 3.22c-17.26-.94-33.77-.36-51.14-.79-10.68-.11-21.38.72-32.05.06-.41-.06-.83-.14-1.2-.32-.1-.08-.12-.24-.06-.35.05-.1.17-.15.27-.07.31.12.7.2 1.02.25 10.67-.22 21.35-.55 32.03-.61 9.91.18 19.8.35 29.71.07 7.62 0 15.24-.05 22.83.65.45-.03.69.6.38.92-.47.38-1.21.13-1.78.2z"/><path d="m1.34 3.27c.04-.15-.01-.62 0-1v-.04c.03-.07.05-.13.07-.19l.15-.1.02-.02.03-.02c.08-.02.16-.05.24-.07h.01c.3-.07.37.45.13.55 0 .2.07.47-.14.59-.03.11.02.23 0 .34-.02.18-.14.27-.26.27-.13 0-.27-.11-.26-.31z"/><path d="m152.91 77.68c-1.03-4.22-.6-8.57-.58-12.88.12-5.95.21-11.9.06-17.85-.21-14.69-.47-29.38-.14-44.06 0-.25-.1-.57.14-.74s.41.24.24.4c.21 12.72.13 25.45.6 38.17.04 7.49.29 15.01.07 22.5-.1 4.81.38 9.71-.38 14.47 0 0 0 0-.01-.01z"/><path d="m152.24 219.46c-.42-.07-.61-.52-.63-.9.39-3.69.15-7.42.21-11.13-.29-17.49.35-34.96.41-52.46.02-11.54.08-23.11-.31-34.63.26-9.94.25-19.89.08-29.84-.68-8.84.89-17.66.45-26.49-.14-.14-.04-.5.19-.42.23.09.22.43.23.64.38 6.05.09 12.1-.15 18.13.29 11.55.65 23.13.2 34.68-.03 9.85.34 19.7.41 29.55.19 16.52-.11 33.07-.13 49.56.17 6.72.07 13.46.07 20.18-.03.83-.09 1.66-.23 2.48-.07.37-.42.71-.81.64z"/><path d="m130.33 3.89c-11.42-1.01-22.85-.85-34.3-.39-6.17-.11-12.38-.49-18.53-.9-3.81.06-7.61.42-11.43.23-4.47-.22-8.96.03-13.43-.29-3.84-.3-7.65-.63-11.5-.43-5.46-.43-10.85.14-16.26.71-5.18.3-10.42-.33-15.58.07-1.49.12-8.68.65-6.76-1.36.14-.11.39 0 .33.2 6.39-.11 12.71-.79 19.11-.26 4.57 0 9.02-1.22 13.61-1.05 4.88.4 9.8-.03 14.64.67 6.85.55 13.72.46 20.59.61 7.84-.56 15.6.44 23.44.6 5.49-.13 10.98-.34 16.47-.54 3.82-.05 7.63.31 11.44.12 2.84.17 5.64.55 8.49.59 6.53.07 13.01-.79 19.52-.08.8.16 2.03-.26 2.39.67.03.11-.05.21-.13.29-.2.19-.48.34-.75.37-2.05.17-4.09-.15-6.14-.18-5.08-.1-10.14.35-15.22.35z"/><path d="m1.59 217.21c-.6-8.93-.95-17.91-.28-26.87 0-10.99.61-21.99.2-32.95-.74-17.33-1.26-34.49-.19-51.81-.26-14.25-.89-28.51-.32-42.76.3-10.93-.27-21.81.04-32.71-.09-7.68-.48-15.33-.4-23 .24-1.78-.3-4.25 1.28-5.42 1.34-.32 2.75.12 4.11.16.41-.01.68.4.59.78-.05.29-.29.54-.6.48-1.21-.05-2.51-.11-3.68 0-.86 8.23.03 16.53.01 24.8-.23 13.7.25 27.44-.38 41.09-.07 11.99.2 23.97.5 35.95-.31 9.26-.78 18.63-.61 27.87.25 10.37.82 20.74 1.06 31.12.02 12.72-.4 25.37-.54 38.04-.33 4.57.49 9.13.64 13.69-.03.53.05 1.08-.13 1.59-.11.27-.35.53-.66.53-.32 0-.56-.29-.65-.58z"/><path d="m146.83 219.85c-21.42-.51-42.85-.03-64.26-.96-24.47-.2-48.94-.26-73.42-.5-2.15.02-4.31-.08-6.46-.23-.31-.02-.7-.19-.7-.55.03-.97 2.39-.43 3.08-.62 23.35-.04 46.7.31 70.05.4 13.44.11 26.86.94 40.3.95 8.88-.23 17.75-.19 26.62-.04 2.76-.04 5.52.18 8.28.08.35 0 .77.12.96.45.65 1.65-3.6.89-4.46 1.03z"/><path d="m152.37 218.15c-.53-.42-.23-1.42-.35-2.03.01-3.97.07-7.95-.2-11.92-.98-14.12.31-28.31.11-42.43.08-7.8.69-15.58 1.06-23.37-.04-3.93-.43-7.84-.38-11.76-.22-14.18-.14-28.36-.09-42.54-.63-8.13-.26-16.26-.45-24.4-.2-10.41-1.02-20.78-1.37-31.18.12-7.03.01-14.06.23-21.09.07-1.19.2-2.37.12-3.56-.03-.31.02-.65.22-.9 1.71-1.31 1.03 3.1 1.08 3.85-.55 4.2.08 8.37-.09 12.57-.17 4.76-.49 9.52-.02 14.28.13 9.89 1.43 19.72 1.34 29.62-.04 7.31-.03 14.54.41 21.83-.05 16.65-.3 33.29.3 49.92.45 6.09-.58 12.18-.65 18.28-.42 12.96-.38 25.91-.78 38.86-.12 8.23 1.27 16.48.03 24.67-.07.37-.08.76-.21 1.11-.05.12-.19.25-.32.2z"/><path d="m105.12 220.36c-1.4-.21-3.02-.2-4.06-1.27-.39 0-.15-.65.18-.48.94.07 1.9-.14 2.85-.08 3.87.26 7.72-.39 11.57-.64 2.65.33 5.26.32 7.91.49 5.17-.15 10.33-.54 15.47-.85 4.15.09 8.31.4 12.47.29 1.06-.03.83 1.69-.07 1.79-4.16.11-8.31-.15-12.47-.29-5.02.32-10 .63-15.01.86-3.14-.03-6.31-.35-9.44-.48-3.11.47-6.25.66-9.4.68z"/><path d="m152.1 146.38c.02 2.6.04 5.2.04 7.8-.11 2.52-.19 5.05-.22 7.58.2 13.87-1.04 27.81-.15 41.69.01 1.32.03 2.65.05 3.97-.06 3.46.15 6.94-.14 10.4-.05 0-.11-.01-.17-.01-4.16.11-8.31-.2-12.47-.29-3.56.22-7.12.47-10.69.65-1.97 0-3.94.01-5.91.04-.96 0-1.92-.01-2.88-.02-1.3-.06-2.6-.14-3.91-.3-1 .07-2 .16-3 .25-4.17-.02-8.34-.05-12.5-.08-8.34-.25-16.68-.6-25.03-.67-23.35-.09-46.7-.45-70.05-.4-.4.11-1.35-.02-2.09.03v-.16c.05-.39.02-.79.04-1.19-.01-.33-.02-.66-.04-.99-.02-6.4-.03-12.8-.04-19.2-.02-8.2-.04-16.39-.05-24.59.02-2.31.04-4.63.03-6.95-.02-.6-.03-1.2-.05-1.8-.02-7.33-.03-14.66-.04-22-.02-9.25-.04-18.49-.05-27.74-.02-9.31-.03-18.62-.05-27.93-.02-9.25-.04-18.5-.05-27.76-.02-9.16-.03-18.32-.05-27.49 0-4.38 0-8.77-.02-13.15-.01-2.18-.01-4.37-.06-6.54-.02-1.1-.05-2.21-.09-3.32-.03-1.04-.06-2.08-.1-3.12 1.17-.11 2.46-.05 3.66 0 .14.03.26 0 .36-.08 1.24-.02 2.4-.11 2.91-.15.15-.01.3-.02.45-.03.51 0 1.02-.04 1.52-.08h.02c4.52-.15 9.08.3 13.59.04.92-.1 1.85-.2 2.77-.29 3.4.07 6.81.14 10.21.15 5.17.08 10.32.02 15.48-.1 4.24.25 8.49.03 12.73.24 2.49.13 4.97.02 7.45-.09 1.99.03 3.99.02 5.99 0 5.48.36 11.01.66 16.51.77 11.45-.46 22.89-.62 34.3.39 5.08 0 10.14-.45 15.22-.35 1.83.02 3.65.28 5.49.22v.11c.08 1.19-.05 2.37-.12 3.56-.22 7.02-.11 14.05-.23 21.09.28 8.16.84 16.29 1.17 24.44 0 3.13.02 6.25.02 9.38.02 6.45.03 12.9.04 19.35-.11 2.59-.13 5.19.02 7.78v.47c.02 9 .04 18.01.06 27.02-.02 1.13-.04 2.26-.07 3.4.03.96.06 1.92.09 2.87.02 7.72.03 15.44.09 23.16z" fill="#fff"/></g></svg>