<svg xmlns="http://www.w3.org/2000/svg" viewBox="0 0 150 149.83">
    <defs>
        <clipPath id="d">
            <path style="fill:none" d="M0 0h150v149.83H0z"/>
        </clipPath>
        <style>
            .e{fill:#fff}
        </style>
    </defs>
    <g id="b">
        <g style="clip-path:url(#d)" id="c">
            <path d="M5.4 2.95c-.86-.03-1.7-.22-2.55-.33-.08.02-.17.08-.26.08-.2-.01-.25-.31-.13-.44.14-.2.32-.48.59-.46 3.58.68 7.24.16 10.86.15 5.19-.08 10.41.14 15.56-.55 19.41-1.15 38.88.66 58.32.62 9.23.16 18.45.06 27.67-.39 9.11-.28 18.23-.26 27.34-.6 1.19-.03 2.45-.29 3.59-.03.16.13.23.36.14.55a.47.47 0 0 1-.22.22c-1.04.07-2.19.02-3.2.13-13.96.43-27.93.56-41.89 1.1-15.15.09-30.28-.53-45.42-.75-9.13-.31-18.32-.75-27.41.17-7.57.64-15.38.46-22.99.56Z"/>
            <path d="M2.54 148.67c-.73-.06-.41-.93-.47-1.42-.19-7.02-.21-13.99-.19-21-1.64-22.96.06-45.99-.4-68.98.27-9.76.42-19.53.48-29.3.17-4.29.72-8.58.34-12.88-.09-2.48-.04-4.93-.33-7.39.06-1.72-.64-3.94.78-5.23.16-.12.39-.13.54.01.22.17.09.55-.2.45-.64 1.98-.24 4.09-.12 6.13.3 5.37.51 10.71.03 16.07-.45 7.97-.09 15.98-.42 23.95-.34 6.5-.03 13.08-.19 19.58.22 10.45-.46 20.91-.36 31.36.27 5.83-.13 11.67.22 17.5.54 6.2.58 12.41.54 18.63-.13 4.04.27 8.07.17 12.1.05.23-.17.45-.4.42ZM147.79 58.56c-1.13-9.65-.79-19.44-.63-29.14.23-9.16 1.88-18.35.64-27.48-.61.01-1.75.07-2.15-.42-.11-.37.47-.67.63-.26.76.17 2.26-.57 2.38.58 1.09 7.67.04 15.41-.4 23.1-.48 6.95-.35 13.9-.37 20.86-.12 4.22.95 8.68-.1 12.77Z"/>
            <path d="M147.57 1.51c-.44-.05-.88-.08-1.32-.08-.13 0-.29-.13-.23-.28-.24-.56 1.7-.11 1.92.04.27.26-.17.4-.39.31ZM147.79 147.54c.04-4.35.2-8.73-.21-13.08-.33-3.69.23-7.41.41-11.09-.02-14.89-.13-29.79.27-44.67.04-9.03-.53-18-.6-27a4.96 4.96 0 0 0-.08-.41.432.432 0 0 1-.13-.28c-.02-.13 0-.28.09-.38.19-.14.33.11.3.29.59 1.55.53 3.4.53 5.03.19 3.72.51 7.46.34 11.18.61 13.64-.25 27.32.02 40.97-.28 4.91.05 9.8 0 14.7-.15 4.14-.84 8.32-.35 12.44 0 1.16.85 14.37-.58 12.32Z"/>
            <path d="M10.31 148.86c-1.57-.02-3.12-.52-4.68-.5-1.08.06-2.15.32-3.23.17-.4-.03-.37-.74.03-.75 1.19.04 2.3-.31 3.48-.31 2.11.13 4.2.72 6.33.49 6.05-.63 12.15-.55 18.22-.85 7.01-.59 14.02-.3 21.04-.21 15.4.4 30.8.08 46.19.78 14.88-.24 29.75-.49 44.63 0 2.07-.12 4.18.12 6.21-.21.5.06.42.96-.11.91-10.96.52-21.97-.46-32.95-.05-17.61.53-35.19-.53-52.8-.27-7.64-.27-15.28-.34-22.91-.46-9.83.34-19.64.76-29.45 1.28ZM58.34 8.79c-8.27-.28-16.6-.68-24.84.15-6.86.58-13.94.41-20.84.51-.78-.03-1.54-.2-2.31-.3-.07.02-.15.08-.23.07-.18-.01-.23-.28-.11-.4.12-.18.29-.43.54-.42 3.25.62 6.56.15 9.84.13 4.7-.08 9.44.13 14.11-.5 10.81-.64 21.64-.27 32.47.11 6.8.23 13.6.47 20.39.45 8.37.14 16.73.06 25.08-.36 8.26-.26 16.52-.24 24.78-.54 1.07-.03 2.22-.27 3.25-.03.15.12.21.33.12.5-.04.08-.11.17-.2.2-.94.06-1.98.02-2.9.11-12.65.39-25.31.51-37.96 1h-2.8c-12.79 0-25.57-.5-38.36-.69Z"/>
            <path d="M10.06 141.52c-.66-.06-.38-.84-.43-1.29-.18-6.36-.19-12.68-.17-19.04-1.48-20.81.06-41.68-.36-62.52.24-8.85.38-17.7.43-26.55.15-3.89.65-7.77.31-11.67-.08-2.25-.04-4.47-.3-6.7.05-1.55-.58-3.57.7-4.74.14-.11.35-.11.49.01.2.15.08.5-.18.41-.58 1.79-.22 3.71-.11 5.55.27 4.86.46 9.71.03 14.57-.41 7.22-.09 14.48-.38 21.71-.31 5.89-.03 11.86-.18 17.74.2 9.47-.42 18.96-.32 28.43.24 5.29-.11 10.58.2 15.86.49 5.62.52 11.25.49 16.88-.11 3.66.24 7.31.16 10.97.04.2-.13.38-.33.38h-.03ZM141.14 33.44c.21-8.3 1.7-16.63.58-24.91-.56.01-1.59.06-1.95-.38-.1-.34.43-.61.58-.24.22.05.51.01.81-.02.62-.08 1.26-.15 1.34.55.99 6.95.04 13.96-.37 20.93-.44 6.29-.31 12.6-.33 18.9-.11 3.82.86 7.87-.09 11.57-1.02-8.74-.72-17.62-.57-26.41Z"/>
            <path d="M141.51 8.15c-.39-.05-.8-.08-1.2-.07-.12 0-.27-.12-.21-.25-.22-.51 1.54-.1 1.74.04.19.19-.02.31-.21.31-.05 0-.1 0-.14-.02ZM141.71 140.5c.03-3.94.18-7.91-.19-11.86-.3-3.34.21-6.71.37-10.05-.02-13.5-.12-27 .24-40.49.04-8.19-.49-16.31-.54-24.48-.02-.13-.04-.26-.08-.38a.42.42 0 0 1-.12-.26.41.41 0 0 1 .08-.34c.17-.13.3.1.27.26.54 1.4.49 3.09.48 4.56.18 3.37.46 6.76.3 10.13.55 12.36-.23 24.76.02 37.13-.25 4.45.05 8.89 0 13.32-.14 3.75-.76 7.54-.32 11.28 0 .98.66 11.36-.28 11.37-.07 0-.15-.06-.25-.2Z"/>
            <path d="M12.87 141.24c-.98.06-1.95.29-2.93.15-.36-.03-.33-.67.03-.68 1.08.03 2.09-.28 3.16-.28 1.91.12 3.8.65 5.73.44 5.48-.57 11.01-.5 16.51-.78 6.35-.53 12.71-.28 19.07-.19 13.96.36 27.91.07 41.86.7 13.48-.22 26.97-.44 40.45 0 .72-.04 1.45-.03 2.18-.03 1.16.01 2.32.02 3.45-.16.45.06.38.87-.1.83-5.14.24-10.3.12-15.46 0-4.8-.11-9.61-.22-14.41-.04-8.68.26-17.36.09-26.04-.08-7.27-.14-14.54-.28-21.82-.17-6.92-.25-13.84-.31-20.77-.42-8.91.31-17.8.69-26.69 1.16-1.42-.01-2.83-.48-4.24-.45ZM9.71 9.17c-.49-.57-8.56-6.82-6.88-6.68 2.53 2.05 5.03 4.12 7.47 6.27.41.56-.17.81-.59.41ZM141.72 8.32c-1.12-.39 4.11-4.4 4.62-5.12.3-.21 2.03-2.02 2.02-1.21-.16.27-.46.52-.67.8-1.68 1.89-3.7 3.46-5.37 5.33-.13.18-.38.28-.6.2Z"/>
            <path d="M147.8 147.89c-2.07-1.54-3.66-3.71-5.4-5.58-.28-.38-1.52-1.13-.79-1.55.25-.06.43.16.58.32 2.01 2.14 3.92 4.35 5.88 6.53.19-.03.35.18.32.36-.11.29-.44.05-.59-.07ZM2.38 148.12c-.15-.17.08-.42.25-.46 2.31-2.26 5.11-4.03 7.18-6.51 2.95-.61-6.93 7.34-7.44 6.96ZM78.52 10.08c-11.92-.48-23.85-.95-35.78-.49-10.88-.49-21.8-.63-32.69-.31-.05.07-.14.1-.22.03-.02-.02-.04-.04-.05-.06-1.96-1.93 7.53-1.98 8.47-1.91 7.78.05 15.58-.07 23.33.46 4.16.08 8.31-.3 12.48-.19 14.03.2 28.04 1.03 42.08.59 5.68-.42 11.36-.34 17.06-.21 9.13-.49 18.26-.41 27.37-1 .8-.06 2.05-.03 1.89 1.09-.05.38-.36.86-.81.75-5.46-.13-10.92.71-16.4.48-5.71.02-11.42.67-17.12.34-9.87-.01-19.73.66-29.6.43Z"/>
            <path d="M10.01 140.91c-1.36-11.52-2.21-23.14-2.19-34.75.06-8.36 1.2-16.65 1.25-25-.1-12.57-.38-25.13.02-37.69-.03-6.68-.19-13.28.03-19.95.32-4.79.59-9.57.59-14.36.02-.35.21-.78.62-.78 1.03.21.49 1.7.67 2.45.12 9.18-.99 18.36-.49 27.55.2 6.38-.27 12.74-.22 19.11-.12 7.16.25 14.3.22 21.46.1 10.76-1.55 21.44-1.25 32.21.35 9.17.87 18.32 1.93 27.44.05.73.27 1.46.16 2.19-.08.32-.33.63-.68.63-.29 0-.56-.23-.65-.51Z"/>
            <path d="M108.42 142.22c-4.64-.15-9.17-1.04-13.78-1.17-6.95-.08-13.92.04-20.87.17-4.91 0-9.8-.3-14.7-.51-5.43.11-10.86.37-16.29.49-3.11.22-6.15-.64-9.25-.29-4.59.62-9.1.61-13.7.24-2.3-.1-4.59.36-6.89.26-.76-.09-1.72-.19-2.07-.96-.14-.37.18-.73.56-.71 4.56-.06 9.1-.63 13.67-.09 3.27.18 6.45-.45 9.69-.59 4.26.16 8.51.58 12.79.2 6.92-.31 13.81-.37 20.71.05 7.04.29 14.09-.15 21.14-.07 6.24-.29 12.44.75 18.62 1.18 4.91-.1 9.83-.22 14.73-.44 6.55-.34 13.13-.42 19.66-.01.94.05.96 1.75 0 1.79-11.34-.76-22.68.3-34.02.44Z"/>
            <path d="M141.9 141.31c-1.54-2.16-.85-5.21-1.14-7.75-.04-4.25-.02-8.52.42-12.76.45-2.9.73-5.82.64-8.75.09-8.15-.31-16.3-.28-24.45 0-5.47.49-10.93.54-16.4-.06-7.67.07-15.36-1.15-22.94-1.07-7.48-.28-15.04.49-22.5.14-3.07.56-6.14.43-9.22-.35-2.57-.29-5.16-.43-7.74-.05-.48.62-.98.94-.44.1-.04.2.03.23.13.05.14 0 .28-.08.39.26 2.95.67 5.89.79 8.84-.11 5.44-.81 10.83-1.25 16.24-.65 7.15.17 14.23 1.17 21.3.72 12.43-.31 24.86-.26 37.29.02 9.15.9 18.39-.26 27.49-.58 4.27-.53 8.61-.56 12.91.23 2.3-.19 4.74.61 6.91.3.61 0 1.84-.87 1.45ZM15.82 7.9c-1.44-1.66-2.56-3.65-3.85-5.39.14-1.41 3.76 4.92 3.85 5.39ZM26.09 9.21c-.43-.09-.7-.51-.95-.83-.93-1.56-1.64-3.28-2.63-4.78-.32.33-.43-.33-.4-.55.36-.81 1.15 1.08 1.38 1.36.89 1.6 2.07 3.08 2.6 4.8ZM36.91 8.61c-1.33-2.24-2.84-4.38-3.92-6.76-.36-.2.09-.79.3-.33.94 2.47 3.34 4.39 3.62 7.09ZM47.42 7.69c-.59-.45-3.47-6.72-1.92-6.37.17.11.12.41-.08.44.32 2.07 1.67 3.89 2 5.92ZM59.98 9.1c-.33-.67-4.02-7.69-2.39-7.26.14.11.09.37-.07.43.69 2.32 1.97 4.45 2.47 6.83ZM70.06 8.78c-.41-2.22-.17-4.48-.2-6.73 0-.11.07-.24.2-.24s.19.14.19.24c-.02 2.24.19 4.52-.18 6.74h-.01ZM82.21 3.48c.26 0 .26.49 0 .49s-.26-.49 0-.49Z"/>
            <path d="M82.16 9.06c-.47-1.62-.26-3.32-.3-4.99.02-.37-.19-2.17.52-1.33.04.12 0 .28-.13.31.07 1.99.45 4.06-.07 6.02ZM91.68 9.28c.45-2.21 1.66-4.15 2.55-6.2.07-.13.15-.3.32-.28.25 0 .26.44.04.48-.99 1.96-1.58 4.28-2.91 5.99ZM102.79 9.34c.54-2.43 2.35-4.35 3.04-6.7 0-.12.06-.28.2-.29.24.02.22.32.16.49-.8 2.26-1.77 4.77-3.39 6.5ZM114.57 9.31c.93-2.12 2.1-4.18 2.64-6.42-.24-.17.04-.74.31-.51.17.2.08.51.05.74-.5 2.21-1.51 4.54-3 6.19ZM127.22 7.53c1.21-2.17 2.71-4.17 4.3-6.05.11-.11.34-.13.41.03.09.14 0 .39-.2.37-1.44 1.92-2.7 4.03-4.51 5.67 0 0-.01-.01 0-.02ZM135.68 7.96c.69-2.3 2.65-3.95 3.95-5.91.31-.37.53-.87.98-1.07.21-.08.38.16.29.34-2.09 1.77-2.98 5.01-5.21 6.64Z"/>
            <path d="M127.7 7.03c.26 0 .26.49 0 .49s-.26-.49 0-.49ZM142.55 18.63c-.11-.22.09-.36.23-.49 1.73-1.75 3.19-3.85 5.22-5.26-.06 0 0-.04.03-.05.08.03.05.13.01.22-.77 1.74-2.51 2.77-3.74 4.16-.53.48-.95 1.05-1.49 1.51-.09.05-.2.01-.25-.09ZM141.59 30.56c-.14-.16-.04-.38.13-.48 1.83-1.28 3.55-2.74 5.6-3.67-1.52 1.55-3.77 3.34-5.72 4.14ZM141.41 40.28c-.32-.24.08-.58.36-.56 1.93-.87 3.77-2.26 5.75-2.86-1.75 1.36-3.67 2.39-5.65 3.33-.11.06-.32.17-.46.08ZM141.6 49.16c-.13-.02-.16-.21-.11-.31.1-.24.46-.24.66-.32 1.02-.27 1.98-.81 2.99-1.17.88-.32 1.89-.7 2.76-.84-1.91 1.26-4.08 2.18-6.3 2.63ZM142.59 58.58c-.21-.27.09-.54.38-.49.82-.04 1.63-.06 2.43-.17.88-.07 1.88-.25 2.7-.24-1.73.68-3.72.89-5.51.9ZM143.29 68.19c-.75-.7.76-.66 1.17-.8 1.63-.25 3.31-.92 4.96-.78-1.86.5-3.91 1.16-5.9 1.44-.03.09-.13.18-.23.14ZM144.52 77.68c-.66-.11-1.6.04-2.06-.51-.17-.27.2-.68.43-.37 1.99.42 4.07.03 6.1.03-1.36.49-2.96.86-4.47.84ZM145.46 86.66c-1.08-.06-2.18-.22-3.25-.33-.26 0-.26-.49 0-.49 1.97.32 4.01-.08 5.95.47-.78.36-1.81.4-2.7.35ZM145.16 95.28c-.41-.06-5.03-.14-3.69-.86 2.32.18 4.73.08 7.04.44-.98.39-2.25.43-3.35.43ZM147.43 105.41c-1.48-.01-3.02-.19-4.42-.52 1.53-.54 3.16.12 4.72.13.15-.17.51-.04.6.14.04.42-.64.21-.9.25ZM147.77 116.32a.568.568 0 0 1-.12-.26v-.04c-1.56.15-3.22-.08-4.63-.68.77-.1 1.55-.04 2.31.06.88.11 1.7.32 2.55.18.45.04.26.72-.11.73ZM148.06 126.05c-1.9-1.53-4.41-2.28-6.18-4.05 2 .39 3.66 1.93 5.41 2.95.27.18 1.39.83.77 1.11ZM147.73 135.29c-1.69-1.22-4.08-1.91-5.32-3.61 2.08.4 3.74 2.21 5.53 3.27.44.2.12.65-.21.34Z"/>
            <path d="M141.96 132.19s-.07-.11-.06-.17c.01-.09.09-.16.14-.23-.23-.29.27-.43.41-.18.25.27-.17.83-.49.58ZM18.83 148.59c-.35-.12-.29-.57-.19-.85.54-2.23 1.59-4.24 2.46-6.35.18-.3.12-1.49.6-1.19.11.66-.31 1.41-.43 2.09-.7 1.94-1.47 3.85-2 5.85-.03.22-.19.51-.45.45ZM31.09 148.18c-.19-.13-.22-.42-.13-.62.79-2.59 2.26-4.83 3.49-7.21.08-.33.38-.4.53-.07.21.22.11.71-.23.41-1.11 2.36-2.28 4.69-3.09 7.14-.08.22-.3.51-.56.35ZM44.74 147.35c-.86-.35.1-2.09.37-2.68.75-1.43 1.47-2.93 2.08-4.41.29-.3.62.37.23.46-.53 2.21-1.97 4.18-2.35 6.39-.06.13-.18.24-.33.23ZM58.51 147.95c-.15 0-.25-.13-.3-.27-.1-1.29.39-2.56.84-3.76.51-1.06.94-2.94 1.65-3.73.28-.03.34.44.08.5-.7 2.32-1.67 4.61-1.93 7.02-.06.13-.17.24-.33.23ZM72.52 148.32c-.27-.06-.29-.37-.31-.59-.12-1.27-.13-2.54 0-3.81.07-1.14.31-2.25.36-3.38 0-.12.1-.26.24-.22.44 2.27-.23 4.98.13 7.38.07.27-.07.69-.41.63ZM84.42 147.76c-.21-.13-.21-.4-.19-.62.14-2.15.79-4.26.82-6.41-.06-.24.2-.62.38-.3.08.27-.04.57 0 .86.2 1.93-.31 3.81-.48 5.72.02.31-.09.96-.54.75ZM95.87 148.4c-1.13-.97-.72-2.83-1.03-4.18-.12-1.07-.18-2.16.01-3.22.02-.1.09-.2.21-.19.13 0 .19.14.18.25-.03 1.92.46 3.86.62 5.78.12.55.49 1.06.19 1.59-.05.03-.14-.02-.18-.03ZM107.21 148.63c-.49-.27-.65-.93-.91-1.4-.81-1.78-2.26-3.22-3.06-5.03-.2-.36-.4-.71-.65-1.02-.13-.06-.16-.28-.06-.39.27-.27.5.27.64.45 1.23 2.13 3.13 3.82 4.05 6.12.1.24.3.43.41.66.08.25-.1.67-.41.59ZM119.04 147.85c-.49-.09-.84-.51-1.21-.81-1.49-1.79-3.25-3.43-4.18-5.6-.31.04-.25-.5.02-.52.11-.02.21.09.26.17.31.59.65 1.15 1.1 1.65 1.28 1.29 2.39 2.73 3.68 3.97.47.26 1.07 1.31.33 1.15ZM130.74 148.12c-.76-.64-1.23-1.51-1.89-2.23-1.48-1.28-2.55-2.9-3.39-4.66-.12-.22-.41-.59-.12-.79.28-.09.31.4.47.57 1.35 2.15 3.3 3.86 4.83 5.87.19.21.42.38.59.61.23.31-.12.94-.5.63ZM141.44 148.56c-2.43-1.97-5.03-3.9-6.63-6.66-.19-.29-.41-.64-.75-.71-.39-.12-.12-.69.27-.42 1.56 1.13 2.43 3 4 4.13 1.2.9 2.3 2.04 3.51 2.9.37.28.07 1.03-.41.75ZM10.34 20.21s-.1-.02-.14-.03c-.08-.02-.17-.07-.19-.15-2.3-1.01-4.51-2.2-6.79-3.23-.37-.04-.86-.48-.38-.75.19-.09.39-.02.57.05 2.24.97 4.37 2.17 6.47 3.41.25.21.81.22.85.58-.04.17-.26.16-.39.12ZM9.45 33.98c-.11 0-.26-.13-.23-.24-2.12-.89-3.98-2.37-6.18-3-.17-.06-.37-.2-.36-.4.63-1.16 4.41 1.75 5.32 2.19.3.29 2.66 1.24 1.46 1.45ZM9.81 48.37c-2.47-1.26-4.99-2.42-7.42-3.74-.11-.12-.18-.33-.03-.45.24-.18.56-.07.8.06 2.02 1.05 4.11 1.98 6.02 3.22.33.32.76.49 1.1.75.16.3-.35.38-.48.16ZM9.15 60.31l-.05-.02c-.59-.39-8.52-2.34-6.91-3.06 2.5.53 4.84 1.87 7.24 2.77.47.19 0 .62-.28.3ZM9.38 72.47c-2.15-.18-4.36-.48-6.47-.84-.27.02-.7-.05-.73-.38 0-.13.11-.24.22-.29 1.3-.19 2.59.39 3.88.53.42.17 4.14.44 3.4 1.01-.1.04-.21.04-.3-.03ZM9.04 83.73c-2.11.12-4.25-.08-6.32-.26-.25.02-.56-.07-.61-.35 0-.51.65-.36.98-.36 1.97.22 3.92.46 5.9.58.16 0 .38.02.48.16.19.3-.27.54-.43.23ZM2.15 96.98c-1.35-.43 1.32-1.7 1.74-2.02 1.75-1.08 3.28-2.58 5.21-3.34.03-.24.46-.23.53-.01.07.2-.17.29-.3.39-2.19 1.63-4.35 3.22-6.62 4.73-.14.16-.34.28-.56.25ZM1.73 109.19c-1.34-.43 1.23-1.51 1.59-1.9 1.67-1.43 3.12-3.12 5.1-4.15-.18-.4.97-.15.54.21-1.46.78-2.5 2.17-3.69 3.28-.89.9-2.38 2.16-3.54 2.55ZM2.18 120.03c-1.06-.64 2.43-2.85 2.92-3.42.99-1.03 2.76-1.51 3.27-2.9-.2-.22.18-.41.35-.24.46.57-.48 1.32-.77 1.81-1.61 1.55-3.62 2.77-5.06 4.48-.12.27-.43.43-.71.29ZM7.26 3.66c-1.25-.06-2.53-.07-3.72-.5-.12.16-.29.03-.37-.1-.16-.13-.34-.41-.14-.58.09-.11.24-.23.38-.22 2.6-.07 5.26-.11 7.84-.36 3.47-.49 6.94-.81 10.45-.42 2.43-.12 4.82-.04 7.24.28 6.74-.52 13.48-.84 20.26-.6 2.77.09 5.53-.17 8.3-.16 1.75.16 3.57.53 5.31.33 5.55-.82 11.11-.03 16.66-.18 8.58-.61 17.11.32 25.69.3 7.05-.07 14.1-.12 21.12.24 7.13-.26 14.25-1.01 21.39-.89.68.1 1.5-.19 1.54.71 0 .29-.19.68-.53.67-1.15-.06-2.3.02-3.45.01-6.77.08-13.52.69-20.28.97-5.35-.65-10.75-.22-16.13-.24-6.92.1-13.82-.38-20.72-.57-4.43.11-8.85.38-13.28.29-3.97-.16-8.01-.61-11.96-.06-2.8.21-5.57-.53-8.37-.15-7.65.27-15.35-.59-22.96.59-2.27.34-4.52-.17-6.79-.2-2.64.25-5.27-.04-7.91-.02-3.21.1-6.35.99-9.56.88Z"/>
            <path d="M2.94 148.47c-.45-.19-.56-.71-.53-1.15-.05-4.6-.31-9.23-.3-13.83-.78-10.64-1.39-21.27-1.33-31.95C.32 89.16.61 76.78.7 64.39c-.08-6.13.64-12.2.56-18.33.27-6.02 1.12-12.01 1.2-18.03.24-7.97-.79-15.93-.36-23.89.15-.72.15-1.71.92-2.04.34-.16.76.11.63.51-.45.87-.25 1.83-.28 2.78 0 6.45.52 12.87.52 19.3.12 6.49-.62 12.93-1.11 19.39-.55 13.84-.8 27.69-.89 41.55.02 7.27.38 14.52.36 21.79.19 5.53-.04 11.05.75 16.53.46 7.74.66 15.5.83 23.25.06.57-.18 1.46-.9 1.28Z"/>
            <path d="M141.8 149.27c-15.1-1.13-30.23-.56-45.37-.6-7.83-.05-15.65-.13-23.48-.16-6.26-.67-12.45-.79-18.73-.88-10.57-.04-21.13.61-31.7.69-2.52-.03-5.04.27-7.55.17-1.55-.16-3.1-.44-4.67-.4-2.29-.14-4.86.25-6.93-.86-.62.36-.67-.35-.09-.48.53-.56 1.49-.13 2.19-.23 3.42-.02 6.81-.23 10.21.23 10.24-.23 20.47-.59 30.71-.8 8.99-.22 17.99-.06 26.94.79 4.53.19 9.06-.22 13.59.08 12.99.24 25.99-.15 38.98.02 3.74.03 7.57-.13 11.22.43 3.71.32 7.44.23 11.17.18.26 0 .48.19.6.41.3.5.03 1.35-.6 1.38-2.17 0-4.32.07-6.49.03Z"/>
            <path d="M147.42 148.33c-.39-.47-.28-1.08-.2-1.63.36-2.15.25-4.32.43-6.48.42-2.94.67-5.88.42-8.84-1.15-17.8-.33-35.65-.07-53.47.22-5.76-.53-11.59-.5-17.33-.3-3.09-.73-6.17-.75-9.28-.08-6.72.73-13.43.72-20.16-.13-8.9.74-17.81.67-26.7-.02-.98-.26-2.06.2-2.97.08-.13.27-.13.36 0 .76 1.61.87 3.4.89 5.15-.17 7.87-.74 15.73-.68 23.61 0 6.74-.61 13.47-.78 20.19.1 3.26.39 6.46.77 9.69.07 4.81.37 9.61.58 14.41-.15 10.53-.48 21.06-.51 31.59-.39 9.57.32 19.12.62 28.68 0 3.04-.75 6.02-.65 9.06-.19 1.5-.03 5.47-1.51 4.48Z"/>
            <path class="e" d="M147.5 60.58c-.01 2.03.08 4.08.19 6.12-1.08.17-2.16.52-3.23.68-.2.06-.65.09-.98.17.03-3 .02-6-.09-9 1.26-.05 2.59-.22 3.84-.59.09.87.19 1.74.27 2.6ZM147.71 67.09c.17 3.26.38 6.52.32 9.77-1.59.07-3.2.27-4.76.02.08-2.92.16-5.83.2-8.74.02-.02.04-.05.05-.08 1.4-.2 2.82-.58 4.19-.97ZM148.02 77.14c0 .25-.01.51-.02.76-.04 2.77-.1 5.55-.15 8.33-1.57-.37-3.2-.17-4.81-.3.05-2.79.14-5.58.22-8.38.42.07.89.05 1.27.11 1.16.01 2.38-.21 3.5-.53ZM147.84 86.44l-.18 8.3c-1.54-.17-3.11-.18-4.67-.24-.01-.65-.02-1.3-.02-1.95 0-2.04.01-4.08.05-6.12.81.09 1.62.19 2.43.24.78.04 1.66.02 2.39-.22ZM147.66 95.1c-.06 3.3-.13 6.61-.16 9.91-1.41-.06-2.86-.58-4.24-.21-.08-3.23-.21-6.45-.26-9.67.95.09 1.97.12 2.15.15.8 0 1.7-.02 2.5-.18ZM147.5 115.62c-.72.04-1.42-.13-2.17-.22-.71-.09-1.45-.15-2.17-.07.21-3.46.19-6.92.11-10.39 1.33.3 2.78.45 4.17.47h.07c-.03 3.41-.04 6.81 0 10.22ZM147.51 116.03c.04 3.07.12 6.14.25 9.21-.18-.14-.37-.25-.46-.31-1.58-.91-3.07-2.24-4.81-2.79.06-.71.14-1.41.24-2.11.2-1.54.33-3.09.43-4.65 1.33.55 2.89.76 4.36.64ZM147.78 125.82c0 .14 0 .27.02.41-.22 2.74-.46 5.49-.22 8.23 0 .1.02.19.02.28-1.64-1.06-3.19-2.64-5.1-3.04a.236.236 0 0 0-.06-.09.254.254 0 0 0-.12-.11c-.05-1.11-.09-1.93-.09-2.17-.02-.14-.03-.27-.04-.41.03-2.14.08-4.28.26-6.41 1.62 1.34 3.66 2.08 5.32 3.31ZM147.83 138.89c-.05.44-.11.89-.18 1.33-.18 2.14-.06 4.3-.42 6.43-1.48-1.66-2.95-3.33-4.46-4.97.48-.29.51-1.15.1-1.52-.02-.11-.05-.21-.09-.3-.16-.44-.27-.89-.35-1.34.08-1.8 0-4.38-.08-6.36.1-.08.16-.21.17-.34 1.24 1.57 3.49 2.26 5.12 3.41.1 1.22.16 2.44.18 3.66ZM147.15 147.37v.1c-1.91.03-3.82.06-5.73.02-1.05-.81-2.02-1.79-3.08-2.58-1.27-.91-2.08-2.3-3.16-3.4 2.22.02 4.43.09 6.64.23.22.22.48.42.59.57 1.55 1.68 2.98 3.58 4.74 5.06ZM140.06 147.45c-.98-.03-1.95-.09-2.93-.17-2.12-.33-4.31-.41-6.5-.43-1.38-1.79-3.08-3.36-4.39-5.21 2.76-.08 5.52-.14 8.28-.13.11.13.2.27.29.4 1.3 2.24 3.26 3.93 5.25 5.54ZM128.85 145.89c.27.3.52.62.76.95-1.24 0-2.48.01-3.71 0-2.35-.03-4.7-.05-7.04-.05-.05-.04-.09-.07-.14-.1-1.3-1.24-2.41-2.68-3.68-3.97-.19-.21-.36-.43-.52-.66 3.72-.13 7.43-.3 11.15-.42.81 1.6 1.82 3.06 3.19 4.24ZM113.97 142.09c.93 1.76 2.37 3.2 3.66 4.71-3.55 0-7.1.03-10.65.06-.87-1.84-2.34-3.3-3.45-5.01 1.62.17 3.25.32 4.89.37 1.85-.02 3.7-.07 5.55-.13ZM103.24 142.2c.75 1.68 2.05 3.04 2.89 4.66-3.42.02-6.83.05-10.25.04 0-.02-.02-.05-.02-.07-.16-1.84-.61-3.71-.62-5.56 1.13.02 2.26.03 3.39.03 1.46.14 2.92.32 4.38.48.08.14.16.27.24.41ZM94.84 144.22c.18.81.11 1.8.27 2.68-2.73 0-5.47-.02-8.2-.08-.65-.04-1.29-.07-1.94-.09.19-1.81.63-3.61.45-5.44v-.19c.32 0 .64.01.96.02 2.81.06 5.62.11 8.43.15-.13.97-.08 1.97.03 2.95ZM83.19 141.06l1.84.03c-.09 1.88-.6 3.74-.78 5.62-3.65-.05-7.29.18-10.94.02-.16-.02-.33-.03-.49-.05-.09-1.81.22-3.74.08-5.48h.87c3.14-.06 6.28-.12 9.42-.16ZM72.51 141.21c-.09.9-.25 1.8-.3 2.71-.09.9-.11 1.81-.07 2.71-4.32-.38-8.65-.61-12.98-.71.4-1.72 1.05-3.39 1.57-5.08 1.21.03 2.43.07 3.64.11 2.71.13 5.43.23 8.15.26ZM60.27 140.83c-.48.92-.83 2.26-1.23 3.1-.24.64-.49 1.3-.66 1.98-4-.08-8-.06-12 .04-.34 0-.68.02-1.02.02.53-1.65 1.48-3.21 1.96-4.9 3.31-.11 6.61-.24 9.92-.32 1.01.02 2.02.04 3.03.07ZM46.84 141.09c-.53 1.21-1.11 2.42-1.73 3.58-.13.28-.41.8-.57 1.32-4.11.09-8.22.2-12.33.32.72-1.84 1.59-3.62 2.44-5.42.36-.02.72-.03 1.08-.04 2.35.07 4.69.53 7.06.36 1.35-.03 2.7-.07 4.05-.11ZM33.41 140.93l.74-.03c-.95 1.8-2.01 3.53-2.76 5.42-3.89.11-7.78.22-11.67.32.47-1.47 1.04-2.9 1.56-4.36.04-.27.13-.54.22-.82.69-.03 1.38-.07 2.08-.1 3.28.11 6.53 0 9.83-.44ZM17.11 141.7c1.32-.07 2.64-.14 3.96-.2-.72 1.73-1.55 3.39-2.12 5.17-1.09.03-2.18.05-3.27.08-3.39-.46-6.79-.25-10.21-.22-.16.02-.33.02-.51 0 2.22-1.69 5.12-4.22 5.39-5.09.61.03 1.22-.06 1.84-.13.25.05.52.08.76.11.57.03 1.14.02 1.7-.01.82.13 1.64.29 2.46.29ZM9.64 140.23c.04.31-.09.79.05 1.06-1.67 1.96-3.79 3.47-5.75 5.16-.03 0-.07 0-.11.01-.17-7.51-.37-15.02-.82-22.52-.19-1.3-.32-2.61-.41-3.92.12-.06.22-.16.28-.29 1.43-1.71 3.45-2.93 5.06-4.48 0-.02.02-.03.03-.05.25 7.26.81 14.51 1.59 21.72.02 1.1.05 2.2.08 3.3ZM7.86 104.12c-.02.68-.03 1.36-.04 2.05 0 2.75.04 5.49.13 8.24-.74.89-2.05 1.36-2.85 2.2-.3.36-1.75 1.34-2.56 2.19-.18-3.28-.15-6.56-.22-9.85 1.05-.53 2.22-1.55 2.97-2.3.87-.81 1.65-1.76 2.58-2.52ZM8.52 92.59c-.26 3.62-.54 7.24-.65 10.87-1.71 1.03-3.04 2.54-4.55 3.84-.14.14-.6.4-1.04.67 0-.18 0-.36-.02-.55.01-3.49-.07-6.97-.16-10.45h.03c.22.04.42-.08.56-.24 1.99-1.32 3.9-2.72 5.82-4.14ZM8.98 83.73l-.03 1.88c-.09 2.08-.23 4.16-.38 6.24-1.69.8-3.09 2.12-4.69 3.11-.25.19-1.27.71-1.79 1.19l-.06-2.42c.05-3.46.14-6.91.23-10.37.13.09.3.12.45.11 2.06.19 4.17.38 6.27.27ZM8.98 72.44c.03 2.31.05 4.63.07 6.94-.02 1.32-.05 2.63-.06 3.95-1.97-.12-3.93-.36-5.9-.58-.22 0-.59-.06-.81.05.09-3.75.16-7.5.13-11.25.15.08.35.1.51.08 1.98.34 4.04.62 6.06.81ZM8.89 60.2c0 3.92.05 7.84.09 11.76-.95-.22-2.44-.36-2.69-.47-1.29-.14-2.58-.72-3.88-.53 0-.77-.02-1.54-.03-2.31.09-3.57.04-7.16.03-10.75 1.33.8 5.43 1.88 6.49 2.3ZM8.98 47.95c-.08 3.95-.1 7.9-.09 11.84-2.14-.86-4.26-2-6.49-2.51v-1.59c.1-3.62.22-7.24.36-10.86 2.04 1.09 4.14 2.08 6.21 3.12ZM9.09 43.47c-.04 1.29-.08 2.58-.1 3.87-1.86-1.18-3.87-2.09-5.82-3.1-.11-.06-.24-.12-.38-.15v-.02c.33-4.36.78-8.72.99-13.09 1.82.68 3.44 1.87 5.23 2.66.02 3.27.07 6.53.08 9.82ZM9.35 19.73c-.07 1.26-.15 2.52-.24 3.79-.11 3.21-.12 6.41-.11 9.61-.43-.24-.9-.48-1.02-.59-.66-.32-2.79-1.91-4.17-2.35.08-1.82.11-3.65.08-5.49 0-2.55-.08-5.11-.18-7.66 1.89.87 3.74 1.84 5.63 2.7ZM9.7 9.18v.58c-.53 1.17-.12 2.73-.16 4 .03.22.05.45.07.67-.06 1.6-.13 3.19-.22 4.79-1.86-1.08-3.74-2.13-5.7-2.99-.14-3.61-.31-7.22-.3-10.84.02-.59-.05-1.17 0-1.74 1.66 1.7 5.5 4.73 6.23 5.42.02.04.05.08.09.12ZM12.48 3.23c.96 1.36 1.84 2.82 2.89 4.13-2.11.09-4.71.34-5.57.95a227.28 227.28 0 0 0-6.07-5.1c1.14.37 2.34.38 3.53.44 1.76.06 3.49-.18 5.22-.42ZM22.51 3.6c.78 1.18 1.39 2.5 2.06 3.76-2.11 0-4.22 0-6.33-.02-.29-.02-1.36-.03-2.67.02-.51-.99-1.71-3.04-2.58-4.2.71-.1 1.41-.19 2.12-.27h.02c1.49 0 2.98-.03 4.47-.06.87.03 1.74.06 2.61.06-.04.03-.07.08-.1.15-.03.23.08.88.4.55ZM33.42 2.74c.84 1.66 1.86 3.22 2.84 4.8-3.66-.13-7.33-.16-10.99-.17-.55-1-1.22-1.95-1.78-2.96-.17-.21-.65-1.29-1.03-1.52.76 0 1.52-.03 2.28-.1 2.27.03 4.51.54 6.79.2.63-.1 1.27-.18 1.9-.25ZM45.11 2.38c.32 1.73 1.9 4.99 2.32 5.31-2.12 0-4.23.02-6.35.08-1.46-.1-2.92-.17-4.38-.22-.55-1.76-1.9-3.23-2.83-4.86 3.73-.39 7.48-.37 11.24-.31Z"/>
            <path class="e" d="M57.18 2.32c.04 1.08 1.27 3.72 2.09 5.39-1.74-.04-3.48-.08-5.22-.1-2.1-.06-4.19.02-6.29.09h-.34c-.29-1.82-1.42-3.48-1.87-5.3 2.98.05 5.96.12 8.93.01.9-.12 1.8-.13 2.7-.08ZM64.37 2.39c1.83.04 3.66.08 5.49.13 0 1.83-.15 3.66.07 5.48-3.44-.09-6.89-.2-10.33-.28-.6-1.82-1.52-3.54-2.07-5.38 1.78.1 3.54.35 5.32.22.51-.07 1.01-.13 1.52-.16ZM81.86 4.07c.03 1.4-.11 2.82.13 4.21-3.94-.06-7.87-.16-11.81-.28.2-1.81.08-3.65.08-5.47 3.88.09 7.75.19 11.63.27-.08.39-.01 1.06-.02 1.28ZM94.3 2.97s-.05.08-.06.11c-.75 1.74-1.74 3.39-2.3 5.2-3.2.05-6.41.04-9.61 0 .22-1.42.06-2.89-.04-4.33.16-.09.14-.4-.03-.46-.01-.15-.02-.3-.02-.44.11-.03.15-.14.14-.24 3.97.08 7.94.14 11.92.17ZM104.01 2.88c.58.01 1.15.02 1.73.02-.58 1.76-1.75 3.28-2.48 4.99-2.38.03-4.75.13-7.13.3-1.26.04-2.52.07-3.79.09.9-1.55 1.44-3.4 2.25-4.99.13-.03.18-.18.15-.31 2.16.02 4.33.02 6.49 0 .93-.03 1.85-.07 2.78-.1ZM117.13 2.77s.04.09.08.11c-.41 1.74-1.21 3.37-1.98 5-.68.03-1.35.06-2.03.1-3.1-.08-6.19-.13-9.28-.1.98-1.52 1.66-3.31 2.25-4.98h2.66c2.77 0 5.54-.1 8.31-.12ZM130.4 2.85c-1.17 1.47-2.26 3.02-3.17 4.67-3.86.09-7.72.18-11.58.35.91-1.43 1.55-3.12 1.92-4.76.01-.11.04-.23.05-.35 2.45 0 4.9.07 7.34.36 1.82-.08 3.63-.17 5.45-.28ZM139.43 2.34c-1.14 1.63-2.69 3.07-3.48 4.9-2.73.12-5.45.2-8.18.27.17-.07.17-.4-.01-.46 1.27-1.28 2.27-2.78 3.3-4.23 2.79-.16 5.58-.34 8.37-.47ZM147.57 2.12c-.5.38-1.08.97-1.24 1.08-.36.51-3.06 2.65-4.23 4.01-.4-.25-1.05-.25-1.54-.21-1.35.09-2.69.16-4.04.22 1.33-1.4 2.18-3.38 3.41-4.9 1.76-.08 3.52-.13 5.28-.16.78 0 1.57-.03 2.35-.03ZM148.14 5.39c0 2.48-.06 4.97-.16 7.45-.02.01-.04.03 0 .04-1.81 1.26-3.17 3.08-4.67 4.69-.08-1.79-.26-3.57-.45-5.35-.06-1.13-.16-2.27-.31-3.4.07-.1.1-.22.05-.35a.276.276 0 0 0-.11-.13c-.02-.06-.03-.13-.06-.17 0-.03.02-.06.02-.1 0-.05.01-.09.01-.14 1.64-1.8 3.59-3.33 5.22-5.16.06-.08.13-.16.2-.24.12.95.2 1.89.26 2.84ZM147.97 13.16c-.1 2.66-.23 5.31-.33 7.97-.13 1.76-.26 3.53-.36 5.3-1.75.8-3.27 1.99-4.82 3.12.36-3.77.74-7.53.84-11.32.32-.34.63-.7.98-1.01 1.21-1.36 2.91-2.37 3.69-4.05ZM147.29 26.44c-.05 1-.1 1.99-.12 2.98-.04 2.53-.1 5.07-.14 7.61-1.77.65-3.44 1.86-5.18 2.66-.01-1.91.05-3.82.23-5.73.1-1.26.22-2.52.34-3.78 1.73-.9 3.57-2.4 4.88-3.73ZM147.03 37.23c-.03 1.92-.05 3.84-.04 5.76-.07 1.27-.13 2.54-.17 3.8-.57.17-1.15.39-1.69.58-.92.33-1.81.82-2.75 1.1-.3-2.75-.5-5.5-.54-8.26h.02c1.81-.87 3.55-1.8 5.16-2.98ZM146.8 47.19c-.04 1.37-.06 2.74-.05 4.11 0 2.16.22 4.3.44 6.43-.59.06-1.22.15-1.8.19-.68.09-1.35.12-2.03.15-.03-.94-.08-1.88-.13-2.82-.3-2.09-.58-4.19-.81-6.29 1.52-.39 3-1 4.37-1.78Z"/>
        </g>
    </g>
</svg>
