<svg xmlns="http://www.w3.org/2000/svg" viewBox="0 0 290 36.47">
    <defs>
        <clipPath id="a">
            <path style="fill:none" d="M0 0h290v36.47H0z"/>
        </clipPath>
    </defs>
    <g style="clip-path:url(#a)">
        <path d="M256.18 3.4h-4.97c-21.28-1.18-42.62-.37-63.92-1.1-11.96-.36-23.93-.64-35.89-.14-4.75.2-9.5.14-14.25.07-3.3-.05-6.59-.09-9.89-.04-3.77 0-7.54.05-11.31.11-4.34.07-8.69.13-13.03.1-4.45.14-8.89.08-13.34.02-3.8-.05-7.6-.1-11.41-.02-11.14.27-22.28.95-33.4.04-7.18-.42-14.38.22-21.56.47-.01-.38-.03-.76-.04-1.15 1.06-.1 2.12-.18 3.19-.22 9.37-.64 18.73-.29 28.1.14 7.06-.23 14.12-.48 21.19-.61 5.75-.04 11.51-.03 17.27-.02 10.57 0 21.16.02 31.74-.22 6-.12 11.99.03 17.98.27 4.79-.04 9.58-.39 14.37-.5 13.28-.35 26.55.41 39.82.74 26.3-.1 52.58.87 78.87.91.55-.03 1.17-.14 1.43.44-.12.34-.48.55-.84.55-5.72.15-11.45.17-17.17.17h-2.97ZM17.61 35.48C8.65 35.06.25 26.94.8 17.78c.03-.16-.2-.36-.06-.52.17-.16.45-.06.49.17.38 2.29.82 4.59 1.83 6.69 1.68 4.28 5.31 7.64 9.45 9.47 3.71 1.34 7.7.98 11.55 1.41-2.05.4-4.31.75-6.45.48Z"/>
        <path d="M.94 18.99c-.05-.13-.04-.29-.05-.39-.5-5.87 2.69-12.35 8.03-15.05 2.49-1.28 5.31-1.58 8.08-1.53 2-.12 4-.43 6.01-.15.95.05 1.95.13 2.77.5-1.06.31-2.13.68-3.26.55-1.87-.34-3.67.04-5.54.07-2.5-.1-5.12.31-7.38 1.37-5.48 2.46-7.79 8.68-8.3 14.28.18.22-.18.68-.36.35ZM287.27 18.7c.01-.26.48-.26.5 0-.01.26-.48.26-.5 0Z"/>
        <path d="M287.53 19.44c-.12 0-.23-.11-.21-.24-.4-2.68-1.28-5.33-2.57-7.72-1.88-3.3-4.66-6.42-8.13-8.02-.51-.11-1.01-.31-1.38-.69.23-.17.54-.29.84-.34 1.57-.04 2.74 1.33 3.97 2.13 1.59 1.35 3.31 2.53 4.58 4.21 2.13 2.99 4.06 6.71 3.19 10.46 0 .15-.17.22-.29.2Z"/>
        <path d="M287.05 14.57c-.02-.32.39-.33.39-.02.02.32-.39.33-.39.02Z"/>
        <path d="M273.02 35.88c-.34-.08-.75-.18-1.03-.32.65-.37 1.29-.8 2.01-1.04 1.98-.44 3.9-1.05 5.54-2.26 2.97-2.73 5.59-6 6.89-9.83.93-2.88.47-5.86-.3-8.69-.45-.82.29-.9.43-.07 3.19 5 1.27 11.58-2.49 15.71-2.71 3.2-6.54 6.84-11.04 6.5Z"/>
        <path d="M182.29 36.13c-1.95-.06-3.9-.09-5.85-.23-.32 0-.64-.1-.83-.38-.04-.06-.15-.17-.06-.24.23-.36.67-.43 1.06-.38 12.35.34 24.72-.67 37.06-.19 15.1-.01 30.17-.01 45.25-.09 6.08-.68 12.53 1.35 18.36-.83.15-.46.73.07.31.35-3.29 1.91-7.04 1.82-10.72 1.85-7.17-.17-14.4-.06-21.56-.1-9.58-.12-19.1-.01-28.67.1-11.48-.39-22.88-.03-34.35.14Z"/>
        <path d="M175.5 35.45c-.02-.31.39-.36.39-.03.02.31-.39.36-.39.03ZM176.11 35.53c-.02-.31.39-.36.39-.03.02.31-.39.36-.39.03ZM177.77 35.36c-.02-.31.39-.36.39-.03.02.31-.39.36-.39.03ZM179.05 35.49c-.02-.31.39-.36.39-.03.02.31-.39.36-.39.03ZM182.21 35.1c-.02-.31.39-.36.39-.03.02.31-.39.36-.39.03Z"/>
        <path d="M181.95 35.44c-.02-.31.39-.36.39-.03.02.31-.39.36-.39.03Z"/>
        <path d="M170.24 36.08c-6.81-.16-13.61-.88-20.43-.83-14.3.03-28.59.38-42.88.73-12.22-.04-24.46-.87-36.67-.88-12.49.51-24.98.26-37.47.69-2.56.27-5.11.05-7.67.08-.73.15-1.48.05-2.12-.34 1.08-.82 2.57-.85 3.9-.82 7.16 0 14.31-.41 21.48-.29 7.67.22 15.28-.18 22.94-.31 12.7-.16 25.41.8 38.09.6 4.22-.28 8.45-.06 12.68-.18 4.1-.31 8.19-.46 12.3-.35 9.38-.44 18.76-.21 28.12.31 3.06.09 6.16.37 9.21.36 3.66-.19 7.58-.72 11.13.28.21.14.02.59-.22.43l-.09-.06c-4.08-.98-8.21.54-12.29.58Z"/>
        <path d="M24.67 35.7c-2.26-.11-4.48-.6-6.73-.69.29.32-.18.61-.38.28-.04-.17-.2-.25-.25-.41-.29-.06-.2-.43.08-.39 1.17.12 2.33.16 3.5.18.33.07 3-.21 2.13.44.57.01 3.89.4 1.65.59Z"/>
        <path d="M22.88 35.87c-2.34-.04-4.65-.47-6.99-.61-.15-.02-.31-.17-.21-.33.13-.17.37-.1.55-.1.49-.22 1.13 0 1.66-.04.01-.09.12-.15.2-.16 1.74.09 3.46.19 5.19.22.6.2 5.67-.39 4.61.69.19.04.48 0 .61.07-1.89.04-3.75.27-5.63.25Z"/>
    </g>
</svg>
