<svg xmlns="http://www.w3.org/2000/svg" viewBox="0 0 360 225.86">
    <defs>
        <clipPath id="d">
            <path class="j" d="M6.59 16.16H354.8v196.52H6.59z"/>
        </clipPath>
        <clipPath id="e">
            <path class="j" d="M0 0h360v225.86H0z"/>
        </clipPath>
        <clipPath id="f">
            <path class="j" d="M134.46 11.6h91.58v33.07h-91.58z"/>
        </clipPath>
        <style>
            .j{fill:none}
        </style>
    </defs>
    <g id="b">
        <g id="c">
            <g style="clip-path:url(#d)">
                <path d="M7.1 209c-.25-32.65.86-65.33 1.16-98 .06-18.66-.29-37.32.08-55.98.55-12.34.86-24.7.82-37.07l.21-.36c.09-.15.18-.31.28-.46.29-.08.57-.16.86-.25.02.34.02.67.03 1.01.45 16.49-.94 32.95-.86 49.44.04 31.01.12 62.01-.8 93-.09 15.84-.41 31.66-.38 47.5 0 .35.04.71-.04 1.05-.08.32-.31.75-.7.75-.34 0-.56-.34-.66-.63ZM351.69 135.2c.61-38.52-.02-77.05.3-115.57-.12-.63.56-1.62 1.19-.95.49.59.2 1.43.27 2.13-.55 51 1.11 102.05-1.46 153-.17 0-.34.02-.51.02-.3.02-.6.04-.9.05.39-12.89 1.35-25.77 1.11-38.68Z"/>
                <path d="M290.77 211.99c-12.35-.09-24.7-.19-37.05-.04-25.77-.38-51.54-.7-77.31-.31-8.9.16-17.76-.86-26.65-.94-6.39.04-12.77-.1-19.15-.24-6.72-.14-13.45-.29-20.17-.23-11.66.09-23.31-.07-34.96-.31-5.67-.03-11.34.04-17.01.09-6.27.07-12.53.13-18.8.09-4.16-.11-8.32.07-12.47.24-3.77.16-7.53.32-11.3.27-2.63-.06-5.32.1-7.89-.45-.21-.07-.42-.34-.24-.55.03-.2.2-.19.36-.18h.14c5.43-.33 10.89-.14 16.32-.41 6.62-.49 13.26-.44 19.91-.39 3.61.02 7.23.05 10.84 0 13.34-.42 26.67.04 40.01.15h7.73c7.41 0 14.83-.01 22.25.08 8.24.31 16.48.37 24.73.39 7.07.06 14.11.75 21.18.91 15.17-.11 30.35-.2 45.52-.06 10.07-.04 20.13.04 30.2.35 6.16.07 12.34.03 18.5-.02 5.95-.04 11.9-.08 17.86-.02 5.54.23 11.08.22 16.62.21h5.59c3.64-.04 7.3-.03 10.96-.01h.8c-.02.15-.03.3-.04.45v.11c-.04.14-.07.29-.11.43-.04.17-.09.34-.12.51h-2.85c-7.8 0-15.6-.06-23.4-.12ZM350.15 19.79c-5.91 0-11.81-.03-17.72-.07-6.56-.04-13.13-.07-19.7-.11-13.22-.07-26.43-.14-39.65-.22-13.47-.07-26.94-.15-40.4-.22-13.7-.07-27.4-.15-41.1-.23l-39.43-.21c-13.42-.07-26.84-.15-40.27-.22-13.36-.07-26.73-.15-40.09-.22l-38.99-.21c-5.87-.04-11.75-.07-17.62-.1-.8 0-1.61-.01-2.41-.01-.39 0-.85-.22-.95-.63-.12-.51.4-.85.85-.85 2.14 0 4.28.02 6.42.04 6.42.04 12.84.07 19.25.11l38.94.21c13.41.08 26.83.15 40.24.22 13.52.07 27.04.15 40.55.22 13.13.07 26.26.15 39.39.22 13.74.07 27.48.15 41.23.23 13.56.08 27.12.15 40.67.22 13.15.07 26.3.14 39.44.22 10.74.06 21.47.09 32.21.21.27 0 .58.11.76.32.08.06.16.12.23.19h.24c.11 0 .25.07.26.2 0 .13-.12.2-.23.2h-.24c-.07.07-.14.13-.21.19-.16.2-.45.3-.7.3h-.96Z"/>
                <path d="M10.1 18.41c-.51-.37-.3-1.1.16-1.45.21-.06.43-.13.64-.2.08-.03.17-.05.25-.08.67-.13 1.62-.28 2.02.02.54.52-.13 1.37-.77 1.38-.59.07-1.22.4-1.82.4-.16 0-.32-.02-.48-.08ZM315.62 211.54c.44-.89 1.92-1.11 2.71-1.73 1.66-.85 3.04-1.97 4.33-3.28 5.55-5.79 10.69-11.91 16.29-17.64 2.6-2.67 4.93-5.55 7.33-8.39 1.98-2.22 3.57-4.67 4.71-7.41-.01-.29.34-.29.54-.33.34-.07.55.38.48.66-.56 4.12-3.94 6.99-6.37 10.13-3.25 3.93-6.79 7.63-10.3 11.29-2.79 3.16-5.73 6.19-8.46 9.4-2.98 3.32-6.27 6.75-10.59 8.2h-.05c-.45 0-.82-.44-.63-.89Z"/>
                <path d="M317.26 211.65c-.02-1.18.55-2.34.63-3.54.25-2.23-.08-4.48.14-6.72.55-6.81.23-13.74.16-20.55-.07-1.12-.31-2.22-.7-3.28-.16-.48.13-1.03.57-1.25 2.36-.59 4.84.08 7.21.33 2.24.33 4.42.32 6.67.35 6.4-.03 12.55-1.9 18.79-3.09.19-.04.39.03.45.23.12 1-2.57 1.44-3.34 1.78-5.22 1.34-10.54 2.66-15.96 2.73-4.2.22-8.3-.72-12.46-.89.81 3.24.39 6.6.54 9.88-.11 4.05.25 8.11-.17 12.13-.41 3.36.25 6.79-.59 10.1-.14.52-.2 1.07-.4 1.57-.15.37-.59.69-.97.69-.24 0-.46-.13-.56-.47Z"/>
                <path d="M317.11 211.88c-.39 0-.81-.05-1.14-.2.65-1.27 1.96-1.65 3.12-2.28 1.55-.96 2.95-2.14 4.31-3.33 3.21-3.13 6.14-6.55 9.39-9.64 1.96-2.11 3.59-4.48 5.84-6.31 4.41-5.11 9.56-9.95 12.04-16.35.09-1.29.74-1.03.76.12.26 1.68-.44 3.14-1.33 4.52-1.15 1.94-2.45 3.82-3.92 5.53-3.14 3.99-6.8 7.48-10.2 11.22-2.35 3.1-5.35 5.6-8.01 8.43-1.97 2.39-4.19 4.58-6.68 6.36-1.27.86-2.56 2.02-4.19 1.94Z"/>
            </g>
            <g style="clip-path:url(#e)">
                <path d="M313.12 4.01c-9-.5-17.99-.33-26.99-.16-7.39.14-14.79.28-22.19.05-9.62.02-19.24-.53-28.84-.75-7.17-.18-14.35-.05-21.52-.38-8.81.23-17.63.59-26.45.47-34-.09-67.97-1.03-101.98-.93-10.21-.12-20.44.38-30.64.53-7.97-.56-15.92-.77-23.9-.28-10.06.39-20.25.54-30.28.84 0-.35.02-.7.03-1.05 0-.12 0-.25.01-.38 6.99-.43 14.01-.3 21.01-.6 7.06-.04 14.1-.67 21.16-.58 2.26-.02 4.53.14 6.79.29 3.15.21 6.3.42 9.46.18 36.07-1.02 72.19-.02 108.26.39 10.45.11 20.9.15 31.36.03 2.67 0 5.34-.09 8.01-.18 4.45-.16 8.89-.31 13.35 0 8.5-.03 16.98.23 25.47.49 8.98.28 17.95.55 26.93.49 5.49.12 10.97 0 16.46-.12 4.04-.09 8.08-.18 12.13-.17 2.92-.08 5.85.05 8.77.19 2.78.12 5.56.25 8.32.2 5.08-.13 10.17-.44 15.25-.75 3.69-.3 7.38-.25 11.08-.19 4.7.07 9.4.14 14.08-.52.38-.02.75-.03 1.12-.04.01.11.03.23.04.34v.04c-.02.18-.03.36-.05.54-.02.19-.03.39-.05.59-3.2.17-6.38.58-9.61.62-1.56 0-3.12-.04-4.67-.09-1.72-.05-3.44-.11-5.16-.08-7.85.14-15.69 1.02-23.55 1.02-1.07 0-2.15-.02-3.22-.05ZM66.65 224.98c-8.88-.03-17.77-.02-26.65-.26-13.14-.08-26.31-.01-39.44.33v-1.45c5.54-.29 11.09-.23 16.63-.26 19.39-.22 38.83-.02 58.21.45 7.53.24 15.07.17 22.61.11 6.13-.05 12.26-.11 18.39 0 13.81-.05 27.6-1.16 41.4-1.51 6.84.18 13.69.09 20.53.01 6.79-.09 13.59-.17 20.38 0 25.18-.23 50.33 1.02 75.49 1.6 9.22-.26 18.42-.84 27.64-.86 6.05.22 11.99.7 18.01.31 8.27-.12 16.54-.46 24.81-.24 4.08.3 8.17.58 12.24.71.86-.01 1.69-.08 2.51-.17-.01.36-.02.72-.02 1.08v.39c-3.91.27-7.87-.02-11.76-.34-5.1-.38-10.09-.34-15.18-.19-7.52.09-15.05.46-22.57.32-3.68-.19-7.36-.54-11.05-.33-4.55-.04-9.09.18-13.63.39-5.7.27-11.41.54-17.11.31-29.07-1.14-58.12-1.77-87.2-1.55-4.92.15-9.83.13-14.75.11-7.07-.03-14.14-.06-21.2.43-7.78.2-15.53.93-23.32.93-4.87.12-9.73.07-14.6.03-4.6-.04-9.2-.09-13.79.02-2.19.1-4.39.14-6.58.14-6.66 0-13.33-.36-19.99-.49ZM.57 219.61v-.63c.46 0 .91 0 1.36-.02 4.04-.05 8.08-.05 12.12-.04 4.9.08 9.8.02 14.7-.05 3.82-.05 7.63-.11 11.45-.09 8.88.03 17.75-.25 26.62-.53 8.76-.28 17.52-.55 26.29-.53 10.61-.1 21.22.04 31.83.18 11.15.14 22.3.29 33.45.17 23.84-.14 47.67-.86 71.52-.84h16.84c9.36 0 18.72 0 28.08.02 12.43.11 24.83 1.42 37.26 1.23 15.85.2 31.67-.4 47.51-1.12h.15v.47c-17.15 1.6-34.48 1.31-51.69 1.38-7.51.09-14.99-.76-22.49-.87-7.7-.44-15.42-.41-23.13-.38-3.32.02-6.64.03-9.96 0-31.37-.21-62.72.53-94.08.84-10.8.13-21.6-.02-32.39-.16-9.24-.12-18.47-.25-27.71-.2-14.37-.06-28.72.38-43.07.95-13.97.05-27.99.3-41.98.3-4.23 0-8.46-.02-12.67-.09ZM303.82 8.56c-23.26-1-46.54-.69-69.81-1.17-34.01-.51-68.01.18-102.02.19-14.58.16-29.16-.05-43.73-.26-18.28-.26-36.56-.53-54.83-.05-11.07.02-22.12.35-33.18.61l.03-.78h1.69c.96 0 1.93.01 2.89-.03 5.57-.12 11.15-.36 16.73-.46 31.85-.74 63.69.15 95.54.24 16.19.07 32.37-.05 48.56-.18 21.1-.17 42.19-.33 63.29-.05 18.01.31 36.02.39 54.04.51 9.91.37 19.83.89 29.76.68 7.94-.14 15.87-.54 23.79-1.18 7.58-.24 15.16-.27 22.74-.48v.64c-7.17.49-14.4.25-21.58.52-10.07.74-20.16 1.27-30.25 1.27-1.23 0-2.45 0-3.67-.02Z"/>
            </g>
            <g style="clip-path:url(#f)">
                <path d="M136.19 13.43c.01-.32.43-.3.4.02 0 .16-.1.23-.2.23-.11 0-.21-.09-.2-.25Z"/>
                <path d="M202.42 14.79c-6.54-.13-13.07-1.05-19.59-.41-8.65.46-17.32-.12-25.97-.48-6.71-.02-13.43-.14-20.13-.15-.64.03-.68-1.07-.08-1.18 2.26-.35 4.55-.5 6.84-.52 6.5-.17 13 .07 19.5.31 5.86.21 11.71.43 17.58.35 5.36-.57 10.73-.29 16.1-.02 4.66.23 9.33.47 14 .16 4.1-.41 8.2-.27 12.3.02.91.04 1.04 1.52.21 1.81-4.23-.34-8.47-.19-12.7-.04-2.38.09-4.75.17-7.13.17h-.94Z"/>
                <path d="M193.41 22.28c-1.36.04-2.71-.07-4.07-.16-1.3-.09-2.61-.19-3.91-.16-2.52 0-4.99.32-7.52.21-2.64.24-5.25.04-7.87-.16-2.79-.21-5.58-.42-8.38-.1-3.63-.16-7.26 0-10.89.16-4.18.18-8.35.36-12.52.07-.88-.2-1.87-.45-2.38-1.24-.52-1.71.12-3.65 0-5.45 0-.47.45-3.54 1.16-2.54.16 2.28.32 4.59.11 6.88 1.76.85 3.77.76 5.75.67.84-.04 1.68-.08 2.48-.04 5.37-.03 10.7-.56 16.07-.32 4.43-.45 8.8.17 13.2.38 4.7-.03 9.4-.51 14.1-.24 7.68.54 15.4.36 23.09.62 2.33.27 4.64.06 6.96-.1 4.77.84 4.69-2.47 4.44-6.16-.52-.32-.58-1.13-.16-1.55.34-.35.85-.23 1.16.09.52.39.46 1.07.5 1.65.21 2.53.11 5.99-2.2 7.37-.06 0-.12.02-.18.05-.05 0-.11.02-.16.05a.21.21 0 0 0-.06.04c-.14.05-.28.09-.42.15l-.49.19h-.02c-2.15-.05-4.27.05-6.42.22-7.11-.42-14.24-.25-21.37-.56Z"/>
                <path d="M136.32 18.68c-.37-.32-.58-3.16.21-2.67.04.89.12 1.83-.2 2.68h-.01ZM185.48 44.34c-5.05-.04-9.95-1.54-14.93-2.17-3.8-.61-7.72-.52-11.48-1.26-7.24-1.33-14.66-2.38-21.58-4.88-1.19-.71-1.18-2.27-1.25-3.5-.17-2.53-.12-5.1-.11-7.62.13-.92-.74-6.31.79-5.59.11.06.11.23.06.32 1.3 4.55.16 9.47.88 14.14.13.79 1.07.89 1.69 1.13 5.93 1.57 11.86 2.93 17.92 3.88 4.42.98 8.95.94 13.41 1.59 4.82.61 9.55 2.05 14.43 2.14 1.07 0 2.15.11 3.2-.14 1.73-.62 3.25-1.46 5.06-1.8 8.26-1.71 16.73-2.43 24.92-4.6s.06-.01.1-.02c2.59-.26 2.88-2.77 3.45-4.82.68-2.89.68-5.95 1.4-8.86.27-1.23-.41-2.93.8-3.8.28.18.39.51.52.77.72 2.34-.3 4.76-.56 7.1-.18 2.89-.73 5.75-1.74 8.47-1.26 3.52-5.89 3.16-8.9 4.09-6.65 1.51-13.49 2.02-20.13 3.53-2.36.6-4.48 1.98-6.92 1.98-.32 0-.65-.03-.99-.08Z"/>
                <path d="M162.9 37.55c-4.71-1.29-9.55-1.84-14.37-2.6-2.34-.49-8.46-.66-9.1-3.27-.57-3.35-.86-6.85-.38-10.21.46-.64.69.28.79.66.57 2.25.42 4.71.7 6.96.2.79-.04 2.04.81 2.44 2.9 1.32 6.05 1.76 9.17 2.28 7.13.71 14.07 2.34 21.18 3.19 4.84.99 9.78 1.86 14.72 2.03 4.8-.44 9.37-2.1 14.09-2.93 2.91-.41 5.86-.57 8.73-1.19 3.02-.72 6.07-1.42 9.08-2.12.27-.12.5-.23.7-.37-.15.59-.25 1.2-.3 1.81-1.42.62-2.99.59-4.47.98-1.86.62-3.77 1.03-5.68 1.43-3 .44-6.05.62-9.05 1.01-4.79.91-9.49 2.7-14.38 2.87-7.54-.23-14.81-2.07-22.24-2.98ZM221.82 21.74c.48-.26.72.02.82.42-.02 0-.04-.01-.07-.01-.08 0-.16.02-.23.05-.05 0-.11.02-.16.05a.21.21 0 0 0-.06.04c-.14.05-.29.09-.42.15l-.25.09c.01-.3.11-.6.36-.78Z"/>
                <path d="M211.83 20.85c-7.69-.25-15.41-.08-23.09-.62-4.7-.27-9.4.21-14.1.24-4.4-.21-8.77-.83-13.2-.38-5.36-.24-10.7.29-16.07.32-.81-.04-1.65 0-2.5.04-1.98.09-3.99.18-5.74-.67.18-2.02.08-4.04-.05-6.05 6.59.02 13.18.14 19.78.15 8.65.36 17.32.95 25.97.48 6.52-.64 13.05.29 19.59.41 2.69.03 5.38-.07 8.07-.17 4.23-.15 8.47-.31 12.7.04.02 0 .03-.01.05-.02.25 3.67.3 6.95-4.44 6.11-1.51.1-3.02.23-4.53.23-.81 0-1.62-.04-2.43-.13Z" style="fill:#fff"/>
                <path d="M136.25 16.16c-.32-.43-.02-1 .11-1.46-.02-.46.12-.91.23-1.36.18-.55 1.38-1.29 1.57-.4h.06c.28-.16.58-.22.89-.28.46-.04.47.71.09.82-.59.08-1.02.48-1.43.88-.46.34-.59 1.92-1.19 1.92-.09 0-.2-.04-.33-.13ZM217.94 34.48c-.29-.19-.36-.54-.31-.86.08-.6.69-.8 1.09-1.15.57-.71.63-1.73.88-2.57.35-2.16.75-4.26 1.07-6.41.13-.56.37-1.07.63-1.57.05-.11.2-.21.32-.15 1.12 1.34-.77 12.79-3.32 12.79a.91.91 0 0 1-.35-.07Z"/>
                <path d="M134.98 17.93c.02-1.33 0-6.07 2.14-5.41.43.12.5.62.11.84-.99 1.98-.81 4.27-.65 6.42.45.52.54 1.73-.36 1.76-1.5-.39-1.04-2.43-1.24-3.61ZM223.23 21.47c-.61-.58-.04-1.37.42-1.82.39-.65.28-1.46.36-2.17 0-1.02.07-2.14-.29-3.1-.32-.11-.67-.4-.5-.77.02-.14.17-.29.31-.18 2.26-.29 1.96 2.96 1.93 4.45.07 1.01-.41 3.72-1.69 3.72-.16 0-.34-.04-.53-.14ZM220.64 24.86c-.2-.57.05-1.18.08-1.76.04-.58.11-1.8.95-1.61.97.59.4 2.4.25 3.33-.11.36-.4.55-.68.55-.25 0-.5-.16-.61-.51ZM139.67 25.99c-.59-.78-.89-1.55-.78-2.55.04-.55 0-2.59.9-2.23.58.54.52 1.44.55 2.17.13.96-.16 1.82-.67 2.62Z"/>
            </g>
        </g>
    </g>
</svg>
