<svg xmlns="http://www.w3.org/2000/svg" viewBox="0 0 150 149.35">
    <defs>
        <clipPath id="d">
            <path style="fill:none" d="M0 0h150v149.35H0z"/>
        </clipPath>
        <style>
            .e{fill:#fff}
        </style>
    </defs>
    <g id="b">
        <g style="clip-path:url(#d)" id="c">
            <path d="M18 2.7c-5.37.18-10.78.61-16.14 0-.34-.02-.95-.29-.58-.7.52-.3 1.13-.42 1.72-.48 20.92-1.28 41.86-.31 62.79.41 9.78.17 19.6-.59 29.36-1.02 11.02-.05 22.02-.49 33.04 0 5.77.11 11.55.1 17.32.18.92 0 1.81.25 2.67.56.84.32.58 2-.42 1.72-1.18-.53-2.44-.52-3.7-.51h-1.2c-4.75 0-9.5-.1-14.25-.21-7.63-.17-15.26-.33-22.88-.05-12.26-.12-24.47 1.01-36.72 1.16-17-.35-33.98-1.41-50.99-1.07Z"/>
            <path d="M1.52 145.69c-.72-3.97-.7-8.01-.99-12-.28-5.09-.1-10.2-.19-15.3-.03-3.59-.1-7.17.66-10.69.72-12.54.17-25.14.53-37.69.25-5.83.03-11.67.7-17.47.17-5.6-.14-11.22-.36-16.8-.1-3.24-.62-6.46-1.08-9.67C.28 20.92.41 15.72 1 10.59c.23-2.77.32-5.52.28-8.28-.03-.24.15-.59.43-.53.08.01.14.05.19.09.29-.08.5.29.22.45 1.16 6.21-.54 12.47-.21 18.72-.05 3.82.83 7.55 1.15 11.33.43 7.1.85 14.24.51 21.37-1.17 16.46-.47 33.02-.94 49.52.18 4.38-1.18 8.65-.86 13.03-.07 7.84.11 15.78.47 23.58.06 1.89.6 3.58.62 5.45-.05.54-.19 1.14-.65 1.46-.39-.2-.58-.67-.69-1.07Z"/>
            <path d="M3.17 148.63c-.45-.08-.94-.24-1.25-.59-.34-.45-.15-1.05-.11-1.55-.08-.54.38-.71.6-.18.11.22.18.45.26.69 7.77.59 15.55-.26 23.34-.28 20-.19 40.01-.62 60.01-.67 9.29 0 18.57.69 27.86.82 10.65.1 21.31-.3 31.92-.93.42.09.92.15 1.17.53.54.96-.34 1.74-1.32 1.25-18.81 1.4-37.66.88-56.49.11-26.96.14-53.93.34-80.87 1.2-1.71-.05-3.42-.15-5.12-.39Z"/>
            <path d="M147.69 147.88c-.24-.04-.41-.25-.48-.48-.41-1.76-.23-3.6-.26-5.4-.28-4.63-.16-9.19.02-13.82.18-5.23-.32-10.44-.18-15.66.23-7.11 1.07-14.21.97-21.32-.13-8.15-.99-16.29-.79-24.45-.24-9.82.73-19.58 1.01-29.37-.13-5.61-.31-11.2-.71-16.79-.13-5.37.06-10.73.03-16.11.09-.83-.26-1.8.2-2.53.18-.2.5-.26.74-.09.11 0 .19.13.19.25.25.72.14 1.54.24 2.3.19 5.13-.16 10.26.02 15.4.22 5.28.69 10.54.64 15.84.43 5.37-.61 10.7-.63 16.06-.35 6.11-.26 12.23-.33 18.35.05 7.82.85 15.62.84 23.43-.08 5.78-.67 11.57-.92 17.34-.26 4.04.04 8.07.13 12.1.07 6.8-.38 13.6-.24 20.4.03 1.23-.13 2.37.08 3.5.2.38-.02 1.04-.49 1.04h-.07Z"/>
            <path d="M146.34 147.44c-.45-.09-.56-.79.01-.69.29-.02.83.09.88.42-.08.22-.35.31-.61.31-.1 0-.2-.01-.28-.04ZM2.93 3.76c.26 0 .26.49 0 .49s-.26-.49 0-.49Z"/>
            <path d="M46.09 5.21c-9.02.13-18.03-.07-27.03-.48-4.75.06-9.49.03-14.23-.33-.73-.11-1.59.04-2.19-.45-.38-.39-.29-1.09.19-1.36 2.97-.56 6.05-.53 9.1-.5 1.05 0 2.1.02 3.14 0 4.47-.21 8.91.24 13.36.38 15.23-.2 30.43.69 45.65.78 6.2-.49 12.47-.37 18.66-.56 9.89-1.38 19.82-1.58 29.77-.98 6.34.08 12.68-.07 18.99.65 1.92.06 3.83.32 5.76.36.3.03.55.21.72.45.43.62.34 1.69-.36 2.09-.51.19-1.07.14-1.62.08-.28-.03-.56-.05-.83-.05-7.56-.73-15.11-.95-22.7-.9-4.98-.16-9.96-.48-14.95-.32-5.71.07-11.14 1.09-16.8 1.41-3.84-.15-7.66.02-11.49.2-2.84.13-5.68.26-8.52.26-8.21-.11-16.46-.54-24.65-.74Z"/>
            <path d="M4.55 4.19c.31 0 .31.59 0 .59s-.31-.59 0-.59ZM3.71 3.71c.26 0 .26.5 0 .5s-.26-.5 0-.5Z"/>
            <path d="M2.94 14.44c-1.36-.42-.76-2.16-.85-3.21.16-2.55.05-5.12.4-7.65.25-1.76 2.31-1.25 2.09.39-.28 2.67-.22 5.36-.35 8.04 0 .89.01 2.44-1.17 2.44h-.12Z"/>
            <path d="M2.58 4.95c-.02-.22-.05-.44-.09-.66-.66-.53-.46-1.68.36-1.93.14-.42.57-.16.56.19.46.63.35 1.52.44 2.27.01.5-.32.78-.65.78-.28 0-.57-.21-.62-.66ZM2.83 147.46c-.34-.16-.44-.55-.4-.9-.26-2.29-.6-4.56-.43-6.87-.38-5.56-.5-11.12-.32-16.7 0-5.15-.65-10.29-.21-15.44.03-4.27.76-8.47.86-12.72 0-2.61.05-5.21.35-7.8-.34-5.73-.58-11.46-.28-17.2.09-9.8.38-19.59.48-29.39-.41-2.78-.4-5.58-.26-8.38-.63-3.92-1.12-7.9-1.18-11.88-.02-2.55.06-5.1.28-7.64-.02-.48.09-.96.55-1.2.73-.42 1.84 0 2.08.82-.37 6.15-.42 12.3.7 18.39.37 1.9.11 3.78.1 5.71.02 2.03.5 4.02.39 6.05-.22 8.18-.29 16.36-.48 24.55.06 3.83-.18 7.66-.2 11.49.12 2.67.26 5.34.52 8-.08 2.22-.43 4.44-.39 6.68.06 5.64-.93 11.23-.95 16.87-.3 4.06.26 7.84.29 11.85.07 3.27-.27 6.54-.02 9.8-.27 2.34 1.48 15.98-1.19 15.98-.09 0-.18-.01-.28-.05Z"/>
            <path d="M4.43 147.55c-.63-.09-1.25-.3-1.43-.94-.11-.47.4-.84.83-.82 2.45-.06 4.92-.29 7.38-.26 12.29-.59 24.65-1.05 36.94-.14 12.91-.09 25.82-.63 38.74-.54 5.83-.14 11.65.05 17.47.23 5.04.16 10.08.32 15.12.27 4.19.06 8.36-.22 12.53-.5 4.46-.3 8.93-.6 13.42-.48 1-.12 2.89.09 2.31 1.51-.25.43-.77.64-1.25.64-1.26 0-2.53-.01-3.79 0-3.68-.05-7.35.22-11.01.48-3.91.28-7.82.56-11.74.47-5.05.08-10.1-.09-15.15-.26-5.28-.18-10.57-.36-15.86-.24-13.11-.02-26.2.26-39.3.6-13.64-1.05-27.35-.34-40.97.12-1.41-.04-2.83.05-4.23-.15Z"/>
            <path d="M146.1 145.89c-.6-.19-.74-.86-.75-1.42-.56-5.98-.07-12.05-.58-18.01-.41-5.15-.62-10.37-.5-15.53.69-3.61.53-8.14 1.01-12.01.74-10.73.86-21.52.26-32.26-.5-5.43-.27-10.87-.31-16.32-.05-3.98-.07-7.96.6-11.89.65-6.6-.48-13.17-.53-19.76 0-3.98-.28-7.94-.38-11.91-.02-1.18-.27-2.83 1.2-3.2.97-.3 2.24.69 1.47 1.66.06 5.44.45 10.89.45 16.34.13 3.81.75 7.59.65 11.41.09 3.23-.23 6.44-.7 9.63-.21 4.44-.05 8.89-.09 13.33-.11 8.38.85 16.74.69 25.13.1 9.7-.82 19.36-1.39 29.03-.72 2.76-.11 5.69-.16 8.52.03 5.47.89 10.85.6 16.31.08 2.8.24 5.6-.04 8.39-.07.93-.02 2.61-1.16 2.61-.1 0-.22-.01-.34-.04ZM51.5 14.5h.02c-1.73-.07-3.45-.07-5.18-.07-2.24 0-4.48 0-6.71-.16-3.76-.39-7.57-.93-11.35-.92-4.25-.13-8.51-.01-12.76.14-.89-.01-1.8.06-2.72.14-1.52.13-3.04.25-4.47 0-.7-.98 4.24-1.51 4.89-1.57 6.07-.57 12.21-.62 18.29-.37 13.69 1.57 27.48 1.13 41.21.37 5.05-.21 10.1-.18 15.17-.15 4.78.03 9.56.06 14.34-.11 9.14-.19 18.29-.39 27.43-.71 2.42.03 4.83-.02 7.24-.1.87-.09 1.95.05 2.34.95 0 .03-.07.07-.07.09-.54.65-1.36.79-2.15.75-2.38.08-4.76.13-7.13.09-7.59.26-15.2.46-22.8.6-9.97.27-19.94.32-29.91.19-8.08.32-16.18.86-24.27.86h-1.4Z"/>
            <path d="M12.53 138.26c-.42-.45-.5-1.08-.51-1.66-.24-2.58-.13-5.17-.1-7.75-.03-5.13-.43-10.23.2-15.33-1.01-11.5.08-23-.08-34.5-.25-7.41-.61-14.81-.64-22.22-.32-6.62-.92-13.22-.84-19.86-.32-7.32.41-14.65-.1-21.96-.43-.34-.18-1-.19-1.46-.11-.42.45-.91.77-.46.82 1.9.67 4.18.9 6.23.11 11.56-.28 23.14.77 34.67.17 9.98.65 19.95.83 29.93-.24 8.3-.76 16.62-.25 24.89.46 3.88-.06 7.83-.17 11.68.19 4.19.3 8.39.14 12.59-.02 1.49.23 2.97.17 4.46-.08.37-.22.82-.6.96h-.01c-.12 0-.24-.11-.32-.19Z"/>
            <path d="M114.37 139.95c-1.82-.09-3.65-.18-5.48-.23h.11c-7.96 0-15.89-1.21-23.84-1.39-2.9-.11-5.8.02-8.7.15-2.41.1-4.83.21-7.24.18-3.74-.29-7.39.12-11.12.33-1.5.08-2.99-.04-4.48-.15-1.98-.15-3.95-.3-5.95 0-10.98 1.28-22 .18-33 .07-.4-.02-.81.02-1.18-.12-.46-.17-.57-.87-.23-1.2.24-.32.66-.63.8-.06 4.62-.25 9.25-.12 13.88 0 6.14.17 12.27.34 18.39-.37 2.14-.15 4.28-.44 6.42-.21 1.42.17 2.89.33 4.27.27 4.8-.28 9.6-.54 14.39-.34 4.6-.13 9.21-.49 13.81-.33 16.51.85 33.06 2.79 49.56 1.05.32.02.72 0 1.14-.04 1.17-.1 2.5-.19 2.64 1.03-.3.79-1.09.77-1.82.75-.21 0-.41-.01-.59 0-5.38.36-10.77.78-16.17.78-1.87 0-3.74-.05-5.61-.17Z"/>
            <path d="M137.95 139c-.76-1.41-.08-3.25-.21-4.8-.45-5.47.54-10.88.79-16.33-.54-8.31.3-16.49-.29-24.76-.26-4.67.59-9.32.08-13.98-.35-6.43-.54-12.88-.47-19.32.09-5.18.37-10.34-.1-15.51.17-10.47-1.14-21 .42-31.43-.21.03-.29-.29-.17-.43.03-.05.09-.06.11-.11.08-.18.22-.37.44-.35.27.03.42.3.47.54.18 1.13.01 2.3.02 3.45 0 3.64-.22 7.27-.32 10.9.03 3.98.5 7.94.5 11.92-.16 3.64.05 7.44.29 11.03-.33 9.33-.35 18.61.14 27.91.5 4.49.06 8.97-.06 13.46.22 4.89.46 9.79.17 14.68-.04 4.42.07 8.56.18 12.9-.24 3.18-.57 6.36-.8 9.54-.19 3.41.08 6.68-.05 10.07.02.4-.35.81-.73.81a.56.56 0 0 1-.41-.19Z"/>
            <path d="M137.45 11.64c.28-.26.6-.32.88-.54 2.3-1.71 4.3-4.01 6.33-5.92 1.01-.36 1.25 1.13.58 1.64-2.23 2.04-4.7 4.81-7.54 5.85-.45-.05-.62-.76-.25-1.02ZM9.61 14.39c-1.93-3.74-5.12-7.52-5.7-11.73.58-.7.9.93 1.17 1.27 1.66 3.5 4.49 6.52 5.84 10.11 0 .48-.32.76-.67.76-.23 0-.48-.13-.64-.41ZM5.96 146.44c.81-3.55 4.04-6.01 6.39-8.62.49-.35.95-1.34 1.63-1.07.24.1.28 1.15-.1.96-1.51 2.17-3.37 4.07-4.96 6.18-.67.86-1.23 2.65-2.45 2.65-.16 0-.33-.03-.51-.1ZM144.91 146.23c-1.37-1.61-3.29-2.67-4.49-4.42-.91-1.34-1.58-2.99-2.86-4-.15-.03-.25-.18-.26-.33-.03-.25.24-.34.45-.29 1.44.35 2.4 1.59 3.17 2.75 1.24 2.01 3.33 3.13 4.85 4.88.37.35.67.93.58 1.44-.15.21-.37.3-.61.3-.3 0-.61-.14-.82-.34Z"/>
            <path class="e" d="M144.58 5.25c-2 1.89-3.98 4.16-6.25 5.84h-.02c-.44-.14-.96-.16-1.42-.11-2.41.08-4.83.13-7.24.1-9.14.32-18.29.52-27.43.71-4.78.17-9.56.14-14.34.11-5.06-.03-10.12-.06-15.17.15-13.73.76-27.52 1.2-41.21-.37-6.08-.26-12.22-.2-18.29.37-.32.03-1.74.18-2.98.45-1.39-2.78-3.49-5.28-4.92-8.07 4.57.33 9.15.36 13.73.3 9 .4 18.01.61 27.03.48 8.18.21 16.43.64 24.65.74 2.84 0 5.68-.13 8.52-.26 3.83-.18 7.66-.35 11.49-.2 5.66-.32 11.09-1.33 16.8-1.41 4.99-.16 9.96.15 14.95.32 7.39-.05 14.73.16 22.09.85ZM145.3 18.7c.05 6.59 1.18 13.16.53 19.76-.67 3.94-.66 7.91-.6 11.89.03 5.44-.19 10.88.31 16.32.6 10.74.47 21.53-.26 32.26-.48 3.88-.31 8.4-1.01 12.01-.12 5.16.09 10.37.5 15.53.5 5.93.03 11.96.57 17.9-1.47-1.5-3.3-2.6-4.43-4.43-.5-.75-1.08-1.53-1.81-2.08.09-3.21-.15-6.31.03-9.55.23-3.18.56-6.36.8-9.54-.1-4.34-.22-8.48-.18-12.9.29-4.89.06-9.79-.17-14.68.12-4.49.56-8.97.06-13.46-.5-9.3-.47-18.57-.14-27.91-.24-3.59-.45-7.38-.29-11.03 0-3.98-.47-7.94-.5-11.92.1-3.63.33-7.26.32-10.9 0-1.15.16-2.31-.02-3.45a.987.987 0 0 0-.1-.27c.09-.07.17-.15.25-.24 0-.02.07-.06.07-.09 2.08-1.23 3.96-3.21 5.69-4.83.11 3.87.38 7.72.37 11.59ZM12.05 79c.16 11.51-.93 23 .08 34.5-.64 5.11-.23 10.21-.2 15.33-.03 2.59-.14 5.17.1 7.75 0 .44.05.91.26 1.31-2.17 2.39-5.06 4.67-6.11 7.79-.62.03-1.24.06-1.86.08.8-3.75-.22-12.43 0-14.24-.26-3.27.09-6.53.02-9.8-.03-4.01-.59-7.79-.29-11.85.02-5.64 1.01-11.23.95-16.87-.04-2.24.31-4.46.39-6.68-.26-2.66-.4-5.33-.52-8 .02-3.83.26-7.66.2-11.49.2-8.19.26-16.36.48-24.55.11-2.03-.37-4.03-.39-6.05 0-1.92.27-3.81-.1-5.71-1.12-6.09-1.07-12.24-.7-18.39-.03-.09-.06-.18-.12-.26.11-2.29.09-4.59.26-6.88.98 2.76 2.82 5.37 4.32 7.93-.43.2-.66.43-.47.69.3.05.61.09.93.12.12.21.23.43.34.64.16.29.41.42.64.42h.08c.03.06.08.12.14.17.51 7.31-.22 14.64.1 21.96-.08 6.64.53 13.24.84 19.86.03 7.41.38 14.81.64 22.22ZM140.42 141.82c.68.99 1.59 1.76 2.51 2.54-3.64.01-7.28.25-10.91.5-4.17.28-8.34.56-12.53.5-5.04.05-10.08-.11-15.12-.27-5.82-.19-11.64-.37-17.47-.23-12.92-.08-25.83.46-38.74.54-12.29-.91-24.65-.45-36.94.14-1.12-.01-2.23.03-3.35.08.4-.57.72-1.27 1.07-1.72 1.37-1.82 2.94-3.48 4.32-5.3.07.08.15.14.25.18.38.14.78.11 1.18.12 11 .11 22.02 1.2 33-.07 1.99-.3 3.97-.14 5.95 0 1.49.11 2.98.23 4.48.15 3.73-.21 7.38-.62 11.13-.33 2.41.03 4.83-.08 7.24-.18 2.9-.13 5.8-.26 8.7-.15 7.91.18 15.81 1.38 23.73 1.39h.04c1.82.05 3.63.14 5.44.23 1.87.12 3.74.17 5.61.17 5.4 0 10.79-.42 16.17-.78.18-.01.38 0 .59 0 .49.01 1.01.03 1.38-.21.08.04.16.06.24.06.13 0 .25-.05.36-.12.62.87 1.11 1.87 1.7 2.74Z"/>
        </g>
    </g>
</svg>
