<svg xmlns="http://www.w3.org/2000/svg" viewBox="0 0 16 16.62">
    <defs>
        <clipPath id="a">
            <path style="fill:none" d="M0 0h16v16.62H0z"/>
        </clipPath>
    </defs>
    <g style="clip-path:url(#a)">
        <path d="M7.64 16.2c-.46-.17-.81-.55-1.11-.93-.4-.43-.94-.8-1.05-1.41 1.09-.23 1.54 1.03 2.32 1.46.04.01.08.02.09.03 1.41-.27 2.4-1.57 3.35-2.54 1.73-1.87 3.44-4.04 3.73-6.64.02-1.08-.76-1.94-1.42-2.71-.74-.56-1.8-.45-2.62-.25-1.09.3-1.82 1.11-2.77 1.64-.31.21-.69 0-.9-.27-.48-.7-1.03-1.48-1.91-1.66-.31-.12-.06-.71.21-.44.48.11.99.11 1.4.43.39.29.54.81.91 1.11 1.8-1.47 5.19-3.15 6.76-.49.56.77 1.11 1.57 1.05 2.58-.22 2.95-2.15 5.41-4.1 7.5-1.07 1.03-2.32 2.76-3.95 2.58Z"/>
        <path d="M7.41 16.15C4.93 14 1.79 11.8.98 8.44.24 5.1 2.26.24 6.29 2.3c.31.1 1.78 2.08.88 1.84-.35-.52-.86-.9-1.4-1.19C1.98 1.57.84 6.59 2 9.25c.96 2.06 2.9 3.5 4.45 5.08.46.51 1.71.86 1.46 1.68-.09.19-.33.27-.5.13Z"/>
    </g>
</svg>
