<svg enable-background="new 0 0 360 797" viewBox="0 0 360 797" xmlns="http://www.w3.org/2000/svg"><path d="m177.6 272.52c-1.97-.2-4.3-.76-5.49-2.46-2.73.17-6.37-2.92-5.95-5.72-.17-.93-.1-1.93.04-2.85.16-.55.84-.84 1.25-.36 1.13-.34 2.06.88 2.79 1.59.2-.25.44-.48.69-.68.58-.48 1.42-.93 2.2-.81.54-.31 1.35-.34 1.72.23 1.05-.78 3.37-1.76 3.2.45 1.14-.81 2.34-2.06 3.8-2.08.68-.41 1.48.13 1.51.88 1.17-.71 4.02-3.82 4.99-1.63.47.49.46 1.32.11 1.87h.04c.26-.59.95-1.18 1.57-.71.59-.13.99.39 1.2.86 1.7 2.11-2.72 6.69-4.19 8.26-2.51 2.33-6.11 3.25-9.48 3.16z" fill="#ffa500"/><path d="m171.62 271.85c-.64-.24-1.16-.84-1.07-1.55 0 0 0-.01.01-.01.06-.01.13-.01.19 0-.02-.28.09-.56.37-.69.03-.01.06-.02.08-.03.11-.46.61-.69 1.01-.43 1.34-.29 2.08 2.58.49 2.41-.12.47-.7.52-1.08.3z" fill="#ffa500"/><path d="m178.03 270.25c-.78-.13-.64-1.64.18-1.5 3.04.47 6.05-1.7 7.39-4.32.2-.5.35-1.16.9-1.34.53-.18 1.07.17 1.23.69.25 4.05-6.11 7.22-9.7 6.47z" fill="#fff"/><path d="m174.11 269.39c-.42-.28-.83-.78-.54-1.3.2-.3.6-.55.94-.39 1.08.31.81 2.24-.4 1.69z" fill="#fff"/><path d="m174.52 273.1c-5.18-1.35-10.98-5.98-9.4-11.91.08-.35.41-.67.79-.53.67.29.39 1.1.28 1.64-.55 3.73 2.82 6.54 5.82 7.95 7.02 3.58 17.73.21 19.2-8.04.01-.7.76-1.43 1.41-.9.74.64.31 1.68.15 2.48-2.12 7.56-11.01 11.38-18.25 9.31z" fill="#535353"/><g fill="#fff"><path d="m168.62 247.47c0-.94.79-1.73 1.73-1.73s1.73.79 1.73 1.73-.79 1.73-1.73 1.73-1.73-.78-1.73-1.73z"/><path d="m164.78 248.82c-.28-.22-.5-.46-.65-.73-.61-.32-1.07-.86-1.29-1.58-.06-.19-.09-.37-.11-.56-2.11-1.13-1.31-3.96-.26-5.58.44-1.32 1.19-2.87 2.81-2.82.67-.42 1.47-.73 2.21-.98-2.43-1.73-.44-4.61 1.49-5.81 2.67-1.67 5.66-4.27 9.01-3.69 3.72-.93 8.12-.07 10.8 2.82 1.43 1 2.81 2.52 2.86 4.36.07 2.82-2.98 5.33-5.63 3.74-1.29-.89-2.42-2.21-2.71-3.8-.18-.37-.38-.75-.68-1.05-.6-.1-1.22-.16-1.83-.25.05.14.08.29.1.44.04.29.02.6-.05.9.34.4.58.86.69 1.36 1.82-.07 3.48 1.4 3.19 3.27-.74 3.72-5.41 2.07-8.09 2.7.16.11.31.26.45.45.49.68.53 1.53.12 2.21 1.84.42 1.73 3.11-.15 3.39-1.15.12-2.32.21-3.46.43-1.57.06-3.12 2.09-4.52.6-.58.32-1.17.65-1.86.53-.82.3-1.73.2-2.44-.35z"/><path d="m169.75 252.95c-2.59-.05-4.14-3.29-2.64-5.37-.08-2.61 2.59-3.01 4.59-3.38.04-.59.28-1.15.69-1.55.66-3.66 9.12-2.52 11.81-1.96.35-.71.98-1.38 1.7-1.74.39-1.16 1.42-1.97 2.56-2.35 2.33-2.81 6.17-.11 7.9 2.07.91 1.31.23 2.78-.16 4.12.23.62.28 1.29.16 1.93.11.08.21.17.31.27 0 0-.01.01-.01.01 1.68 1.58 1.39 4.58-.59 5.8-.27 2.2-2.57 3.7-4.69 3.11-1.53-.43-3.22-.16-4.78-.57-2.93-.01-5.87.11-8.78.52-2.68.25-6.16 1.79-8.07-.91z"/><path d="m145.68 260.84c-2.69-.19-3.66-4.12-1.43-5.57 0 0-.01-.01-.01-.01.68-.65 1.67-.72 2.5-1.05 2.05-.93 4.01-1.92 6.06-2.81.13-1.02 1-1.76 1.73-2.4 1.07-.92 2-1.97 2.86-3.09 1.53-1.65 2.65-3.7 4.5-5.04 1.35-.9 3.39-.11 3.89 1.38.72.5 1.18 1.36 1.19 2.24 1.15.76 1.74 2.33 1.31 3.65 0 .01.01.01.01.02h.38c1.36.03 2.58.76 3.24 1.88 4.62.46 4.86 7.12.26 7.81-2.88-.09-6.14-.19-8.7-1.59-1.28.27-2.56.57-3.83.9-1.89.54-4.25 1.69-5.93.08h-.01v-.01c-1.52.4-2.87 1.08-4.3 1.75-.51 1.49-2.23 2.35-3.72 1.86z"/><path d="m203.12 256.08c-1.75-.16-3.17-1.55-4.45-2.56-1.31 2.79-6.38-.3-8.39-1.07-2.52.79-3.17-3.32-.73-3.73 1.38-.19 2.54.95 3.79 1.37-.37-.63-.98-1.38-.96-2.14.03-.97.91-1.85 1.89-1.73-.95-2.02.89-4.52 3.11-4.14 2.48.36 3.64 2.75 4.96 4.61.41.21.83.43 1.25.66.02.14.06.27.11.4.2.53.68.88 1.09 1.24-.02-.02-.04-.04-.07-.06.74.65 1.51 1.28 2.3 1.87.22.16.44.32.66.47.64 2.36-1.27 4.9-3.74 4.9-.25.01-.53-.02-.82-.09z"/><path d="m215.78 261.92c-.2-.05-.39-.11-.59-.18-.22-.08-.43-.17-.64-.25-.39-.15-.77-.25-1.18-.33-.71-.45-1.27-1.12-1.56-1.94-1.18-.34-2.19-1.11-3.37-1.41-.91-.22-1.45-1.23-1.21-2.12.33-1.24 1.75-1.51 2.79-1 .34-.24.75-.38 1.18-.37.74.03 1.48.29 2.18.57.13-.05.27-.1.4-.13.52.3 1.03.63 1.55.92.66.36 1.27.78 1.92 1.16.68.39 1.37.64 2.11.89.1.04.21.07.31.1.05.23.07.47.07.72.02 1.86-1.59 3.43-3.4 3.43-.19 0-.38-.02-.56-.06z"/><path d="m198.23 263.47c-.64-.05-1.28-.14-1.91-.26-.01 0-.03-.01-.04-.01-.83-1.41-.52-3.49.87-4.88.64-.86 1.64-1.39 2.59-1.87 1.57-.82 3.51-2.24 5.31-1.21 1.59-.48 3.11-1.55 4.84-.99 3.13.79 3.92 4.52 2.38 6.78-.68-.06-1.36-.09-2.03-.15-.62-.05-1.23-.12-1.86-.06-.36.04-.71.14-1.06.23-.34.1-.68.2-1 .34-.31.14-.61.29-.93.41-.69.21-1.39.34-2.09.51-.92.21-1.81.52-2.7.84.1-.04.21-.07.31-.11-.23.07-.45.13-.69.18-.52.11-1.05.21-1.57.27-.13 0-.28-.01-.42-.02z"/><path d="m215.19 261.74c-.22-.08-.43-.17-.64-.25-.42-.16-.84-.27-1.28-.34-.86-.14-1.75-.16-2.62-.23-.78-.57-1.58-1.12-2.6-.72-.93.18-1.82-.58-1.95-1.48.04-2.22 2.11-2.18 4.05-2.14.91.02 1.78.04 2.42-.17 1.01-.76 2.25-.83 3.32-.43.44.26.87.54 1.31.8.81.74 1.29 1.83 1.09 3.05-.12.99-.67 1.82-1.42 2.37-.58-.13-1.13-.28-1.68-.46z"/><path d="m218.33 262.53c-.05-.01-.1-.02-.15-.03-1.01-.21-2.02-.44-3-.75-.22-.08-.43-.17-.64-.25-.42-.16-.84-.27-1.28-.34-.27-.04-.54-.07-.81-.1-.38-.43-.54-1.03-.38-1.88.29-1.07 1.53-1.88 2.64-1.5.66.29 1.4.32 2.07.06.41-.31.86-.47 1.31-.5.41.18.84.33 1.28.48.3.1.6.19.9.28.73.65 1.14 1.64.8 2.7-.33 1.02-1.11 1.7-2.02 1.94-.25-.04-.48-.07-.72-.11z"/><path d="m218 262.28c-.36-.01-.75-.03-1.14-.07-.56-.13-1.12-.29-1.67-.46-.01 0-.02-.01-.03-.01-.67-.37-1.11-.98-.99-2.02.28-1.71 1.82-1.95 3.26-1.72.55-.31 1.19-.41 1.8-.32.05.02.09.03.14.05.21.07.41.13.62.2.54.27.97.75 1.14 1.41.48 1.7-1 3.01-2.58 3.01-.18-.02-.37-.03-.55-.07z"/><path d="m216.27 260.06c-.01-1.66 1.57-2.29 2.99-2.25.06-.02.12-.04.18-.06.51.17 1.04.3 1.55.47.23.08.47.13.71.19.24.25.42.56.51.92.47 1.6-1 3.04-2.57 2.86-.28.05-.57.08-.84.08-1.31-.02-2.45-.63-2.53-2.21z"/><path d="m219.66 261.71c-1.77-.22-2.1-2.76-.45-3.43.31-.13.64-.22.96-.32.28.08.56.16.83.25.52.17 1.06.24 1.58.4.07.03.15.06.22.1.06.12.11.24.15.37.48 1.77-1.55 2.65-3.03 2.65-.09-.01-.18-.01-.26-.02z"/><path d="m218.06 260.64c-.52-1.22.1-2.32 1.09-2.99.07.02.14.05.21.07.54.19 1.1.32 1.64.5.52.17 1.06.24 1.58.4.1.04.2.09.3.13.05.02.09.05.14.08.25.18.5.38.74.58-.09 1.52-1.84 2.63-3.42 2.63-.96-.01-1.86-.42-2.28-1.4z"/><path d="m217.79 260.42c-.37-1.38.37-2.23 1.39-2.77.06.02.13.04.19.07.54.19 1.1.32 1.64.5.52.17 1.06.24 1.58.4.1.04.2.09.3.13.05.02.09.05.14.08.29.2.57.43.83.65.04.04.08.07.12.11.02.03.04.07.05.1-.16.88-.83 1.65-1.72 1.9-.64.3-1.41.51-2.14.51-1.07 0-2.04-.44-2.38-1.68z"/><path d="m217.12 260.42c-.4-1.51.54-2.41 1.75-2.88.16.06.32.11.49.17.54.19 1.1.32 1.64.5.52.17 1.06.24 1.58.4.1.04.2.09.3.13.05.02.09.05.14.08.17.12.33.24.49.37.15 1.26-.76 2.45-2.02 2.62-.59.14-1.26.26-1.9.26-1.1.01-2.12-.36-2.47-1.65z"/><path d="m218.22 261.05c-.54-1.26.06-2.67 1.2-3.31.52.18 1.06.31 1.58.48s1.06.24 1.58.4c.1.04.2.09.3.13.05.02.09.05.14.08.29.2.57.43.83.65.04.04.08.07.12.11.03.05.05.09.07.14.11.23.22.46.32.69-.05.09-.1.17-.15.25-.15.09-.3.18-.45.27-.7.44-1.37.92-2.09 1.32-.16.07-.33.14-.5.21-.1.03-.19.05-.29.08-.09 0-.17.01-.26.01-1 0-1.93-.44-2.4-1.51z"/><path d="m221.08 262.51c-.03.01-.07.03-.1.04.03-.02.06-.03.1-.04z"/><path d="m218.71 260.85c-.52-1.22.07-2.33 1.04-3.01.42.13.84.24 1.26.37.52.17 1.06.24 1.58.4.1.04.2.09.3.13.05.02.09.05.14.08.29.2.57.43.83.65.04.04.08.07.12.11.03.05.05.09.07.14.07.13.13.27.19.4-.09.28-.23.54-.41.78-.02.01-.04.02-.06.04-.64.4-1.26.84-1.92 1.22-.3.07-.6.12-.89.12-.95 0-1.84-.42-2.25-1.43z"/><path d="m194.31 262.63c-.46-.17-.91-.38-1.36-.58-.49-.22-.99-.45-1.48-.68-.01-.01-.03-.01-.04-.02 0 0-.01-.01-.01-.01-.01-.01-.02-.01-.03-.02 0 0 .01.01.02.01-.04-.02-.09-.04-.13-.07.04.02.08.04.12.05-.44-.23-.87-.46-1.34-.63-.64-.23-1.29-.4-1.96-.52-.58-.1-1.17-.11-1.75-.09-.45.02-.91.05-1.36.1-.7.08-1.39.18-1.95.61-.07.03-.14.05-.22.09-.36.15-.71.33-1.05.51-.06.03-.12.05-.18.08-.08.03-.16.05-.24.07-.87-.1-1.69-.48-2.27-1.16-1.17-1.09-.92-3.2.39-4 .51-.41.83-.99 1.51-1.22 2.22-.81 4.62-.98 6.96-1 1.11.02 2.39-.03 3.29.62 5.27.55 5.87 5.49 3.69 8.03-.21-.03-.41-.1-.61-.17z"/><path d="m181.66 261.45c-.04.02-.07.04-.11.05.04-.01.08-.03.11-.05z"/><path d="m194.31 262.63c-.46-.17-.91-.38-1.36-.58-.49-.22-.99-.45-1.48-.68-.01-.01-.03-.01-.04-.02s-.03-.02-.04-.03c0 0 .01.01.02.01-.04-.02-.09-.04-.13-.07.04.02.08.04.12.05-.44-.23-.87-.47-1.34-.63-.64-.23-1.29-.4-1.96-.52-.22-.04-.44-.06-.66-.08-.02-.03-.04-.05-.06-.08-1.62-2.26 1.74-4.5 3.32-2.22 1.09.38 1.92-.32 3.01-.35 3.65.26 3.96 3.94 2.27 5.68-.57-.12-1.12-.3-1.67-.48z"/><path d="m198.23 263.47c-.64-.05-1.28-.14-1.91-.26-.68-.15-1.35-.36-2.02-.59-.46-.17-.91-.38-1.36-.58-.51-.23-1.02-.46-1.52-.7l.12.06c-.05-.03-.1-.05-.15-.08.01.01.02.01.03.02-.01-.01-.02-.01-.03-.02 0 0-.01-.01-.01-.01-.01 0-.01-.01-.02-.01-.43-.23-.86-.46-1.32-.62-.18-.06-.36-.12-.54-.18-.04-.06-.09-.12-.13-.18-1.7-2.66 2.26-4.7 3.64-1.89 1.66-.04 3.35-.81 5-.36 2.29.57 3.12 3.34 2.05 5.17-.47.09-.94.18-1.42.23-.03 0-.05 0-.08 0-.1.02-.21.01-.33 0z"/><path d="m198.23 263.47c-.64-.05-1.28-.14-1.91-.26-.68-.15-1.35-.36-2.02-.59-.46-.17-.91-.37-1.36-.58-.51-.23-1.02-.46-1.52-.7l.12.06c-.05-.02-.1-.05-.15-.08.01 0 .01.01.02.01 0 0 .01.01.02.01-.01 0-.01-.01-.02-.01 0 0-.01-.01-.02-.01 0 0 0 0-.01 0h-.01c-.04-.02-.08-.04-.12-.06.04.02.08.04.12.06-.16-.09-.32-.17-.48-.25-.03-1.93 2.07-3.49 4.32-1.87.87-.22 1.74-.57 2.42-1.12 1.32-.98 3.16-1.02 4.48 0 1.48 1.37 1.71 2.92 1.19 4.24-.92.21-1.81.52-2.7.84.1-.04.21-.07.31-.11-.23.08-.45.13-.69.18-.52.1-1.05.21-1.57.26-.03 0-.05 0-.08 0-.11 0-.22-.01-.34-.02z"/><path d="m194.57 260.34c-1.13-.2-2.27-.37-3.41-.5-1.07.59-2.24.29-3.36.09-.45.05-.92.11-1.39.16-.03 0-.06 0-.09 0-.45.02-.91.05-1.36.1-.8.01-1.59-.07-2.32-.36-2.49-.94-3.11-4.57-.91-6.16 2.25-1.43 5.13-1.02 7.65-.76 2 .18 3.68 1.66 3.82 3.71 1.38.18 3.52.34 3.29 2.24-.11.82-.86 1.5-1.68 1.5-.06 0-.15-.01-.24-.02z"/><path d="m169.98 260.99c-.83-1.22-2.65-1.11-3.86-1.87-2.05-.96-.75-4.03 1.34-3.18 1.38.54 2.83 1.24 4.24 1.52 1.54 0 2.62 1.62 2.02 3.04-.6 1.53-2.75 1.79-3.74.49z"/><path d="m171.18 262.76c-.02-.01-.03-.01-.05-.02-.84-.31-1.64-.73-2.49-1.03-.29-.11-.59-.21-.88-.3-.06-.06-.12-.12-.19-.17-.17-.63-.2-1.29-.04-1.9-.29-.77 0-1.72.65-2.22.78-.6 1.79-.49 2.49.11 1.14-.12 2.17-.72 3.34-.82 2.44-1.66 5.07-3.92 8.15-3.55 1.79-1.05 3.52-.95 5.34-1.5 2.8-.8 5.83 1.45 5.75 4.38.04 2.04-1.52 3.39-2.61 4.93-.06.07-.12.13-.19.19-.13-.06-.26-.11-.4-.16-.64-.23-1.29-.4-1.96-.52-.58-.1-1.17-.11-1.75-.09-.45.02-.91.05-1.36.1-.7.08-1.39.18-1.95.61-.07.03-.14.06-.22.09-.36.15-.71.33-1.05.51-.06.02-.12.05-.18.07-.28.09-.57.17-.85.23-.88.18-1.76.29-2.62.52-1.01.27-1.98.67-3 .9-.41.07-.81.13-1.22.16-.24.01-.47.01-.71.01-.68-.13-1.34-.32-2-.53z"/><path d="m171.03 262.71c.03.01.06.02.1.03.02.01.03.01.05.02-.05-.02-.1-.04-.15-.05z"/><path d="m180.7 261.72c-.06.02-.12.03-.18.04.06-.01.12-.03.18-.04z"/><path d="m181.66 261.45c-.04.02-.07.04-.11.05.04-.01.08-.03.11-.05z"/><path d="m137.62 262.5c-1.57-1.65-.89-4.75 1.69-4.6.04-.08.09-.17.15-.25.09.08.2.14.32.17.07.02.14.03.21.03.04 0 .07-.01.11-.01.02 0 .04-.01.05-.01l.12-.03c.4.04.8-.13 1.16-.31.25-.08.5-.21.74-.33-.04.02-.09.05-.14.07.15-.07.3-.14.43-.24.24-.19.39-.45.44-.73.24.06.46.16.65.31.71-.12 1.44-.12 2.04.35.02.02.04.03.06.05.68.07 1.38-.02 2.08-.11 1.2-.16 2.41-.32 3.48.34 1.72-.89 4.22-1.11 5.09 1.02.62 1.4-.11 3.1-1.5 3.69-3.08 1.08-7.09 1.78-10.01-.03-.04-.01-.08-.01-.12-.02-1.54.42-3.31 1.4-4.95 1.4-.71 0-1.44-.21-2.1-.76z"/><path d="m145.93 259.6c.21-1.59 1.86-1.52 3.09-1.44 2.04-1.08 4.66-1.45 6.95-1.16 2.76-.8 6.48-1.9 9.27-.99 1.27-.05 2.5 1 2.27 2.33-.23 1.74-2.1 1.84-3.48 1.95v.01h-.01c-2.55 0-5.11.61-7.59 1.05-.57.12-1.2.23-1.74-.04-1.48.15-2.98.47-4.47.22-.46.04-1.02.1-1.59.1-1.42 0-2.84-.34-2.7-2.03z"/><path d="m152.62 259.31c-.12-.9.54-1.85 1.48-1.94 2.12-.21 4.25-.35 6.37-.55 2.24-.21 4.47-.36 6.73-.39.94-.01 1.72.79 1.72 1.73-.18 2.57-3.53 1.51-5.19 1.84-3.05.27-6.11.53-9.16.79-.93.09-1.83-.52-1.95-1.48z"/><path d="m181.52 232.16c-.32.07-.66.04-.97-.08-.7 1.2-2.79.89-3.08-.51-.18-.79-.33-1.67.18-2.38-.62-.94-.36-2.24.65-2.79 1.93-1.2 6.75 2.63 6.86 4.6.04 1.91-2.57 2.72-3.64 1.16z"/><path d="m182.4 233.15c-2.2-3.1 2.31-6.3 4.38-3.1 2.28 3.06-2.38 6.31-4.38 3.1z"/><path d="m188.12 240.67c-.8-.65-1.24-1.59-1.87-2.38-.69-.62-1.54-1.33-1.61-2.32-1.11-1.8-3.32-3.37-3.12-5.68.16-1.01.88-1.88 1.88-2.14 1.62-.43 2.82.62 3.92 1.66 1.56 1.57 3.16 3.14 4.63 4.79.83 1.1.56 2.86.17 4.08.12 1.97-2.45 3.29-4 1.99z"/><path d="m171.36 257.43c-2.89-2.22-.92-6.7 2.67-6.1.1-2.11 1.58-3.78 2.68-5.47 1.27-1.82 2.2-4.03 4.14-5.25-.1-.13-.19-.27-.29-.4-.35-.48-.44-1.08-.26-1.61-1.07-1.79-3.33-4.01-1.71-6.12 1.77-2.14 4.2-.79 5.49 1.12 1.93.5 3.09 2.52 4.19 4.05 1.24 1.9 2.67 3.71 3.7 5.73 1.24 2.65-1.75 5.56-4.4 4.4-1.21-.56-2.42-1.21-3.78-1.32-.62.78-1.19 1.62-1.79 2.41 4.21.66 3.92 6.61-.24 7.14-1.07 1.12-2.67 1.69-4.18 1.9-2.02.76-4.43.9-6.22-.48z"/><path d="m196.62 258.97c-2.63-.98-6.26-2.79-6.14-6.04-.27-.74 0-1.64.73-2.06.01-.09.01-.17.03-.26.07-.52.26-.96.53-1.36-1.74-3.02-4.11-5.58-5.97-8.52-1.37-1.58-3.11-3.89-1.4-5.86-.22-1.89 1.92-3.44 3.66-2.63.94.33 1.34 1.38 2.22 1.76 1.55.97 3.21 2.83 3.52 4.68l.24.09c3.07-.83 4.32 3.18 5.66 4.97.64.98 1.36 1.92 2 2.89.77 1.41.58 3.54-.32 4.86.72 1.4 1.44 3.01 1.02 4.61-.69 2.48-3.34 4.48-5.78 2.87z"/><path d="m196.57 262.35c-3.67-.16-10.53-1.98-7.81-6.93.02-1.09.55-2.19 1.4-2.84 1.32-1 2.87-.93 4.42-.71.47-.43 1.04-.71 1.65-.85 1.01-3.02 4.25-2.94 6.63-1.66.57-.34 1.15-.51 1.72-.56l.21.18.02.02c-.01-.01-.01-.01-.02-.02s-.02-.02-.03-.03c.74.65 1.5 1.27 2.29 1.85 1.09.81 2.24 1.53 3.41 2.21.45.26.91.52 1.37.76.5.26 1.02.49 1.52.73.28.15.55.3.81.46 1.26 4.77-3.9 6.95-7.46 3.85-1.13.34-2.3.02-3.38-.51-.12.05-.24.08-.37.11-.63.14-1.25.18-1.88.14-.32.21-.67.37-1.05.47-.06 1.76-1.62 3.32-3.39 3.32-.02.01-.04.01-.06.01z"/><path d="m168.64 261.71c-.29-.11-.59-.21-.88-.31-.06-.06-.12-.12-.19-.17-.17-.13-.36-.23-.55-.33-.62-.32-1.35-.62-2.05-.45-.1-.04-.21-.07-.31-.11-.08-.03-.16-.04-.24-.05-.76-1.62.37-3.78 2.93-3.94.72-1.31 2.26-.77 3.4-.43.68-.08 1.36-.1 2.05.05 1.88.43 2.41 3.14.84 4.25-1.07.79-2.4 1.01-3.68 1.21-.23.22-.49.38-.77.49-.19-.08-.37-.15-.55-.21z"/><path d="m168.52 259.63c-1.25-.47-2.57-1.49-1.75-2.95.49-.84 1.53-1.06 2.36-.62.69.39 1.34.56 1.66 1.31.63 1.34-.92 2.93-2.27 2.26z"/><path d="m137.32 260.55c-.42-.17.01-.56.14-.78.17-.28.6-.03.43.25-.15.19-.27.58-.57.53z"/><path d="m136.78 261.29c-.05-.14-.06-.29 0-.43-.09-.5.34-1.21.88-1.2.59.13.05.7-.18.9 0-.01.01-.01.01-.02-.05.26.2.58-.17.73-.01.33-.49.34-.54.02z"/><path d="m137 261.03c0-.14.11-.25.25-.25s.25.11.25.25-.11.25-.25.25-.25-.12-.25-.25z"/></g><path d="m197.79 265.06c-2.14-.13-4.27-.87-6.14-1.88-1.51-.89-2.97-1.88-4.75-1.88-2.11-.29-4.27-.03-6.11 1.04-2.11.71-4.01 2.16-6.31 1.93-2.87 0-5.26-1.66-7.75-2.84-1.99-.92-4.05-.85-6.13-.63-2.1.09-3.81 1.4-5.84 1.81-5.31 1.63-10.29 1.71-14.39-2.55-.88-.53-1.7-.89-2.65-1.1-.68.14-1.68.85-2-.09.15-.16.31-.31.47-.46.01 0 .01-.01.02-.02.02-.02.04-.03.06-.05-.01.01-.02.02-.04.03.13-.1.26-.2.39-.29.16-.07.32-.13.49-.18.27-.08.54-.14.82-.19h-.01.03c.25-.04.49-.08.73-.14 1.87.48 3.28 1.76 4.79 2.87 2.04 1.21 4.46 1.45 6.78 1.28 2.48-.36 5.1-.66 7.34-1.79 2.56-.88 5.48-1.09 8.12-.46 2.73.73 4.99 2.78 7.88 2.91 2.48.35 4.42-1.14 6.7-1.79 2.91-1.27 6.31-1.3 9.3-.31 2.27 1.21 4.65 2.82 7.28 2.95 3.76.23 6.15-3.41 9.86-3.49 1.79-.42 3.53-.16 5.25.34.4.21.8.43 1.2.62.27.13.54.25.83.35.48.33.96.66 1.44.87.88.42 1.82.31 2.76.21.44-.05.88-.1 1.31-.09 1.52-.17 3.37-.75 4.18-2.09-.43-.77-1.36-1.4-2.25-1.28-1.27.41-2.61.59-3.93.61-.89-.27-1.77-.54-2.64-.87-.02-.01-.04-.02-.06-.03-.02 0-.03-.01-.04-.02-.19-.08-.38-.17-.56-.25 0-.01-.01-.01-.02-.01.01 0 .02.01.02.01-.27-.14-.54-.29-.82-.43-.34-.17-.69-.32-1.03-.48-.02-.01-.04-.02-.06-.03.01 0 .02 0 .02.01-.02-.01-.03-.02-.05-.02-.14-.08-.29-.16-.43-.25-.01-.01-.02-.01-.03-.02-.24-.15-.46-.33-.7-.46-.2-.11-.39-.23-.6-.31-.19-.07-.38-.12-.56-.17-.24-.06-.48-.09-.72-.11-.2-.02-.39-.04-.59-.05-.43-.02-.86-.01-1.29.02-.01 0-.02 0-.03 0s-.02 0-.02 0h.02c-.01 0-.02 0-.04 0h.02c-.18.01-.37.01-.55.04-.2.03-.4.08-.59.14-.33.1-.63.26-.93.44-.18.11-.35.24-.52.38-.89.39-1.86 1.03-2.96 2.01-1.38 1.34-3.28 1.37-5.05 1-1.1-.08-2.16-.36-3.19-.69-.11-.05-.21-.11-.32-.16-.36-.17-.72-.34-1.08-.51-.03-.01-.05-.03-.08-.04-.27-.13-.54-.28-.8-.42-.26-.15-.52-.27-.79-.41s0 0-.01 0h.01-.01c-.01 0-.01-.01-.02-.01h-.01c-.01 0-.01 0-.02-.01-.17-.11-.34-.22-.53-.3-.16-.13-.33-.23-.52-.31-.05-.02-.11-.04-.16-.07-.14-.08-.29-.17-.44-.23-.2-.08-.4-.15-.61-.19-.55-.12-1.1-.1-1.66-.06h.01c.03 0 .06 0 .09-.01-.03 0-.06 0-.09.01h-.01c-.01 0-.03 0-.05 0h.05c-.28.02-.55.07-.82.15-.21.05-.39.14-.58.24h.01c-.01 0-.01 0-.01.01s0 0-.01 0h-.01s-.01 0-.01.01c0 0-.01 0-.01.01.01 0 .01 0 .01-.01h.01c-.02.01-.05.02-.07.04.02-.01.04-.02.05-.03-.09.04-.18.09-.27.14-.02.01-.04.01-.07.02-.18.04-.35.09-.52.15-.23.08-.46.16-.68.27-.2.1-.38.24-.57.36-.14.09-.29.16-.42.25-.07.05-.14.1-.2.15 0 0-.01 0-.02.01-1.51.53-2.86 1.33-4.25 2.07-1.89.68-3.92.76-5.87.35-4.78-.81-3.27-4.06-9.42-2.62-1.31.29-2.53.82-3.75 1.35-.31.21-.69.11-.87-.22-.5-1.02.82-1.35 1.52-1.61 1-.57 2.13-.82 3.24-1.11.16-.04.31-.07.46-.1.14 0 .29.01.43.02h-.01.05.06.01s0 0-.01 0h.02-.01.04.01.04.02s.02 0 .02 0h.05s0 0-.01 0c.63.06 1.24.2 1.86.33.48.1.95.23 1.42.34.34.08.68.18 1.02.29.45.15.89.31 1.34.46.32.1.63.21.96.29.08.02.16.03.24.05.59.27 1.32.51 2.3.67 1.91.48 3.93.26 5.66-.65h.03c.22-.04.45-.09.66-.16.3-.09.58-.21.83-.39.07-.05.13-.11.2-.16.07-.03.15-.07.23-.11.25-.12.48-.26.72-.39.4-.16.8-.33 1.2-.52.57-.2 1.14-.34 1.73-.46.35-.07.7-.14 1.04-.2.12-.02.24-.04.36-.06.39.02.78.07 1.15.12 3.18.12 6.04 2.04 9.23 2.17 2.14.36 4.15-.13 5.82-1.53 4-2.6 7.19-1.89 11.06.44 1.95.72 4.12 1.05 6.15.7.77-.02 1.35-.34 2.02-.46h.03c.05 0 .09 0 .14-.01.08 0 .16-.01.24-.04h.19c1.41.04 2.81 1.12 3.25 2.46.34 1.74-1.39 2.75-2.7 3.44-1.99.95-4.36.88-6.52.93-1.46-.24-2.69-.96-3.98-1.58-.84-.14-1.6-.48-2.42-.67-1.25-.02-2.5.22-3.73.43-2.59.88-4.75 3.07-7.58 3.07-.15-.04-.28-.05-.41-.05z" fill="#333"/><path d="m151.77 260.49c-2.57-.44-5.27-.98-7.47-2.39-2.25-.88-5.15-.12-6.66 1.73-.27.29-.7.23-.93-.07-.33-.73.12-1.41.87-1.97.12-.03.25-.05.37-.07h-.01.03c.34-.05.67-.11 1-.22.33-.1.65-.21.97-.33.02 0 .03-.01.05-.02-.01 0-.02 0-.02 0 .01 0 .02 0 .02-.01.39-.15.79-.29 1.18-.46.26-.11.52-.23.71-.45.02-.02.03-.04.05-.06 1.57-.16 3.02.46 4.4 1.16 2.09.52 4.36 1.13 6.49.95 1.68-.14 3.24-.63 4.78-1.19.26-.05.52-.1.78-.17.84-.21 1.68-.48 2.54-.62.53-.08 1.08-.09 1.62-.1.41 0 .82 0 1.22.03 0 0-.01 0-.02 0h.06.06.01s0 0-.01 0h.02-.01.05c-.01 0-.01 0-.02 0h.01c-.02 0-.04 0-.05 0h.05.04.03c.03 0 .05.01.08.01 0 0 0 0-.01 0 .63.06 1.24.2 1.86.33.48.1.95.23 1.42.34.32.08.63.16.95.26-1.17-.33-2.45-.41-3.65-.4-2.28.18-4.2 1.34-6.09 2.5-1.82.7-3.75 1.23-5.7 1.23-.36.05-.72.03-1.07-.01z" fill="#333"/><path d="m170.27 258.31c-.5-.2-1.04-.45-1.37-.88.26.09.52.18.77.26.32.1.63.21.96.29.28.06.56.11.84.15.83.12 1.66.2 2.5.27.45.04.89.07 1.34.07.12 0 .25 0 .38-.01.65-.02 1.3-.12 1.95-.21.41-.05.82-.13 1.22-.21.22-.04.45-.09.66-.16.3-.09.58-.21.83-.39.07-.05.13-.1.2-.16.08-.04.15-.07.23-.11.28-.14.55-.3.83-.45.07-.03.14-.06.2-.09.22-.09.44-.19.67-.29 0 0-.01 0-.02.01.02-.01.04-.02.06-.02.01 0 .02-.01.03-.01h.01.01.01s0 0 0 0 .01-.01.01-.01c.25-.09.49-.17.74-.24.48.04.7.6.6 1.05-.16.06-.32.12-.47.19-.2.1-.38.24-.57.36-.14.09-.29.16-.42.25-.17.12-.32.26-.48.38 0 0-.01.01-.01.01-.1.06-.19.13-.29.2-.62.35-1.24.7-1.97.89-.98.3-1.98.44-2.98.44-2.22-.01-4.45-.67-6.47-1.58z" fill="#333"/><path d="m171.48 258.13c-.02 0-.04-.01-.07-.01.05.01.11.02.16.02-.02 0-.06 0-.09-.01z" fill="#333"/><path d="m138.82 263.7c-1.38-.04-3.26-1.28-3.95-2.67-.01-.08-.02-.16-.02-.23 0-.06 0-.12.01-.18 0-.01 0-.02 0-.04.01-.05.02-.11.03-.16.02-.08.04-.15.07-.23-.01.02-.01.03-.02.04.06-.15.13-.3.2-.45.07-.14.13-.28.2-.41 0 0-.01.01-.01.02 0-.01.01-.01.01-.02 0 0 0-.01.01-.01v.01s0 0 0-.01c.06-.1.13-.2.21-.29-.01.01-.02.02-.02.02.21-.25.45-.48.69-.7.01-.01.02-.02.04-.03.03-.02.05-.04.08-.06.37.13.69.45 1 .68.32.23.39.7.26 1.05-.1.02-.18.11-.21.2-.02.05-.02.09-.02.14-.12.11-.29.17-.48.16.11.1.22.2.33.28-.02.08-.02.16 0 .24.02.09.07.17.13.24.02.04.05.07.07.1.06.06.12.11.19.16s.15.08.24.11c.08.03.16.04.24.04s.16-.01.24-.03c.16-.04.3-.14.38-.28.87.11 1.81-.07 2.72-.2 1.39-.16 2.76.08 4.13.27 1.15.2 2.16.28 3.25.39.63.13 1.48.04 1.48.89 0 .35-.25.78-.65.76-1.43-.11-3-.35-4.38-.52-1.21-.2-2.39.06-3.56.32-.89.19-1.79.39-2.69.39-.1.01-.15.01-.2.01z" fill="#333"/><path d="m141.89 256.25s0-.01 0-.02c.14-.17.25-.36.36-.54.1-.17.2-.35.3-.52.2-.21.41-.43.62-.65.02-.01.03-.02.04-.04.45-.21.96-.34 1.35-.5 4.12-2.48 8.77-4.55 12.19-7.98 2.69-2.7 3.91-6.58 6.54-9.3 1.13-.66 2.31-1.18 3.54-1.58.14.12.34.16.53.16.06 0 .11 0 .16-.01.21-.03.42-.09.62-.14.43-.11.86-.24 1.29-.34.46-.11.94-.21 1.41-.31.11-.01.21-.03.32-.04.36-.05.72-.11 1.08-.16.78-.12 1.57-.2 2.35-.28h.05s.03 0 .05 0c-.02 0-.04 0-.05 0 .02 0 .04-.01.06-.01h-.01s0 0 .01 0 .01 0 .01 0c.37-.04.75-.07 1.12-.11h-.01c-.01 0-.02 0-.02 0h.02.04c.19-.01.37-.02.55-.04 0 0-.01 0-.02 0h.07c.32-.02.64-.04.96-.05.28-.01.56-.01.85-.01.29-.01.59-.01.88-.02.12.01.23.02.35.03.21.02.42.05.63.07.33.03.67.03 1 .04.3.01.6.02.9.03-.01 0-.03 0-.04 0h.37c-.01 0-.02 0-.04 0h.15c-.01 0-.02 0-.04 0 .25 0 .5.02.75.04.21.02.43.02.64.03.47.02.95.04 1.41.06-.01 0-.02 0-.04 0 .14.01.29.02.44.02 0 0 0 0-.01 0 .07.01.15.02.22.02-.01 0-.02 0-.04 0h.09c-.01 0-.02 0-.04 0 .33.03.66.04 1 .06.04 0 .08.01.12.01.07.01.14.02.21.03.13.04.25.07.38.12-.02-.01-.04-.01-.05-.02.06.02.12.04.17.05h.01c.02 0 .03.01.05.01-.01 0-.02-.01-.04-.01-.01 0-.02 0-.03-.01.01 0 .02 0 .03.01.01 0 .03 0 .04.01h.02.01c-.01 0-.02 0-.02 0-.02 0-.04-.01-.05-.01.06.01.12.02.18.02.05 0 .1 0 .15-.01.3.12.6.23.9.33.22.07.46.15.7.15h.02c.31 0 .57-.14.75-.36 1.71.44 3.32 1.16 4.72 2.38.78.66 2.44 1.6 1.79 2.77-.04.05-.08.09-.12.13-.18-.21-.36-.41-.55-.59.01.01.02.02.02.02-.09-.08-.17-.16-.26-.25-.05-.04-.09-.09-.14-.13-.02-.02-.05-.04-.07-.05-.21-.23-.44-.44-.68-.62-.03-.02-.05-.04-.08-.06-.3-.24-.55-.54-.87-.76.02.01.03.02.05.04-.12-.09-.23-.18-.35-.26-.15-.11-.31-.19-.47-.28.02.01.03.02.05.02-.25-.14-.52-.28-.8-.33-.01 0-.01 0-.02 0-.35-.12-.7-.27-1.06-.37-.19-.05-.39-.1-.58-.15s-.37-.08-.56-.12c.02 0 .03.01.04.01-.09-.02-.17-.04-.25-.06-.19-.04-.38-.11-.57-.14-.27-.04-.53-.07-.8-.11-.07-.01-.15-.02-.22-.03-.28-.07-.55-.12-.83-.18-.31-.05-.62-.09-.94-.12-.53-.05-1.07-.09-1.6-.13-.58-.04-1.16-.12-1.75-.15-.37-.02-.74-.04-1.11-.02-.27.01-.54.01-.82 0-.52-.02-1.04-.02-1.56-.03h.08c-.55-.01-1.09-.03-1.64-.02-.4.01-.8.03-1.2.05h.02c-.64.04-1.28.1-1.91.16-.35.04-.7.09-1.06.13-.34.04-.68.08-1.01.13-.46.07-.92.14-1.37.24-.5.11-1.01.23-1.5.36s-.99.27-1.48.42c-.38.11-.76.24-1.12.4-1.36.55-3.07.63-4.12 1.72-1.46 1.89-2.55 3.91-3.81 5.92-3.67 5.54-9.7 9.75-16.02 11.64.09.64-.5 1.01-1.07 1.01-.48.02-.93-.25-.91-.82z" fill="#333"/><path d="m218.32 257.46c-3.67-2.06-7.64-3.67-11.11-6.05-2.68-1.63-5.6-3.34-6.86-6.34-.3-.91-.84-1.71-1.42-2.46-.18-.27-.36-.53-.53-.79-.08-.11-.14-.23-.22-.34-.09-.14-.2-.27-.3-.4.01.01.02.02.02.03-.03-.04-.06-.08-.1-.11.01.01.02.02.03.02-.01-.01-.03-.02-.04-.04.01.01.02.02.03.02-.08-.08-.16-.18-.22-.26-.03-.03-.05-.07-.09-.1s0-.01-.01-.01c0 0 .01.01.01.01-.05-.06-.11-.13-.16-.2-.01-.01-.01-.02-.02-.03s0 0 0-.01 0 0-.01-.01c0 0 0 0 0-.01 0 0 0 0 0-.01s-.01-.01-.01-.02c0 0 .01.01.01.02-.03-.04-.06-.07-.09-.11.01.01.01.02.02.03-.03-.05-.07-.09-.1-.13.01.01.02.02.02.03-.03-.04-.05-.07-.09-.11s-.01-.01-.01-.01 0 0 0 .01c0 0 0-.01-.01-.01s0 0 0 0 0 0 0-.01v.01s-.01-.01-.01-.02v.01c-.01-.01-.01-.02-.02-.02 0 0 .01.01.01.01-.24-.31-.5-.62-.79-.89.01.01.02.02.02.02-.09-.08-.17-.16-.26-.25-.05-.04-.09-.09-.14-.13-.02-.02-.05-.04-.07-.06-.21-.22-.44-.43-.68-.62-.01-.01-.02-.02-.04-.03 0 0-.01-.01-.01-.01-.01-.01-.02-.02-.03-.02-.3-.24-.55-.53-.85-.75-.08-.06-.16-.12-.25-.19.07 0 .16.02.25.05.76-.79 2.2.83 2.91 1.23 2.62 1.96 4.17 4.43 5.46 7.36 1.83 2.48 4.8 3.7 7.21 5.43.9.54 1.82 1.03 2.75 1.51.08.05.16.1.24.15.14.08.29.16.43.25-.01-.01-.02-.01-.03-.02.12.07.23.14.35.21.11.06.21.12.32.18s.22.12.34.18c.11.05.21.11.32.16.21.11.41.22.62.32.11.05.22.11.33.17s.23.12.34.18c-.01 0-.02-.01-.03-.02.14.09.29.17.44.25-.01 0-.02-.01-.03-.02.14.08.29.16.44.23 0 0 0 0-.01 0 0 0 0 0-.01 0h.01c.03.02.06.03.09.05 0 0 0 0 0-.01.14.07.28.14.42.21.18.09.35.16.52.25.16.07.32.15.48.22h-.01s-.01 0-.01-.01c0 0 .01 0 .01.01.13.06.26.12.39.18.16.07.31.14.47.21.08.04.16.07.24.1.01 0 .01.01.02.01.34.49.04 1.37-.55 1.37-.12.03-.23.01-.34-.05z" fill="#333"/><path d="m221.17 258.71c-.73-.3-1.47-.67-2.23-.91-.42-.16-.59-.65-.48-1.06.08-.3.33-.57.64-.6.03.01.07.03.1.04.04.02.08.05.13.07.1.05.21.11.31.16.2.11.4.21.62.3 0 0 0 0-.01 0 .11.04.22.09.34.13.09.03.18.05.27.09.08.02.16.06.23.09.06.01.11.02.17.02h.04.12c.14.1.27.21.39.34.37.46.11 1.36-.52 1.36-.04-.02-.08-.02-.12-.03z" fill="#333"/><path d="m166.28 236.26c-.33-.53-.84-1-.97-1.62.28-2.16 2.66-3.38 4.26-4.57 1.69-1.02 3.07-2.16 4.84-2.98 4.66-2.12 10.02-.06 13.84 2.88 1.81 1.1 3.54 2.63 4.32 4.61.21.82.02 1.41-.38 1.77-.2-.07-.4-.14-.61-.2-.19-.05-.39-.1-.58-.15-.18-.05-.36-.08-.54-.12h.01c-.08-.02-.16-.04-.24-.05-.19-.04-.38-.11-.57-.14-.14-.02-.28-.04-.42-.06-.06-.28-.02-.59.12-.83.1.02.21.04.31.04h.02c.52 0 .9-.4.98-.88.11-.66-.3-1.26-.74-1.7-.23-.23-.47-.46-.74-.64-.13-.35-.35-.65-.65-.91-.04-.03-.07-.05-.1-.08-.11-.09-.24-.16-.36-.24-.21-.2-.41-.4-.64-.58-.27-.23-.55-.44-.84-.64-.02-.02-.04-.03-.07-.05-.27-.18-.54-.36-.82-.52-.35-.21-.72-.33-1.11-.46-.71-.25-1.43-.45-2.17-.61h.01c-.06-.01-.12-.02-.18-.04 0 0-.01 0-.02 0-.83-.16-1.68-.21-2.52-.16-.61.03-1.23.05-1.84.16s-1.21.27-1.8.47c-.91.31-1.83.7-2.65 1.21-.3.14-.6.28-.89.43-.23.12-.46.24-.69.38-.17.1-.32.21-.49.32.02-.01.04-.03.07-.04-.49.3-.99.6-1.47.92-.52.35-.97.79-1.45 1.19.02-.01.03-.03.05-.04-.34.28-.7.54-1.02.85-.16.16-.32.31-.46.48-.07.09-.13.17-.2.26-.05.08-.12.16-.14.26-.01.05 0 .11.01.16-.01.03-.02.07-.04.1-.03.05-.05.11-.06.17 0 .02-.01.04-.01.05 0 .05 0 .1.02.15.01.04.03.07.05.11.03.07.07.14.13.19.14.13.34.17.54.17h.08c.16.35.19.72-.14 1.06-.13.14-.3.2-.47.2-.23.01-.44-.08-.57-.28z" fill="#333"/><path d="m189.67 235.33c-.41-.04-.73-.33-1.1-.48-.3.02-.58-.11-.82-.29-.24-.02-.48-.02-.72-.02-.41.01-.83.02-1.22-.11-.66.23-1.55.55-2.16.05-.72.03-1.45.07-2.17.01-.32-.04-.52-.29-.59-.59h.24c.3.01.6.02.9.03-.01 0-.03 0-.04 0h.37c-.01 0-.02 0-.04 0h.15c-.01 0-.02 0-.04 0 .25 0 .5.02.75.05.21.02.43.02.64.03.47.02.95.04 1.41.06-.01 0-.02 0-.04 0 .14.01.29.02.43.02h-.01.02.02c-.01 0-.01 0-.02 0 .07.01.14.01.21.02-.01 0-.02 0-.04 0h.09c-.01 0-.02 0-.04 0 .33.03.66.04 1 .06.04 0 .08 0 .12.01.07.01.14.02.21.03.13.04.26.07.38.12-.03-.01-.07-.02-.1-.04.08.03.15.05.22.07.03.01.05.01.08.02 0 0 0 0-.01 0h.12c.05 0 .1-.01.15-.01.3.12.6.23.9.33.22.07.46.15.7.15h.01c.33 0 .6-.16.78-.4-.01.41-.3.89-.76.89.04-.01.03-.01.02-.01z" fill="#333"/><path d="m176.05 227c.2-.26.48-.31.79-.33 1.44-.05 3.06-.14 4.29.68-.48-.04-.96-.04-1.43-.02-.61.03-1.23.05-1.84.16s-1.21.27-1.8.47c-.01 0-.02.01-.04.01-.15-.2-.17-.52.03-.97z" fill="#333"/><path d="m182.37 227.53c-.04-.01-.09-.02-.13-.03-.01 0-.01 0-.02 0h.01c-.18-.04-.36-.06-.55-.09-.02-.03-.03-.06-.05-.09-.29-.45-.53-.92-.76-1.39-.54 1.42-2.5 1.41-3.25.18-.21.96-1.47.7-1.43-.24.05-1.82 0-3.96 1.65-5.14.23-.12.47-.22.72-.3.12-.01.24-.03.36-.04.5.04 1 .06 1.49.06.27 0 .53-.01.8-.02.01 0 .01 0 .02.01.09.03.18.05.27.06.53.37.84 1.04 1.11 1.47.8.75 1.32 4.72.27 5.68-.16-.05-.34-.09-.51-.12zm-2.04-5.26c.35.19.57.57.77.9.14.24.27.48.41.73-.21-.57-.56-1.1-.91-1.6-.08-.01-.17-.02-.25-.03-.01 0-.02 0-.03 0-.01-.01 0 0 .01 0zm-2.35.8c.2-.29.49-.44.73-.67-.33.09-.56.39-.73.67z" fill="#333"/><path d="m177.64 226.96c-.49-.45-.57-1.65.11-1.98-.07-.25-.06-.53-.03-.78.03-.23.11-.45.22-.66-1.42-.86.68-2.88 1.41-1.39.38-.3.81-.06 1.18.08.8-.01 1.04 1.01 1.07 1.66.3.92.23 2.12-.39 2.89-.46.47-1.24.33-1.81.33-.52.27-1.32.3-1.76-.15z" fill="#333"/><path d="m191.33 235.47c-.03-.12-.06-.29-.11-.38-.2-.31-.41-.61-.64-.9.03-.07.05-.15.06-.23.11-.66-.3-1.26-.74-1.7-.23-.23-.47-.46-.74-.64-.13-.35-.35-.65-.65-.91-.04-.03-.07-.05-.1-.08-.11-.09-.24-.17-.36-.24-.21-.2-.41-.4-.64-.58-.27-.22-.55-.44-.85-.64-.01 0-.01-.01-.02-.01-.01-.01-.01-.01-.02-.02.01 0 .01.01.02.01-.01-.01-.02-.02-.04-.03.02.01.04.02.05.04-.06-.04-.12-.08-.18-.12.03.02.06.04.09.07-.26-.18-.52-.34-.8-.5-.37-.21-.75-.34-1.16-.48.02 0 .04.01.05.02-.04-.01-.07-.02-.11-.04-.61-.21-1.23-.38-1.85-.52-.82-.57-.1-2.23.87-1.57.74.69 1.67 1.01 2.52 1.52 2.68 1.76 5.16 4.06 6.79 6.75.24.62.46 1.5-.25 1.88-.11.06-.23.09-.34.09-.4-.02-.78-.36-.85-.79z" fill="#333"/><path d="m179.4 220.52c-.15-.03-.28-.08-.4-.14.4.03.81.05 1.21.06-.19.06-.39.1-.61.1-.06 0-.13-.01-.2-.02z" fill="#333"/><path d="m192.4 236.24c-1.24-.12-1.28-2.06.02-1.86 1.25.1 1.29 2.08-.02 1.86z" fill="#333"/><path d="m178.79 220.36c.54.05 1.09.07 1.63.07h.1c-.32.28-.66.46-.97.46-.29.01-.56-.15-.76-.53z" fill="#333"/><path d="m179.52 221.77c-.51-.29-.66-.86-.69-1.41.53.05 1.06.07 1.59.07.3 0 .6-.01.9-.02.01.09.01.17.02.26.02.7-.61 1.26-1.25 1.26-.2 0-.39-.05-.57-.16z" fill="#333"/><path d="m137.56 262.12c-.34-.13-.61-.43-.65-.79-.18.03-.54-.21-.51-.41.08-.35-.14-1.3.45-1.16.02-.02.03-.03.05-.04.04-.02.08-.03.11-.03.01-.01.01-.02.02-.02.06-.06.15-.08.23-.07.28-.37.59-.71.98-.96.11-.11.3-.12.4.01.07.09.07.25-.02.33-.48.37-.86.89-1.12 1.39-.11.37-.2.77-.03 1.11.15.16.52.21.41.51-.05.13-.2.18-.32.13z" fill="#333"/><path d="m138.19 261.98c-.55-.08-1.33-.25-1.37-.92-.02-.13.08-.26.21-.28.41 0 .16.41.5.5.22.12.45.14.7.12.39.01.35.63-.04.58z" fill="#333"/><path d="m139.56 262.12c-.43-.02-.85-.1-1.28-.09-.42-.06-.33-.71.09-.65.17.02.34-.01.51.02.82.13 1.59.07 2.41.06.15.01.28.11.3.26.02.16-.1.31-.26.34-.58.08-1.17.09-1.77.06z" fill="#333"/><path d="m138.19 261.89c-.73-.04-1.38-.74-1.25-1.48.09-.31.57-.18.48.13-.03.29.2.63.44.76.16.05.28.07.43.08.37.05.24.61-.1.51z" fill="#333"/><path d="m137.93 261.73c-.14-.04-.27-.1-.39-.18-.12-.07-.22-.17-.32-.28s-.17-.25-.21-.39c-.02-.08-.04-.16-.04-.24-.01-.1.01-.19.04-.29.04-.13.18-.21.31-.17s.21.18.18.3c-.01.03-.02.05-.02.07v.01.04c0-.01 0-.02 0-.03 0 0 0 0 0-.01v.01.01c0 .04.01.08.01.08.01.04.02.08.02.09.01.03.02.05.02.07 0 .01.01.02.01.03.01.01.02.03.03.04.01.02.03.03.04.05.01.01.01.01.01.01.04.04.08.08.1.11.03.02.05.04.05.04.04.03.09.06.11.07.04.02.09.04.13.05.02.01.04.01.06.02.13.04.21.18.18.31-.03.11-.14.19-.24.19-.04 0-.06-.01-.08-.01z" fill="#333"/><path d="m139.12 261.93c-.37-.02-.74-.07-1.09-.17-.31-.08-.18-.57.13-.48.18.06.36.09.54.12 1.31.13 2.61-.19 3.91-.16.12.02.21.11.23.23.02.13-.07.27-.2.3-1.17.08-2.34.22-3.52.16-.01 0 0 0 0 0z" fill="#333"/><path d="m144.23 257.1c-.01 0-.03-.01-.04-.02-.2.04-.29-.17-.39-.3-.07.09-.17.11-.26.08-.84.08.09-1.27.39-1.3.13-.1.29-.27.46-.18.06-.02.14-.01.19.02 1.33-.86 2.83-1.49 4.16-2.31.52-.2 1.08-1.31 1.64-.98.11.11.12.29.03.42-1.11 1.67-3.21 2.25-4.9 3.12-.35.17-.78.18-.95.52-.06.19.04.35.16.47.15.18-.04.47-.26.39-.06.07-.15.1-.23.07z" fill="#333"/><path d="m218.6 257.84c-.69-.43-1.38-.87-1.96-1.45-.23-.23.12-.59.35-.36.5.49 1.08.89 1.65 1.21.35.11.43.7-.04.6z" fill="#333"/><path d="m214.49 255.17c0-.14.11-.25.25-.25s.25.11.25.25-.11.25-.25.25-.25-.11-.25-.25z" fill="#333"/><path d="m158.25 259.47c0-.14.11-.25.25-.25s.25.11.25.25-.11.25-.25.25-.25-.12-.25-.25z" fill="#fff"/><path d="m158.3 259.55c-.05-.12.01-.28.13-.32 1.16-.28 2.29-.76 3.45-1.02.42 0 1.29-.47 1.5.02-.05.51-.99.28-1.35.46-1.16.24-2.22.73-3.37.99-.13.06-.3.02-.36-.13z" fill="#fff"/><path d="m155.53 260.35c0-.14.11-.25.25-.25s.25.11.25.25-.11.25-.25.25-.25-.11-.25-.25z" fill="#fff"/><path d="m155.54 260.39c-.02-.16.1-.28.25-.29 1.47-.44 2.94-.88 4.4-1.34.13-.04.27.05.3.18 0 .52-.9.42-1.22.62-1.16.39-2.3.7-3.45 1.04-.14.02-.27-.08-.28-.21z" fill="#fff"/><path d="m155.37 260.42c-.03-.25.24-.29.42-.35.55-.2 1.07-.35 1.62-.5.61-.2 1.24-.38 1.85-.58.3-.12.49.33.2.46-1.26.41-2.55.76-3.8 1.19-.14.02-.28-.09-.29-.22z" fill="#fff"/><path d="m155.22 260.37c-.02-.14.08-.26.21-.28 1.15-.41 2.38-.68 3.54-1.11.33-.26 6.35-1.72 4.83-.47-2.78.04-5.33 1.25-7.97 1.97-.21.09-.55.2-.61-.11z" fill="#fff"/><path d="m152.25 260.82c-1.53-.09-3.06-.22-4.54-.57-.18-.05-.44-.08-.41-.33.02-.13.15-.23.28-.21 1.04.24 2.1.41 3.16.52 3.88.58 7.43-1.15 11.02-2.3 1.76-.56 3.79-.88 5.45.11.29.17.93.54.62.91-.1.08-.27.07-.35-.04-2.3-2.11-5.72-.43-8.24.42-2.27.8-4.57 1.57-6.99 1.49z" fill="#fff"/><path d="m176.91 260.69c-.03-.34.4-.29.62-.38.23-.05.59-.32.74-.01.12.28-.24.38-.43.43-.28.06-.82.38-.93-.04z" fill="#fff"/><path d="m176.45 261.03c-.19-.26.17-.47.39-.53.88-.28 1.71-.74 2.51-1.17 2.62-1.19 5.2-3.41 8.25-2.71.13.04.21.18.18.31-.04.13-.18.21-.31.18-1.24-.31-2.58.05-3.71.48-2.29 1.13-4.46 2.53-6.85 3.41-.15.12-.33.2-.46.03z" fill="#fff"/><path d="m179.12 259.89c-.07-.12-.03-.27.09-.34.77-.47 1.54-.94 2.32-1.4 2.16-1.33 5.1-2.82 7.48-1.17.31.33-.19.63-.44.29-2.39-1.35-4.98.23-7.05 1.47-.73.41-1.42.93-2.17 1.28-.1-.01-.19-.05-.23-.13z" fill="#fff"/><path d="m176.57 257.88c-.12 0-.24-.03-.34-.07-.3-.12-.1-.59.2-.46 1.1.09 2.28-.05 3.32-.43.12-.05.28.01.33.13.05.13-.01.27-.13.33-1.08.41-2.25.48-3.38.5z" fill="#fff"/><path d="m177.82 257.99c-.7-.02-.65-.88-.03-.51 1.62.13 3.12-.66 4.53-1.32 2.66-1.21 5.75-1.27 8.52-.38.31.08.19.58-.13.48-2.41-.75-5.13-.86-7.47.08-1.76.67-3.46 1.78-5.42 1.65z" fill="#fff"/><path d="m180.93 220.17-.4-.02-.3-.02-.18-.03-.19-.03-.2-.04-.22-.05-.24-.05-.21-.06-.18-.07c-.28-3.25.08-6.49.06-9.74.21-9.45.52-18.91 1.27-28.32-6.75-2.74-2.02-22.2-.82-27.95.07-.42.13-.84.19-1.25.06-.38.66-.3.6.08-.07.46-.12.93-.22 1.39-1.22 5.56-5.12 23.09.4 26.5.33-2.74 1.64-6.7 4.68-7.32 1.49-.02 1.87 1.49 1.45 2.68-.64 2.43-2.09 5.25-4.71 5.91-.2 12.08-.31 24.16-.48 36.23.05.72.07 1.45.11 2.17zm3.47-45.47c-1.72 1.39-2.51 3.61-2.62 5.76.07-.03.14-.06.13-.05 1.96-1.12 2.98-3.41 3.36-5.55.03-.18-.05-.36-.22-.38 0 0 0 0-.01-.01h-.01c-.23 0-.46.1-.63.23z" fill="#333" fill-opacity=".77"/><path d="m180.35 220.59c-.47-.15-1.15.19-1.49-.21-.04-.3-.18-.89.24-.92.05-.07.14-.1.23-.09.12.01.21.12.21.24.36-.01.71.12 1.05.23-.06-.43.52-.51.53-.06.19.15.28.74-.05.79-.09.01-.19.06-.28.01-.18.02-.31.04-.48.01 0-.01.04 0 .04 0z" fill="#333" fill-opacity=".77"/><path d="m180.85 220.45c-.31-.07-.29-.38-.37-.62-.09-.32.41-.45.48-.12.28.18.42.94-.11.74z" fill="#333" fill-opacity=".77"/></svg>