<svg xmlns="http://www.w3.org/2000/svg" viewBox="0 0 24 27.71">
    <defs>
        <clipPath id="a">
            <path style="fill:none" d="M0 0h24v27.71H0z"/>
        </clipPath>
    </defs>
    <g style="clip-path:url(#a)">
        <path d="M4.18 2.15h.02c-.99 0-1.97-.08-2.95-.17-.31-.07-.18-.6.13-.5 5.3-.31 10.63-.35 15.95-.26.7.13 1.47.12 2.25.11 1.17-.02 2.35-.04 3.27.46-.66.34-1.43.32-2.2.3-.42-.01-.84-.02-1.24.03-2.95-.08-5.89-.04-8.82-.01-1.67.02-3.33.04-4.99.04H4.17Z"/>
        <path d="M4.87 6.97c-1.14-.11-2.27-.33-3.41-.26-.19-.04-.29-.25-.32-.42-.01-.51-.32-5.13.52-4.51 0 0-.01 0-.02-.01.18.08.17.37 0 .47.08 1.17.21 2.37.19 3.56 3.97.37 7.94.29 11.91.21 2.77-.06 5.55-.11 8.31-.02.21-1.32.1-2.63.41-3.93-.15-.2.01-.63.29-.5.4.27.09.88.14 1.28-.23 1.22.02 2.48-.35 3.65a.5.5 0 0 1-.43.28c-1.35-.06-2.68 0-4.03.05-3.91.11-7.77.17-11.67.17H4.87ZM3.7 12.37h.04-.79c-.49 0-.97 0-1.44-.04-.11-.03-.16-.17-.15-.27.02-.26.29-.25.47-.21 4.7-.58 9.47-.4 14.19-.17.6.02 1.25 0 1.93-.02 1.58-.04 3.25-.08 4.51.36-.87.43-1.94.38-2.95.31-.38-.02-.74-.05-1.09-.04-3.47.06-6.94.11-10.41.11-1.44 0-2.87 0-4.31-.03Z"/>
        <path d="M1.59 16.56c-.15 0-.27-.08-.34-.21-.23-1.17-.04-2.37-.03-3.55.06-.3.03-.72.27-.92.3-.15.51.19.28.42.19 1.14.1 2.3.13 3.45 2.54-.07 5.08-.05 7.62-.03 4.12.04 8.24.07 12.34-.27.18-.06.35-.16.42-.34.14-.92.16-1.85.24-2.77-.25-.04-.5-.02-.75 0-.51.03-1.02.06-1.42-.31.31-.45.99-.53 1.49-.5.44.05 1.31-.08 1.27.58-.26 1.15.06 2.45-.43 3.54-.26.39-.73.61-1.17.68-3.25.26-6.53.33-9.78.33h.03c-3.38-.06-6.8-.01-10.15-.1ZM17.63 22.56c-1.16-.03-2.33-.06-3.48.02-.37-.07-1.7-.06-3.36-.05-4 .01-9.95.03-9.18-.93 6.58.14 13.21.17 19.79.36.25-.03.52.05.67.24.02.11-.14.22-.23.28-.78.09-1.58.12-2.37.12-.61 0-1.23-.02-1.85-.03Z"/>
        <path d="M1.35 26.73c-.15-.11-.21-.29-.23-.47.06-1.21.05-2.4.19-3.6.04-.26 0-.58.2-.78.3-.17.68-.2 1-.3.21-.07.49-.01.49.26 0 .15-.16.36-.32.22-.3.04-.58.16-.88.22-.09 1.26.02 2.52-.01 3.78 3.49-.2 7-.15 10.51-.11 2.97.04 5.94.08 8.9-.03.29-.1.6-.25.7-.53.1-.93.33-1.9.23-2.82-.06-.05-.16-.14-.19-.15-.71-.15-.04-.9.35-.38.18.09.27.26.34.45l.03.35c-.01.12-.02.24-.04.36-.02.23-.03.46-.05.68l-.06.86c-.01.14-.02.29-.02.43-.02.13-.05.26-.07.39-.25.88-1.36 1.16-2.16 1.09-.99-.03-1.95-.01-2.93.02-3.65.02-7.33.11-10.97.11-1.68 0-3.35-.02-5.01-.07ZM1.74 2.17s-.04 0-.06-.01c-.42.27-.79-.43-.3-.59.34-.36.86-.31 1.37-.27.32.03.64.06.92-.01.21 0 .44 0 .66-.02.81-.03 1.65-.07 2.23.56-.12.16-.36.27-.57.34-.84.05-1.68.05-2.53.05H2.33c-.2 0-.4-.03-.6-.06ZM22.58 3.05c-.32-.23-.19-.68-.3-1.02-2 .11-3.99.25-6 .06-.3-.06-.63-.05-.96-.04-.54.02-1.07.04-1.5-.26-.37-.25.08-.62.38-.68 1.6.03 3.27.06 4.85.24 1.02 0 2.03-.26 3.05-.17.33-.03.71.13.77.47.17.38.42 1.41-.18 1.41-.04 0-.08 0-.12-.01Z"/>
        <path d="M9.05 7.21c-2.43.05-4.85.1-7.26-.23-1.33-.13-.61-1.94-.76-2.86.03-.58.15-1.16.01-1.74-.07-.35-.06-.88.35-1.01.72-.15 1.5-.08 2.21.16.28.16.04.65-.23.45-.53.13-1.1.09-1.65.11.29 1.29-.07 2.63.04 3.94 3.34.49 6.77.25 10.14.23 3.38.15 6.79.16 10.14-.19.42-.95.47-1.97.52-3-.06-.37-.33-.8.02-1.11.26-.2.52.1.56.34.35.83.03 1.73 0 2.6-.04.49-.25.88-.37 1.3-.02.3-.15.62-.46.74-2.2.29-4.5.31-6.73.4-2.16-.23-4.34-.18-6.51-.14ZM12.13 15.79c3.44.21 6.98.14 10.32-.71.23-.88.27-1.77.34-2.67-3.32.24-6.62.11-9.92-.12-3.64.11-7.29.41-10.91.13-.01 1.1-.27 2.17-.18 3.27 2.38.23 4.76.18 7.14.13.98-.02 1.95-.04 2.93-.04h.28Zm2.21 1.02c-1.95-.14-3.9-.1-5.85-.06-2.36.05-4.72.1-7.06-.17-.21-.07-.3-.27-.34-.47-.17-.91-.04-1.83.09-2.73.04-.3.16-.61.19-.9 0-.55.14-1.06.8-.83 2.19.26 4.4.09 6.61-.08 2.47-.19 4.94-.38 7.39.03 2.23.16 4.44-.07 6.66-.11.92-.15.71.79.66 1.39-.08.75-.06 1.5-.3 2.23-.03.36-.17.72-.53.86-2.39.59-4.92.84-7.4.84-.31 0-.62 0-.94-.01ZM11.67 26.19c1.75-.03 3.4-.17 5.14-.25 1.65.13 3.33.23 4.91-.31.18-.93.39-1.9.26-2.85-.11-.08-.26-.07-.37-.08-1.34.07-2.65-.21-3.98-.22-2.78.09-5.56.34-8.29-.09-.16.06-.33.11-.49.16-.46 0-.92 0-1.38.01l-1.33.03c-.27 0-.55 0-.82.01-.54-.05-1.08-.09-1.6-.1-.61 0-1.15-.42-1.75-.22-.13.08-.15.26-.18.39.02 1.05-.28 2.12-.16 3.17.59-.03 1.18-.04 1.77-.04 2.76 0 5.52.26 8.28.38Zm-10.32.57c-.9-.61-.4-2.02-.39-2.94.11-.75.13-1.63.66-2.2.51-.35 1.07-.23 1.64-.11.32.07.63.13.94.12.85.13 1.71.12 2.57.12.9 0 1.8 0 2.68.14.98-.27 1.97-.23 2.95-.19.71.03 1.43.06 2.15-.02 2.24-.19 4.46.02 6.68.11.38-.01.81 0 1.12.25.17.15.27.32.33.52-.02.23-.05.45-.07.68-.02.23-.03.46-.05.68l-.06.86c-.02.23-.03.46-.03.69v.28c-.07.24-.17.46-.31.65-1.52.73-3.4.65-5.04.49-1.85.05-3.68.24-5.52.25-3.41-.19-6.85-.44-10.25-.35Z"/>
        <path d="M21.57 2.04c-3.41-.46-6.83-.25-10.26-.16-3.25-.24-6.53-.13-9.77-.2-.22-.28.04-.55.37-.46 6.83-.28 13.75-.35 20.58.02.23.08.14.47-.09.49-.15.02-.33-.03-.47 0-.13.11-.09.33-.36.31Z"/>
        <path d="M1.33 1.79c-.26-.72 1.01-.56 1.43-.65.34.03 1.62-.18 1.07.47-.7.07-1.43 0-2.13.13-.12.04-.25.17-.37.05Z"/>
        <path d="M1.35 1.88c-.25-.36.44-.93.68-.47.14.21-.14.57-.33.34-.11.05-.23.11-.34.14Z"/>
        <path d="M1.13 6.44C.84 5.46.34.76 2.11 1.18c.29.21-.23 1-.4.51-.06.03-.13.07-.17.12l.02-.03c-.66 1.43.1 3.19-.42 4.67Z"/>
        <path d="M1.39 2.97c-.38-.3.53-1.71.97-1.52.27.28-.17.58-.37.71-.29.19-.18.88-.6.81ZM22.52 3.48c-.24-.52-.11-1.13-.29-1.66a.318.318 0 0 1-.01-.35c.73-.67.55 1.73.31 2.02Z"/>
        <path d="M22.05 2.07c-.2-.04-.36-.25-.23-.44.26-.37.62.23.69.49-.12.05-.32-.02-.46-.05Z"/>
        <path d="M22.39 5.73c-.39-1.13.77-3.23-.61-3.76-.12-.03-.16-.16-.14-.27.02-.15.17-.27.32-.21 1.59.58.76 3.04.44 4.25Z"/>
        <path d="M22.94 4.19c-.34-.78.02-1.63-.21-2.4-.02-.03-.04-.07-.07-.09-.16-.03-.34 0-.5-.05-.31-.09-.08-.67.19-.48 1.34-.15.84 2.27.59 3.02Z"/>
        <path d="M22.16 6.74c-.15-.17.08-.5.26-.42.56-1.15.17-2.62.62-3.77.33.6.26 4.89-.89 4.19ZM14.21 16.95c-3.54-.37-7.02.1-10.55-.18-.78-.11-1.69.09-2.39-.27-.13-.15-.02-.33-.02-.5.15-.35.67-.1.47.25 4.9.16 9.83-.05 14.72-.07 1.86-.16 3.81-.03 5.62-.45.21-.06.5-.09.65.11.15.86-1.56.74-2.13.82-2.13.04-4.25.31-6.38.3ZM1.66 12.16c-1.11-1.06 3.74-.58 4.2-.62 5.37-.33 10.73-.58 16.1-.16.33.08.94-.08 1.02.35 0 .13-.14.22-.26.25-2.33.06-4.66-.1-6.99-.2-4.61-.11-9.16.51-13.74.24-.03.14-.21.19-.33.15Z"/>
        <path d="M1.24 12.55c-.11-.33.09-.78.42-.89.09-.12.34-.12.44-.02.05.01.09.03.11.03.03 0 .05.02.08.02.27-.07.32.34.12.46-.23.15-.44-.12-.66-.02-.12 0-.33.79-.52.42Z"/>
        <path d="M1.09 16.23C.76 15.76.94 15 .93 14.46c.06-.96-.1-2.39.9-2.88.2-.12.55-.17.63.11.07.21-.18.43-.34.29h-.01c-1.35.22.18 4.85-1.03 4.25ZM22.47 16.2c-.1-.3.25-.38.37-.59.03-.61.18-1.21.23-1.81.12-.63-.03-1.29.12-1.86.75-.56.19 2.63.14 2.93-.03.44.06.97-.31 1.28-.15.13-.43.29-.55.04ZM21.26 22.08c-5.92-.54-11.97.24-17.93-.11-.39-.04-1.74.1-1.13-.56 1.55.08 3.15.13 4.72.16 4.55-.12 9.09-.17 13.64-.15.53.02 1.16.17 1.48.62-.19.16-.54.15-.78.04Z"/>
        <path d="M1.32 25.94c-.56-1.21-.44-2.79 0-4.03.24-.68 1.32-.64 1.84-.34.22.01.26.32.11.44-.17.15-.37-.04-.52-.09-.34-.08-.7-.04-1.01.06-.67 1.23-.11 2.7-.43 3.95Z"/>
        <path d="M1.24 24.73c-.61-.85-.25-2.16.23-3 .69-.36 1.61-.23 2.31.02.14.13.08.4-.11.44-.2 0-.39-.1-.59-.11-.44-.05-.97-.12-1.4.06-.41.82-.25 1.75-.43 2.6Z"/>
        <path d="M1.3 24.72c-.31-.28-.25-.77-.29-1.15 0-.61-.03-1.31.39-1.8.43-.34 1.34-.67 1.72-.16.04.16-.07.38-.26.34-.43-.19-.97-.05-1.27.26-.25.61-.2 1.36-.1 1.98.06.15.1.73-.2.52ZM21.41 22.23c-.41.02-.45-.63-.01-.48.24-.13.62.04.62.33-.21.03-.39.14-.6.15Z"/>
        <path d="M22.2 22.3c-.16-.02-.33-.07-.47-.15h-.01c-.23.06-.52-.15-.38-.39.35-.24.98.14 1.02.55-.04.03-.12-.01-.18-.01h.02Z"/>
        <path d="M22.01 26.2c-.15-.3.35-1.08.32-1.51.02-.71.41-2.18-.47-2.41-.23.05-.45-.32-.2-.45.27-.07.55.14.76.28.14.09.22.2.28.34-.03.25-.05.51-.08.76-.02.23-.03.46-.05.68l-.06.86c-.02.23-.03.46-.03.69V26.02c-.05.16-.14.3-.27.3-.06 0-.13-.04-.21-.12Z"/>
        <path d="M21.83 26.17c-.2-.11-.12-.48.1-.52.04-.03.09-.05.13-.08.27-.27.48.23.21.39-.16.07-.27.28-.45.21Z"/>
        <path d="M13.11 27.17c-.2-.01-.4 0-.6-.01h-.42c-.36 0-.71 0-1.07.01-.92-.07-1.83-.11-2.75-.15-.23 0-.46-.02-.69-.03-.77-.11-1.55-.2-2.33-.18-.49.06-5 .48-3.9-.58 1.18.36 2.46.2 3.7.1 1.55-.11 3.08.29 4.6.44 2.26.02 4.52-.19 6.78-.19h1.07c1.5 0 3.02 0 4.41-.48.03-.02.05-.04.08-.06-.23-.34.32-.64.43-.34.26 1.44-3.14 1.41-5.19 1.37-.55 0-1-.02-1.26 0-.91.03-1.82.07-2.73.11h-.14Z"/>
        <path d="M21.46 26.17c-.23-.1-.13-.32-.03-.47.36-.92.47-2.03.15-2.95-.18-.31.19-.52.39-.24.5 1.11.34 2.5-.17 3.59-.04.13-.23.13-.33.08ZM1.4 22.82l-.1-.03c-.05-.46.56-.71.9-.87.46-.06.96-.03 1.42.02.24.1.14.57-.13.47-.41.05-.81-.07-1.2 0-.32.1-.53.47-.89.41ZM9.25 16.5c-2.47-.16-4.97-.07-7.41-.51-.24.21-.4-.2-.3-.39.02-.1.13-.22.25-.17 1.05.36 2.2.29 3.29.37 2.29.14 4.72.1 6.96.36-.9.28-1.85.39-2.79.33ZM1.65 13.2c-.27-.91.51-1.28 1.27-1.37.32.04.25.66-.08.51-.28.08-.56.17-.79.33-.12.16-.22.45-.4.53ZM1.87 2.03c.27 0 .27.51 0 .51s-.27-.51 0-.51Z"/>
        <path d="M1.48 3.33c-.43-.22.08-.77.19-1.07.53-.49 1.33-.67 2.03-.7 1.59-.15 3.34-.33 4.86-.04-2.15.59-4.54.07-6.54 1.04-.24.17-.24.77-.55.78ZM8.45 26.89c-2.17-.24-4.47.13-6.58-.17-.58-.73 2.51-.28 2.95-.43 2.02.1 4.1-.09 6.08.23-.69.39-1.65.38-2.46.38ZM22.37 22.71c-.11-.21-.1-.46-.17-.67-.49-.09-1.07-.06-1.58-.06h-.02c-.27.11-.38-.36-.15-.47.5-.06 1.1-.11 1.59 0 .69-.1.68.81.33 1.18Z"/>
        <path d="M22.37 22.16c-.13-.11-.24-.26-.15-.43.05-.1.19-.16.28-.07.11.09.19.2.24.32-.05.41-.09.83-.13 1.24l-.03.38c-.12-.47-.06-.99-.22-1.43ZM1.96 11.92c-.31-.36.08-.61.45-.56 4.41.09 8.83.02 13.24.06 2.42.1 5.13-.51 7.41.26-6.92.47-13.91.15-20.85.2-.06.08-.17.1-.25.04ZM2.23 16.23c.27 0 .27.51 0 .51s-.27-.51 0-.51Z"/>
        <path d="M5.44 16.97c-.49-.12-4.81.12-3.65-.72 3.82.35 7.66.26 11.49.16 3.1-.11 6.23-.02 9.31-.4.15-.04.3.08.3.23 0 .15-.11.27-.26.27-1.5.21-3.02.26-4.54.28-4.21.11-8.44.28-12.66.18ZM2.13 11.91c-.69-.04-.43-.56.1-.49.3-.22.44.36.2.49-.1.06-.22.01-.32 0h.03Z"/>
        <path d="M1.87 15.73c-.17-.37-.18-5.37.56-3.99-.31 1.29-.28 2.69-.55 4h-.01Z"/>
        <path d="M1.83 15.51c-.65-4.5.95-4.54 0 0Z"/>
        <path d="M1.99 15.83c-.32-.99-.09-2.04-.08-3.04.65-1.16.3 2.75.08 3.05ZM22.23 15.69c.01-1.13.25-2.29-.02-3.4-.23-.16-.04-.65.24-.46.49 1.15.44 2.78-.21 3.88v-.01ZM1.96 2.37c-.29.06-.47-.24-.25-.46.27-.13.6.04.88 0 5.52-.12 11.03-.18 16.55-.12 1.1.04 2.35-.31 3.37.16-.21.19-.56.28-.85.29-2.53.03-5.07.18-7.6 0-4.03-.13-8.07.31-12.1.12h.01Z"/>
        <path d="M1.75 6.64c.02-.39-.4-5.3.36-4.41-.05 1.36.15 3.2-.36 4.41ZM22.44 2.54c-.21-.07-.39-.25-.61-.3-.17.03-.35-.04-.34-.25.09-.56.76-.09 1.05.06.23.08.16.55-.1.49Z"/>
        <path d="M22.42 6.14c-.46-1.01-.06-2.64-.12-3.76-.47-.14-.14-.77.26-.41.33.5.01 1.19.09 1.75-.09.78.18 1.73-.23 2.42Z"/>
        <path d="M22.3 6c-.17-.07-.2-.27-.21-.43.07-1.09.04-2.16.07-3.25-.22-.22.14-.69.34-.36.16.73 0 1.51.04 2.25-.03.59.09 1.27-.23 1.79Z"/>
        <path d="M21.92 6.35c.04-1.25.37-2.53.36-3.76-.02-.11.05-.26.17-.29.13-.02.21.1.23.21.06.75-.14 1.5-.19 2.25-.11.45-.08 2.5-.57 1.59Z"/>
        <path d="M21.04 6.37c.51-.34.87-.83 1.28-1.26.28-.07.33.36.13.48-.26.51-.88.9-1.41.78ZM2.22 6.11a.892.892 0 0 1-.62-.48c-.23-.14-.05-.64.22-.45.21.25.32.64.4.93ZM1.78 22.55c-.13 0-.21-.14-.21-.25 0-.33.36-.25.58-.27.28-.39.95-.08 1.37-.17.56.01 1.13-.04 1.68-.07.09 0 .16.07.19.15.32-.09.54.34.23.5-1.27.12-2.57.13-3.85.11Z"/>
        <path d="M13.02 22.07c-3.5-.08-7.01-.04-10.51-.17-.21.02-.41-.14-.34-.36.03-.12.15-.23.28-.15 2.51.1 5.02.13 7.53.14 3.02.1 6.02 0 9.03-.14.5 0 1.02-.05 1.44.26-.39.29-.98.24-1.47.25-1.99 0-3.97.27-5.96.18Z"/>
        <path d="M4.98 21.93c-.94-.02-1.88-.07-2.81-.05-.24.21-.44-.22-.29-.4.49-.26 1.17-.04 1.73-.08.71.11 1.73-.17 2.32.19.13.52-.64.32-.94.35Z"/>
        <path d="M5.44 21.96c-1.06-.1-2.12.04-3.18-.1-.09-.03-.14-.15-.14-.24 0-.24.24-.3.43-.23 1.87.16 3.87-.17 5.68.33-.78.49-1.89.23-2.8.24Z"/>
        <path d="M9.93 21.99c-2.43-.19-4.87.07-7.29-.06-.12 0-.25-.05-.36-.09-.19-.11-.14-.51.11-.48 2.99.12 6.01-.17 9.02.11 2 .13 4.06-.34 6.03.1-2.35.67-5.03.35-7.5.42Z"/>
        <path d="M1.88 21.93c-.09-.14-.01-.38.17-.39 3.5-.39 7.04-.27 10.57-.21 2.75-.02 5.48-.1 8.23.07.22.04.41.17.55.34-1.55.44-3.36-.09-4.99.02-4.81.14-9.82-.04-14.52.17ZM2.2 22.11c.27 0 .27.51 0 .51s-.27-.51 0-.51Z"/>
        <path d="M1.82 26.17c-.38-.28-.23-5.23.49-4.1-.28 1.32.01 2.81-.48 4.1Z"/>
        <path d="M2.26 26.45c-.29-.18-1.12-2-.33-1.66.18.5.35 1.15.33 1.66ZM21.38 25.83c.01-1.07.31-2.11.34-3.16 0-.13 0-.28.12-.36.26-.11.48.3.28.49-.07 1.02-.14 2.23-.74 3.04Z"/>
        <path d="M21.06 26.34c.11-1.29.37-2.5.4-3.76-.03-.26.06-.78.4-.49.27.01.26.46.02.51.11 1.29-.18 2.67-.82 3.74ZM8.13 26.78c-2.16-.08-4.35.1-6.49-.13-.16.05-.27-.14-.25-.28 0-.11.08-.21.19-.23.78.12 1.58.1 2.37.11.63-.02 7.52-.09 4.18.53Z"/>
        <path d="M7.16 26.9c-1.67-.05-3.39.04-5.03-.32-.12-.01-.24-.07-.27-.2-.06-.26.17-.39.38-.28.93.37 9.97.21 4.92.81Z"/>
        <path d="M7.96 26.73c-2.09-.08-4.21 0-6.29-.26-.11 0-.18-.12-.18-.21-.04-.26.21-.34.42-.26.69.17 10.79.16 6.05.73Z"/>
        <path d="M6.46 26.9c-1.24-.18-2.52 0-3.73-.29-.16-.05-.33-.19-.29-.38.02-.1.1-.24.23-.21 1.33.5 2.94.17 4.37.39.95.15 2.03-.26 2.9.24-.96.61-2.35.25-3.47.26Z"/>
        <path d="M9.76 27.15c-.63-.12-9.35.16-7.67-.89 2.81.39 5.67.2 8.5.29 3.61.06 7.42-.43 10.94.1-1.31.68-2.85.26-4.26.34-2.5-.03-5 .22-7.5.17ZM5.19 7.31c-1.16-.08-2.39.15-3.5-.26-.23-.12-.3-.39-.43-.6-.05-.18.12-.41.3-.3.38.86 1.45.57 2.51.64 2.51.02 5.02.02 7.53-.16 1.17.02 2.46-.4 3.56.07-.21.29-.67.32-1.02.31-2.99.14-5.97.34-8.96.3Z"/>
        <path d="M11.91 7.23c-2.48.03-4.95-.12-7.41-.3-.1-.06-.27-.11-.18-.25.07-.14.26-.23.4-.22.61-.02 1.24.06 1.85.1 3.82.43 7.7-.17 11.5.22-1.9.58-4.14.38-6.16.45Z"/>
        <path d="M14.44 7.19c-3.77-.13-7.65.25-11.36-.27-.64-.82 2.27-.12 2.71-.28 4.06.18 8.19-.3 12.21.36-1.1.19-2.39.2-3.57.19Z"/>
        <path d="M5.01 7.13c-.38-.07-1.81.15-1.39-.53 1.7-.01 3.48.06 5.2.02 2.95-.04 5.95-.28 8.87.25C13.57 7.3 9.21 7 5 7.13Z"/>
        <path d="M15.54 7c0-.07.04-.17.13-.15.03.06.06.12.09.17 0 .16-.22.14-.21-.02Z"/>
        <path d="M14.45 7.28c-2.43-.1-4.9-.27-7.33-.22-.16-.01-.2-.21-.13-.32-.07 0-.02-.05.03-.03.09-.11.25-.17.37-.16 2.55-.02 5.09.19 7.64.17 1.13 0 2.28.08 3.39-.19.18-.05.37.05.36.25 0 .1-.04.21-.14.24-1.37.29-2.79.25-4.19.26Z"/>
        <path d="M16.99 7.19c-3.99-.43-8.18.04-12.06-.77.63.17 14.61-.35 12.06.77ZM1.93 11.83c-.17-.39.25-.47.55-.43 5.05-.03 10.1.07 15.14-.09 13.53.65-13.25.63-15.43.6-.09.07-.22.01-.27-.08Z"/>
        <path d="M22.97 12c-.75-.28-1.7-.26-2.42-.46.85-.14 1.78-.33 2.61 0 .09.05.13.15.13.25.02.17-.18.34-.32.2ZM2.27 12.19a.1.1 0 0 1 0-.2c.13 0 .12.2 0 .2ZM3.91 16.7c-.75-.06-1.59.04-2.3-.09-.09-.09-.09-.25-.02-.36.88-.27 1.98.02 2.93-.04 3.89-.05 7.78-.2 11.67-.24 1.73 0 3.62-.43 5.29-.06l-.02-.02c.5-.02 1-.23 1.47-.3.23.06.27.4.12.56-.19.17-.47.17-.7.23-6.12.31-12.3.3-18.44.32Z"/>
        <path d="M1.49 12c-.4-1.1 5.67-.44 6.6-.64 3.55-.12 7.09-.15 10.64-.05 1.19.17 2.57-.17 3.61.51-2.21.58-4.86-.07-7.2.08-4.41.08-8.88-.15-13.26.16-.1.12-.32.1-.39-.05Z"/>
        <path d="M1.8 12.04c-.18-.55.58-.53.94-.53 4.34.1 8.71-.76 13.01.04-1.94.49-4.13.18-6.17.29-2.55.15-5.35.17-7.78.19ZM19.56 22.67c-2.69.08-5.33-.46-7.99-.69-3.15-.21-6.31.06-9.45.02-.3.1-.37-.46-.09-.51 4.29.02 8.63-.5 12.9.32 2.32.44 4.7.05 7.01.52-.69.33-1.59.37-2.38.35Z"/>
        <path d="M21.92 22.08c-3.58-.64-7.35-.1-10.9-.13 3.6-.8 7.35-.92 11-.36.19.05.32.24.27.43-.03.18-.27.25-.36.06ZM2.06 22.37c-.27-.08-.2-.46-.03-.6.07-.09.12-.21.22-.27 1.3-.24 2.68-.14 4.01-.09.67.06 1.48.1 2.07.28-1.96.21-3.95.11-5.9.27-.02.03-.04.07-.07.11-.02.03-.05.06-.07.09 0 .12-.11.24-.23.21Z"/>
        <path d="M2.44 22.15c-.31.01-.56-.48-.24-.66 1.37-.32 2.83-.25 4.18.16-1.09.37-2.44.01-3.61.24.02.17-.18.28-.33.26Z"/>
        <path d="M1.93 22.07c-.3-.37.12-.58.47-.55 4.29-.15 8.67-.72 12.93-.02-4.3.27-8.81.19-13.16.55-.07.06-.16.08-.23.02ZM11.9 27.29c-3.27-.17-6.54-.12-9.81-.23-.36.09-.57-.34-.25-.52-.03-.18.1-.38.29-.28 3.39.55 6.91.14 10.34.08 3-.02 6.07.03 9.04-.21.09-.03.12-.1.19-.15.14-.07.25-.19.39-.25.59.16-.07.88-.42.98-3.18.67-6.54.53-9.78.59ZM1.89 12.32c-.85-1.68 5.49-.8 6.48-1 4.59.08 9.29-.41 13.81.42.16.05.4.06.5.16-.31.14-.65.25-1 .21-5.12-.61-10.37-.22-15.53-.28-1.28.08-2.76-.26-3.93.25 0 .17-.17.39-.34.25Z"/>
        <path d="M19.35 12.08c-5.66-.54-11.36-.18-17.04-.25-.29.26-.58-.37-.24-.49 4.8 0 9.62-.15 14.42 0 1.95.22 4.09.14 5.92.69-1.02.1-2.05.12-3.07.04ZM8.41 17.13c-.98-.06-7.4.1-7.12-1.05.13-.23.44-.01.6.02 3.09.74 6.4.52 9.57.47.77.08 13.4-1.46 10.39-.28-4.49.21-8.95.87-13.45.85Z"/>
        <path d="M14.1 17.18c-2.68.05-5.47-.23-8.05-.66 1.87-.38 3.75.12 5.63.11 2.62.14 5.22-.14 7.82-.27 1.08-.1 2.37.01 3.07-.91.06-.13.19-.27.34-.15.1.09.1.24.04.35-.47.86-1.51 1.07-2.41 1.15-2.16.09-4.3.33-6.45.38ZM1.77 12.51c-.2-.11-.17-.41-.05-.56 1.27-1.52 3.44-.64 5.13-.86 5.01-.18 10.04-.36 15.03.29.28.02.65.36.2.49-4.96-.55-10.01-.49-15-.29-1.63.27-3.63-.6-4.97.59.18.25-.14.69-.33.33Z"/>
        <path d="M22.18 11.83c-.98-.17-2.08-.2-3.08-.14-.12-.03-.33-.15-.23-.3.07-.12.17-.24.33-.22 1.02-.03 2.06-.03 3.07.16.26.08.2.54-.09.49Z"/>
        <path d="M21.48 12.02c-.08-.03-.08-.15-.02-.2.24-.21.63-.07.91 0-.19.13-.65.34-.9.2Z"/>
        <path d="M21.06 11.71c-.07-.79 1.66-.38 2.1-.24-.47.18-1.17.24-1.71.31-.05.24-.37.14-.39-.07ZM22.16 16.65c-.09-.03-.25-.07-.28-.15.28-.25.61-.43.99-.45.45-1.23.2-2.75.23-4.06 0-.11.05-.26.18-.28.13-.02.22.11.22.22.04.7.03 1.41.02 2.11-.03.98.15 2.93-1.36 2.6Z"/>
        <path d="M19.3 16.9c-.92-.06-1.97-.12-2.82-.32 2.05-.13 4.08-.1 6.08-.53.11-.04.21.03.25.14.07.19-.07.37-.26.38-1.07.18-2.16.37-3.25.32ZM1.82 11.71c-.05-.66.9-.56 1.34-.53.3 0 .6-.08.89.02.33.15-.07.6-.31.39-.45.02-.93 0-1.37 0-.18.03-.37.12-.55.11Z"/>
        <path d="M1.57 12.12c-.57-.7.67-1.13 1.2-1.17.45.07.95-.03 1.33.17.13.23-.21.4-.4.34-.91-.12-1.61-.17-2.13.66ZM7.13 7.56c-1.71-.12-3.42-.26-5.07-.74-.2.27-.49-.08-.29-.3.07-.13.21-.24.36-.19 1.34.36 2.7.59 4.08.66 5.44.43 10.92-.39 16.31-.65-1.23.82-3 .65-4.44.81-3.63.32-7.3.49-10.95.41ZM1.57 1.79c-.56-.92 2.13-.57 2.62-.66 2.06.04 4.12-.12 6.17-.05 1.03.04 2.23-.09 3.15.31-3.94.49-8.06-.08-11.95.4Z"/>
        <path d="M1.55 1.8C.36.26 13.3 1.42 14.58 1.1c1.52-.04 3.08.11 4.59 0 .43-.07 3.4-.27 2.14.54-6.46.17-12.99-.28-19.42.02-.04.13-.22.24-.33.13Z"/>
        <path d="M21.94 1.9c-2.48-.35-5.03-.18-7.55-.17-4.21-.11-8.46-.28-12.64-.11-.25.16-.47-.12-.27-.36.25-.22.62-.14.93-.18 1.87.06 3.73-.25 5.6-.17 4.86-.17 9.86-.44 14.66.23.45.42-.34.88-.73.76ZM17.63 6.81c.47.01.95.04 1.42.05.49 0 .97 0 1.46-.04-1.32 0-2.65-.04-3.97-.02h1.09Zm-.02.51c-3.71-.01-7.42.03-11.13-.13-1.59-.15-3.39.17-4.85-.52-.17-.22.07-.56.33-.37 3.32.67 6.83.45 10.19.16 3.39-.14 6.86-.28 10.21-.08.72 1.39-3.99.9-4.76.94Z"/>
        <path d="M4.32 7.36c-1.05-.15-2.34-.06-3.15-.84-.23-.12-.07-.58.19-.46 1.44 1.19 3.88.58 5.57.85-.66.63-1.75.45-2.61.44Z"/>
        <path d="M4.74 7.36c-.96-.06-1.95-.07-2.88-.34a.676.676 0 0 1-.44-.4c-.09-.16.01-.46.23-.4.19.12.13.29.45.35 1.96.47 3.97.16 5.95.32-.97.47-2.21.51-3.31.47ZM1.89 22.24c-.29-.54.25-.94.77-.84 2.88.07 5.79 0 8.63.5-2.91.39-6.07-.12-9.05.03.06.2-.17.48-.36.3Z"/>
        <path d="M19.46 22.52c-5.73-.14-11.4-1.35-17.12-.67-.03.04-.06.08-.08.11v-.02c.03.23-.31.36-.38.1-.06-.29.16-.62.43-.7 1.37-.13 2.74-.14 4.11-.23 2.89-.03 5.76.46 8.64.64 2.05.17 4.12.13 6.1.72-.49.09-1.15.04-1.71.05Z"/>
        <path d="M22.15 22.15c-6.55-.89-13.23-.39-19.82-.14-.4.14-.36-.58.05-.5 3.55-.16 7.09-.44 10.65-.28 3.09.02 6.22-.19 9.27.44.17.03.28.23.22.38-.07.15-.25.14-.39.09h.03Z"/>
        <path d="M22.09 21.89c-1.6-.24-3.39-.11-4.93-.37.7-.1 5.99-.83 5.33.49-.13.23-.44.15-.41-.12ZM1.95 26.91c-.27-.01-.58-.23-.51-.53.05-.23.37-.26.4 0 .28.33 1.04.57.11.54Z"/>
        <path d="M1.78 26.93c-.24-.04-.48-.16-.58-.39-.11-.23.23-.52.37-.25.36.29 1 .21 1.36.41-.37.15-.75.28-1.15.23Z"/>
        <path d="M4.3 27.36c-.92-.13-2.04.09-2.83-.45-.2-.21-.13-.56.09-.73.23-.17.4.21.24.38 3.66.73 7.48-.04 11.19.08 2.43-.09 4.89.09 7.32-.04.52-.1 1.16-.06 1.51-.5.03-.01.05.09.06.14-.01.97-1.43.77-2.12.9-5.16-.09-10.32.09-15.48.22ZM1.18 5.92C.45 4.64.73 2.98 1.2 1.66c.07-.18.24-.33.45-.3.44-.2.35.59-.05.5h-.04s0 .01 0 0c-.63 1.28-.07 2.76-.38 4.05Z"/>
        <path d="M.98 6.51C.55 5.39.74 3.56.92 2.36c.11-.38.31-.8.6-1.07.11-.1.3-.28.44-.12.16.16-.06.77-.32.64-.67 1.27-.37 2.92-.29 4.27.1.22-.1.63-.37.43ZM1.18 14.88c-.52-1.09-.21-3.01.92-3.6.64-.23.47.84.01.53-.88.73-.49 2.11-.92 3.07Z"/>
        <path d="M1.12 15.69c-.29-.13-.23-.51-.21-.71.04-.52.11-1.04.18-1.56.15-.74-.22-1.82.64-2.19.31-.17 1.29-.42 1.28.14-.02.12-.11.22-.24.22-.41-.13-.83.03-1.12.32-.21 1.03-.16 2.29-.18 3.35-.01.19-.12.5-.36.43ZM1.18 26.8c-.79-.87-.55-2.45-.42-3.53.21-.95.53-1.76 1.65-1.74.25-.05.3.37.1.47-.37.06-.76.09-.96.47-.3.91-.22 1.97-.1 2.89.01.44.66 1.69-.28 1.45ZM20.88 26.95c-.31-.07-.19-.64.12-.51.25-.07.48-.33.7-.47.25-.32.27-.76.34-1.15.11-.93-.02-1.8-.12-2.67.04-.37.54-.55.7-.16.29.92.13 1.89.09 2.82-.12 1.14-.51 2.16-1.82 2.13ZM18.6 16.98c-1.87-.05-3.91-.12-5.68-.47.6-.02 1.19-.03 1.78-.05 2.63-.18 5.47.45 7.94-.59.11-.11.3-.18.38 0 .07 1.05-3.6 1.09-4.43 1.11Z"/>
        <path d="M21.01 16.77c-.68-.02-1.36-.08-2.03-.17 1.12-.18 2.43-.21 3.61-.41.1-.16.3-.09.37.05.18.73-1.49.47-1.94.54Z"/>
        <path d="M22.86 16.24c-.13-.1-.12-.32 0-.43.51-1.24-.18-2.76.34-3.88 0 0 0-.02.01-.01.67.53.29 1.65.29 2.4-.11.63-.01 1.48-.48 1.95-.06.02-.12 0-.17-.03Z"/>
        <path d="M22.95 15.78c-.25-.28.06-1.02.03-1.44.07-.76.06-1.56-.05-2.3a.976.976 0 0 1-.27-.57c1.11-.75.82 2.33.73 2.87-.11.37.08 1.47-.43 1.44Z"/>
        <path d="M22.96 12.03c-.55-.46-1.38-.35-2.06-.39-1.65-.16-3.44.39-5 0 1.27-.43 6.95-1.12 7.5.28.02.37-.33.44-.47.09l.02.03Z"/>
        <path d="M23.14 12.1c-.32-.2-.59-.44-.97-.5-.7 0-1.38.15-2.08.02.92-.42 2.27-.87 3.14-.04.36-.01.23.63-.1.52Z"/>
        <path d="M22.82 11.66c.02-.32.42-.33.41 0-.02.32-.42.33-.41 0Z"/>
        <path d="M23.2 12.24c-.1-.02-.15-.12-.16-.21 0-.05 0-.1.03-.15-.64-.48-1.68-.13-2.38-.34.89-.28 2.28-.82 2.86.23.09.22-.09.54-.35.47Z"/>
        <path d="M22.87 11.65c-1.9-.19-3.94-.08-5.77-.34 1.93-.36 3.87-.35 5.81-.17.33.03.29.5-.04.51Z"/>
    </g>
</svg>
