<svg viewBox="0 0 360 100.64" xmlns="http://www.w3.org/2000/svg" xmlns:xlink="http://www.w3.org/1999/xlink"><clipPath id="a"><path d="m0 0h360v100.64h-360z"/></clipPath><g clip-path="url(#a)"><path d="m.29 41.81c0-.18 0-.36 0-.55.2-.05.4-.11.6-.17.83-.23 1.66-.46 2.51-.44 3.59-.12 7.18-.07 10.77 0 5.43.09 10.85.18 16.27-.36 6.49.7 12.99.39 19.5.08 6.87-.32 13.76-.65 20.64.22 11.16.5 22.36.14 33.52.14 7.19-.39 14.35-1.13 21.58-.84 1.24.07 2.5.06 3.76.05 2.64-.01 5.28-.02 7.83.63 1.07.22 2.18.17 3.24.01.44-.02.55.69.14.84-.2.07-.53.08-.71.1-11.58-.09-23.18-.46-34.76.39-10.56.11-21.15-.04-31.72-.25-3.25-.07-6.38-.6-9.61-.64-8.65-.19-17.27.49-25.92.62-1.86 0-3.76-.04-5.59-.31-3.33-.04-6.63.54-9.96.62-1.9.03-3.8-.06-5.7-.15-2.18-.11-4.37-.21-6.56-.12-2.01-.02-4.02.07-6.02.16-1.27.06-2.55.12-3.82.14v-.17z"/><path d="m218.78 41.14-.1-.11s0-.04 0-.06c0-.05.02-.1.05-.14-.21-6.76-2.03-13.54-5.23-19.5-3.34-5.55-8.34-9.89-13.56-13.58-5.74-4.36-12.89-5.92-19.89-6.73.66-.07 1.46-.07 2.22-.07h.56c11.82.23 21.99 8.24 29.32 16.92 4.9 6.33 7.49 14.54 7.06 22.54 0 .29.14.77-.28.78-.04 0-.08-.02-.12-.04z"/><path d="m152.75 11.58c4.82-4.43 11.07-6.54 16.97-9.09 2.62-.81 5.36-1.64 8.12-1.64 2.46 0 4.94.33 7.38.39.11.02.26.01.42 0 .39-.01.83-.03.76.32-.26.18-.6.15-.92.12-.18-.02-.35-.03-.51-.01-7.11-.45-14.31.71-20.62 4.09-3.75 1.38-7.38 3.11-10.4 5.76-2.15 2.22-5.1 4.91-6.73 7.35.83-3.05 3.41-5.12 5.53-7.29z"/><path d="m140.64 41.12c-.46-1.11-.12-2.56.05-3.71.33-2.32.71-4.67 1.41-6.92 1.02-5.69 4.18-10.54 7.49-15.16.19-.36.51 0 .32.29-3.64 5.04-6.32 10.62-7.4 16.76-.53 2.75-.98 5.47-1.38 8.23 0 .2-.12.58-.32.58-.05 0-.11-.02-.17-.07z"/><path d="m265.54 41.67c-3.74-.04-7.49-.02-11.23 0-5.2.03-10.41.05-15.57-.07-4.17-.02-8.33-.02-12.48.28-2.32.1-5.15.42-7.2-.71-.05-.12-.02-.28.08-.36s.23-.07.37-.06h.15c2.36.09 4.7-.03 7.04-.16 2.2-.12 4.41-.24 6.62-.18 9.84.09 19.67.46 29.48.31 15.02.34 30.06.85 45.07.85 9.19-.09 18.36-.44 27.54-.76 5.55-.37 11.09-.37 16.65-.57 2.45-.07 4.96-.37 7.4-.02-.02.32-.03.63-.05.94v.03c-.06.01-.12.02-.19.03-3.73-.09-7.46.17-11.18.29-13.62.46-27.24 1.02-40.87 1.29-13.87-.23-27.77-.63-41.62-1.14z"/><path d="m131.52 46.11c-16.76-.52-33.55-.11-50.32-.74-6.13-.05-12.23 1-18.37.64-9-.22-18-.35-26.99-.73-8.92-.13-17.86.48-26.77-.05-2.85-.04-5.71-.17-8.55-.1-.26 0-.26-.5 0-.5 1.2-.15 2.39-.49 3.61-.5 8.41-.08 16.79.6 25.2.14 9.19-.22 18.36.61 27.55.45 9.81.48 19.55-1.07 29.35-.49 15.96.15 31.92.66 47.88.76 2.85-.16 5.71-.24 8.56-.16.37-.03.57.47.35.76-.22.32-.71.12-1.05.18-3.49-.03-6.97.29-10.46.33z"/><path d="m143.16 45.22c-.37-1.94.03-4.08.1-6.08.17-3.17.42-6.34 1.43-9.37 4.23-12.05 14.66-21.78 27.46-23.72 13.54-2.47 20.6-1.73 31.24 7.41 2.34 1.42 3.31 4.09 5.02 6.11 1.37 1.69 3.01 3.35 3.86 5.34 1.15 2.76 1.3 5.8 2.17 8.65.52 2.25.17 4.59.49 6.86.16 1.07.91 2.37.04 3.29-1.65-2.59-1.12-5.73-1.39-8.64-.44-2.5-1.25-4.87-1.7-7.36-.59-3.21-3.2-5.39-5.06-7.89-1.06-1.34-1.73-3-2.93-4.22-2.99-2.36-5.9-4.89-9.11-6.94-9.26-4.56-20.25-1.9-29.74.63-3.96 1.52-7.51 4.12-10.69 6.89-3.83 3.94-6.92 8.76-8.73 13.95-1.3 4.87-1.48 9.83-2.09 14.79.23.26-.14.65-.35.32z"/><path d="m319.6 45.8c-14.88-.1-29.75-.59-44.63-.52-6-.26-12 .1-18 .06-4.41-.05-8.81-.42-13.23-.21-6.81-.12-13.62.16-20.43.23-1.61.02-3.22.01-4.83.06-.87-.03-1.87.17-2.62-.35-.64-.54-.76-1.46-.94-2.23 0-.18.13-.32.3-.34.3-.04.38.39.12.48.14.54.44 1.33 1.08 1.36 1.53.08 3.06-.14 4.59-.18 4.54-.15 9.09-.08 13.63-.46 11.97-.12 23.92.81 35.89.3 8.73.27 17.46.12 26.2.38 3.54-.11 7.09.26 10.6.45 4.47.08 8.94-.02 13.4.13 5.29.37 10.56-.42 15.85-.37 6.95-.45 13.92-.28 20.87-.38.93.01 1.89-.43 1.9.57-.02.34-.34.52-.66.48-3.98.13-7.96.12-11.95 0-9.05-.01-18.1.67-27.15.52z"/><path d="m81.2 45.37c16.77.63 33.55.22 50.32.74 3.49-.05 6.97-.37 10.46-.34.11-.02.23-.01.36 0 .26.02.54.04.69-.18.21-.29.02-.79-.35-.76-2.86-.07-5.71 0-8.56.16-15.96-.1-31.92-.62-47.88-.76-5.02-.3-10.03-.04-15.04.22-4.76.25-9.53.5-14.3.27-4.47.07-8.93-.08-13.38-.23-4.72-.17-9.44-.33-14.17-.22-5.05.28-10.08.14-15.12 0-3.36-.09-6.72-.18-10.09-.14-1.22 0-2.41.35-3.61.49-.26 0-.26.5 0 .5 2.84-.07 5.7.05 8.55.1 5.38.31 10.78.22 16.17.12 3.54-.07 7.07-.13 10.6-.07 8.99.38 17.99.51 26.99.73 3.44.2 6.88-.04 10.32-.28 2.53-.18 5.06-.36 7.6-.36h.45zm-80.9 55.02v-58.4c1.27-.03 2.54-.09 3.81-.14 2.01-.09 4.02-.18 6.02-.16 2.19-.09 4.38.02 6.56.12 1.9.09 3.8.18 5.7.15 3.33-.08 6.63-.66 9.96-.62 1.83.27 3.73.31 5.59.31 8.65-.12 17.26-.81 25.92-.62 3.23.04 6.36.57 9.61.64 10.56.2 21.15.35 31.72.25 11.57-.85 23.18-.48 34.76-.39.19-.02.51-.03.71-.1.12-.05.2-.14.23-.26.16-.08.25-.38.24-.56.4-2.76.85-5.49 1.38-8.23 1.07-6.14 3.76-11.72 7.39-16.76.01-.02.02-.04.03-.05 1.33-1.41 2.79-2.81 4-4.05 3.02-2.64 6.65-4.38 10.4-5.76 6.15-3.29 13.14-4.48 20.07-4.12 5.53.96 10.96 2.66 15.5 6.1 5.23 3.69 10.22 8.04 13.56 13.58 3.2 5.96 5.02 12.74 5.23 19.5-.03.04-.05.08-.05.14v.05c-.02-.02-.03-.04-.05-.05-.09-.1-.18-.19-.27-.28-.08-.08-.2-.19-.31-.23-.08-.03-.15-.07-.24-.04-.05.02-.11.03-.15.07-.09.09-.11.22-.05.34.07.16.16.32.26.46.09.14.18.28.28.42-.03 0-.07 0-.1 0-.12 0-.22.12-.22.23-.02 0-.04 0-.06 0-.18 0-.3.19-.28.36.02.16.16.29.32.29h.21.5.04.15c0 .02-.01.05-.01.07 0 .06.03.13.07.18-.02.04-.02.08-.02.12.01.11.1.2.21.22.1.01.21.02.31.02.12 0 .24 0 .35.02.28 0 .56.02.83.04s.02 0 .02 0h.02v.02c.04.1.14.15.24.15.03 0 .06 0 .09-.02.12-.05.18-.19.14-.32 0 0 0-.02 0-.03h.07.09c.09 0 .18 0 .26-.02.11-.05.18-.18.15-.3-.03-.11-.12-.18-.24-.19h-.02v-.07c.07-.04.13-.13.13-.22 0-.12-.09-.24-.21-.25-.02 0-.03 0-.04 0-.02-.06-.07-.11-.13-.14-.12-.06-.27-.07-.4-.1-.09-.02-.18-.03-.27-.05-.08-.02-.16-.03-.23-.04-.1-.02-.2-.04-.3-.06-.18-.04-.36-.07-.54-.09-.04 0-.08 0-.12-.01-.07-.08-.15-.15-.22-.23l-.16-.16s.08.03.12.04c.05 0 .1-.01.14-.03v.03c2.05 1.13 4.88.81 7.2.71 4.16-.3 8.31-.31 12.48-.28 5.17.12 10.37.09 15.57.07 3.75-.02 7.5-.04 11.23 0 13.85.51 27.74.91 41.62 1.14 13.63-.26 27.24-.83 40.87-1.29 3.72-.12 7.44-.38 11.16-.29v3.06c-.22-.2-.62-.15-1.07-.1-.21.02-.44.04-.65.04-6.95.1-13.92-.08-20.87.38-2.24-.02-4.46.1-6.69.23-3.05.17-6.11.35-9.16.14-4.47-.16-8.94-.05-13.4-.13-3.51-.19-7.06-.56-10.6-.45-8.73-.26-17.47-.11-26.2-.38-6.9.29-13.79.1-20.67-.09-5.07-.14-10.14-.27-15.22-.22-4.54.37-9.08.3-13.63.46-1.53.04-3.06.26-4.59.18-.64-.03-.93-.82-1.07-1.36.21-.07.19-.37.02-.46-.02-.69-.35-1.44-.45-2.11-.32-2.27.04-4.6-.49-6.86-.87-2.85-1.02-5.9-2.17-8.65-.85-1.99-2.49-3.65-3.86-5.34-1.71-2.03-2.68-4.69-5.02-6.11-10.65-9.13-17.7-9.88-31.24-7.41-12.8 1.94-23.23 11.67-27.46 23.72-1.01 3.03-1.25 6.21-1.43 9.37-.07 2-.47 4.14-.1 6.08.21.33.58-.06.35-.32.62-4.96.8-9.92 2.1-14.79 1.81-5.19 4.9-10.01 8.73-13.95 3.18-2.76 6.73-5.36 10.69-6.89 9.49-2.54 20.48-5.19 29.74-.63 3.21 2.05 6.11 4.59 9.11 6.94 1.2 1.23 1.87 2.88 2.93 4.23 1.87 2.5 4.47 4.68 5.06 7.89.44 2.5 1.26 4.86 1.7 7.36.28 2.9-.25 6.04 1.39 8.64.05-.05.09-.09.12-.14.14.57.33 1.13.78 1.51.57.39 1.28.37 1.97.35.22 0 .44-.01.65 0 1.61-.05 3.22-.04 4.83-.06 6.81-.07 13.62-.36 20.43-.23 4.42-.21 8.82.17 13.23.21 2.35.01 4.7-.03 7.05-.08 3.65-.07 7.3-.14 10.95.02 14.88-.07 29.75.42 44.63.52 4.93.08 9.86-.09 14.79-.25 4.12-.14 8.24-.28 12.36-.27 3.99.12 7.97.12 11.95 0 .18.02.35-.03.48-.13v55.24h-358.83z" fill="#fff"/><path d="m90.72 42.71c-14.36-.99-28.77-.08-43.12-1.16-7.35-.24-14.63.82-21.98.48-8.21-.45-16.48-.49-24.68-.43-.56-.04-.6-1.01-.09-1.18 5.8-1.11 11.66-.57 17.53-.55 6.97.37 13.94.64 20.9-.06 5.11-.35 10.19.14 15.3.27 12.5.43 25.02.09 37.52.83 5.6-.57 11.19-.82 16.78-.62 5.84-.47 11.71-.4 17.56-.46 2.81.07 5.63.19 8.43.01 1.91-.05 3.81-.47 5.72-.23.18.03.33.18.43.32.38.55.04 1.6-.72 1.48-.69-.07-1.39-.04-2.08-.02-5.5.69-10.97.1-16.48.29-6.52.02-13 .5-19.5.37-3.88.03-7.66.64-11.5.66z"/><path d="m139.49 41.53c-.36-.33-.4-.94-.12-1.34.96-3.58 1.3-7.4 2.34-11 .76-4.02 2.65-7.69 4.34-11.38 4.81-8.67 17.32-14.53 26.85-15.8.21-.36.53.14.32.37-3.23 1.13-6.42 2.56-9.61 3.82-3.11 1.23-6.12 3.04-8.8 4.9-1.62 1.01-3.29 2.1-4.47 3.54-4.07 4.37-6.13 10.38-7.48 16.09-.73 2.57-.98 5.28-1.65 7.85-.1.95-.28 3.65-1.71 2.93z"/><path d="m220.35 41.73c-.08-.01-.16-.03-.23-.04-.1-.03-.2-.05-.3-.07-.18-.04-.36-.07-.54-.09-.04 0-.08 0-.12 0-.07-.08-.15-.15-.22-.23-.05-.05-.09-.09-.13-.14.19-4.66-.14-9.4-2.3-13.66-2.07-6.32-6.65-11.27-11.32-15.79-3.54-3.41-7.84-6.02-12.31-8.01-4.47-1.28-9.1-1.71-13.72-1.7-3.41.51-6.88.85-10.17 1.75-2.01.8-4.08 1.14-6.04 1.8-.12-.04-.18-.22-.07-.32 3.42-1.96 7.06-3.25 10.93-3.92 3.49-.72 7.01-1.07 10.55-.62 4.37.22 8.76.95 12.58 3.09 4.94 2.61 9.33 6.06 13.01 10.25 3.63 3.78 6.7 8.05 8.36 13.06.94 2.36 1.95 4.74 2.16 7.29.07 2.43.29 4.94.04 7.36-.05-.01-.11-.02-.16-.03z"/><path d="m349.86 41.28c-.46-.23-.51-.78-.03-1.02 1.36-.47 2.94 0 4.34-.05 1.04.03 2.1-.17 3.12.1.48.15.94.4 1.42.5-.07-.1.02-.22.13-.25.35-.12.92.82.3.76-1.92-.33-4-.12-5.91-.02-1.13.03-2.31.44-3.37-.02z"/><path d="m302.09 42.69c-4.67-.13-9.32-.53-13.98-.81-5.1-.04-10.27.34-15.35.3h.13c-7.13-.2-14.24-.33-21.36-.16-8.28-.54-16.6-.43-24.86-.35-1.61-.02-3.28-.01-4.82-.04-.83-.08-2.02.34-2.33-.69-.05-.95 1.16-.79 1.78-.79.59 0 1.25.01 1.72.02 9.9-.04 19.68-.1 29.54.35 10.13-.26 20.27.48 30.36-.06 9.14-.22 18.24 1.27 27.36.62 5.38.22 10.62-.15 15.94-.53 6.14-.21 12.27-.03 18.38-.56 4.63-.03 9.31.24 13.9.62.16.04.3.15.28.34-.03.18-.3.19-.43.07-3.47.75-7.1.62-10.62.41-3.29-.06-6.57.35-9.86.39-6.67.05-13.26.26-19.9.72-5.4.13-10.55 0-15.9.16z"/><path d="m215 43.93c-.57-.97-.86-2.15-.84-3.28.33-.64.58.51.44.77.14.83.27 1.71.41 2.51z"/><path d="m215.5 44.71c-.86-.92-1.37-2.31-1.26-3.56.06-.15.26-.19.33-.02.08 1.21.5 2.48.94 3.59z"/><path d="m215.54 44.55c-.81-.56-1.33-1.69-1.09-2.66.03-.05.11-.13.18-.1.14.06.16.24.16.37-.02.84.38 1.69.76 2.39z"/><path d="m216.13 44.58c-.49-.11-2.18-3.2-1.25-3.15.36 1 .79 2.19 1.25 3.15z"/><path d="m216.61 44.66c-.72-.36-1.12-1.08-1.47-1.78-.34-.84-.93-1.87-.64-2.78.34-.25.32.37.32.55.21 1.16.7 2.29 1.43 3.19.33.3 1.56.91.36.82z"/><path d="m142.6 45.67c-.06-.04-.1-.11-.1-.18-.19.11-.39-.05-.35-.26.09-.35.57-.29.75-.56.24-.5.29-1.1.2-1.63-.02-.11.01-.24.12-.3.36-.1.29.47.31.69.26.67.06 2.38-.94 2.23z"/><path d="m142.39 45.18c-.09-.28.24-.43.35-.62.24-.54.28-1.16.34-1.76-.11-.32.29-.73.41-.25 0 .59-.16 3.05-1.1 2.63z"/><path d="m143.02 45.58c-.16-.15 0-.42.07-.56.2-.51.13-1.12.15-1.65.6-1.27.55 2.55-.23 2.2z"/><path d="m.35 44.75s-.04-.02-.06-.03v-.41s.03-.02.05-.03c.11-.04.22-.03.32-.03h.18c.81-.09 1.64-.14 2.46-.07.13.01.19.14.19.26-.03.29-.3.26-.55.22-.12-.02-.24-.04-.33-.02-.37 0-.74.02-1.12.05-.36.03-.72.06-1.07.06h-.06z"/><path d="m.44 41.6s-.04-.04-.05-.06c-.04 0-.07-.03-.09-.06 0-.1 0-.21 0-.31 0-.17 0-.34 0-.51.02-.06.06-.11.11-.15.21-.09.61-.27.8-.09.29-.05.33.45.06.49-.12 0-.24.02-.35.03-.04.2.07.55-.19.62-.04.05-.1.09-.16.09-.04 0-.08-.01-.11-.04z"/></g></svg>