<svg viewBox="0 0 39.28 42.7" xmlns="http://www.w3.org/2000/svg" xmlns:xlink="http://www.w3.org/1999/xlink"><clipPath id="a"><path d="m0 0h39.28v42.7h-39.28z"/></clipPath><g clip-path="url(#a)"><path d="m38.13 1.69c.9 1.41-.76 8.23-1.25 8.93-.76 1.44-1.08 3.1-2.02 4.46-2.05 2.59-4.75 4.64-7.71 6.05-1.06.45-2.33.41-3.43.7-1.01.27-1.98.48-2.99.5.03.33-.05.68-.04 1.02-.04 5.62.45 11.22.11 16.84.55.03 1.11.06 1.67.12 2.3.04 4.6-.25 6.9-.03.34-.03.7-.06 1.02.05.59.28.61 1.28.03 1.58-.98.22-2.03.09-3.02.11-1.91-.08-3.62.27-5.5.1-3.2-.3-6.4-.14-9.6-.17-.91-.07-2.64.49-2.61-.92.02-.43.3-.89.77-.88 1.21.02 2.43-.03 3.66-.04 1.73.04 3.46 0 5.18.04-.02-5.13.15-10.3-.05-15.41-.01-.82 0-1.66.07-2.48-2.91-.3-5.97-.47-8.63-1.73-4.75-2.53-8.73-6.83-9.66-12.25.02-.77-.78-5.01-.34-6.33-.06-.12-.08-.27-.08-.4-.02-1.3 2.78-.64 3.66-.72 6.27.32 12.54.46 18.8.19 4.11-.01 8.23.1 12.34.16.85.04 2.46-.54 2.73.51zm-1.23 1.2c-.43.02-.88-.02-1.21.05-7.62-.14-15.23 0-22.86.06-3.79-.17-7.57-.25-11.34-.63.77 2.68.67 5.64 1.79 8.23.3-.16.68-.18 1.04-.11 3.64.24 7.29-.21 10.94-.13 6.18.4 12.34-.01 18.52-.12.45.02 1.11-.08 1.62.02.57-1.41 1.04-2.84 1.2-4.37.22-.99.25-2 .3-3.01z"/></g></svg>