<svg xmlns="http://www.w3.org/2000/svg" viewBox="0 0 29 29.18">
    <defs>
        <clipPath id="a">
            <path style="fill:none" d="M0 0h29v29.18H0z"/>
        </clipPath>
    </defs>
    <g style="clip-path:url(#a)">
        <path d="M7.02 6.72c.96-3.12 4.22-5.18 7.44-5 .37-.02.59.54.13.55-.27-.11-.57-.03-.84.01-.04 0-.09.01-.13.02h-.12c-.28 0-.55.06-.82.13-.2.05-.4.13-.57.26-4.26 1.57-6.03 6.51-4.18 10.8.49 1.36 1.99 2.04 2.49 3.3-4.03-1.15-4.5-6.65-3.38-10.08Z"/>
        <path d="M1.3 28.3c-.66-1.47.14-2.97.61-4.37 1.08-3.81 4.44-6.62 8.18-7.65.39-.06.36.61-.02.5-6.03 2.97-7.09 5.31-8.76 11.52ZM18.89 16.39c.07-.07.15-.15.22-.23.1-.11.2-.21.3-.32.08-.09.16-.18.24-.28.07-.08.13-.17.2-.25.07-.09.14-.18.2-.28.03-.05.07-.1.1-.15.12-.02.24-.04.36-.07.17-.04.33-.07.49-.12-.38.47-.84.91-1.39 1.3-.25.12-.48.3-.72.45l.02-.05ZM16.39 2.47c-.21-.04-.43-.06-.65-.07-.12 0-.25 0-.37-.01-.1-.03-.2-.05-.29-.07-.24-.09-.43-.27-.66-.31.12-.2.31-.31.52-.35l.65.12h.05c.25.07.5.15.74.23.11.04.21.08.31.12l-.24.27c-.02.02-.04.04-.05.06Z"/>
        <path d="M14.89 2.27c-.19-.06-.34-.26-.46-.4.14-.18.43-.11.59.02.17.12.11.43-.13.37ZM18.89 16.39l.03-.03c0 .08-.04.13-.08.17.02-.05.03-.1.05-.14ZM25.52 27.35c.14.06.29.1.44.13-.11.23-.26.43-.46.57.01-.23.02-.47.02-.7Z"/>
        <path d="m18.73 16.88.06-.2c.04-.1.07-.19.1-.29.47.17.97.22 1.42.46.44.18.85.36 1.22.56-.22.19-.41.41-.58.64-.73-.42-1.5-.78-2.21-1.17ZM1.05 28.13c-.12-.17.02-.5.24-.4.7.07 1.41-.05 2.1-.06 7.39.07 14.86-.03 22.22-.07.04-.09.08-.14.12-.18.06.02.13.03.19.05.06.12.09.34.07.5-.02.18-.21.28-.37.33-4.14.35-8.34.33-12.53.3-2.28-.02-4.57-.03-6.84.02-1.72-.09-3.57-.11-5.2-.49Z"/>
        <path d="M1.13 28.04c-.37-.04-.12-1.86.32-1.32.11.24 0 .59.03.83.06.23-.03.78-.35.49Z"/>
        <path d="M4.31 28.72c-.91-.07-1.88-.03-2.74-.33-.54-.07-.96-.55-.79-1.12 0-.55.56-3.02 1.3-1.82-.03.74-.44 1.43-.41 2.19 2.13.52 4.35.37 6.55.23 1.11-.07 2.21-.14 3.3-.13 1.89-.15 3.84-.06 5.8.02 2.69.11 5.37.23 7.88-.24v-.29h.07c.26.15.55.24.85.26 0 .13-.02.25-.08.38-.73.68-1.84.68-2.88.67-.38 0-.75 0-1.09.03-3.49 0-6.97-.23-10.45-.09h.02c-2.16.01-4.28.26-6.42.26-.31 0-.63 0-.94-.02Z"/>
        <path d="M1.25 26.48c-.38-1.12.64-2.52 1-3.59.58-1.36 1.3-2.71 2.4-3.72 1.51-1.04 3.09-1.98 4.83-2.57-.36-.16-.55-.76-.14-.97.38-.16.99.39 1.08.73.11 1.26-1.88 1.28-2.67 1.84-.74.36-1.36.8-2.05 1.23-.46.23-.86.52-1.15.94-1.26 1.43-1.79 3.33-2.58 4.99 0 .24-.04.47-.07.7-.05.28-.41.64-.68.43Z"/>
        <path d="M9.58 16.73c-.3-.24-.68-.4-.85-.79-2.46-2.27-2.51-6.16-1.85-9.22.4-1.26 1.25-2.34 2.21-3.21.42-.34.85-.94 1.43-.87.51-.17.34.66.05.81-.76.5-1.45 1.19-2.02 1.87-1.21 1.42-1.33 3.31-1.26 5.07.11 1.76.41 3.47 1.72 4.72l.02.02c.52.24 1.12.73 1.02 1.36-.06.21-.29.34-.48.23ZM20.15 17.76c-.36-.21-1.06-.35-1.49-.63.03-.15.08-.3.12-.45.03-.1.07-.19.1-.29.07-.07.15-.15.22-.23.1-.11.2-.21.3-.32.08-.09.16-.18.24-.28.07-.08.13-.17.2-.25.07-.09.14-.18.2-.28.04-.05.07-.1.1-.15.12-.01.24-.04.36-.07.13-.03.27-.06.4-.1-.09.12-.19.25-.31.36-.51.4-.91.87-1.37 1.33.43.29 1.02.33 1.43.67.3.31-.01.7-.37.7-.04 0-.09 0-.13-.02ZM18.66 17.13v-.01.01z"/>
        <path d="M8.78 4.44c-.43-.35.23-.83.49-1.07.56-.57 1.21-1.09 2.02-1.27 1-.29 2.07-.52 3.12-.52l.37.05h.02c.25.04.49.09.74.13h.08s0 .01.01.02h-.02.03c.25.07.49.15.74.24.11.04.22.08.32.12-.08.09-.16.17-.24.26-.02.02-.04.04-.05.06-.21-.04-.43-.06-.65-.07-.3-.01-.6-.01-.9 0-.17-.01-.33-.02-.5-.02-.14-.03-.28-.06-.42-.07-.14-.02-.29 0-.43 0-.28 0-.55.06-.82.13-.18.05-.37.12-.53.23-.48.12-.95.26-1.4.43-.65.33-1.15 1.35-1.91 1.35H8.8ZM14.26 2.37h.05-.05ZM19.18 3.98ZM15.64 1.79zM15.55 1.77zM20.19 17.75c-.44-.11-.83-.34-1.23-.52-.09-.04-.2-.09-.29-.16.04-.13.07-.26.11-.39.04-.1.07-.2.1-.3l.15-.15c.02.06.04.13.04.22.67.36 1.4.57 2.09.89.09.05.17.11.26.16-.19.18-.35.37-.5.58-.23-.13-.47-.24-.73-.33Z"/>
        <path d="M.65 27.6c-.4-3.11 2.22-6.35 4.4-8.32 1.32-1.04 2.99-1.78 4.61-2.14.13-.03.23-.12.31-.21-1.13-1.03-2.14-2.03-2.73-3.44-.6-.94-.41-2.06-.58-3.1-.41-2.82.87-6.09 3.28-7.66 1.29-.79 2.85-.83 4.3-.87.19.07.49 0 .61.12.17.2-.11.51-.33.39l-.05.03s-.07 0-.1-.02c-.15-.03-.3-.06-.44-.08-.14-.02-.29 0-.43 0-.28 0-.55.06-.82.13-.37.09-.77.31-.9.68-.12.06-.23.14-.34.22-.02.02-.05.04-.08.07-.51.24-.97.55-1.38.99-1.09 1.37-1.94 2.98-2.12 4.69-.01 1.65.19 3.25.91 4.75.63.85 1.39 1.66 2.06 2.46.65 1.24-1.04 1.91-1.99 2.13-.84.45-1.79.73-2.51 1.37-1.76 1.56-2.99 3.54-3.78 5.66-.25.59-.33 1.16-.39 1.76-.1.4-.53.7-.92.7-.22 0-.43-.09-.57-.31Z"/>
        <path d="M3.61 28.77c-.83-.14-2.16.1-2.51-.88-.15-.44.06-.54.08-.9.16-.3.55-.02.49.26.06.08.11.17.16.24 7.42.5 14.89-.05 22.31-.22.03.01.05.02.08.03h.1l.22-.03H24.61c.23 0 .45-.01.68-.02h.03c.14.08.3.15.46.19.41.32.44.92-.16 1.08-.27.02-.54.04-.82.05-2.6.07-5.17 0-7.75 0-2.4-.09-4.77 0-7.14.09-1.69.07-3.38.13-5.06.13-.41 0-.82 0-1.23-.01Z"/>
        <path d="M2.21 27.81c-.36-.24-.75-.57-.89-.99-.03-.34.53-.27.5.03.29.38.53.84.93 1.11-.14.05-.39-.09-.54-.16ZM19.04 16.97c-.13 0-.23-.07-.3-.16.01-.04.02-.08.04-.13.04-.1.07-.19.1-.29l.22-.22c.1-.11.2-.21.3-.32.08-.09.16-.18.24-.28.07-.08.13-.17.2-.25.07-.09.14-.18.2-.28.04-.05.07-.1.1-.15.12-.02.24-.04.36-.07.2-.05.39-.09.59-.15.09-.03.18-.06.26-.09-.4.66-.91 1.26-1.53 1.8.63.26 1.31.48 1.83.95-.27.22-.49.47-.69.74-.66-.33-1.28-.74-1.9-1.1ZM16.39 2.47c-.21-.04-.43-.06-.65-.07-.39-.02-.79-.01-1.18.01l-.2-.03c-.15-.03-.29-.06-.44-.08h-.13c-.13-.32.03-.6.31-.76.22.03.45.06.66.08s.02 0 .03 0h-.01c.25.04.5.09.76.14s.01 0 .02 0h.06c.25.08.5.16.74.24.11.04.21.08.31.12l-.24.27-.05.06ZM14.26 2.37h.05-.05ZM15.62 1.79Z"/>
        <path d="M19.88 16.88c-.35-.04-.32-.7.06-.51.53.23 1.09.57 1.65 1-.12.1-.23.2-.33.31-.4-.36-.84-.67-1.37-.8ZM26.11 27.91c-.08-.13-.13-.28-.16-.43.1.02.2.03.31.03.07 0 .14 0 .21-.01v.02c-.02.17-.12.41-.31.41h-.05Z"/>
        <path d="M25.43 28.17c-.08-.33.29-.33.5-.44a.55.55 0 0 0 .07-.24c.09.01.17.02.26.02h.12c0 .1 0 .19-.01.29-.03.26-.4.56-.67.56-.11 0-.21-.05-.27-.18ZM20.75 17.5c-.23-.06-.57-.31-.4-.57.22-.14.57.15.77.26.12.08.25.16.38.25-.12.11-.23.22-.34.34-.14-.1-.27-.19-.41-.28ZM19.83 15.31c.07-.09.14-.18.2-.28.03-.05.06-.1.1-.15.08-.01.17-.03.25-.04-.19.21-.39.4-.62.56.03-.03.05-.07.07-.1ZM14.36 2.39c-.05 0-.1-.02-.16-.03.22-.03.45-.06.56.05-.07 0-.14 0-.21.01l-.2-.03ZM14.26 2.37h.05-.05Z"/>
        <path d="M19.97 17.61c-.31 0-.27-.57.05-.5.48.08.95.23 1.38.42-.12.12-.24.25-.35.38-.34-.13-.7-.24-1.08-.31ZM26.1 28.05c.03-.13-.02-.37-.03-.56h.19c.07 0 .15 0 .22-.01.01.28.09.6-.05.85-.02.05-.06.11-.12.15-.14 0-.28.01-.42.02-.21-.15.02-.4.2-.45Z"/>
        <path d="M25.46 28.13c.12.02.22 0 .33-.04.09-.03.17-.05.27-.05.23.18.18.34.02.46-.25.01-.51.03-.76.04-.09-.14-.04-.39.14-.41Z"/>
        <path d="M25.18 28.13c.19 0 .25.26.16.41-.1 0-.21.01-.31.02-.1-.14-.05-.43.15-.43ZM19.57 15.69c.69-.86 1.2-1.86 1.53-2.92.1-.25.18-.5.25-.76s.13-.53.18-.8c.09-.54.17-1.07.16-1.62a7.1 7.1 0 0 0-.12-1.13c-.05-.28-.13-.54-.22-.81a3.44 3.44 0 0 0-.28-.66c-.07-.14-.15-.27-.24-.4-.62-1.39-1.65-2.58-3.15-3.31-.16-.26-.42-.45-.68-.59-.19-.11-.39-.19-.61-.22-.14-.03-.29-.04-.44-.06-.14-.09-.28-.18-.42-.28.39-.17.95-.22 1.41-.16 5.33 1.66 7.29 9.67 3.52 13.69-.23.12-.41.31-.63.41h-.03c-.17 0-.31-.24-.22-.39Z"/>
        <path d="M10.85 2.57c.57-.37 1.32-.57 2.02-.56 1.62-.14 3.73-.3 4.99.81-2.08-.4-4.24-.64-6.32-.09-.21.12-.77.25-.69-.16Z"/>
        <path d="M18.65 3.36c-1.57-.19-3.05-.96-4.66-.81-.89.14-1.9 0-2.7.44-.14.1-.32.15-.46.05-.14-.07-.12-.3.04-.33 2.33-1.15 5.93-1.08 7.79.65Z"/>
        <path d="M11.12 3.27c-1.17-.44 2.88-1.38 3.15-.93-.28.32-.85.28-1.26.36-.68.1-1.27.43-1.9.57ZM18.03 3.16c-.38-.32-.65-.53-.14-.43.14.02.27.07.39.15.28.16-.04.44-.25.28Z"/>
        <path d="M17.71 3.16c-.19-.04-.45-.24-.48-.42.14 0 .28.03.41.07.3.05.57.44.07.35Z"/>
        <path d="M18 3.37c-.44-.02-.76-.41-1.09-.65.21-.07 1.85.37 1.09.65ZM18.27 2.61c-1.7-.18-3.39-.73-5.09-.46-.58.02-1.1.24-1.64.39-.11.02-.26-.05-.3-.17-.03-.14.1-.22.22-.24.19-.05.35-.13.54-.19 1.79-.48 5.15-.82 6.27.67Z"/>
        <path d="M18.41 2.82c-1.2-.19-2.36-.73-3.56-.82-.69-.06-1.31.08-1.97.21-.58.1-1.29-.07-1.78.32-.09.36-.72.06-.42-.23 1.77-1.39 6.21-1.1 7.73.52Z"/>
        <path d="M22.48 11.44c-.63-.9-.16-1.97-.39-2.97-.39-2.99-2.43-5.8-5.47-6.37-1.08-.1-2.26-.37-3.32-.04-.49.26-1.31.02-.4-.31 4.27-1.5 9.28 1.69 9.96 6.11.17 1.1.87 2.95-.38 3.59Z"/>
        <path d="M20.2 15.39c.36-.88 1.03-1.58 1.51-2.39.45-.91.81-1.88.8-2.89.02-.18.3-.34.41-.15.07.2.09.4.14.6-.19 1.83-1.09 4.09-2.86 4.82Z"/>
        <path d="M19.79 16.54c0-.53.52-.94.82-1.32.9-1.14 1.44-2.48 1.89-3.84.19-.5.13-1.05.21-1.54.04-.07.12-.16.21-.15.92.91-1.52 6.93-3.13 6.85Z"/>
        <path d="M20.11 16.45s.02-.06.03-.08c-.01-.31.15-.59.38-.79 1.16-1.31 1.75-2.95 2.17-4.59.32-.65.4.14.31.45-.31 1.14-1.52 5.19-2.89 5.01Z"/>
        <path d="M19.9 16.94c-.47-.71.83-1.19 1.01-1.82.1-.23.35-.9.61-.46-.11.59-.53 1.11-.75 1.65-.13.33-.46.79-.87.63Z"/>
        <path d="M18.81 17.27c-.27-.19-.15-.61-.02-.86.12-.19.35-.25.5-.4.47-.27.76-.68 1.09-1.08.09-.09.23-.04.28.06.12.19-.04.36-.16.5-.32.46-.78.81-1.23 1.12-.12.06-.19.1-.21.22-.01.18.08.51-.26.42Z"/>
        <path d="M27.06 27.41c-.25-3.19-2.32-5.85-4.41-8.12-1.01-.64-1.94-1.39-2.89-2.12-.27-.02-.49-.24-.26-.49.13-.11.3.03.44-.06 3.74.28 6.32 4.62 7.74 7.74.3 1 1.05 2.81.12 3.6-.37.15-.66-.23-.75-.56Z"/>
        <path d="M26.17 28.52c-.2-.05-.38-.04-.48-.23-.64.16-1.62-.22-1.03-.83.33-.07.67-.13.99-.22.14 0 .27 0 .41-.01.47.01.77.02 1.33-.18.06-.56.69-.35.56.14 0 .35-.06.79-.34 1.03-.18.08-.3.04-.46.07-.19.21-.49.24-.77.24h-.2Z"/>
        <path d="M26.08 28.13c-.05-.34.33-.32.57-.34.44-.04.98-.26 1.35.09-.13.59-.87.42-1.32.41-.21 0-.55.14-.59-.17Z"/>
        <path d="M26.67 28.21c-.05-.33.3-.32.53-.33.22-.08.46 0 .62.15-.09.44-.6.35-.94.38-.11 0-.19-.1-.21-.2ZM28.05 27.74c-.07-.3-.22-.56-.33-.83-.1-.27.27-.48.37-.17.16.32.16.72-.03 1.02h-.01Z"/>
        <path d="M26.86 28.4a.512.512 0 0 1-.33-.26c.32-.39.9-.17 1.32-.3.04-.38.09-.7-.04-1.05-.04-.11-.03-.27.08-.34.46-.13.38.82.46 1.11.12 1.03-.79.82-1.49.83ZM2.21 27.79c-.48-.36-.37-1.09-.46-1.6-.03-.13-.03-.29.1-.36.21-.08.41.21.31.4.04.49.07.93.34 1.3.08.13.15.25.26.36-.12.09-.41 0-.55-.1ZM1 27.7c-.72-.93.95-1.27 0 0Z"/>
        <path d="M.82 27.85c-.25-.25-.22-.76.1-.93.21-.11.38.14.22.31-.08.15-.19.44-.32.62Z"/>
        <path d="M.8 27.99c-.41-.11-.21-.78.03-1 .31-.17.46.04.25.37-.03.23-.08.47-.26.63H.8Z"/>
        <path d="M1.02 28.68c-.67 0-.45-1.21-.11-1.5.13-.09.35-.01.31.17-.12.28-.21.59-.13.89.43.04.98.01 1.33.21-.45.14-.93.28-1.41.24Z"/>
        <path d="M1.73 28.67c-.15 0-.36 0-.43-.17-.02-.04-.02-.12.03-.15.68-.21 1.47.11 2.16.24-.52.1-1.18.08-1.75.08Z"/>
        <path d="M1.49 28.52c-.13.02-.38-.07-.24-.22.16-.13.39-.02.57 0 1 .19-.04.19-.33.22ZM11.17 28.22c-3.19-.17-6.38 0-9.54-.38-.12.04-.22-.04-.24-.15.02-.69 1.08-.13 1.51-.19 3.96.23 7.93-.06 11.85.64-1.12.12-2.42.11-3.6.09h.03Z"/>
        <path d="M9.73 28.06c-2.38-.16-5.76.16-7.92-.46.08-.21.35-.3.57-.28 4.02.24 8.02.29 12.04.28 1.72-.02 3.45.03 5.14.39-3.19.05-6.57.16-9.83.07Z"/>
        <path d="M9.96 28.66c-.43-.06-4.37.19-3.07-.54 5.35.29 10.76-.37 16.09.14-4.25.33-8.69.49-13.02.4Z"/>
        <path d="M10.25 28.77c-.48-.02-4.48-.1-3.35-.96 4.81 1.06 9.91.16 14.8.55-3.72.57-7.65.38-11.45.41Z"/>
        <path d="M6 28.65c-.25-.01-.53-.11-.63-.34.06-.11.22-.16.35-.19 1.74.18 3.5.17 5.23.44-1.56.15-3.33.26-4.94.08ZM24.18 27.8c-.62-.84 2.05-.46 2.42-.33-.69.25-1.68.4-2.42.33Z"/>
        <path d="M24.59 27.71c-.33-.77 1.11-.35 1.47-.27-.37.2-1.04.45-1.47.27Z"/>
        <path d="M24.88 27.64c-.08-.27.08-.38.3-.4h.1c.24 0 .52.1.62.22-.2.06-.55.31-.8.31-.09 0-.17-.03-.22-.12Z"/>
        <path d="M25.34 27.23h.13c.19 0 .39.09.51.26-.26.14-.56.25-.84.28-.32-.29-.11-.5.2-.53Z"/>
        <path d="M25.19 27.5c-.12-.16.23-.28.27-.08-.02.11-.19.15-.27.08Z"/>
    </g>
</svg>
