<svg viewBox="0 0 29 25.8" xmlns="http://www.w3.org/2000/svg" xmlns:xlink="http://www.w3.org/1999/xlink"><clipPath id="a"><path d="m0 0h29v25.8h-29z"/></clipPath><g clip-path="url(#a)"><path d="m13.31 24.37c-.32-.49.1-.77.58-.61 2.49-2.3 4.92-4.64 7.22-7.11 2.65-2.54 5.34-5.78 5.43-9.63-1.54-6.41-8.43-5.25-11.71-.9-.03.18-.3.54-.5.37-.08-.08-.09-.22-.04-.32.38-.6.78-1.2 1.22-1.76 3.55-4.17 10.14-3.78 11.67 1.97.43 2.85-1.28 5.61-2.8 7.88-2.33 2.78-5.01 5.3-7.58 7.85-.79.52-2.67 3.43-3.5 2.25z"/><path d="m13.59 24.46c-3.06-1.79-5.31-4.67-7.68-7.27-1.94-2.63-4.76-5.17-5.31-8.5-.18-2.36 1.09-5.15 3.32-6.13 2.84-1.3 6.27-.09 8.72 1.56.53.39.77 1.04 1.26 1.46.18.21.54.26.77.11.48-.75 1.05-1.4 1.76-1.95.14-.2.47-.22.44.1-.19.45-.74.68-1.06 1.05-.47.41-.58 1.01-1.04 1.41-1.04.88-1.8-.66-2.4-1.31-1.31-1.08-2.99-1.63-4.61-2-1.66-.55-3.61-.22-4.91.95-.94 1.22-1.77 2.73-1.65 4.28.34 2.73 2.62 4.71 4.08 6.91 2.3 2.64 4.56 5.43 7.29 7.64.53.42 1.91.69 1.5 1.56-.1.15-.32.24-.48.12z"/><path d="m13.47 23.64s.09-.09.14-.13l-.02.02c2.14-2.16 4.41-4.25 6.81-6.14 1.3-1.04 2.68-2.05 3.72-3.37.71-.89.94-2.1 1.52-3.07 1.36-3.03 1.38-4.42-.6-7.13-.7-.76-1.83-.94-2.78-1.24-1.77-.17-3.46.42-4.89 1.41-.98.79-1.68 1.82-2.68 2.57-.16.51-.87.44-1.17.1-.41-.41-.68-.91-1.17-1.21-1.64-1.2-3.47-2.48-5.51-2.81-1.62-.12-2.9 1.04-4.04 2-.54.58-1.26 1.06-1.5 1.86-.1.75.04 1.55.14 2.29.54 1.13 1.12 2.22 1.7 3.32 2.89 4.22 6.15 8.59 10.31 11.54zm-.24.87c-.93-.34-1.49-1.25-2.27-1.79-2.04-1.7-3.65-3.81-5.34-5.84-1.64-2.05-3.21-4.22-4.27-6.63-.56-.76-.73-1.69-.76-2.63-.2-1.08.13-2.23 1-2.94 1.04-1.04 2.19-2.08 3.53-2.7 2.4-.89 4.56.74 6.54 1.89.18-.09.4-.03.55.09.94.24 1.18 1.43 1.98 1.88.74-.39 1.22-1.19 1.84-1.72.82-.97 1.96-1.51 3.09-2.05 1.46-.55 3.18-.58 4.62.05.84.24 1.7.69 2.09 1.5 2.9 3.6.88 6.66-.68 10.27-1.56 2.55-4.32 4.01-6.47 5.99-1.6 1.48-3.24 2.88-4.73 4.45-.16.25-.47.33-.73.19z"/><path d="m12.81 24.8c-.94-1.08.75-1.95 1.43-2.6 2.58-2.68 5.86-4.44 8.21-7.34 4.17-3.84 5.8-12.52-2.31-11.58-1.23.39-2.36 1.21-3.4 1.92-.87.8-2.34 2.78-3.47 1.29-.8-.59-1.64-1.04-2.06-1.99-.11-.18-.33-.37-.19-.59.08-.15.32-.16.36.03.84.74 1.86 1.22 2.69 1.97.78-.04 1.27-.8 1.8-1.31 1.29-1.3 2.89-2.44 4.7-2.87.98-.14 1.98-.23 2.91.18.68.02 1.41.35 1.9.7 2.34 1.63 2.47 5.02 1.53 7.49-1.41 5.5-6.48 8.82-10.61 12.23-.74.8-1.47 1.39-2.26 2.11-.31.32-.81.69-1.23.35z"/><path d="m13.37 25.15c-.07-.04-.14-.06-.21-.07h-.01c-1.97-1.2-3.59-3.09-5.18-4.7-1.99-1.68-3.56-3.8-4.95-6.01-1.26-1.85-2.51-3.95-2.77-6.21.26-3.11 2.37-6.45 5.59-7.03 2.71-.8 4.79 1.4 6.85 2.77.66.45 1.32 1.24 2.18.97.99-.39 1.86-1.81 2.98-1.53.46 1.13-1.86 2.89-2.82 3.28-1.75.56-3.04-1.19-4.38-1.95-1.6-1.26-3.31-2.47-5.43-1.62-2.85 1.33-4.56 4.24-2.67 7.16 1.86 4.13 4.96 7.34 8.12 10.48 1.16.91 2.17 2.22 3.46 2.87.39-.03.63.26.71.59-.11.1-.23.2-.34.3-.23.2-.44.42-.66.63-.04.02-.09.05-.13.07-.01 0-.02 0-.03 0h.02c-.09 0-.18 0-.26 0h-.08z"/></g></svg>