<svg viewBox="0 0 316.61 28.82" xmlns="http://www.w3.org/2000/svg"><path d="m260.78 17.38c-2.17-.26-4.33-.21-6.49-.49-2.69-.36-5.41-.59-8.12-.79-.82-.23-2.57.32-2.64-.88-.5-.02-1-.04-1.51-.07-.71-.05-.84-1.18-.27-1.5.78-.22 1.64.03 2.44.02-.02-1.49 2.7-.65 3.67-.8.06-.25.23-.46.49-.52.91-.16 1.85-.1 2.77-.1-.06-.13-.08-.28-.07-.43-4.61-.44-9.26-.44-13.88-.51-1.14-.22-4.62.61-4.06-1.4-.94-.52-.43-1.81.65-1.63 4.72-.18 9.43-.28 14.15-.24 6.45-.02 12.9.14 19.34.43.84.05.84 1.55 0 1.59-1.16.03-2.33.04-3.49.08-.06.19-.19.35-.39.44-1.32.11-2.69-.11-4.02-.12.17.12.27.35.29.57.96.06 1.93.07 2.9.13.21.03.35.2.43.39.36.05.77.13.92.5 1.21.17 6.35-.31 6.22 1.35-.06.23-.29.46-.54.36-1.44-.62-3.04-.53-4.57-.59-.47.61-1.41.06-2.04.3 3.07.54 6.13 1.17 9.13 2.02.4.11.6.55.61.93-.25 2.2-6.89.52-8.52.47-.13 1.36-2.47.41-3.41.51z" fill="#fff"/><path d="m28.04 25.78c-.64-.08-1.27-.22-1.89-.42-1.59-.38-2.74-1.65-4.23-2.3-.74.1-1.48.2-2.22.26-1.95.31-3.52-.87-4.47-2.46-1 .23-1.99.22-2.97.21-.79 0-1.57-.01-2.36.11-3.86.01-5.82-4.89-4.86-8.17.55-2.24 2.13-3.77 4.03-4.95 1.85-1.26 3.84-2.89 6.13-2.79.2-.11.41-.21.61-.29.38-.58.75-1.08 1.12-1.51.28-.13.57-.26.85-.38.41-.18.82-.34 1.24-.51.46-.18.98-.33 1.38-.61.07-.04.13-.09.18-.15.04 0 .09-.01.13-.02.27-.03.53-.06.8-.09.53-.05 1.05-.1 1.59-.13.07 0 .14-.01.21-.02.06.26.17.5.36.71.29.33.7.55 1.14.59.16.02.33.02.5.02.55 0 1.1-.06 1.64-.1.41-.03.82-.05 1.23-.09h.28c1.19-.02 2.38-.08 3.56-.16 1.45-.09 2.89-.21 4.33-.33l1.29-.06c.8-.03 1.6-.06 2.4-.09.48-.02.96-.04 1.44-.07.21-.01.43-.02.64-.04.44 0 .89 0 1.33-.01 2.19 0 4.39.12 6.3 1.11 8.6.05 17.07-1.14 25.67-1.18 2.3-.12 4.57.04 6.85.19 2.36.16 4.71.32 7.1.18 26.11-.96 52.23-.39 78.34.18 4.73.11 9.45.02 14.18-.06 5.57-.09 11.14-.19 16.7.02 1.29.14 2.64.07 4 0 2.43-.13 4.87-.26 6.97.86 1.82.11 3.43.74 4.39 2.45 9.85.08 19.63-.8 29.43-1.64.79 0 1.62-.14 2.45-.27.24-.04.47-.08.71-.11.25 0 .5 0 .75.01h.72c.53 0 1.06-.01 1.6-.03.53.14 1.03.38 1.5.77 2.78-.38 5.58-.67 8.38-.9 1.82 0 3.64-.04 5.46-.2 1.02-.09 2.04-.11 3.06-.12 1.15-.01 2.31-.05 3.46-.08.56.28 1.05.73 1.42 1.43 2.61.07 4.34 2.62 4.23 5.1.78 1.86-.1 4.98-2.47 5.05-1.1 1.9-3.3 1.84-5.21 1.92-2.15.11-4.3.21-6.45.32-3.34.14-6.68.24-10.02.24-1.52.15-3-.52-3.67-1.93-14.84 1.41-29.13 2.98-44.34 2.82-8.32-.28-16.64-.43-24.96-.4-4.62.06-9.24 0-13.86-.23-2.73.07-5.87.14-7.32-2.64-2.07.03-4.16.01-6.25 0-5.73-.04-11.46-.08-17.03.79-8.92-.26-17.79.71-26.68 1.1-6.26.26-12.53.47-18.77 1.05-3.56.3-8.39 1.21-10.22-2.67-2 .62-4.14.43-6.28.24-1.47-.13-2.95-.27-4.38-.13-7.52.73-15.05 1.13-22.56 1.05-.14 1.46-.68 2.89-1.62 3.98-.73.85-1.66 1.27-2.66 1.5-.29.32-.61.61-.97.84-.85 2.09-2.51 2.84-4.42 3.1-1.25.02-2.49.04-3.73.06-1.72.03-3.45.05-5.18.08z" fill="#fff"/><path d="m1.35 18.32c-.3-3.65 4.2-7.19 7.15-4.14.13-.05.27-.08.41-.1.13-.02.25-.03.37-.04 2.72-2.75 4.84.75 6.15 2.98.99 2.31-.5 5.86-3.35 5.45-.3.53-.73.99-1.31 1.33-.33.19-.66.31-.99.36-.29.27-.63.46-.99.57-3.08 1.74-7.88-3.24-7.42-6.41z" fill="#fff"/><path d="m265.53 26.29c-10.43 0-20.76-.84-31.18-1.18-2.89-.11-5.77-.31-8.66-.34-1.7.02-3.43-.45-4.57-1.79-7.44-.25-14.89-.21-22.33-.41-1.18-.16-2.53-.14-3.89-.11-3.91.07-8.05.14-9.45-4.05-1.39-3.42.08-8.65 4.07-9.44 13.32-.16 26.67.74 40.01 1.45 3.61.11 7.22.04 10.83-.02 3.73-.07 7.47-.13 11.2 0-.59-2.38.09-5.29 2.01-6.86 1.38-.02 2.75-.01 4.12-.02 2.41 0 4.84 0 7.25-.21 1.02-.09 2.04-.11 3.06-.12 1.23-.02 2.46-.05 3.68-.08 1.4-.04 2.79-.06 4.19-.1 1.42-.04 2.84-.13 4.26-.12h.11-.06.07s.05 0 .08 0c-.02 0-.05 0-.08 0h.08c.65.02 1.3.05 1.96.08.73.03 1.46.02 2.2.03.72.01 1.44.05 2.16.09.35.02.7.04 1.05.05.37.01.8.05 1.16-.04.14-.03.25-.09.36-.18.9.16 1.79.4 2.61.82.19-.1.38-.19.58-.26.11.03.23.07.34.1.27.08.54.16.8.24.18.08.36.16.54.23.41.17.82.34 1.25.49.64.22 1.33.47 2.02.38.12-.01.23-.05.34-.1 1.04.47 2.07.95 3.11 1.42.84.38 1.66.8 2.48 1.23.41.21.81.43 1.21.64.39.22.84.54 1.3.55 1.12.97 2.3 1.8 3.78 2.36 3.09 1.69 2.74 7.86-.98 8.54-1.8 1.14-3.71.15-5.24-1.04-2.05 1.35-4.62.51-6.87.21-.08 2.16-1.07 4.25-3.2 5.14-1.05.45-2.27.48-3.43.5-1.34 1.77-3.74 1.76-5.76 1.52-3.28-.22-6.57-.41-9.86-.51-1.75.92-3.79.89-5.78.87-.8 0-1.59-.02-2.36.03h-.56z" fill="#fff"/><path d="m305.2 8.5-.07-.04s.04.02.07.04z" fill="#fff"/><path d="m305.05 8.41-.06-.04s.04.02.05.03z" fill="#fff"/><path d="m288.56 3.12s-.06 0-.09 0 0 0 0 0h-.02s-.05 0-.07 0h.09.03-.02s.05 0 .08 0z" fill="#fff"/><path d="m307.55 19.06c-.36-2.17.91-4.56 2.75-5.75 6.28-2.72 7.85 8.86 2.79 10.89-3.06 1.09-5.34-2.44-5.54-5.14z" fill="#fff"/><path d="m274.62 27.23c-5.57 1.11-10.48-4.17-7.18-9.36.95-1.53 2.96-2.61 4.76-2.51 4.24.25 8.49.33 12.73.57 3.73-.07 7.42.24 11.15.25 1.63-.06 3.46 0 4.58 1.38 1.24.07 2.47.12 3.71.18 1.36.06 2.72.11 4.08.09.97-4.53 6.27-3.81 6.71.56.27 2.42.57 5.39-1.6 7.06-2.33 1.54-5.39 1.23-8.07 1.47-3.66.12-7.32.28-10.98.37-6.63-.04-13.26-.19-19.89-.06z" fill="#fff"/><path d="m209.09 25.06c-3.02.1-6 .39-9.05 0-3.12-.27-6.58.76-9.52-.35-1.86-.13-3.93.34-5.65-.49-4.48-.31-8.98-.38-13.43-.99-6.49-.99-12.67-3.31-18.58-6.1 6.1-1.9 12.55-3.17 19-3.32 7.17.05 14.31 1.12 21.49 1.16.78-.66 1.92-.76 2.93-.57 3.91.3 7.82.6 11.73.86 3.29.25 6.59.32 9.88.47 1.93.14 3.74.74 5.72.57 2.06 0 3.22 2.2 3.22 4.03-.07 3.49-2.54 4.49-5.66 3.98-.47.41-1.03.68-1.66.85-.47.12-.97.15-1.45.19-2.99.17-5.98-.12-8.96-.3z" fill="#fff"/><path d="m122.04 23.82c-2.8 0-5.61-.02-8.41-.04h.04s-.02 0-.04 0-.04 0-.06 0h-.16c-.33 0-.66 0-.99 0h.06c-2.89-.02-5.79-.11-8.68-.15-1.88-.03-3.76-.03-5.64-.05-1.53-.02-3.06-.1-4.59-.11-.14 0-.27 0-.41 0-.11-.17-.22-.35-.33-.54-6.63.07-13.82 1.75-12.68-7.77 1.02-4.75 5.3-4.59 9.36-4.43 1.32.05 2.61.11 3.76 0 18.46 0 36.92.64 55.38.78 4.68-.06 9.37.02 14.05-.12 2.95-.59 5.1 2.19 5.05 4.96 3.35 2.81.43 6.54-3.19 6.4-2.28-.16-4.56-.31-6.85-.42-5.62-.28-11.24-.38-16.86-.23-1.55.79-3.35.75-5.1.72-.55-.01-1.09-.02-1.62 0-.15.23-.32.43-.51.6-.17 0-.33.01-.5.02-1.05.05-2.11.11-3.17.19-.59.04-1.17.11-1.76.16-.74.04-1.48.03-2.22.03-1.32.01-2.64.03-3.95.03z" fill="#fff"/><path d="m113.63 23.78s0 0-.01 0z" fill="#fff"/><path d="m113.62 23.78s0 0 0 0z" fill="#fff"/><path d="m113.62 23.78c-.07 0-.14 0-.2 0h.16s.03 0 .05 0z" fill="#fff"/><path d="m32.52 25.71c-.49-.16-.94-.4-1.31-.77-2.75-.2-6.34.29-7.97-2.45-4.15-.45-10.02.81-12.64-3.22-3.93 1.96-7-3.1-5.92-6.59.77-3.29 5.91-7.27 9.25-7.26 1.38-1.56 3.36-1.5 5.16-.81 1.84-.91 4.14-.27 5.19 1.51 4.03.46 9.96.28 11.33 5.05 9.79.63 19.55.58 29.39.59 1.52.1 3.07.06 4.63.03 2.86-.07 5.74-.14 8.42.67 2.04-.04 4.07-.09 6.11-.24 1.19-.15 2.49-.25 3.38.72 1.77 1.63 1.85 4.37.35 6.2-1.45 1.48-3.72 1.44-5.91 1.39-1.04-.02-2.07-.04-2.97.1-1.06 1.29-2.84 1.33-4.41 1.25-2-.02-4 .09-5.99.15-7.05.25-14.1.58-21.14.94-.56 1.22-1.59 2.01-2.79 2.35-.12 0-.24.01-.37.02-1.79.11-3.58.22-5.38.26-1.9.04-3.8.06-5.7.09-.23 0-.47 0-.7.01z" fill="#fff"/><path d="m253.02 12.28c-.68 0-1.38-.07-2.02-.12-3.92.36-8-.52-11.97-.56-.79-.13-1.63-.11-2.46-.09-1.57.04-3.14.08-4.43-.9-2.02-1.75-2.32-4.97-.9-7.16.33 0 .66-.02.99-.03 1-.04 2-.07 3-.06 2.57.02 5.13.15 7.7.21 1.45.04 2.9.07 4.35.09h.72c1 0 2-.04 3-.07 1.38-.05 2.77-.07 4.15-.07 2.39 1.17 2.93 5.04 1.37 7.17-.77 1.3-2.11 1.59-3.5 1.59z" fill="#fff"/><path d="m300.29 17.89c-1.71 1.11-3.47-.08-5.05-.83-1.89 1.31-3.93-.39-5.74-1.03-5.69 4.79-8.47-10.93-.14-7.96.43-.46.97-.81 1.59-.88.15-.02.31-.03.46-.03 3.05-4.14 5.42-1.61 9.1-.04 4.23 1.75 8.13 5.03 5.26 9.86-1.25 1.94-3.65 1.95-5.48.91z" fill="#fff"/><path d="m234.62 5.92c1.98-3.19 5.1.75 3.31 3.12-1.99 2.53-4.69-.97-3.31-3.12z" fill="#fff"/><path d="m210.08 15.4c-.07 0-.14 0-.21 0-3.87-.25-9.55.02-11.13-4.37-1.29-3.2.48-7.87 4.36-7.96 6.85-.6 13.71-.48 20.57 0 1.37 0 2.73.03 4.08.14.33.19.69.27 1.09.28h1.37c.43.07.86.14 1.29.23 1.7.12 3.74-.07 4.76 1.59 1.3 1.83.95 4.49-.67 5.98-1.31 1.09-3.18.74-4.76.91-1.18.85-2.65.72-4.1.6-.72-.06-1.43-.13-2.11-.07-1.2.77-2.66.64-4.1.52-.69-.06-1.37-.12-2.02-.08-2.76.6-5.44 2.25-8.43 2.25z" fill="#fff"/><path d="m217.03 24.75c-3.11-1.14-3.44-6.11-.94-8.05.64-2.71 3.13-3.3 5.56-2.78 1.75.14 3.51.25 5.26.37 13.66.97 27.34 1.45 41.03 1.65 1.63.12 3.54-.59 4.86.67 1.57 1.29 1.54 4.18-.04 5.47-.71.66-1.63.79-2.57.75-2.07.03-4.15-.01-6.22-.04-7.92-.1-15.84.11-23.76-.03-1.5 3.1-5.59 2.29-8.43 2.4-.94 1.07-2.36 1.29-3.7 1.34-2.96-.09-9.11.67-11.05-1.75z" fill="#fff"/><path d="m179.79 24.98c-1.07 0-2.23-.27-3.23-.35-2.45-.19-4.91-.14-7.36-.14-.15.12-.31.21-.48.28-.29-.2-.66-.22-1.01-.23-.36 0-.72 0-1.08 0-2.45-.08-4.89-.15-7.34-.28-1.4-.08-2.8-.17-4.2-.27-1.06-.08-2.12-.22-3.18-.3-1.95-.15-3.88-.33-5.83-.34-1.48 0-2.96.08-4.44.09h.15c-.78 0-1.56 0-2.34 0s-1.56-.02-2.34-.03c-1.32-.03-2.64-.05-3.96 0-1.05.05-2.11.11-3.17.19-.59.04-1.17.11-1.76.16-.74.04-1.48.03-2.22.03-1.32.01-2.64.03-3.95.03-2.8 0-5.61-.02-8.41-.04h.02c-.03 0-.05 0-.08 0h.06-.21c-.33 0-.66 0-.99 0h.06c-2.89-.02-5.79-.11-8.68-.15-1.88-.03-3.76-.03-5.64-.05-1.53-.02-3.06-.1-4.59-.11-1.24-.02-2.48.05-3.72.12-1.5.08-2.99.16-4.49.24-1.45.07-2.91.16-4.36.19h-.01.01c-.06 0-.13 0-.19 0h.05c-1.26.01-2.51.06-3.76.1-4.43-.12-8.85-.23-13.28-.28-12.27-.94-24.52.39-36.79.5-6.91-.58-6.72-11.34.18-11.65 11.49-.06 22.98-1.21 34.46-.15 23.41.86 46.8 2.49 70.23 2.37 16.29.04 32.57.43 48.76 2.12 2.78.54 3.45 4.54 1.95 6.59-.67 1.09-1.7 1.37-2.81 1.37z" fill="#fff"/><path d="m52.35 21.82c-1.47 0-2.3-1.57-2.3-2.88s.83-2.87 2.3-2.87 2.3 1.57 2.3 2.88-.83 2.87-2.3 2.87z" fill="#fff"/><path d="m30.13 25.74c-2.81-.08-6.05-.14-7.47-3.01-1.44-2.73-.67-6.94 2.39-8.16 1.39-.61 2.68.2 4.07.3 3.55.27 7.12.31 10.68.53 1.14-.71 2.38-.5 3.63-.41 1.13-.53 2.44-.21 3.64-.09 4.03.41 8.06.64 12.11.66 3.1.11 6.19.15 9.29.17 1.71-.03 3.42 0 5.08.26 1.09.09 2.02.32 2.68 1.28 1.08 1.54.77 4.03-.84 5.09-.27.76-.65 1.36-1.12 1.82-.72.01-1.43.03-2.15.05-1.06.02-2.11.05-3.17.1.14 0 .27-.01.41-.02-.3.01-.6.03-.9.04h.09.13c-.04 0-.09 0-.13 0-.09 0-.18 0-.28.01h.19c-.4.02-.8.04-1.2.06-1.21.05-2.42.12-3.63.18-1.46.07-2.92.08-4.38.13-1.7.05-3.41.11-5.11.14-1.69.04-3.38.08-5.07.18-1.59.09-3.18.19-4.77.29-1.79.11-3.58.22-5.38.26-1.9.04-3.8.06-5.7.09-1.03.02-2.06.03-3.09.05z" fill="#fff"/><path d="m53.06 13.32c-.36 0-.73-.04-1.1-.07-1.91-.16-4.08-.26-6.25-.3-.49-.02-1.02 0-1.56.01-2.31.07-4.79.15-5.33-2.69-5.42.26-10.88.24-16.26 1-1.13.92-2.62 1.33-4 .77-3.04-1.26-3.88-5.21-2.64-8.09.22-.11.43-.23.64-.32.41-.2.81-.38 1.23-.56.41-.18.82-.34 1.24-.51.46-.18.98-.33 1.38-.61.06-.04.13-.09.18-.15.04 0 .09-.02.13-.02.27-.03.53-.06.8-.09.53-.05 1.05-.1 1.59-.13h.21c.06.25.17.49.35.7.29.33.7.55 1.14.59.16.01.33.02.5.02.55 0 1.1-.05 1.64-.09.41-.03.82-.06 1.23-.09h.28c1.19-.02 2.38-.08 3.56-.16 1.45-.09 2.89-.21 4.34-.34l1.29-.06c.8-.03 1.6-.06 2.4-.09.48-.02.96-.04 1.44-.07.21-.02.43-.02.64-.04 1.66 0 3.34 0 5-.14h.32c2.27-.04 4.54-.07 6.82-.14.85-.03 1.7-.05 2.54-.07.39 0 .79-.02 1.18-.04.46-.02.99 0 1.42-.2.02-.01.05-.02.07-.04.35-.03.69-.08 1.04-.14h-.01s.02 0 .02 0c.02 0 .04 0 .06-.01h.06c.38-.09.75-.18 1.04-.42.83.03 1.66.05 2.48.05 1.11 0 2.21.02 3.32 0 .11.06.23.1.35.13 2.42.5 4.91.57 7.37.57h.45c1.21 0 2.41-.05 3.62-.11 1.2-.06 2.39-.14 3.59-.14.68 0 1.37.02 2.06.02.13.14.26.3.38.47 1.71 2.77 1.39 7.48-1.46 9.38-1.17.64-2.5.57-3.81.51-.48-.03-.96-.05-1.44-.04-3.83-.15-7.67-.17-11.51-.27-1.17 1.14-2.8 1.1-4.39 1.05-.65-.02-1.3-.04-1.91.02-.51.01-1.02.03-1.53.04-.94.54-2.01.48-3.08.43-.47-.02-.94-.05-1.4-.02-.51.37-1.09.46-1.68.46z" fill="#fff"/><path d="m48.42 1.52s-.04 0-.06 0z" fill="#fff"/><path d="m48.64 1.51s.05 0 .08 0h.05s-.09 0-.13 0z" fill="#fff"/><path d="m60.53 1.17s.04 0 .06-.01h-.02c-.01 0-.02 0-.03 0z" fill="#fff"/><path d="m9.87 26.46v-.03c-1.95-.07-3.3-1.69-3.68-3.58-.62-.41-1.13-1.01-1.5-1.69-3.36-1.94-3.12-6.48-1.2-9.13.23-.21.46-.43.69-.65.05-.05.11-.11.17-.16.25-.2.5-.4.72-.63.03-.03.05-.05.07-.08 1.45-.82 3.27-.74 5.14 1.02 2.32.44 3.66 2.88 3.75 5.09 1.93.21 3.91.09 5.89-.04 2.75-.17 5.5-.35 8.09.39 3.02 1.8 3.03 7 .07 8.79-.09 0-.18 0-.28 0-.89.02-1.78.11-2.66.25-.32.05-.63.11-.93.24-.09.04-.18.08-.27.13-.57 0-1.15-.02-1.73-.04-1.03-.04-2.06-.07-3.08-.02-.96 0-1.93.02-2.9.05-1.68.05-3.37.09-5.05 0-.44.02-.88.05-1.32.07z" fill="#fff"/><path d="m95.99 10.17c-1.53 0-2.39-1.64-2.39-2.99s.86-2.99 2.39-2.99 2.39 1.64 2.39 2.99-.86 2.99-2.39 2.99z" fill="#fff"/><path d="m92.05 9.95c-.56 0-1.12-.06-1.64-.08-1.67-.09-3.83.1-5.02-1.29-.84-.03-1.72.04-2.54-.21-2.77-1.05-2.9-5.52-.62-7.11h.64c.95 0 1.91.05 2.86 0 .98-.04 1.95-.12 2.93-.16-.07 0-.14 0-.22 0 1.17-.03 2.34-.02 3.51-.11.98-.07 1.96-.1 2.95-.14 2.15-.08 4.29-.31 6.45-.36.98-.02 1.96-.04 2.95-.06.48-.01.95-.02 1.43-.04.13 0 .26-.01.4-.02.42.25.8.6 1.09 1.08 1.93 2.62.69 7.68-3.01 7.65-3.05-.13-6.09-.56-9.14-.57-.03.02-.07.05-.1.07-.3.41-.7.75-1.13.98-.54.28-1.15.36-1.76.36z" fill="#fff"/><path d="m89.36 11.26c-6.16 0-7.68-7.11-3.06-10.02.78-.04 1.56-.11 2.34-.13-.07 0-.14 0-.22 0 1.17-.03 2.34-.02 3.51-.11.98-.07 1.96-.1 2.95-.14 2.15-.08 4.29-.31 6.45-.36.98-.02 1.96-.04 2.95-.06.48-.01.95-.02 1.43-.04.27-.01.55-.03.82-.05.26-.02.53-.05.76-.16h.04c1.58.05 3.15.08 4.72.13.74.02 1.48.04 2.21.05h.12c.14.17.32.31.53.41.27.12.56.15.85.16h.2c.3 0 .61-.01.92-.02 0 0 0 0-.01 0-.02 0-.05 0-.07 0h.07.05.04-.04.09-.04.1s.05 0 .08 0h.13-.02c.54-.01 1.07-.02 1.61-.04.78-.02 1.63.02 2.35-.31.12-.06.22-.13.32-.22 1.54.08 3.08.13 4.61.15 4.94-.03 9.82.5 14.73 1.02 5.25.56 10.53 1.12 15.92 1.01 3.13.07 6.32.55 9.32 1.37 2.33 1.37 2.1 5.44-.37 6.51-.93.4-2.18.05-3.16-.1-3.28-.67-6.64-.3-9.94-.02-4.2.05-8.39-.03-12.59-.12-6.39-.14-12.77-.27-19.17.11-10.12-.38-20.21-.13-30.3.9-.42.06-.82.09-1.21.09z" fill="#fff"/><path d="m117.05.92s.07 0 .11 0c-.01 0-.03 0-.04 0-.03 0-.05 0-.08 0z" fill="#fff"/><path d="m120.31.67s-.08 0-.12-.01c.04 0 .08 0 .12.01z" fill="#fff"/><path d="m107.32.19h.04z" fill="#fff"/><path d="m114.25.2s-.06 0-.09 0z" fill="#fff"/><path d="m63.18 16.75c-1.54 0-2.41-1.64-2.41-3.01s.87-3.01 2.41-3.01 2.41 1.64 2.41 3.01-.87 3.01-2.41 3.01z" fill="#fff"/><path d="m59.62 10.34c1.51-.05 3.02-.06 4.53-.14.99-.14 2.04-.21 2.85.48 2.77-.1 5.55-.04 8.32-.23 2.84.14 3.5 4.2 1.8 6-1.26 1.38-3.39.85-5.07 1.06-4.45 0-8.76.81-13.2.96-7.51 1.73-6.51-10.54.77-8.13z" fill="#fff"/><path d="m5.7 16.24c4.11-1.98 5.47 4 4.28 6.9-.62 1.62-2.15 3.45-4.01 3.41-5.78 1.63-5.77-11.23-.27-10.31z" fill="#fff"/><path d="m7.78 26.87c-4.42-.32-6.81-4.86-4.98-8.84 1.48-2.77 4.7-2.35 5.33.73.07.01.14.03.2.04.23.03.46.06.68.09 1.99-.57 4.16-.41 6.21-.65.73-.06 1.43.25 2.02.7 2.82 1.41 3.01 6.11.51 7.89v.01c-.26 0-.52 0-.79 0-.57 0-1.14-.02-1.71-.02-.53 0-1.05-.02-1.57 0-.06 0-.12 0-.18 0-.57-.03-1.14-.05-1.71-.07-.55-.02-1.1-.03-1.65-.04-.25 0-.5 0-.76-.01-.14 0-.27 0-.41 0-.26 0-.52-.02-.78.04-.14.04-.27.09-.39.16h-.03z" fill="#fff"/><path d="m6.07 20.75c-.64 0-1.28-.24-1.83-.78-1.96-.56-3.37-2.18-3.68-4.19-.04-.15-.07-.29-.1-.44.18-.43.36-.87.54-1.31h.02c.44-.21.83-.58 1.21-.89.35-.29.7-.58 1.03-.88.32-.28.62-.57.92-.86.05-.05.11-.11.17-.16.21-.17.42-.34.61-.52.53.26 1.03.73 1.48 1.45 1.84 1.57 3.65 3.77 2.57 6.35-.46 1.33-1.69 2.25-2.94 2.25z" fill="#fff"/><path d="m2.29 12.84s.04-.03.06-.05c-.02.02-.04.03-.06.05z" fill="#fff"/><path d="m4.54 19.14c-1.92 0-2.99-2.05-2.99-3.74 0-.72.19-1.5.56-2.16.04-.03.08-.07.12-.1.35-.29.7-.58 1.03-.88.18-.16.36-.32.54-.49.23-.07.48-.11.74-.11 1.92 0 2.99 2.05 2.99 3.74s-1.07 3.74-2.99 3.74z" fill="#fff"/><path d="m308.37 19.66c-2.42 0-3.09-4.36-.79-5.4.37-2.42 1.38-3.45 2.49-3.62.08.26.2.51.35.75.28.45.67.84 1.18 1.01.18.06.37.09.55.08.17.08.36.13.55.15h.13c.18 0 .35-.04.5-.1 1 1.68.87 4.05-2.25 5.35-.07.13-.15.26-.25.39-.47.64-1.07 1.03-1.8 1.29-.23.07-.45.1-.66.1z" fill="#fff"/><g fill="#333"><path d="m315.08 14.69s0 0 0 0c-2.43-1.62-5.16-2.73-7.73-4.12-3.6-2.03-7.5-3.46-10.95-5.74-.46-.43-1.41-.79-1.71-1.37.68.19 1.35.39 2.02.6.03.01.07.02.1.03h.01.02.02c.02 0 .04 0 .06.02-.02 0-.03 0-.05-.01.23.07.45.15.68.22-.04-.01-.07-.02-.1-.03.59.2 1.17.42 1.75.64.32.12.65.25.98.38 1.01.51 2.04.99 3.06 1.47 3.43 1.69 6.85 3.44 10.27 5.16.78.51 3.31 1.46 2.5 2.55-.27.05-.54.11-.81.18-.04 0-.07.02-.1.02z"/><path d="m34.58 17.59c-10.34 0-20.66-.97-30.98-1.6 0 0-.02 0-.03 0l-.36-.04c-.13-.03-.26-.05-.39-.04-.71-.07-1.42-.13-2.12-.2h.02l.08-.04.12-.04c.23-.07.38-.31.31-.55-.06-.23-.32-.38-.55-.31-.24.07-.46.18-.66.33 0-.25 0-.49.01-.73.01-.12.02-.24.04-.36.79.05 1.58.1 2.37.11.81.05 1.62.11 2.43.17h.13s-.04 0-.06 0c.07 0 .14.02.21.02 0 0 0 0-.01 0 .04 0 .07 0 .11.01-.02 0-.04 0-.06 0h.08c.46.05.92.07 1.38.1.64.04 1.28.09 1.92.14h-.01c.3.02.6.04.9.05 7.29.52 14.58 1 21.89 1.21 11.03.11 22.04-.41 33.06-.48 27.05-.09 54.1-.86 81.15-.89 22.21-.45 44.44-.41 66.66-.36 7.67.02 15.33.03 23 .03 11.55.23 23.11.57 34.66.96 6.57.16 13.07-.54 19.61-1.01 8.9-.2 17.83-.67 26.71.08 0 .1 0 .19.01.29-.34.05-.69.13-1.03.21-.57.14-1.11.36-1.58.64-.52-.21-1.1-.21-1.65-.25-.74-.05-1.48-.06-2.22-.07-.78-.01-1.55-.01-2.32.02h.12c-.12 0-.25.01-.38.02h.12c-1.09.05-2.18.03-3.27.02-.52 0-1.03-.01-1.55.02-.51.03-1.01.05-1.52.07-.59.02-1.18.04-1.76.04h.02s-.06 0-.09 0h.06c-.66 0-1.3.02-1.96.05-.85.04-1.71.04-2.56.03h.02c-.67-.01-1.34-.03-2.02-.02-.58 0-1.16.05-1.73.08-1 .06-2 .13-3 .17h-.05c-1.24.03-2.48.04-3.71.06-.74 0-1.48 0-2.22.02-.78.02-1.56.04-2.34.05-.73 0-1.46 0-2.2 0-.7 0-1.39.02-2.08.04-.03 0-.05 0-.07 0h.06c-.85 0-1.7.04-2.54.06h.04s-.05 0-.07 0c-.94.02-1.88.05-2.81.06-.68.01-1.36.02-2.04.03-.7 0-1.41.04-2.11.05-1.45.02-2.89 0-4.33 0-1.43 0-2.86 0-4.29.02-.75 0-1.5-.02-2.25-.02h.14c-1.13 0-2.27-.02-3.39-.03-1.32-.01-2.64.02-3.96.04h.11c-1.64.03-3.28 0-4.91-.04-1.93-.04-3.86-.05-5.79-.08h.04s-.04 0-.05 0h-.09.01c-1.72-.04-3.43-.05-5.15-.06h.05c-.59 0-1.19-.02-1.79-.02h.15c-.71 0-1.43-.05-2.14-.07-.8-.03-1.59-.02-2.39-.02-1.55 0-3.11.02-4.67.08h.15-.28.15c-1.07.03-2.14.03-3.21.04-.6 0-1.2.03-1.79.06-.61 0-1.22 0-1.83 0-5.56.03-11.13.08-16.68.1-54.28-.13-108.55 1.11-162.82 1.75h-.15z"/><path d="m272.72 15.71s.04 0 .06 0h.02-.02.05s-.08 0-.11 0z"/><path d="m299.18 15.16h.11z"/><path d="m314.06 15.45s.03-.02.04-.04c.14-.09.29-.19.43-.29-.16.11-.32.22-.47.32z"/><path d="m0 15.03c0-.22 0-.45.02-.66.02-.23.04-.47.09-.7 0 .02 0 .04-.01.05 0-.02 0-.05.01-.07 0-.01 0-.03.01-.04 0 0 0-.01 0-.02.02-.06.04-.13.05-.19.07-.2.16-.4.23-.61 0-.02.02-.04.02-.07.02-.02.03-.04.05-.05s.04-.05.07-.08c-.02.02-.03.03-.04.05.02-.03.05-.05.07-.08v.01s.01-.01.02-.02 0 0 0 0 0 0 0-.01t0 0s0 0 0 0t0 0s0 0 0 0 .01 0 .02-.02c0 0-.01.01-.02.02s0 0 0 0 0 0 0-.01l.05-.05c.47-.28.94-.56 1.4-.85 5.22-3.25 10.05-7.29 15.89-9.56 1.71-1.12 4.59-.68 6.68-.91 4.49-.24 8.98-.32 13.48-.22 13.53.02 27.06-.47 40.59-.75 40.4-.61 80.8.54 121.19 1.01 24.04.46 48.05 1.62 72.1 1.01 3.75-.13 7.51.05 11.26.24 2.89.14 5.78.29 8.67.29 1.46.37 2.91.77 4.36 1.21-.11.1-.24.17-.39.18-.61.09-1.21.09-1.82.14-4.02.04-8.05-.08-12.08-.21-5.43-.16-10.86-.33-16.3-.09-21.19.46-42.36-.59-63.54-1-24.53-.5-49.07-.56-73.59-1.11-24.53-.39-49.06.04-73.58.62-7.46.32-14.93.27-22.39.22-2.26 0-4.52.14-6.78.24-2.51.3-5.34-.28-7.59.99-2.41 1-4.67 2.28-6.88 3.67-.03.01-.05.02-.07.04-.04.02-.08.04-.11.08-1 .64-1.98 1.29-2.96 1.96h-.04c-.07 0-.16.04-.22.08-.04.02-.07.05-.09.09 0 0-.01.01-.02.02l-.06.02c-.25.14-.48.29-.72.45-.07.04-.15.09-.23.13s0 0-.02 0 0 0-.01 0 0 0 0 0c-.21.12-.41.26-.61.38-.18.11-.36.22-.53.34.01 0 .02-.02.04-.03l-.04.02s-.01.02-.02.02-.02.01-.04.02c-.2.13-.39.26-.59.39-.09.05-.18.11-.26.16l.04-.02c-.12.07-.24.14-.36.21-.11.07-.22.13-.34.2h.01c-.16.09-.33.19-.48.29-.02 0-.03.02-.05.03s0 0 0 0 0 0-.01 0 0 0 0 0c0 .01-.02.02-.04.02l.04-.02c-.1.06-.19.12-.28.2-.06.06-.12.12-.17.18-.02.02-.04.03-.05.05-.06.06-.11.14-.13.22-.02.03-.04.07-.04.11-.94.64-1.89 1.23-2.86 1.79z"/><path d="m3.15 15.94c-.12-.02-.24-.04-.36-.02-.77-.07-1.55-.14-2.32-.21-.14-.01-.29-.03-.43-.04l-.04-.34s0-.02 0-.04h0s0-.03 0-.05v.05c-.02-.3-.01-.61 0-.91.01-.15.02-.3.05-.45.54-.02 1.12.19 1.32.69.54.02 1.27.08 1.32.76.25.09.39.31.44.56z"/><path d="m315.38 14.62c.08-.1.19-.18.32-.22.16-.2.33-.29.48-.32 0 .12.02.25.02.38-.27.04-.55.1-.82.16z"/><path d="m315.49 16.44c-.21 0-.45-.04-.67-.09v-.02c-.14-.23-.3-.46-.52-.62s-.46-.29-.71-.39c-.19-.08-.39-.13-.59-.16.06-.65.75-.78 1.3-.89.34-.04.66-.33.98-.31.51.03.75.55.69 1.01.21.19.3.53.27.8-.06.54-.37.69-.76.69z"/><path d="m249.7 27.08c-9.54 0-19.07-.16-28.6-.4-.07 0-.15-.01-.23-.02.05 0 .09 0 .14.01-1.72-.11-3.45-.2-5.17-.28-2.16-.1-4.33-.14-6.49-.2-.74-.02-1.48.04-2.22.1-10.43-.3-20.85-.64-31.28-.9-.65-.05-1.3-.1-1.95-.13-.41-.02-.82-.04-1.23-.05-.3-.03-.6-.05-.89-.07-.74-.05-1.48-.08-2.23-.1-1.41-.04-2.83-.03-4.24-.02-.71 0-1.41.02-2.12.04-.87 0-1.74 0-2.61.02-.97-.05-1.94-.11-2.91-.15-2.53-.11-5.05-.14-7.59-.14-1.3 0-2.6 0-3.9 0s-2.56.02-3.84.03c-2.45.02-4.9 0-7.34.06-2.25.05-4.49.1-6.73.14-2.11.04-4.22.12-6.34.21-1.91-.01-3.82-.03-5.73-.05-28.45.31-56.89.97-85.34.89-8.83.23-17.67.18-26.51.1-.88.05-1.64.05-2.3.02-.14-.05-.28-.11-.41-.16-.04-.04-.08-.08-.12-.12h-.01v-.02s0 0 0 0c-.08-.12-.15-.25-.21-.37 0-.02-.02-.04-.02-.05-.03-.11-.05-.21-.08-.32-.06-.31-.11-.63-.14-.95 3.24.29 6.51.25 9.78.23 1.86-.02 3.71-.03 5.55.01 16.59-.1 33.16-.18 49.75-.28 14.46-.04 28.9-.56 43.35-.68 5.61-.04 11.22-.02 16.84 0 7.37.02 14.74.04 22.11-.04 30.17-.27 60.3 1.55 90.46 1.8 13.66.38 27.31-.34 40.96-.77 4-.08 8 0 12 .07 3.26.06 6.53.12 9.79.1 4.56.07 9.18.74 13.72.19.13-1.89.04-3.78-.03-5.67.12-.26.11-.59.08-.86-.02-.18-.05-.35-.09-.52-.03-.14-.06-.29-.1-.43-.15-1.09-.36-2.4.9-2.46.05 0 .11 0 .15.02.06 1.39.09 2.79.16 4.18.07 1.44.14 2.87.19 4.3 0 .17.01.34.02.52v-.11c0 .76.01 1.51.01 2.27-.66 1.05-2.16.86-3.25.92-4.5.05-8.98-.49-13.48-.5-15.79-.49-31.55.3-47.33.64-.95 0-1.9 0-2.85 0z"/><path d="m1.32 15.32c-.56 0-.56-1.05 0-1.05s.56 1.05 0 1.05z"/><path d="m1.07 24.64c-.04-.24-.06-.48-.08-.71 0-.02 0-.03 0-.05v-.02s0-.02 0-.02v.02c-.01-.22-.04-.45-.05-.67v.04s0-.03 0-.05v.02c0-.02 0-.03 0-.05v.02s0-.03 0-.05v.03c-.02-.25-.03-.5-.06-.75-.03-.23-.06-.46-.09-.69-.05-.45-.1-.89-.14-1.34-.04-.43-.09-.86-.15-1.3-.04-.34-.1-.68-.14-1.02-.06-.48-.14-.96-.18-1.44-.04-.43-.1-.85-.14-1.28 0-.01 0-.02 0-.04h-.03s0-.03 0-.05v.05c0-.14-.01-.28 0-.42.55-.39 1.09.33 1.11.91.34 2.23.74 4.45.95 6.69.02.07.03.14.04.21 0 .05 0 .11.02.16.1.82-.07 1.79-1.06 1.8z"/><path d="m.89 16.1c-.42 0-.42-.8 0-.8s.42.8 0 .8z"/><path d="m256.04 28.05c-5.02 0-10.04-.14-15.06-.22-2.98-.05-5.95-.07-8.93-.13-1.62-.16-3.25-.27-4.86-.45s-3.21-.39-4.82-.5c-.12 0-.23-.02-.35-.02-.03 0-.06 0-.09 0-.08 0-.16-.01-.23-.02l-.53-.04c-.06 0-.11 0-.17-.01-.04 0-.08 0-.12 0-1.39-.09-2.78-.16-4.17-.23 3.11.02 6.33.09 9.46.09 12.41.08 24.82.76 37.23.41 6.21-.23 12.4-1.05 18.61-1.43 10.04-.07 20.12 0 30.16.42.36-.02.72.11 1.08.24.53.18 1.06.37 1.54.11.29-.3.54-.95 1.03-.5.52.75-.45 1.73-1.16 1.98-.95.22-1.85-.3-2.79-.32-9.51-.37-19.05-.32-28.56-.42-7.86.42-15.7 1.11-23.57 1.01-1.23.02-2.46.03-3.69.03z"/><path d="m222.05 26.74c-.05 0-.1 0-.15-.01h.04.09.03z"/><path d="m221.86 26.73c-.05 0-.11 0-.16-.01.05 0 .11 0 .16.01z"/><path d="m221.22 26.69-.35-.02h.02s.08 0 .12 0c.06 0 .11 0 .17.01h.05z"/><path d="m269.28 27.68c-.25 0-.55-.09-.78-.09-9.54-.34-19.3-.13-28.75-.84 7.79-.28 15.58-.38 23.38-.34 2.11.02 4.22.04 6.32.28.25.03.36.35.33.56-.04.33-.25.42-.5.42z"/><path d="m220.4 26.63c-.27-.02-.54-.03-.8-.05 0-.02 0-.03 0-.04-1.34-.27-2.83-.38-4.11-.69.82-.19 6.21-.87 4.92.78z"/><path d="m313.65 21.36c-.41 0-.84-.04-1.26-.07-.52-.05-1.03-.09-1.5-.07-2-.09-4.01.03-6.01.08-10.95.11-21.9-.03-32.85-.41 12.22-.7 24.65-.44 36.94-.75.84-.02 1.69.03 2.53.07.95.05 1.91.1 2.86.06.46 0 .86-.27 1.13-.64.17-.19.45-.15.59.05.15.21.14.54-.04.73-.61.77-1.47.95-2.38.95z"/><path d="m274.13 8.7c-5.63 0-11.27-.22-16.89-.32-.02 0-.02-.03 0-.03 8.13-.1 16.27.1 24.38-.3 5.3-.3 10.6-.62 15.91-.43 2.05.05 4.11.16 6.11.61.14.03.2.2.16.32-7.38-.74-15.45-.48-23.07.02-2.2.09-4.39.12-6.59.12z"/><path d="m302.03 10.22c-6.57-.04-13.12-.77-19.67-1.15 2.02 0 4.27.16 6.36.23 6.45.39 12.91.59 19.37.43-1.91.37-4.06.48-6.06.49z"/><path d="m20.79 7.77c-2.91 0-5.82-.04-8.74-.17-.11-.04-.22-.06-.34-.05-.05 0-.11.01-.16.03 0 0 0 0-.02 0h.01-.01s-.01 0-.02 0h-.02s0 0 0 0h-.02c-.07 0-.14.02-.2.06-.03-.02-.06-.03-.09-.03-.28-.12-.71.04-.92-.21-.08-.14-.02-.36.13-.41.11-.18.33-.16.54-.14.11 0 .21.02.3 0h.21c.18 0 .36 0 .45.15t0 0c10.07.11 20.13.05 30.2 0 13.1-.07 26.21-.13 39.31.15.01 0 .01.02 0 .02-18.29.06-36.57.35-54.86.57-1.93 0-3.86.02-5.79.02z"/><path d="m11.74 9.87c-.89 0-1.77-.03-2.64-.14-.51-.68.55-.61 1.53-.55.42.03.82.05 1.08.02 7.28.04 14.71 0 21.92.17-6.18.15-12.36.36-18.54.47-.62 0-1.25 0-1.87.01-.5 0-.99.02-1.49.02z"/><path d="m313.65 26.07c-.36 0-.23-.2-.07-.46.46-.62 1.46-.61 1.93-1.31.72-1.33.51-3 .38-4.49-.07.04-.14.02-.2-.02-.03.42.37 1.29-.09 1.49-.02.35.32 2.79-.41 2-.16-1.12-.16-2.28-.27-3.42.08-.09.14-.2.18-.3.03-.08.05-.15.05-.23.26-.27.25-.72.22-1.07-.02-.18-.05-.35-.09-.52-.11-.49-.21-.98-.47-1.41-.01-.02-.02-.05-.04-.07.04-.07.1-.12.21-.12-.05-.21-.09-.42-.1-.63-.06-.13-.02-.31.1-.38.26-.11.37.28.51.44.14.29.68.83.2 1.04.3 1.16.62 2.43.77 3.7.03.57.05 1.13.08 1.7-.04.95-.22 1.87-.65 2.72-.53.7-1.41.96-2.14 1.36h-.08z"/><path d="m314.21 15.64c-.2-.13-.41-.24-.62-.33-.35-.15-.72-.2-1.1-.22-.04-.28.27-.42.74.06.2-.24.45.08.6.22.15.04.27.14.37.27z"/><path d="m302.91 7.99c-6.82-2.32-13.97-3.52-21.15-4.09-9.46-.92-18.94-1.61-28.44-1.82-.02 0-.02-.03 0-.03 12.04-.3 24.07.3 35.99 1.96v-.03c0-.11.04-.25.14-.32-.36-.08-.35-.72.03-.74 1.62.29 3.24.63 4.85 1 2.57.54 5.25 1.54 7.68 2.68.31.09.83.14.71.59.37.08.58.61.2.8z"/><path d="m16.3 16.06c-4.2-.38-8.65-.74-12.88-1.51-.23.07-.48-.1-.71-.14-.02.02-.05.04-.08.05-.04.01-.08.02-.12 0-.13.14-.3 0-.44-.05-.32-.07-.75-.3-.47-.67 0-.11.03-.23.13-.29.02-.01.04-.02.06-.02-.04-.24.2-.41.41-.28.19-.04.45 0 .65.11v.05.04c-.02.18.18.32.3.4.14.1.3.17.46.24.27.11.54.19.82.24-.02 0-.04 0-.05 0 .19.04.38.05.57.07-.02 0-.04 0-.06 0 .07 0 .14.01.21.02.03 0 .07 0 .1.01-.02 0-.04 0-.06 0h.08.03-.02c.24.03.48.05.71.06 3.43.6 6.88 1.11 10.32 1.66z"/><path d="m14.35 15.99c-.64 0-9.16-.82-9.98-1.75.02 0 .04 0 .06.01-.01 0-.02 0-.03 0 .19.04.37.05.57.07.05 0 .11.01.16.02h-.02s.03 0 .04 0h.01s0 0-.01 0h.03s-.01 0-.02 0h.04.02.03s.01 0 .02 0h.02.02s0 0 0 0t0 0c.33.04.66.06.99.08 2.62.73 5.39 1 8.05 1.56z"/><path d="m2.97 24.84c-.1 0-.2-.02-.25-.12-.09-.16.02-.43.22-.37.36.16 1.04.42.22.48-.06 0-.13 0-.2 0z"/><path d="m3.24 24.73c-.86 0-1.6-.08-1.11-.43.95.12 2.04.18 2.92.36-.17 0-1.04.07-1.81.07z"/><path d="m8.09 25.84c-3.36 0-7.13-.35-6.61-2.37.07-.3.29-.59.61-.59h.05c.06.15.18.29.29.39.14.14.33.25.52.29s.04.02.06.03c2.22.63 4.65.27 6.95.48 2.06.02 4.1.36 6.08.92-1.05.36-2.3.6-3.45.74-.39-.01-1.09.02-1.96.05-.76.03-1.64.05-2.55.05z"/><path d="m7.86 9.77c-.56 0-.56-1.05 0-1.05.46 0 .54.7.25.96-.05.02-.1.04-.14.07-.01 0-.02.01-.03.02-.03 0-.05 0-.08 0z"/><path d="m9.17 9.71c-.18 0-.4-.06-.56-.06-.21.02-.57-.04-.57-.34-.04-.32.25-.52.54-.39.35.08 1.01-.02.95.51-.03.23-.17.29-.35.29z"/><path d="m9.9 9.69c-.5-.04-1.02-.13-1.51-.21-.11-.04-.18-.15-.19-.26-.04-.58.61-.27.94-.24.27.05.57.05.83.16.19.11.18.5-.07.55z"/><path d="m315.36 26.39c-.22 0-.44-.12-.55-.32-.8.09-.93-1.05-.48-1.52.3-.39.27-.89.47-1.33-.04-.68-.57-1.79.35-2.08 1.18-.32 1.26 4.7.57 5.13-.11.09-.23.13-.36.13z"/><path d="m313.71 14.65c-.25 0-.53-.12-.7-.29-.41.29-.84-.13-1.2-.33-1.1-.36-2.34-1.6-3.64-2.07-3-1.38-5.68-3.39-8.78-4.57-4.45-1.54-9.16-2.23-13.67-3.59 4.86-.12 10.03.2 14.64 2.05 3.41 1.37 6.44 3.57 9.77 5.09.83-.26 1.75.83 2.48 1.2.34 0 .6.32.87.49.64.39 1.43 1.01.74 1.77-.12.18-.31.26-.51.26z"/><path d="m315.54 16.03c-.18-.86-.45-1.96.13-2.73.49.82.44 1.97-.13 2.73z"/><path d="m315.48 17.05c-.56 0-.56-1.05 0-1.05s.56 1.05 0 1.05z"/><path d="m3.96 16.05s-.05-.01-.08-.02c-.15-.02-.31-.04-.47-.04-.04 0-.08-.02-.12-.02 0 0-.01 0-.02 0-.32-.38-.2-1.23.39-1.23.62 0 .73.99.3 1.31z"/><path d="m.99 16.43c-.54 0-.88-.89-.49-1.35.4-.7 1.85-1.09 1.88.04 0 .32-.23.77-.63.71-.18.12-.23.35-.4.48v-.02c-.12.1-.24.14-.36.14z"/><path d="m.88 18.11c-.27 0-.53-.21-.62-.63-.07-.65-.01-1.39.32-1.96.27-.48 1.13-1.04 1.42-.29.12.32.02.78-.33.92-.3.37-.06.93-.19 1.37-.1.4-.35.6-.61.6z"/><path d="m2.33 15.47c-.42 0-.42-.8 0-.8s.42.8 0 .8z"/><path d="m1.31 17.03c-.21 0-.4-.18-.44-.56-.1-.84.82-1.32 1.46-1.62.69-.32 1.01.88.43 1.17-.33.15-.67.31-.9.61-.16.27-.37.41-.56.41z"/><path d="m311.11 14.05c-.35 0-.62-.63-.28-.93.46-.45.94.36.6.75-.1.13-.21.18-.31.18z"/><path d="m310.97 14.14c-.57 0-.57-1.09 0-1.09s.57 1.09 0 1.09z"/><path d="m307.42 15.01c-1.17 0-2.37-.3-3.51-.49 1.19-.37 2.58-.59 3.84-.9.45-.36 1.08-.47 1.59-.74.22-.64 1.18-.75 1.33 0 .45.2.44.93.03 1.18-.06.61-.91.64-1.38.61-.61.26-1.25.35-1.89.35z"/><path d="m309.26 14.56c-.14 0-.27-.07-.35-.18-.55.15-1.13-.01-1.62-.28.4-.47.91-.77 1.45-1.13-.23-.46.09-1.3.69-1.02.28-.1.54.14.59.39.23.78.2 1.89-.7 2.21-.02 0-.04 0-.06 0z"/><path d="m305.81 14.3c-.17 0-.33 0-.48-.03 1.13-.45 2.3-.76 3.4-1.27.2-.09.37.11.41.28.06.86-1.39.8-2 .95-.42.03-.9.08-1.34.08z"/><path d="m315.68 21.11c-.1 0-.19-.1-.24-.18-.53-1.82.06-4-.91-5.77-.28-.61.56-1.24.86-.5.78 1.46.66 3.14.84 4.75.04.57.14 1.45-.52 1.7 0 0-.02 0-.03 0z"/><path d="m315.94 18.94c-.28 0-.57-.24-.66-.63-.28-.79-.71-1.53-1.44-1.97-1.65-.94-3.62-1.27-5.41-1.86 1.42-.12 3.04-.18 4.5.07.03-.32.33-.68.68-.57.1-.07.21-.1.35-.07.16.04.3.14.43.25.27-.35.7-.13.87.2.09-.04.18-.04.26-.02.92-.59 1.06 1.59.66 2.02.03.19 0 .4-.12.55.07.13.13.25.19.38.16.35.33.75.25 1.14-.11.36-.33.51-.55.51z"/><path d="m313.2 26.12c-.86 0-1.71-.28-2.49-.65 1.15-.64 2.95-.31 3.95-1.22.21-.29.39-.68.55-1.01.11-.25.43-.35.64-.17.52.51-.09 1.21-.34 1.71 0 .45-.42.78-.79.98-.17.15-.37.29-.59.23-.31.09-.63.12-.95.12z"/><path d="m314.45 27.58c-1.45 0-2.83-.59-4.19-1.05 1.26-.33 2.74-.37 4.09-.37.07-.67 1.15-2.17 1.52-.87 1.02.69.04 2.35-1.03 2.27-.13 0-.26.01-.39.01z"/><path d="m10.63 26.57c-1.91 0-3.84-.23-5.59-1.01-.61-.23-1.53-.29-1.31-1.18.33-1.05 1.56-.06 2.26.04 1.13.27 2.36.26 3.58.25.82 0 1.64-.01 2.44.07 1.84.15 3.64.54 5.46.9-1.69.39-3.55.75-5.34.89-.5.03-1 .04-1.5.04z"/><path d="m18.56 27.42c-2.65 0-5.29-.07-7.94-.13-.48-.07-1.2-.06-2-.06-2.3 0-5.32 0-5.84-1.52-.32-.8.69-1.57 1.09-.62 6.32.37 12.68.33 19.05.29 7.62-.05 15.23-.1 22.75.56-8.04.44-16.07 1.27-24.14 1.46-.99.02-1.98.03-2.98.03z"/><path d="m4.18 26.31c-.14-.02-.28-.02-.42-.01-.11 0-.22 0-.33 0-.73-.15-.96-1.05-.21-1.36.29-1.04 1.34-.12 1.95.11.61.54.08 1.54-.73 1.19-.08.05-.17.07-.27.08z"/><path d="m288.67 28.82c-4.75 0-9.5-.56-14.25-.61-5.8-.02-11.73-.2-17.32-1.64 10.29-.1 20.56-.35 30.82.31 4.36 0 8.73-.06 13.09-.13 4.41-.07 8.83-.14 13.23-.13.5-.02.81-.75 1.29-.13.63 1.7-1.56 1.7-2.97 1.69-.25 0-.48 0-.66 0-7.23.75-14.5.49-21.75.61-.49.01-.99.02-1.48.02z"/><path d="m4.8 27.08c-.21 0-.43-.06-.63-.12-.47-.15-1.1-.11-1.47-.46-.83-.08-.77-1.52.11-1.38.18-.11.4-.05.59-.02.16-.16.39-.09.6-.09.01 0 .02-.01.04-.02.16-.3.54-.22.83-.2.57.18 1.4-.07 1.79.45.25.43-.09 1.07-.62.92-.03.22-.14.42-.35.49-.09.04-.19.04-.29.03-.11.3-.34.39-.6.39z"/><path d="m6.15 26.87c-.06 0-.12-.01-.17-.04-.78-.45-2.17-.32-2.49-1.29-.94-.1-1.25-1.49-.25-1.68 1.22.37 2.35.71 3.66.99.39.08.56.52.52.88-.04.34-.31.73-.69.66-.08.26-.31.49-.57.49z"/></g></svg>