<svg viewBox="0 0 316.61 28.82" xmlns="http://www.w3.org/2000/svg"><path d="m52.42 16.87c-1.63.06-8.27 1.73-8.52-.47.02-.38.21-.81.61-.93 3-.85 6.06-1.48 9.13-2.02-.63-.24-1.57.31-2.04-.3-1.53.06-3.13-.02-4.57.59-.26.1-.48-.13-.54-.36-.12-1.66 5.02-1.18 6.22-1.35.15-.37.56-.45.92-.5.08-.19.22-.36.43-.39.96-.06 1.93-.07 2.9-.13.02-.22.12-.45.29-.57-1.33.02-2.7.23-4.02.12-.19-.09-.32-.25-.39-.44-1.16-.03-2.33-.05-3.49-.08-.84-.04-.84-1.54 0-1.59 6.44-.29 12.89-.45 19.34-.43 4.72-.03 9.44.06 14.15.24 1.08-.18 1.59 1.11.65 1.63.56 2.02-2.92 1.18-4.06 1.4-4.63.07-9.27.08-13.88.51.01.14-.01.3-.07.43.92 0 1.86-.05 2.77.1.26.06.42.27.49.52.97.15 3.69-.69 3.67.8.8 0 1.67-.24 2.44-.02.58.32.45 1.45-.27 1.5-.5.03-1 .05-1.51.07-.07 1.2-1.82.65-2.64.88-2.71.2-5.42.43-8.12.79-2.16.27-4.32.23-6.49.49-.94-.1-3.27.85-3.41-.51z" fill="#fff"/><path d="m283.39 25.7c-1.25-.02-2.49-.04-3.73-.06-1.91-.26-3.57-1.02-4.42-3.1-.36-.23-.68-.52-.97-.84-1-.23-1.94-.65-2.66-1.5-.93-1.09-1.48-2.52-1.62-3.98-7.51.08-15.04-.32-22.56-1.05-1.43-.14-2.91 0-4.38.13-2.14.19-4.28.38-6.28-.24-1.83 3.88-6.66 2.97-10.22 2.67-6.24-.58-12.52-.8-18.77-1.05-8.9-.38-17.77-1.36-26.68-1.1-5.57-.87-11.3-.82-17.03-.79-2.09.01-4.18.03-6.25 0-1.45 2.78-4.59 2.71-7.32 2.64-4.62.23-9.23.29-13.86.23-8.32-.03-16.64.12-24.96.4-15.21.16-29.5-1.41-44.34-2.82-.67 1.41-2.16 2.08-3.67 1.93-3.34 0-6.68-.1-10.02-.24-2.15-.1-4.3-.21-6.45-.32-1.91-.07-4.12-.02-5.21-1.92-2.37-.06-3.25-3.19-2.47-5.05-.1-2.48 1.63-5.03 4.23-5.1.37-.7.86-1.15 1.42-1.43 1.15.03 2.31.06 3.46.08 1.02.02 2.04.03 3.06.12 1.82.16 3.64.19 5.46.2 2.81.23 5.6.52 8.38.9.47-.39.97-.63 1.5-.77.53.02 1.06.03 1.6.03h.72c.25 0 .5 0 .75-.01.24.04.47.07.71.11.83.14 1.66.27 2.45.27 9.8.84 19.58 1.73 29.43 1.64.96-1.71 2.57-2.34 4.39-2.45 2.11-1.12 4.54-1 6.97-.86 1.36.07 2.71.14 4 0 5.56-.21 11.13-.12 16.7-.02 4.72.08 9.45.16 14.18.06 26.11-.57 52.24-1.14 78.34-.18 2.39.14 4.74-.02 7.1-.18 2.28-.15 4.55-.31 6.85-.19 8.61.04 17.07 1.23 25.67 1.18 1.91-.99 4.11-1.11 6.3-1.11.45 0 .89 0 1.33.01.21.02.43.03.64.04.48.04.96.05 1.44.07.8.04 1.6.07 2.4.09.43.02.86.04 1.29.06 1.44.12 2.89.24 4.33.33 1.19.08 2.37.14 3.56.16h.28c.41.03.82.06 1.23.09.54.04 1.09.1 1.64.1.17 0 .34 0 .5-.02.44-.04.86-.26 1.14-.59.18-.21.3-.46.36-.71.07 0 .14 0 .21.02.53.03 1.06.08 1.59.13.27.03.54.05.8.09.04 0 .09.01.13.02.05.05.11.11.18.15.41.28.92.43 1.38.61.42.16.84.33 1.24.51.29.12.57.25.85.38.37.43.74.93 1.12 1.51.21.08.41.18.61.29 2.29-.1 4.27 1.52 6.12 2.79 1.9 1.19 3.47 2.71 4.03 4.95.96 3.27-1 8.18-4.86 8.17-.79-.12-1.57-.11-2.36-.11-.98 0-1.96.02-2.97-.21-.95 1.59-2.52 2.77-4.47 2.46-.74-.06-1.48-.16-2.22-.26-1.5.65-2.64 1.93-4.23 2.3-.62.2-1.25.34-1.89.42-1.73-.04-3.45-.05-5.18-.08z" fill="#fff"/><path d="m307.84 24.73c-.36-.11-.7-.29-.99-.57-.33-.05-.66-.17-.99-.36-.58-.34-1.01-.8-1.31-1.33-2.84.42-4.33-3.14-3.35-5.45 1.3-2.24 3.42-5.73 6.15-2.98.12 0 .25.02.37.04.14.02.28.06.41.1 2.94-3.05 7.45.49 7.15 4.14.45 3.17-4.34 8.15-7.42 6.41z" fill="#fff"/><path d="m50.52 26.29c-.77-.05-1.56-.04-2.36-.03-2 .03-4.04.05-5.78-.87-3.29.09-6.57.29-9.86.51-2.02.24-4.42.25-5.76-1.52-1.15-.02-2.37-.05-3.43-.5-2.12-.9-3.12-2.98-3.2-5.14-2.25.3-4.81 1.14-6.87-.21-1.53 1.2-3.45 2.19-5.24 1.04-3.73-.68-4.07-6.84-.98-8.54 1.49-.56 2.66-1.39 3.78-2.36.46-.01.9-.34 1.3-.55.41-.21.81-.43 1.21-.64.82-.43 1.64-.85 2.48-1.23 1.03-.47 2.07-.95 3.11-1.42.11.05.22.09.34.1.69.09 1.38-.16 2.02-.38.43-.14.84-.32 1.25-.49.18-.07.36-.15.54-.23.27-.08.53-.16.8-.24.11-.03.23-.07.34-.1.19.07.39.15.58.26.82-.41 1.71-.66 2.61-.82.1.08.22.14.36.18.36.09.79.05 1.16.04.35-.01.7-.03 1.05-.05.72-.04 1.44-.07 2.16-.09.73-.01 1.47 0 2.2-.03.66-.03 1.31-.07 1.96-.08h.08c-.03 0-.05 0-.08 0h.08.07-.06.11c1.42 0 2.84.08 4.26.12 1.39.04 2.79.07 4.19.1 1.23.03 2.46.07 3.68.08 1.02.02 2.04.03 3.06.12 2.41.21 4.83.2 7.25.21 1.37 0 2.75 0 4.12.02 1.91 1.58 2.6 4.48 2.01 6.86 3.73-.12 7.46-.06 11.2 0 3.61.06 7.22.12 10.83.02 13.34-.71 26.69-1.61 40.01-1.45 3.99.79 5.45 6.02 4.07 9.44-1.4 4.19-5.54 4.12-9.45 4.05-1.37-.02-2.71-.05-3.89.11-7.44.21-14.89.17-22.33.41-1.14 1.34-2.87 1.8-4.57 1.79-2.89.03-5.77.23-8.66.34-10.42.34-20.75 1.18-31.18 1.18h-.56z" fill="#fff"/><path d="m11.47 8.46s0 0 0 0l-.07.04s.05-.02.07-.04z" fill="#fff"/><path d="m11.57 8.41s.04-.02.05-.03l-.06.04z" fill="#fff"/><path d="m28.12 3.11h-.02s.02 0 .03 0h.09c-.02 0-.05 0-.07 0s0 0 0 0-.05 0-.09 0h.08z" fill="#fff"/><path d="m3.52 24.19c-5.06-2.02-3.49-13.6 2.79-10.88 1.84 1.19 3.11 3.58 2.75 5.75-.2 2.7-2.48 6.22-5.54 5.14z" fill="#fff"/><path d="m22.1 27.29c-3.66-.09-7.31-.25-10.98-.37-2.68-.24-5.73.07-8.07-1.47-2.17-1.67-1.87-4.64-1.6-7.06.45-4.37 5.74-5.09 6.71-.56 1.36.02 2.72-.03 4.08-.09 1.23-.06 2.47-.11 3.71-.18 1.11-1.39 2.94-1.44 4.58-1.38 3.73 0 7.42-.32 11.15-.25 4.24-.25 8.49-.32 12.73-.57 1.8-.11 3.81.97 4.76 2.51 3.31 5.19-1.6 10.46-7.18 9.36-6.63-.13-13.26.02-19.89.06z" fill="#fff"/><path d="m98.56 25.35c-.48-.04-.98-.06-1.45-.19-.63-.16-1.19-.44-1.66-.85-3.13.51-5.59-.49-5.66-3.98 0-1.83 1.16-4.02 3.22-4.03 1.98.17 3.8-.43 5.72-.57 3.29-.15 6.6-.22 9.88-.47 3.91-.26 7.82-.56 11.73-.86 1.01-.19 2.15-.09 2.93.57 7.18-.04 14.31-1.11 21.49-1.16 6.44.15 12.89 1.42 19 3.32-5.91 2.79-12.09 5.11-18.58 6.1-4.45.61-8.95.68-13.43.99-1.72.83-3.79.36-5.65.49-2.94 1.11-6.4.08-9.52.35-3.05.4-6.03.1-9.05 0-2.98.18-5.97.47-8.96.3z" fill="#fff"/><path d="m190.62 23.79c-.74 0-1.48 0-2.22-.03-.59-.05-1.17-.12-1.76-.16-1.05-.08-2.11-.14-3.17-.19-.17 0-.33-.01-.5-.02-.18-.17-.36-.37-.51-.6-.53-.02-1.07 0-1.62 0-1.75.04-3.55.07-5.1-.72-5.62-.15-11.25-.05-16.86.23-2.29.11-4.57.25-6.85.42-3.62.14-6.54-3.59-3.19-6.4-.04-2.77 2.11-5.55 5.05-4.96 4.68.13 9.37.05 14.05.12 18.46-.14 36.91-.79 55.38-.78 1.15.11 2.45.06 3.76 0 4.06-.16 8.34-.32 9.36 4.43 1.14 9.52-6.05 7.84-12.68 7.77-.1.19-.21.37-.33.54-.14 0-.27 0-.41 0-1.53.02-3.06.1-4.59.11-1.88.02-3.77.02-5.64.05-2.89.04-5.79.12-8.68.15h.06c-.33 0-.66 0-.99 0h-.16s-.04 0-.06 0c-.01 0-.02 0-.04 0h.04c-2.8.02-5.61.04-8.41.04-1.32 0-2.64-.02-3.95-.03z" fill="#fff"/><path d="m202.98 23.78s0 0 0 0 0 0-.01 0z" fill="#fff"/><path d="m202.99 23.78s0 0 0 0z" fill="#fff"/><path d="m203.04 23.78h.16c-.07 0-.14 0-.2 0h.05z" fill="#fff"/><path d="m283.39 25.7c-1.9-.04-3.8-.05-5.7-.09-1.8-.04-3.59-.16-5.38-.26-.12 0-.24-.01-.37-.02-1.2-.34-2.23-1.13-2.79-2.35-7.05-.36-14.09-.69-21.14-.94-1.99-.06-3.99-.17-5.99-.15-1.57.08-3.35.04-4.41-1.25-.91-.14-1.93-.12-2.97-.1-2.19.05-4.47.09-5.91-1.39-1.5-1.83-1.42-4.57.35-6.2.89-.96 2.19-.87 3.38-.72 2.04.14 4.07.2 6.11.24 2.68-.8 5.56-.74 8.42-.67 1.56.04 3.11.07 4.63-.03 9.85 0 19.61.04 29.39-.59 1.38-4.77 7.3-4.59 11.33-5.05 1.05-1.78 3.35-2.41 5.19-1.51 1.8-.69 3.78-.75 5.16.81 3.34-.01 8.48 3.97 9.25 7.26 1.08 3.49-1.99 8.56-5.92 6.59-2.62 4.03-8.49 2.77-12.64 3.22-1.63 2.73-5.23 2.25-7.97 2.45-.37.37-.83.61-1.31.77-.23 0-.47 0-.7-.01z" fill="#fff"/><path d="m60.1 10.7c-1.56-2.13-1.02-6 1.37-7.17 1.39 0 2.77.02 4.15.07 1 .04 2 .07 3 .07h.72c1.45-.02 2.9-.05 4.35-.09 2.57-.07 5.13-.19 7.7-.21 1 0 2 .02 3 .06.33.01.66.02.99.03 1.42 2.19 1.12 5.42-.9 7.16-1.29.98-2.86.94-4.43.9-.84-.02-1.67-.04-2.46.09-3.97.04-8.05.91-11.97.56-.64.05-1.34.12-2.02.12-1.38 0-2.72-.28-3.5-1.59z" fill="#fff"/><path d="m10.85 16.99c-2.87-4.83 1.03-8.11 5.26-9.86 3.68-1.57 6.04-4.1 9.1.04.15 0 .31 0 .46.03.62.07 1.16.42 1.59.88 8.34-2.97 5.56 12.75-.14 7.96-1.81.64-3.85 2.34-5.74 1.03-1.58.75-3.33 1.95-5.05.83-1.83 1.05-4.23 1.03-5.48-.91z" fill="#fff"/><path d="m78.67 9.04c-1.79-2.37 1.33-6.31 3.31-3.12 1.38 2.15-1.33 5.65-3.31 3.12z" fill="#fff"/><path d="m98.1 13.15c-.65-.04-1.33.02-2.02.08-1.44.12-2.9.25-4.1-.52-.68-.06-1.39 0-2.11.07-1.45.12-2.92.25-4.1-.6-1.58-.17-3.45.18-4.76-.91-1.62-1.49-1.97-4.15-.67-5.98 1.02-1.66 3.06-1.47 4.76-1.59.43-.09.86-.16 1.29-.23h1.37c.39 0 .76-.09 1.09-.28 1.35-.1 2.71-.14 4.08-.14 6.86-.47 13.73-.59 20.57 0 3.88.09 5.65 4.76 4.36 7.96-1.58 4.39-7.26 4.12-11.13 4.37-.07 0-.14 0-.21 0-2.99 0-5.67-1.65-8.43-2.25z" fill="#fff"/><path d="m88.53 26.5c-1.34-.04-2.76-.27-3.7-1.34-2.84-.11-6.93.7-8.43-2.4-7.92.13-15.84-.08-23.76.03-2.07.03-4.15.07-6.22.04-.94.04-1.86-.09-2.57-.75-1.58-1.3-1.61-4.18-.04-5.47 1.33-1.25 3.24-.54 4.86-.67 13.69-.2 27.37-.69 41.03-1.65 1.75-.12 3.51-.23 5.26-.37 2.43-.52 4.92.07 5.56 2.78 2.5 1.94 2.17 6.91-.94 8.05-1.94 2.42-8.09 1.66-11.05 1.75z" fill="#fff"/><path d="m134.01 23.61c-1.5-2.05-.83-6.05 1.95-6.59 16.18-1.69 32.47-2.09 48.76-2.12 23.43.12 46.82-1.51 70.23-2.37 11.48-1.06 22.97.09 34.46.15 6.9.32 7.09 11.07.18 11.65-12.27-.11-24.52-1.44-36.79-.5-4.43.05-8.86.15-13.28.28-1.25-.04-2.5-.09-3.76-.1h.05c-.06 0-.13 0-.19 0h.01-.01c-1.45-.03-2.91-.12-4.36-.19-1.5-.07-3-.16-4.49-.24-1.24-.07-2.48-.13-3.72-.12-1.53.02-3.06.1-4.59.11-1.88.02-3.77.02-5.64.05-2.89.04-5.78.12-8.68.15h.06c-.33 0-.66 0-.99 0h-.21.06s-.05 0-.08 0h.02c-2.8.03-5.61.04-8.41.04-1.32 0-2.64-.02-3.95-.03-.74 0-1.48 0-2.22-.03-.59-.05-1.17-.12-1.76-.16-1.05-.08-2.11-.14-3.17-.19-1.32-.06-2.64-.04-3.96 0-.78.02-1.56.03-2.34.03s-1.56 0-2.34 0h.15c-1.48-.01-2.96-.1-4.44-.09-1.95.01-3.89.19-5.83.34-1.06.08-2.12.22-3.18.3-1.4.1-2.8.2-4.2.27-2.45.13-4.89.2-7.34.28-.36 0-.72 0-1.08 0-.35 0-.72.04-1.01.23-.17-.08-.33-.17-.48-.28-2.46 0-4.91-.05-7.36.14-1.01.08-2.16.35-3.23.35-1.12 0-2.14-.29-2.81-1.37z" fill="#fff"/><path d="m261.96 18.95c0-1.3.83-2.88 2.3-2.88s2.3 1.57 2.3 2.88-.83 2.88-2.3 2.88-2.3-1.57-2.3-2.88z" fill="#fff"/><path d="m283.39 25.7c-1.9-.04-3.8-.05-5.7-.09-1.8-.04-3.59-.16-5.38-.26-1.59-.09-3.18-.19-4.77-.29-1.69-.1-3.38-.15-5.07-.18-1.7-.04-3.41-.09-5.11-.14-1.46-.05-2.92-.06-4.38-.13-1.21-.06-2.42-.12-3.63-.18-.4-.02-.8-.04-1.2-.06h.19c-.09 0-.18 0-.28-.01-.04 0-.09 0-.13 0h.13.09c-.3-.01-.6-.03-.9-.04.14 0 .27.01.41.02-1.05-.05-2.11-.08-3.17-.1-.72-.02-1.43-.04-2.15-.05-.47-.47-.86-1.06-1.12-1.82-1.61-1.06-1.92-3.56-.84-5.09.67-.96 1.59-1.2 2.68-1.28 1.66-.26 3.38-.29 5.08-.26 3.1-.02 6.18-.05 9.29-.17 4.05-.02 8.08-.25 12.11-.66 1.2-.12 2.51-.44 3.64.09 1.25-.09 2.5-.3 3.63.41 3.55-.22 7.12-.26 10.68-.53 1.39-.11 2.67-.92 4.07-.3 3.06 1.23 3.83 5.44 2.39 8.16-1.41 2.87-4.66 2.93-7.47 3.01-1.03-.01-2.06-.03-3.09-.05z" fill="#fff"/><path d="m261.86 12.85c-.46-.03-.93 0-1.4.02-1.07.05-2.14.11-3.08-.43-.51-.01-1.02-.03-1.53-.04-.61-.06-1.26-.04-1.91-.02-1.59.05-3.22.09-4.39-1.05-3.84.1-7.68.12-11.51.27-.47-.01-.95.01-1.44.04-1.31.07-2.64.13-3.81-.51-2.86-1.9-3.18-6.62-1.46-9.38.12-.17.25-.33.38-.47.69 0 1.37-.02 2.06-.02 1.2 0 2.39.08 3.59.14s2.41.11 3.62.11h.45c2.46 0 4.95-.07 7.37-.57.12-.03.24-.07.35-.13h3.32c.83 0 1.66-.03 2.48-.05.3.24.67.33 1.04.41h.06s.04.02.06.02h.02-.01c.35.06.69.11 1.04.14.02.01.04.02.07.04.43.19.96.18 1.42.2.39.02.79.03 1.18.04.85.02 1.7.04 2.54.07 2.27.07 4.54.1 6.82.14h.32c1.66.14 3.33.14 5 .14.21.02.43.03.64.04.48.04.96.05 1.44.07.8.04 1.6.07 2.4.09.43.02.86.04 1.29.06 1.45.12 2.89.24 4.34.34 1.19.08 2.37.14 3.56.16h.28c.41.03.82.06 1.23.09.54.04 1.09.09 1.64.09.17 0 .34 0 .5-.02.44-.04.86-.26 1.14-.59.18-.21.29-.45.35-.71h.21c.53.04 1.06.09 1.59.14.27.03.54.05.8.09.04 0 .09.01.13.02.05.05.12.11.18.15.41.28.92.43 1.38.61.42.16.84.33 1.24.51.41.18.82.37 1.23.56.2.09.41.21.64.32 1.23 2.88.4 6.83-2.64 8.09-1.39.55-2.88.14-4-.77-5.38-.77-10.84-.75-16.26-1-.54 2.84-3.02 2.76-5.33 2.69-.54-.02-1.07-.03-1.56-.01-2.17.04-4.34.13-6.25.3-.36.03-.73.07-1.1.07-.59 0-1.17-.1-1.68-.46z" fill="#fff"/><path d="m268.26 1.52s-.04 0-.06 0z" fill="#fff"/><path d="m267.84 1.51h.05s.05 0 .08 0c-.04 0-.09 0-.13 0z" fill="#fff"/><path d="m256.04 1.17s-.02 0-.02 0c.02 0 .04 0 .06.01-.01 0-.02 0-.03 0z" fill="#fff"/><path d="m305.42 26.39c-1.68.1-3.37.05-5.05 0-.96-.03-1.93-.05-2.9-.05-1.02-.06-2.05-.02-3.08.02-.58.02-1.16.04-1.73.04-.09-.05-.17-.09-.27-.13-.29-.13-.61-.19-.93-.24-.88-.14-1.77-.23-2.66-.25-.09 0-.18 0-.28 0-2.96-1.79-2.95-7 .07-8.79 2.59-.74 5.34-.57 8.09-.39 1.98.12 3.96.25 5.89.04.1-2.21 1.43-4.66 3.75-5.09 1.87-1.76 3.69-1.84 5.14-1.02.02.03.05.06.07.08.22.23.48.43.72.63.06.05.12.11.17.16.23.22.45.44.69.65 1.92 2.65 2.16 7.18-1.2 9.13-.36.68-.88 1.27-1.5 1.69-.38 1.89-1.73 3.51-3.68 3.58v.03c-.44-.02-.88-.05-1.32-.07z" fill="#fff"/><path d="m218.23 7.18c0-1.36.86-2.99 2.39-2.99s2.39 1.64 2.39 2.99-.86 2.99-2.39 2.99-2.39-1.64-2.39-2.99z" fill="#fff"/><path d="m222.8 9.59c-.44-.23-.84-.57-1.13-.98-.03-.02-.07-.05-.1-.07-3.06 0-6.09.44-9.14.57-3.7.03-4.94-5.03-3.01-7.65.29-.49.67-.83 1.09-1.08.13 0 .26.01.4.02.48.02.95.03 1.43.04.98.02 1.96.04 2.95.06 2.15.05 4.29.28 6.45.36.98.04 1.96.07 2.95.14 1.17.09 2.34.08 3.51.11-.07 0-.14 0-.22 0 .98.04 1.95.12 2.93.16.96.04 1.91 0 2.86 0h.64c2.27 1.59 2.15 6.06-.62 7.11-.82.25-1.7.18-2.54.21-1.2 1.39-3.36 1.2-5.02 1.29-.53.02-1.09.08-1.64.08-.61 0-1.22-.07-1.76-.36z" fill="#fff"/><path d="m226.04 11.17c-10.09-1.03-20.18-1.28-30.3-.9-6.39-.38-12.78-.25-19.17-.11-4.2.09-8.4.18-12.59.12-3.3-.28-6.66-.65-9.94.02-.98.15-2.23.5-3.16.1-2.47-1.07-2.7-5.14-.37-6.51 3-.82 6.19-1.3 9.32-1.37 5.39.11 10.67-.45 15.92-1.01 4.91-.52 9.79-1.05 14.73-1.02 1.54-.02 3.07-.07 4.61-.15.09.09.2.17.32.22.72.33 1.57.29 2.35.31.54.01 1.07.02 1.61.04h-.02s.09 0 .13 0h.08.1-.04.09-.04.04s.03 0 .05 0h.07c-.02 0-.05 0-.07 0 0 0 0 0-.01 0 .3.01.61.02.92.02h.2c.29 0 .58-.04.85-.16.22-.1.39-.24.53-.41h.12c.74-.02 1.48-.04 2.21-.05 1.57-.05 3.14-.08 4.72-.13h.04c.23.11.5.14.76.16.27.02.55.04.82.05.48.02.95.03 1.43.04.98.02 1.96.04 2.95.06 2.15.05 4.29.28 6.45.36.98.04 1.96.07 2.95.14 1.17.09 2.34.08 3.51.11-.07 0-.14 0-.22 0 .78.03 1.56.09 2.34.13 4.62 2.91 3.11 10.02-3.06 10.02-.39 0-.79-.03-1.21-.09z" fill="#fff"/><path d="m199.49.91s-.03 0-.04 0h.11c-.02 0-.05 0-.08 0z" fill="#fff"/><path d="m196.43.66s-.08.01-.12.01c.04 0 .08-.01.12-.01z" fill="#fff"/><path d="m202.36.2s.06 0 .09 0c-.03 0-.06 0-.09 0z" fill="#fff"/><path d="m251.02 13.74c0-1.36.87-3.01 2.41-3.01s2.41 1.64 2.41 3.01-.87 3.01-2.41 3.01-2.41-1.64-2.41-3.01z" fill="#fff"/><path d="m257.77 18.47c-4.44-.15-8.75-.97-13.2-.96-1.68-.22-3.81.32-5.07-1.06-1.7-1.8-1.04-5.86 1.8-6 2.77.19 5.55.14 8.32.23.81-.69 1.87-.62 2.85-.48 1.51.08 3.02.09 4.53.14 7.28-2.41 8.28 9.86.77 8.13z" fill="#fff"/><path d="m310.64 26.55c-1.86.04-3.39-1.79-4.01-3.41-1.19-2.89.17-8.88 4.28-6.9 5.5-.93 5.51 11.93-.27 10.31z" fill="#fff"/><path d="m308.8 26.87c-.12-.07-.25-.12-.39-.16-.25-.06-.52-.04-.78-.04-.13 0-.27 0-.41 0-.25 0-.5 0-.76.01-.55.01-1.1.02-1.65.04-.57.02-1.14.05-1.71.07-.06 0-.12 0-.18 0-.52 0-1.05 0-1.57 0-.57 0-1.14.02-1.71.02-.26 0-.53 0-.79 0 0 0 0 0 0-.01-2.5-1.78-2.31-6.49.51-7.89.59-.46 1.29-.76 2.02-.7 2.05.25 4.22.08 6.21.65.23-.03.46-.06.68-.09.07-.01.13-.03.2-.04.63-3.08 3.85-3.5 5.33-.73 1.82 3.98-.56 8.51-4.98 8.84h-.03z" fill="#fff"/><path d="m307.6 18.5c-1.07-2.58.73-4.77 2.57-6.35.45-.72.95-1.19 1.48-1.45.19.18.4.35.61.52.06.05.12.11.17.16.3.3.61.59.92.86.34.3.68.59 1.03.88.38.31.77.67 1.21.89h.02c.18.44.35.88.54 1.31-.03.15-.06.29-.1.44-.3 2.01-1.72 3.63-3.68 4.19-.55.54-1.19.78-1.83.78-1.25 0-2.48-.92-2.94-2.25z" fill="#fff"/><path d="m314.27 12.79s.04.03.06.05c-.02-.01-.04-.03-.06-.05z" fill="#fff"/><path d="m309.08 15.39c0-1.7 1.07-3.74 2.99-3.74.26 0 .51.04.74.11.18.17.35.33.54.49.34.3.68.59 1.03.88.04.03.08.06.12.1.37.66.56 1.44.56 2.16 0 1.7-1.07 3.74-2.99 3.74s-2.99-2.05-2.99-3.74z" fill="#fff"/><path d="m7.59 19.56c-.73-.25-1.34-.65-1.8-1.29-.09-.12-.17-.25-.25-.39-3.12-1.3-3.25-3.67-2.25-5.35.16.07.33.1.5.1h.13c.2-.02.38-.07.55-.15.18 0 .38-.02.55-.08.5-.17.9-.56 1.18-1.01.15-.24.26-.49.35-.75 1.11.17 2.12 1.2 2.49 3.62 2.29 1.03 1.63 5.4-.79 5.4-.21 0-.43-.03-.66-.1z" fill="#fff"/><g fill="#333"><path d="m1.44 14.67c-.27-.07-.54-.12-.81-.18-.81-1.08 1.73-2.04 2.5-2.55 3.42-1.72 6.84-3.47 10.27-5.16 1.03-.48 2.05-.96 3.06-1.47.32-.12.65-.26.98-.38.58-.22 1.16-.44 1.75-.64-.04.01-.07.02-.1.03.23-.07.45-.15.68-.22-.02 0-.04 0-.05.01.02 0 .04-.01.06-.02h.02.02.01c.04 0 .07-.02.1-.03.67-.21 1.34-.41 2.02-.6-.3.58-1.25.94-1.71 1.37-3.45 2.28-7.35 3.71-10.95 5.74-2.57 1.39-5.3 2.5-7.73 4.12t0 0s-.06-.02-.1-.02z"/><path d="m281.88 17.59c-54.27-.64-108.54-1.88-162.82-1.75-5.56-.02-11.12-.07-16.68-.1-.61 0-1.22 0-1.83 0-.6-.03-1.2-.05-1.79-.06-1.07 0-2.14 0-3.21-.04h.15-.28.15c-1.56-.05-3.11-.08-4.67-.08-.8 0-1.59-.01-2.39.02-.71.02-1.43.06-2.14.07h.15c-.59 0-1.19.01-1.79.02h.05c-1.72 0-3.43.02-5.15.06h.01-.09s-.03 0-.05 0h.04c-1.93.03-3.86.04-5.79.08-1.64.04-3.27.06-4.91.04h.11c-1.32-.02-2.64-.05-3.96-.04-1.13 0-2.26.03-3.39.03h.14c-.75 0-1.5.02-2.25.02-1.43 0-2.86-.02-4.29-.02-1.44 0-2.88.01-4.33 0-.7-.01-1.41-.04-2.11-.05-.68 0-1.36-.02-2.04-.03-.93-.02-1.88-.04-2.81-.06-.02 0-.04 0-.07 0h.04c-.84-.02-1.7-.06-2.54-.06h.06s-.05 0-.07 0c-.69-.01-1.38-.04-2.08-.04-.73 0-1.46.01-2.2 0-.78 0-1.56-.03-2.34-.05-.74-.02-1.48-.01-2.22-.02-1.24-.02-2.48-.03-3.71-.06h-.05c-1-.04-2-.11-3-.17-.57-.04-1.15-.08-1.73-.08-.67 0-1.34.01-2.02.02h.02c-.86.01-1.71.01-2.56-.03-.66-.03-1.3-.05-1.96-.05h.06s-.06 0-.09 0h.02c-.59 0-1.18-.02-1.76-.04-.51-.02-1.01-.05-1.52-.07-.52-.03-1.03-.02-1.55-.02-1.09.01-2.18.03-3.27-.02h.12c-.12 0-.25-.01-.38-.02h.12c-.77-.04-1.54-.04-2.32-.02-.74 0-1.48.01-2.22.07-.55.04-1.13.04-1.65.25-.48-.29-1.01-.51-1.58-.64-.34-.08-.69-.16-1.03-.21 0-.1 0-.19.01-.29 8.88-.75 17.81-.28 26.71-.08 6.54.46 13.04 1.17 19.61 1.01 11.55-.39 23.1-.73 34.66-.96 7.66 0 15.33-.01 23-.03 22.22-.04 44.45-.09 66.66.36 27.05.04 54.1.8 81.15.89 11.02.07 22.04.59 33.06.48 7.3-.21 14.59-.7 21.89-1.21.3-.01.6-.03.9-.05h-.01c.64-.04 1.28-.09 1.92-.14.46-.03.92-.05 1.38-.1h.08c-.02 0-.04 0-.06 0 .04 0 .07 0 .11-.01 0 0 0 0-.01 0 .07 0 .14-.02.21-.02-.02 0-.04 0-.06 0h.13c.81-.07 1.62-.13 2.43-.18.79 0 1.59-.06 2.37-.11.02.12.02.24.04.36.01.24.02.49.01.73-.2-.14-.43-.25-.66-.33-.23-.07-.48.08-.55.31-.07.24.07.48.31.55l.12.04.08.04s0 0 .02 0c-.71.07-1.42.13-2.12.2-.13-.02-.26 0-.39.04l-.36.04s-.02 0-.03 0c-10.32.63-20.64 1.6-30.98 1.6h-.15z"/><path d="m43.77 15.7h.05-.02.02s.04 0 .06 0c-.04 0-.07 0-.11 0z"/><path d="m2.09 15.12c.14.1.29.19.43.29l.04.04c-.15-.11-.31-.21-.47-.32z"/><path d="m313.74 13.27s-.02-.08-.04-.11c-.02-.09-.07-.16-.13-.22-.02-.02-.04-.04-.05-.05-.05-.06-.11-.12-.17-.18-.09-.07-.18-.14-.28-.2l.04.02s-.03-.01-.04-.02t0 0h-.02s0-.01 0-.01t0 0s-.03-.02-.05-.03c-.16-.11-.32-.2-.48-.29h.01c-.11-.07-.22-.13-.34-.2s-.24-.13-.36-.21l.04.02c-.09-.05-.18-.11-.26-.16-.2-.13-.39-.26-.59-.39-.01 0-.02-.02-.04-.02 0 0-.01 0-.02-.01s-.02-.02-.04-.03c.01 0 .02.02.04.03-.17-.12-.35-.22-.53-.33-.2-.13-.4-.26-.61-.38s0 0 0-.01h-.02s0-.01 0-.01-.01 0-.02 0c-.08-.04-.16-.09-.23-.13-.23-.16-.47-.3-.72-.45-.02 0-.04-.02-.06-.02s-.01-.02-.02-.02c-.02-.04-.05-.07-.09-.09-.06-.04-.14-.07-.22-.08h-.04c-.98-.67-1.96-1.32-2.96-1.96-.03-.04-.07-.06-.11-.08-.02-.02-.04-.03-.07-.04-2.2-1.39-4.46-2.67-6.88-3.67-2.25-1.27-5.08-.69-7.59-.99-2.26-.1-4.52-.23-6.78-.24-7.46.04-14.93.1-22.39-.22-24.52-.59-49.05-1.01-73.58-.62-24.53.55-49.07.61-73.59 1.11-21.18.41-42.34 1.45-63.54 1-5.44-.24-10.87-.07-16.3.09-4.03.12-8.05.25-12.08.21-.61-.04-1.21-.04-1.82-.14-.15-.01-.29-.08-.39-.18 1.44-.44 2.89-.84 4.36-1.21 2.89 0 5.78-.14 8.67-.29 3.75-.19 7.51-.37 11.26-.24 24.04.61 48.06-.55 72.1-1.01 40.39-.47 80.79-1.62 121.19-1.01 13.53.28 27.06.77 40.59.75 4.5-.1 8.99-.02 13.48.22 2.09.23 4.97-.21 6.68.91 5.84 2.27 10.67 6.3 15.89 9.56.46.29.93.57 1.4.85.02.02.04.04.05.05v.01s-.01 0-.02 0c0 0 .01.01.02.02s0 0 0 0h.01s0 0 0 0t0 0s0 0 0 0t0 0s0 0 0 0v.01s.01.02.02.02c0 0 0 0 0-.01.02.03.04.05.07.08-.02-.02-.03-.03-.04-.05.02.03.05.05.07.08s.03.03.05.05c0 .02.02.05.02.07.07.2.16.4.23.61.02.06.04.12.05.19v.02c0 .01 0 .03.01.04 0 .02 0 .04.01.07 0-.02 0-.04-.01-.05.05.23.07.47.09.7.01.22.02.45.02.66-.97-.56-1.92-1.16-2.87-1.77z"/><path d="m313.9 15.37c.06-.68.78-.74 1.32-.76.21-.5.79-.71 1.32-.69.02.15.04.3.05.45.02.3.02.61 0 .91 0-.02 0-.03 0-.05v.06s0 .01 0 .02l-.04.34c-.14.02-.29.03-.43.04-.77.08-1.55.14-2.32.21-.12-.02-.24 0-.36.02.05-.25.2-.47.44-.56z"/><path d="m.41 14.45c0-.13.01-.25.02-.38.16.03.32.12.48.32.13.04.24.12.32.22-.27-.06-.55-.12-.82-.16z"/><path d="m.37 15.75c-.04-.27.05-.61.27-.8-.06-.46.18-.98.69-1.01.32-.02.65.27.98.31.56.11 1.25.25 1.3.89-.2.04-.4.09-.59.16-.25.11-.5.23-.71.39s-.37.39-.5.62v.02c-.24.05-.47.09-.68.09-.39 0-.7-.14-.76-.69z"/><path d="m64.06 27.07c-15.78-.34-31.54-1.12-47.33-.64-4.5.01-8.98.55-13.48.5-1.09-.06-2.58.13-3.25-.92 0-.75 0-1.51.01-2.27v.11c0-.18 0-.35.02-.52h0c.05-1.43.12-2.86.19-4.3.07-1.39.1-2.79.16-4.18.05-.01.1-.02.15-.02 1.26.06 1.05 1.38.9 2.46-.04.14-.07.29-.1.43-.04.18-.07.35-.09.52-.03.27-.04.6.08.86-.07 1.89-.16 3.79-.03 5.67 4.54.55 9.16-.12 13.72-.19 3.26.02 6.53-.04 9.79-.1 4-.07 8-.15 12-.07 13.65.43 27.3 1.14 40.96.77 30.16-.26 60.29-2.08 90.46-1.8 7.37.09 14.74.07 22.11.04 5.61-.02 11.23-.04 16.84 0 14.45.12 28.89.64 43.35.68 16.59.09 33.16.18 49.75.28 1.84-.04 3.7-.03 5.55-.01 3.27.03 6.54.06 9.78-.23-.04.32-.08.64-.14.95-.02.11-.05.21-.08.32 0 .02-.02.04-.02.05-.06.12-.14.25-.21.37s0 0 0 0 0 .01-.01.02c-.04.04-.08.08-.12.12-.13.06-.27.11-.41.16-.67.04-1.43.03-2.3-.02-8.84.08-17.68.13-26.51-.1-28.45.07-56.89-.58-85.34-.89-1.91.02-3.82.04-5.73.05-2.11-.09-4.22-.18-6.34-.21-2.24-.04-4.48-.09-6.73-.14-2.45-.05-4.89-.04-7.34-.06-1.28-.02-2.56-.03-3.84-.03s-2.6 0-3.9 0c-2.53 0-5.06.04-7.59.14-.97.04-1.94.1-2.91.15-.87-.01-1.74-.02-2.61-.02-.71-.02-1.41-.03-2.12-.04-1.41-.01-2.83-.02-4.24.02-.74.02-1.48.05-2.23.1-.3.02-.59.04-.89.07-.41.02-.82.03-1.23.05-.65.03-1.3.07-1.95.13-10.43.25-20.85.59-31.28.9-.74-.06-1.48-.12-2.22-.1-2.16.06-4.33.1-6.49.2-1.73.08-3.45.17-5.17.28.05 0 .09 0 .14-.01-.08 0-.16.01-.23.02-9.54.23-19.07.4-28.6.4-.95 0-1.9 0-2.85 0z"/><path d="m315.29 14.28c.56 0 .56 1.05 0 1.05s-.56-1.05 0-1.05z"/><path d="m314.48 22.84c.02-.05.03-.11.02-.16.01-.07.02-.14.04-.21.2-2.24.61-4.46.95-6.69.02-.58.57-1.3 1.11-.91v.42c0-.02 0-.03 0-.05v.06s0 .01 0 .02c-.04.43-.1.85-.14 1.28-.04.48-.12.96-.18 1.44-.04.34-.1.68-.14 1.02-.05.43-.11.86-.15 1.3-.04.45-.09.89-.14 1.34-.03.23-.05.46-.09.69-.03.25-.05.5-.06.75 0 0 0-.02 0-.03v.05-.02s0 .03 0 .05c0 0 0 0 0-.02v.05-.04c-.02.22-.04.45-.05.67v-.02s0 .02 0 .02v.02s0 .04 0 .05c-.02.24-.04.48-.08.71-.99-.02-1.16-.98-1.06-1.8z"/><path d="m315.72 15.31c.42 0 .42.8 0 .8s-.42-.8 0-.8z"/><path d="m56.88 28.03c-7.87.1-15.72-.59-23.57-1.01-9.52.09-19.05.05-28.56.42-.94.03-1.84.54-2.79.32-.71-.25-1.68-1.23-1.16-1.98.48-.45.74.2 1.03.5.48.26 1 .07 1.54-.11.36-.13.73-.25 1.08-.24 10.04-.43 20.12-.5 30.16-.42 6.21.38 12.4 1.2 18.61 1.43 12.41.34 24.82-.33 37.23-.41 3.13 0 6.36-.07 9.46-.09-1.39.07-2.79.14-4.17.23-.04 0-.08 0-.12 0-.06 0-.11 0-.17.01l-.53.04c-.08 0-.15 0-.23.02-.03 0-.05 0-.09 0-.12 0-.23.02-.35.02-1.61.1-3.21.31-4.82.5s-3.24.3-4.86.45c-2.98.05-5.95.07-8.93.12-5.02.08-10.04.22-15.06.22-1.23 0-2.46 0-3.69-.03z"/><path d="m94.59 26.74s.06 0 .09 0h.04c-.05 0-.1 0-.15.01h.03z"/><path d="m94.91 26.72c-.05 0-.11 0-.16.01.05 0 .11 0 .16-.01z"/><path d="m95.43 26.68c.06 0 .11 0 .17-.01h.12.02l-.35.02s.03 0 .05 0z"/><path d="m46.83 27.26c-.03-.21.08-.54.33-.56 2.1-.25 4.21-.26 6.32-.28 7.79-.04 15.59.06 23.38.34-9.45.71-19.21.5-28.75.84-.23 0-.53.09-.78.09s-.46-.08-.5-.42z"/><path d="m101.12 25.85c-1.28.31-2.77.42-4.11.69v.04c-.27.02-.54.03-.8.05-1.29-1.65 4.1-.97 4.92-.78z"/><path d="m.58 20.41c-.18-.19-.19-.52-.04-.73.14-.2.41-.24.59-.05.27.37.67.63 1.13.64.96.04 1.91-.02 2.86-.06.84-.04 1.68-.08 2.53-.07 12.29.31 24.72.05 36.94.75-10.95.38-21.9.52-32.85.41-2-.05-4.01-.17-6.01-.08-.47-.02-.98.02-1.5.07-.42.04-.85.07-1.26.07-.92 0-1.77-.18-2.38-.95z"/><path d="m35.89 8.58c-7.62-.5-15.69-.77-23.07-.02-.04-.12.02-.29.16-.32 2-.45 4.06-.56 6.11-.61 5.3-.2 10.61.12 15.91.43 8.12.4 16.25.2 24.38.3.02 0 .02.02 0 .03-5.63.1-11.26.32-16.89.32-2.2 0-4.39-.03-6.59-.12z"/><path d="m8.52 9.73c6.46.16 12.92-.05 19.37-.43 2.1-.07 4.34-.23 6.36-.23-6.55.38-13.1 1.11-19.67 1.15-2-.01-4.16-.12-6.06-.49z"/><path d="m290.04 7.74c-18.28-.21-36.57-.5-54.86-.57-.01 0-.01-.02 0-.02 13.1-.28 26.21-.22 39.31-.15 10.07.05 20.13.1 30.2 0t0 0c.09-.16.28-.15.45-.15h.21c.09.02.19 0 .3 0 .21-.02.42-.04.54.14.15.05.21.27.13.41-.2.25-.64.09-.92.21-.03 0-.06.02-.09.03-.06-.04-.12-.06-.2-.06h-.02-.02s-.02 0-.02 0h-.01.01s-.01 0-.02 0c-.05-.02-.1-.02-.16-.03-.12 0-.23.02-.34.05-2.91.13-5.82.17-8.74.17-1.93 0-3.86-.02-5.79-.02z"/><path d="m303.39 9.85c-.62 0-1.25-.02-1.87-.01-6.18-.11-12.36-.32-18.54-.47 7.21-.17 14.64-.12 21.92-.17.26.03.66 0 1.08-.02.98-.06 2.04-.12 1.53.55-.87.11-1.75.14-2.64.14-.49 0-.99 0-1.49-.02z"/><path d="m2.88 26.07c-.73-.4-1.62-.66-2.14-1.36-.43-.85-.61-1.77-.65-2.72.02-.57.05-1.13.08-1.7.15-1.27.47-2.54.77-3.7-.48-.21.05-.75.2-1.04.14-.16.25-.55.51-.44.12.07.16.25.1.38 0 .21-.05.42-.1.63.11 0 .17.05.21.12-.02.02-.03.04-.04.07-.26.44-.36.93-.47 1.41-.04.18-.07.35-.09.52-.04.35-.04.8.22 1.07 0 .08.03.15.05.23.04.11.1.21.18.3-.11 1.14-.12 2.3-.27 3.42-.73.79-.38-1.64-.41-2-.47-.2-.06-1.07-.09-1.49-.06.04-.13.05-.2.02-.13 1.5-.34 3.16.38 4.49.47.7 1.46.68 1.93 1.31.15.26.29.46-.07.46h-.08z"/><path d="m2.78 15.37c.15-.14.41-.46.6-.22.47-.48.79-.34.74-.06-.38.03-.75.07-1.1.22-.21.09-.43.2-.62.33.1-.13.22-.23.38-.27z"/><path d="m13.89 7.19c-.11-.45.4-.5.71-.59 2.43-1.14 5.11-2.14 7.68-2.68 1.61-.36 3.22-.71 4.85-1 .38.02.39.66.03.74.09.07.14.21.14.32v.03c11.93-1.66 23.96-2.26 35.99-1.96.02 0 .02.03 0 .03-9.5.2-18.98.9-28.44 1.82-7.18.57-14.34 1.77-21.15 4.09-.39-.19-.18-.72.2-.8z"/><path d="m310.62 14.4c.24-.01.48-.03.71-.06 0 0-.01 0-.02 0h.03.08c-.02 0-.04 0-.06 0 .03 0 .07 0 .1-.01.07-.01.14-.02.21-.02-.02 0-.04 0-.06 0 .2-.02.38-.04.57-.07-.02 0-.04 0-.05 0 .28-.05.55-.12.82-.24.16-.07.32-.14.46-.24.12-.09.32-.23.3-.4 0-.01 0-.02 0-.04s0-.03 0-.05c.2-.11.46-.16.65-.11.21-.14.45.04.41.28.02 0 .04.01.06.02.1.05.14.18.13.29.29.36-.15.6-.47.67-.14.05-.31.18-.44.05-.04 0-.08 0-.12 0-.03-.01-.06-.03-.08-.05-.23.04-.48.21-.71.14-4.23.77-8.68 1.12-12.88 1.51 3.44-.55 6.88-1.06 10.32-1.66z"/><path d="m310.31 14.42c.33-.02.66-.04.99-.08t0 0s0 0 0 0h.02.02s.01 0 .02 0 .02 0 .03 0h.02.04s-.01 0-.02 0h.03s0 0-.01 0h.01.04-.02c.05 0 .11-.01.16-.02.2-.02.38-.04.57-.07-.01 0-.02 0-.03 0 .02 0 .04 0 .06-.01-.82.93-9.34 1.75-9.98 1.75 2.66-.56 5.43-.83 8.05-1.56z"/><path d="m313.45 24.83c-.82-.06-.14-.32.22-.48.2-.06.31.21.22.37-.05.1-.14.12-.25.12-.07 0-.14 0-.2 0z"/><path d="m311.56 24.67c.88-.19 1.97-.25 2.92-.36.5.35-.24.43-1.11.43-.77 0-1.64-.07-1.81-.07z"/><path d="m305.98 25.79c-.87-.03-1.57-.06-1.96-.05-1.15-.14-2.4-.39-3.45-.74 1.98-.57 4.02-.91 6.08-.92 2.29-.21 4.72.14 6.95-.48.02 0 .04-.02.06-.03.2-.04.38-.14.52-.29.11-.11.23-.24.29-.39h.05c.33 0 .55.29.61.59.52 2.02-3.25 2.37-6.61 2.37-.91 0-1.79-.02-2.55-.05z"/><path d="m308.67 9.76s-.02-.01-.03-.02c-.04-.03-.09-.05-.14-.07-.29-.26-.21-.96.25-.96.56 0 .56 1.05 0 1.05-.03 0-.05 0-.08 0z"/><path d="m307.1 9.42c-.06-.53.6-.43.95-.51.29-.12.58.07.54.39 0 .3-.36.36-.57.34-.16 0-.38.06-.56.06s-.32-.06-.35-.29z"/><path d="m306.65 9.14c.26-.11.56-.11.83-.16.34-.03.98-.34.94.24-.02.11-.08.22-.19.26-.5.08-1.01.18-1.51.21-.24-.05-.26-.44-.07-.55z"/><path d="m.89 26.27c-.7-.42-.61-5.45.57-5.12.93.29.39 1.41.35 2.08.2.44.17.94.47 1.33.45.47.32 1.61-.48 1.52-.11.2-.33.32-.55.32-.12 0-.25-.04-.36-.13z"/><path d="m2.39 14.4c-.69-.76.09-1.38.74-1.77.27-.18.53-.49.87-.49.72-.37 1.64-1.46 2.48-1.2 3.34-1.52 6.36-3.72 9.77-5.09 4.62-1.86 9.79-2.18 14.64-2.05-4.51 1.36-9.23 2.05-13.67 3.59-3.09 1.18-5.78 3.18-8.78 4.57-1.29.47-2.54 1.71-3.64 2.07-.36.2-.79.62-1.2.33-.17.17-.45.29-.7.29-.2 0-.39-.07-.51-.26z"/><path d="m1.07 16.03c-.57-.77-.62-1.92-.13-2.73.58.77.31 1.87.13 2.73z"/><path d="m1.13 16c.56 0 .56 1.05 0 1.05s-.56-1.05 0-1.05z"/><path d="m312.95 14.74c.58 0 .71.85.39 1.23 0 0-.01 0-.02 0-.04 0-.09.02-.12.02-.16 0-.32.02-.47.04-.03 0-.05 0-.08.02-.42-.32-.32-1.31.3-1.31z"/><path d="m315.25 16.28v.02c-.16-.13-.21-.35-.39-.48-.39.07-.63-.38-.62-.71.03-1.14 1.48-.74 1.88-.04.39.46.05 1.35-.49 1.35-.12 0-.24-.04-.37-.14z"/><path d="m315.12 17.51c-.12-.44.11-.99-.19-1.37-.35-.14-.45-.6-.33-.92.29-.75 1.15-.18 1.42.29.33.58.39 1.32.32 1.96-.08.41-.35.63-.62.63-.26 0-.51-.2-.61-.6z"/><path d="m314.28 14.67c.42 0 .42.8 0 .8s-.42-.8 0-.8z"/><path d="m314.75 16.62c-.23-.3-.57-.45-.9-.61-.58-.29-.26-1.49.43-1.17.64.3 1.56.79 1.46 1.62-.04.38-.22.56-.44.56-.19 0-.4-.14-.56-.41z"/><path d="m5.19 13.86c-.34-.39.13-1.2.6-.75.34.31.07.93-.28.93-.1 0-.21-.05-.31-.18z"/><path d="m5.64 13.05c.57 0 .57 1.09 0 1.09s-.57-1.09 0-1.09z"/><path d="m7.3 14.66c-.47.04-1.32 0-1.38-.61-.41-.25-.42-.98.03-1.18.15-.75 1.11-.63 1.33 0 .52.27 1.14.38 1.59.74 1.26.3 2.65.53 3.84.9-1.14.18-2.34.49-3.51.49-.65 0-1.28-.09-1.89-.35z"/><path d="m7.3 14.56c-.9-.32-.92-1.43-.7-2.21.05-.26.31-.5.59-.39.6-.29.92.56.69 1.02.53.37 1.04.66 1.45 1.13-.49.27-1.07.43-1.62.28-.09.11-.21.18-.35.18-.02 0-.04 0-.06 0z"/><path d="m9.46 14.22c-.61-.14-2.06-.09-2-.95.04-.17.22-.36.41-.28 1.1.52 2.27.82 3.4 1.27-.15.02-.31.03-.48.03-.44 0-.92-.05-1.34-.08z"/><path d="m.91 21.11c-.65-.24-.56-1.12-.52-1.7.18-1.6.06-3.29.84-4.75.3-.75 1.14-.11.86.5-.97 1.76-.39 3.94-.91 5.77-.05.08-.13.18-.24.18 0 0-.02 0-.03 0z"/><path d="m.12 18.42c-.08-.39.09-.79.25-1.14.06-.13.12-.26.19-.38-.11-.16-.15-.37-.12-.55-.4-.43-.27-2.6.66-2.02.08-.02.17-.02.26.02.18-.33.6-.55.87-.2.13-.11.27-.22.43-.25.14-.03.25 0 .35.07.35-.11.64.25.68.57 1.46-.26 3.08-.19 4.5-.07-1.79.6-3.77.92-5.41 1.86-.73.45-1.16 1.18-1.44 1.97-.09.39-.38.63-.66.63-.22 0-.44-.16-.55-.51z"/><path d="m2.46 25.99c-.22.06-.41-.08-.59-.23-.37-.2-.79-.52-.79-.98-.25-.5-.86-1.21-.34-1.71.22-.18.53-.07.64.17.16.33.34.72.55 1.01 1 .91 2.8.58 3.95 1.22-.78.37-1.63.65-2.49.65-.32 0-.63-.04-.95-.12z"/><path d="m1.78 27.57c-1.07.07-2.05-1.58-1.03-2.27.37-1.3 1.45.2 1.52.87 1.35 0 2.83.04 4.09.37-1.36.46-2.74 1.05-4.19 1.05-.13 0-.26 0-.39-.01z"/><path d="m304.48 26.53c-1.78-.14-3.65-.5-5.34-.89 1.81-.36 3.61-.75 5.46-.9.79-.08 1.62-.07 2.44-.07 1.22 0 2.45.02 3.58-.25.7-.1 1.93-1.09 2.26-.04.22.89-.7.95-1.31 1.18-1.76.79-3.68 1.01-5.59 1.01-.5 0-1-.02-1.5-.04z"/><path d="m295.08 27.39c-8.06-.19-16.09-1.02-24.14-1.46 7.52-.66 15.13-.61 22.75-.56 6.36.04 12.73.09 19.05-.29.4-.95 1.41-.18 1.09.62-.52 1.52-3.54 1.52-5.84 1.52-.8 0-1.52 0-2 .06-2.65.07-5.29.13-7.94.13-.99 0-1.99 0-2.98-.03z"/><path d="m312.16 26.24c-.8.36-1.33-.65-.73-1.19.61-.23 1.66-1.16 1.95-.11.75.32.53 1.21-.21 1.36-.11 0-.22 0-.33 0-.14 0-.28 0-.42.01-.1 0-.19-.03-.27-.08z"/><path d="m26.46 28.8c-7.25-.12-14.52.14-21.75-.61-.18-.01-.41 0-.66 0-1.41 0-3.6 0-2.97-1.69.47-.62.79.11 1.29.13 4.41-.01 8.82.06 13.23.13 4.36.07 8.72.14 13.09.13 10.27-.66 20.54-.41 30.82-.31-5.59 1.44-11.52 1.62-17.32 1.64-4.76.05-9.5.61-14.25.61-.49 0-.98 0-1.48-.02z"/><path d="m311.21 26.69c-.1 0-.2 0-.29-.03-.21-.07-.32-.27-.35-.49-.53.15-.87-.48-.62-.92.39-.52 1.22-.28 1.79-.45.29-.02.67-.1.83.2.01 0 .02.01.04.02.2 0 .44-.07.6.09.19-.04.42-.09.59.02.88-.14.94 1.3.11 1.38-.38.36-1 .32-1.47.46-.19.06-.42.12-.63.12-.26 0-.49-.09-.6-.39z"/><path d="m309.9 26.38c-.38.07-.66-.32-.69-.66-.04-.36.13-.8.52-.88 1.31-.28 2.44-.62 3.66-.99 1 .19.68 1.58-.25 1.68-.32.98-1.71.84-2.49 1.29-.06.02-.12.04-.17.04-.26 0-.49-.23-.57-.49z"/></g></svg>