<svg viewBox="0 0 150 149.42" xmlns="http://www.w3.org/2000/svg" xmlns:xlink="http://www.w3.org/1999/xlink"><clipPath id="a"><path d="m0 0h150v149.42h-150z"/></clipPath><g clip-path="url(#a)"><path d="m147.45 2.09c.54.1.83.66.77 1.13-.03.27-.18.5-.47.6-.09.03-.19.05-.31.05-.09 0-.18 0-.29-.03l.05.02c-.06 0-.13 0-.19 0-.82-.02-1.64-.07-2.46-.11s-.09 0-.13 0h-.11c-.06-.02-.12-.02-.18-.03-.11-.01-.22-.02-.32-.03h-.02c-.06 0-.11-.02-.17-.02-.13-.03-.27-.06-.4-.08s-.26-.01-.4 0c-.19 0-.37.02-.55.02 0 0-.02 0-.03 0h-.02c-.27-.02-.55-.04-.82-.06-1.49-.11-2.97-.23-4.46-.32-2.36-.11-4.72-.07-7.08-.03-.14 0-.29 0-.43 0-.17 0-.34 0-.5 0-.63.01-1.25.02-1.87.03-.76 0-1.52 0-2.28 0-.45 0-.89-.02-1.34-.03-.86-.03-1.72-.06-2.57-.08-.86-.03-1.72-.05-2.57-.06-.08 0-.15 0-.23 0-.04 0-.09 0-.13 0-1.49-.03-2.98-.05-4.47-.06-13.45-.12-26.91.33-40.35.42-2.97-.07-5.95-.14-8.92-.21h-.06c-.13 0-.26 0-.39 0-2.02-.05-4.03-.1-6.05-.14-2.06-.05-4.11-.09-6.17-.13-.09 0-.18 0-.27 0-.26 0-.51-.01-.77-.02-1.72-.03-3.44-.06-5.16-.08-1.09-.02-2.18-.03-3.28-.04-.2 0-.4 0-.6 0-1.42-.02-2.85-.03-4.27-.03-5.04-.32-10.05-.27-15.06-.23-.83 0-1.66.02-2.5.02-1.53 0-3.06.02-4.6 0-1.43-.01-2.86.1-4.29.23-.02 0-.04 0-.06 0-.14.01-.28.03-.42.04-.12.01-.24.02-.35.03-.62.06-1.24.12-1.86.16h-.02-.21c-.17 0-.34 0-.5.02h-.1l-.1.02h-.1s-.03.02-.04.02-.02 0-.03 0-.02 0-.03 0c-.05 0-.09.01-.13.02-.52.03-1.03.05-1.55.05-.04 0-.07 0-.11 0h-.25c-.11 0-.23 0-.34 0-.06 0-.13 0-.19 0-.12 0-.24 0-.36-.01-.07 0-.14 0-.21 0-.18-.02-.37-.04-.55-.06-.16-.02-.32-.05-.48-.08-.23-.05-.44-.12-.65-.23-.02-.02-.05-.03-.06-.05-.14-.16-.08-.47.14-.53.85-.02 1.87-.16 2.7-.27 1.08-.19 2.17-.35 3.25-.49 8.89-1.19 17.89-.67 26.85-.59 2.7.22 5.4.18 8.1.15 1.28-.02 2.55-.03 3.83-.02 6.5.27 13.01.51 19.51.42 7.32.57 14.59.07 21.89-.03 16.35-.2 32.77-.04 49.11.11 3.33.24 6.72.52 10.04.64z"/><path d="m5.33 2.69s0 .07 0 .1c0 .06-.01.1-.03.15-.02.04-.03.07-.06.1-.03.04-.07.07-.12.1-.1.07-.23.11-.37.15-.06.02-.12.03-.19.04-.02 0-.03 0-.04 0-.05 0-.1.02-.16.02-.3.04-.59.05-.77.07-.23-.1-.42 0-.56.26-.1.16-.18.39-.26.67-.04.16-.08.34-.11.53-.01.06-.02.11-.03.18-.05.29-.08.6-.11.93v.03c-.02.16-.03.32-.04.48-.04.56-.06 1.16-.08 1.78 0 .19 0 .39-.01.59v.51.4.86 1.07.89.24.29.24.22c0 .23 0 .45-.02.63v.03c-.01.21-.02.39-.04.53 0 .03 0 .06-.01.09s-.01.06-.02.09v.16c0 .13-.01.25-.01.38v.18s0 .12 0 .18v.16.26c0 .24-.01.48-.02.72-.02.74-.02 1.49-.02 2.23 0 1.46.02 2.91.05 4.36.04 1.61.1 3.22.16 4.84v.2c.04.89.08 1.78.13 2.67 0 .11 0 .21.02.32.04.73.08 1.46.12 2.19 0 .12.01.24.02.36.02.25.03.5.04.75.02.35.04.71.06 1.08l.12 2.1c.1 1.75.2 3.51.29 5.27 0 .18.02.35.03.52.05 1.02.09 2.04.13 3.05.05 1.2.09 2.41.11 3.61v.08c.02.87.03 1.75.04 2.62.01.98 0 1.95 0 2.92 0 .54-.02 1.09-.03 1.63-.02 1.07-.06 2.15-.11 3.22-.53 5.35-.47 10.73-.87 16.1-.35 5.26-.67 10.51-.35 15.78-.09 7.25-.31 14.61-.09 21.81.06.8.1 1.61.12 2.41.05 1.86.02 3.72-.02 5.58v.18c-.03 1.08-.05 2.16-.07 3.25-.03 1.42-.03 2.83 0 4.25 0 .27.01.53.02.8.13 1.02.22 2.04.28 3.06.02.27.03.52.04.78v.15c.01.27.02.53.03.8.03.79.05 1.59.06 2.38v.26.27.06c0 .48.02.97.02 1.46 0 .53.02 1.06.03 1.59 0 .25.01.51.02.76.01.37.03.74.04 1.1 0 .16.02.32.02.48.05.96.11 1.93.22 2.88 0 .1 0 .19.02.27.03.35.09.56-.03.94 0 .02-.01.03-.02.05-.16.42-.76.67-1.1.29-1.06-3.04-.26-6.5-.65-9.65-.14-5.53-.77-10.94-.39-16.47.14-5.9-.22-11.75-.28-17.61.12-4.02.31-8.04.26-12.06-.48-14.92 1.79-29.83 1.31-44.75-.59-12.1-1.74-24.23-1.11-36.37.05-2.62-.03-5.26.47-7.85.03-.3.1-.56.2-.77.1-.23.24-.41.4-.56.27-.24.61-.37.99-.41.23-.03.47-.02.71 0 .16.02.33.05.5.1.27.07.54.16.8.28.1-.07.23-.1.3.01 0 0 .01.02.02.02z"/><path d="m2.82 148.79c0-.3.4-.34.39-.02 0 .3-.4.34-.39.02z"/><path d="m148.47 145.74s-.02.1-.02.14c-.02.1-.03.2-.05.3s-.03.2-.04.3c-.04.12-.08.25-.12.38-.22.1-.42.21-.63.35-.06.05-.13.09-.2.14-.04.03-.08.06-.11.1-.04.03-.07.07-.11.11l-.02.02c-1.92.1-3.91.26-5.78.5-7.98.76-16.01.69-24.03.62-4.28-.03-8.56-.07-12.83.02-12.41-.16-24.8.38-37.2.38-5.75-.66-11.53-.56-17.3-.47-2.66.05-5.32.08-7.97.06-11.42.28-22.85.08-34.28.4-1.02 0-3.43 0-4.59-.43-.08-.03-.16-.06-.22-.1-.03-.02-.06-.03-.08-.05-.38-.22-.48-.53-.11-.96.05 0 .11-.02.16-.03.79-.13 1.62-.12 2.46-.12.62 0 1.24 0 1.85-.05 10.67-.37 21.35-.21 32.01-.36 6.86-.14 13.71-.12 20.57-.26 3.27.11 6.51.68 9.79.62 6.99-.17 13.98-.27 20.96-.33h.02c3.68-.03 7.36-.06 11.04-.07 10.09-.04 20.17-.04 30.26-.08 2.06 0 4.12-.1 6.17-.26.38-.03.76-.06 1.14-.1 1.99-.17 3.98-.39 5.96-.59.67-.03 1.34-.1 2.01-.13.43-.03.87-.05 1.3-.04z"/><path d="m148.63 144.92c-.03.13-.05.26-.07.38-.03.19-.07.39-.11.59-.02.1-.03.2-.05.3s-.03.2-.04.3c-.04.13-.08.25-.12.38-.22.1-.42.21-.63.35-.06.05-.13.1-.2.15-.04.03-.08.06-.11.1-.04.03-.07.07-.11.11-.01-.06-.02-.12-.02-.18 0-.53 0-1.06 0-1.59 0-2.62-.05-5.23-.11-7.84v-.53c-.02-.5-.03-1-.05-1.5 0-.4-.02-.8-.03-1.2 0-.1 0-.19 0-.28-.01-.43-.02-.85-.03-1.28 0-.05 0-.1 0-.14-.05-2.16-.1-4.32-.13-6.48v-.06c0-.17.01-.34.02-.51 0-.25 0-.5 0-.75 0-.27-.02-.54-.03-.81v-.02c-.03-3.34-.03-6.68.07-10.04.08-2.4.16-4.8.24-7.2.01-.33.02-.65.03-.98.07-2.18.13-4.36.19-6.54.02-.66.03-1.31.05-1.96.02-.73.03-1.46.05-2.2.02-1.11.04-2.21.06-3.32 0-.08 0-.16 0-.24v-.02c0-.67.02-1.33.02-1.99 0-.63.02-1.27.02-1.9 0-.81.01-1.61.01-2.42 0-.72 0-1.44 0-2.15-.02-2.33.13-4.68.27-7.04 0-.1.01-.21.02-.31v-.02c.02-.35.04-.69.06-1.04s.04-.69.06-1.04v-.23c.05-.74.08-1.49.1-2.23.02-.54.02-1.08.02-1.62s0-1.03-.02-1.55c-.08-1.71-.16-3.43-.24-5.14-.08-1.72-.16-3.43-.24-5.15-.02-.42-.04-.84-.06-1.25-.21-4.42-.41-8.84-.61-13.24-.01-.32-.03-.63-.04-.93-.02-.39-.03-.77-.05-1.15.02-.95.05-1.9.08-2.85.02-.65.04-1.3.06-1.96.03-.73.05-1.47.08-2.2.03-.79.06-1.57.09-2.36.02-.67.05-1.35.07-2.02v-.02c.01-.37.03-.73.04-1.09.06-.05.11-.11.14-.19.06-.26.11-.53.12-.8 0-.25 0-.5 0-.75s-.02-.51-.02-.77c0-.07 0-.13 0-.2.03-.27.05-.55.06-.82.03-.58.05-1.16.07-1.75.02-.45.02-.89.02-1.34 0-.25 0-.5-.02-.76-.01-.32-.03-.65-.05-.97v-.02c-.01-.15-.02-.29-.03-.44v-.02c0-.09 0-.17-.02-.24 0-.07-.01-.14-.02-.21v-.02c0-.63.02-1.27.02-1.9 0-1.14 0-2.26 0-3.39 0-.26 0-.52 0-.78v-.78s-.01-.07-.02-.1c0-.14 0-.28 0-.42 0-.06 0-.13 0-.2 0-.16-.01-.32-.02-.47 0-.06 0-.13 0-.2v-.35c-.01-.07-.01-.13-.02-.2v-.02c0-.14 0-.27-.02-.41 0-.03 0-.06 0-.1 0-.08 0-.15 0-.23 0-.18-.01-.36-.02-.54 0-.06 0-.12 0-.18 0-.19-.02-.39-.03-.59 0-.13-.01-.26-.02-.39 0-.04 0-.08 0-.12s0-.08 0-.12v-.24h-.01s0-.08 0-.13c0-.03 0-.07 0-.11l-.03-.61c0-.09 0-.17-.02-.25s0-.02 0-.02v-.24c-.02-.14-.03-.27-.04-.4 0-.04 0-.08 0-.12 0-.07 0-.14-.02-.21 0-.17-.02-.35-.03-.52 0-.01 0-.02 0-.03 0-.02 0-.05 0-.07 0-.12 0-.24-.02-.37 0-.06-.01-.12-.02-.18-.02-.11-.03-.23-.05-.34 0-.06-.02-.13-.02-.2-.02-.11-.03-.22-.03-.32 0-.02 0-.03 0-.05 0-.12 0-.23 0-.35.03-.28.11-.55.31-.79.43-.4.82.11.9.54 0 .06.01.11.01.16 1.52 12.72.17 25.63 0 38.38.4 9.48.96 18.89 1.24 28.32-.67 12.61-.47 25.25-.98 37.87-.53 12.33-.1 24.64.13 36.95z"/><path d="m147.17 134.59c.29.39.21 1-.15 1.32l-.02.03c-.99.3-2.1.26-3.19.21-.49-.02-.98-.04-1.45-.03-7.95-.21-15.88-.38-23.81-.07-.03 0-.07 0-.11 0-1.29.05-2.59.11-3.88.2-.32.02-.64.04-.97.06s-.06 0-.1 0c-2.11-.05-4.21.02-6.31.1-.2 0-.4.02-.6.02-.32.02-.64.03-.97.03-1.61.05-3.21.09-4.82.05-2.15-.04-4.34-.2-6.52-.35-.14-.01-.28-.02-.42-.03-1.16-.08-2.32-.16-3.47-.22-.48-.03-.95-.05-1.42-.06-.37-.02-.73-.02-1.1-.03-9.45-.4-18.89-.06-28.34.27-6.41.23-12.83.46-19.25.46-1.55 0-3.1-.02-4.64-.05-1.71-.05-3.43-.08-5.15-.09-.25 0-.5 0-.75 0h-.02c-2.33 0-4.67.02-7.01.04-2.74.03-5.49.05-8.23.03-.23 0-.46 0-.69 0-3.76-.03-7.53-.16-11.27-.49-.14-.01-.28-.03-.42-.04-.13.06-.24-.09-.27-.21-.08-.16-.07-.34.04-.49.09-.12.2-.18.33-.2.08-.02.18-.02.27-.02h.22s.07-.01.11-.02c.17 0 .34-.02.5-.02h.05c.1 0 .21 0 .31-.02h.16c.09 0 .18-.01.27-.02s.09 0 .13-.01c.14 0 .27-.02.41-.02.23-.02.47-.03.7-.05h.09c.11 0 .21-.02.32-.02h.14c.43-.04.87-.07 1.3-.1.15 0 .29-.02.44-.03.11 0 .23-.02.34-.02.31-.02.61-.03.91-.05.19-.01.39-.02.59-.03.13 0 .27-.01.4-.02.59-.02 1.19-.03 1.78-.03h.39c.43 0 .85.02 1.27.03h.3c.16.02.31.03.47.04h1.05c4.11 0 8.23 0 12.35.02 7.86.03 15.72.06 23.58-.05 9.89-.18 19.76-1.01 29.65-.75 7.56-.13 15.02.83 22.54.85 7.79-.07 15.57-.53 23.37-.69 2.71 0 5.43.07 8.15.15.44.01.88.03 1.32.03.43.02.86.03 1.29.03h.06.35c.11.09.25.15.39.19.02 0 .04.01.06.02.03 0 .06.02.09.02h.06s.01.02.02.02h.02s.04 0 .06.01h.05c.04 0 .08.01.12.01h.17.05.26c.16 0 .31-.01.47-.02.1 0 .2-.02.31-.02.05 0 .11 0 .16-.02.14-.02.29-.03.44-.05h.02c.1-.01.21-.03.31-.04h.1s.03-.02.04-.02c.04 0 .08.01.12.01.16 0 .32 0 .48-.03.06 0 .11-.01.17-.02h.05.29c1.1 0 2.2 0 3.29-.02h.4.1.29.18.3c.13.02.26.05.37.13.04.02.08.05.12.09l.06.06z"/><path d="m147.69 13.08c.16.25.21.54.13.83 0 .02 0 .04-.02.06-.05.19-.17.34-.32.45-.21.15-.48.24-.76.3h-.01s-.08.02-.12.03c-.04 0-.08 0-.11.02-.04 0-.08.01-.12.01-.14.02-.27.03-.4.03-.12 0-.23 0-.33.01h-.27l-.19.02c-.16 0-.32.02-.48.02-.1 0-.2.01-.3.02-.05 0-.1 0-.15 0-.4.02-.81.05-1.22.07-.14 0-.28.02-.42.02-.83.05-1.67.09-2.5.11-.13 0-.26 0-.39.01-.4.01-.81.02-1.22.01-.18 0-.35 0-.53 0-.12 0-.24 0-.36 0-.06 0-.13 0-.19 0-.08 0-.17 0-.25 0-.22-.01-.45-.02-.67-.04-.03 0-.06 0-.09 0s-.06 0-.1 0c-9.05-.68-18.13-.14-27.2-.09-10.97.1-21.93.28-32.89.81-16.24-.17-32.45.19-48.68.4-4.06 0-8.11.33-12.17.61-.02 0-.04 0-.06 0-.34.02-.68.05-1.02.07-.03 0-.07 0-.1 0-.09 0-.18.01-.26.02-.2.02-.4.03-.59.04-.17.01-.34.02-.51.03h-.16c-.1.02-.21.02-.31.03-.22.02-.44.03-.66.03-.13.01-.26.02-.39.02-.21.02-.43.02-.64.03-.01 0-.02 0-.03 0-.05 0-.1 0-.14-.01l-.18-.02c-.07 0-.14-.02-.22-.03s-.15-.02-.22-.02c-.14-.02-.27-.03-.41-.04-.14-.02-.27-.02-.41-.03-.21-.01-.41-.02-.61-.03-.26-.01-.51-.03-.77-.03-.25 0-.49 0-.73.03-.23.02-.46.06-.69.11s-.46.1-.69.15c-.08 0-.15 0-.23 0-.15 0-.3 0-.45 0-.16 0-.32 0-.48 0s-.32 0-.47 0c-.25 0-.49-.01-.74-.02-.17 0-.34-.02-.51-.03-.11 0-.23-.02-.34-.03-.03 0-.06-.02-.09-.03-.09-.03-.17-.1-.23-.18-.06-.07-.09-.16-.1-.25-.02-.25.13-.45.35-.56.02-.01.04-.02.06-.03.06-.03.13-.05.2-.05.85-.07 1.71-.14 2.57-.21.87-.07 1.75-.14 2.62-.21.17-.02.33-.03.5-.04.24-.02.49-.04.73-.06.12.02.23.03.35.05h.02c.1.02.21.03.31.04.38.04.75.07 1.13.08h.01.19.19c.22 0 .45-.02.67-.03.35-.02.72-.04 1.07-.1.16-.03.32-.05.48-.09.03 0 .05-.01.08-.02.05-.01.09-.02.13-.04.07-.02.14-.04.21-.06.04-.01.08-.02.11-.04.01 0 .03 0 .04-.02.06-.02.11-.04.17-.06.03-.01.07-.03.1-.05.02 0 .03-.02.05-.03.02 0 .03-.02.05-.03.13 0 .25-.02.37-.02.53-.03 1.05-.07 1.57-.1.45-.03.9-.06 1.34-.08 5.36-.32 10.74-.51 16.11-.5 14.84-.47 29.67-.25 44.5-.45.62 0 1.24-.02 1.86-.03h.06c9.3-.56 18.6-.54 27.91-.66 6.67-.06 13.35-.33 20.02-.26h.19c2.15.02 4.29.08 6.43.19.96.05 1.91.11 2.87.19.99.03 1.98.02 2.97-.02h.05s.02 0 .03 0h.04c.19.02.38.03.57.04.36.02.71.03 1.06.05h.04s.02 0 .03 0c.32.03.63.06.95.07h.55.29.09c.29 0 .58 0 .87-.01.1 0 .19 0 .28-.02.06 0 .13-.02.18-.05.17.07.35.1.55.07.16-.02.31-.06.45-.15.09-.06.16-.13.21-.22.06-.04.1-.1.12-.18.01-.03.02-.05.02-.08.15-.03.3-.05.43-.03.06 0 .11.03.16.05.09.04.16.11.23.21z"/><path d="m14.5 17.45c0-.3.4-.34.39-.02 0 .3-.4.34-.39.02z"/><path d="m13.69 136.43c-.6-.85.07-1.98.07-2.93.08-3.87.71-7.75.82-11.58-.51-5-.41-10.01.2-15 .27-3.42.04-6.86.14-10.28.03-4.99-.39-9.92-.83-14.87-.39-8.39-.52-16.85.2-25.19-.23-6.18-.05-12.32.02-18.49-.09-3.62-.59-7.37-.11-10.95.18-2.49.12-4.99.1-7.49.12-.89-.37-2.16.45-2.75.18-.08.38.05.45.22.41-.06.42.6 0 .5 0 .08 0 .15 0 .14.62 4.37.36 8.89.2 13.24.38 5.94.35 11.89.15 17.85.03 4.53.35 9.02-.27 13.49-.26 5.92.04 11.76.11 17.65.8 8.17 1.07 16.37.92 24.58-.14 4.04-.87 8.05-.65 12.1.05 1.93.32 3.84.35 5.77-.04 2.57-.62 5.11-.64 7.68-.2 1.28.08 7.66-1.71 6.32z"/><path d="m136.17 134.5c-.23-.31-.17-.71-.18-1.07-.02-4.47-.25-8.95-.25-13.42.37-4.5 1.35-8.95 1.35-13.49.92-12.39.27-24.8.27-37.19.17-7.45.13-14.89-.83-22.25-.71-6.85-1.81-13.77-1.26-20.66.06-3.67-.03-7.39.97-10.95-.27-.18-.14-.32.12-.39.08-.18.2-.37.41-.38.24-.01.4.25.39.48-.36 2.67-.42 5.36-.44 8.05v.06c-.08.53-.08 1.09-.06 1.63.02.49.01.98.03 1.48-.45 4.02.13 7.97.37 11.98.42 6.06 1.6 12.24 1.68 18.3.34 5.54-.07 11.03.09 16.57-.07 8.41.5 16.79.06 25.18-.18 7-.6 13.99-1.69 20.91-.03 1.7-.01 3.4.03 5.11 0 .56 0 1.12.02 1.68 0 .08-.01.16-.02.24-.02.34-.03.67-.04 1.01-.02.73-.04 1.46-.05 2.18v-.07c0 .54 0 1.08.04 1.62.02.33.06.66.13.98v.35.59c0 .12.01.25.07.36-.03.05-.05.11-.05.18s.03.13.06.17c0 .04.02.07.03.1-.02.17-.06.33-.14.51-.12.25-.39.41-.65.41-.18 0-.36-.08-.48-.27z"/><path d="m138.14 134.48c.22.06.47.08.69.08h.26c-.06.14-.14.25-.31.26-.09.17-.19.24-.29.24-.2 0-.37-.29-.36-.57z"/><path d="m145.34 134.35v-.07c.1 0 .2-.01.29-.02.1-.02.22-.02.31-.07-.1.16-.22.24-.36.24-.08 0-.16-.03-.25-.08z"/><path d="m147.17 122.59c.16 3.46.31 6.98-.22 10.42 0 .05 0 .09-.02.14-.02.15-.05.3-.07.45-.04.16-.1.54-.24.7-.04.05-.08.08-.14.08-.05 0-.1-.02-.16-.07.02-.32.05-.62.06-.93 0-.01.01-.02.02-.03.01-.04.02-.09.03-.13 0-.04.01-.09.02-.13 0-.01 0-.03 0-.04 0-.07.02-.15.02-.22v-.02c.06-.15.09-.31.12-.47 0 0 0-.01 0-.02.01-.08.02-.15.03-.22.07-.55.1-1.11.1-1.67v.03c0-.51-.01-1.02-.06-1.53-.01-.15-.03-.29-.05-.44 0-.19.02-.39.03-.58.06-.29.11-.58.14-.88 0-.06.02-.12.02-.18s.02-.12.02-.18c0-.05 0-.1 0-.16 0-.19.01-.38.02-.57 0-.25 0-.5 0-.75v-.02c.08-.88.19-1.75.34-2.6z"/><path d="m139.52 135.04c-.04-.18.04-.38.21-.47.05-.02.09-.04.14-.07.05 0 .11 0 .16-.01.31-.03.61-.06.92-.11.04 0 .08.01.12.01.16 0 .32 0 .48-.03.27-.03.54-.05.81-.05h-.05.63 1.01c.27 0 .55-.02.82-.03h.18c.23 0 .46 0 .69-.02.13-.02.26-.03.37-.1.1-.07.16-.17.17-.27.07-.09.11-.21.09-.34.06-.05.11-.11.13-.18.03-.1.04-.2.05-.3h.01c.04-.05.05-.17.11-.19.02.09.03.18.04.26.69-.03.95.41.9.85-.06.48-.51.96-1.2.83-.72.12-1.46.11-2.2.1-.87-.01-1.73-.03-2.59.18-.6.07-1.16.12-1.72.21-.14 0-.24-.11-.27-.25z"/><path d="m141.52 134.37h.02c.17-.02.34-.04.52-.04-.15.38-.36.6-.62.6.03-.19.06-.37.09-.56z"/><path d="m2.86 135.76c-.15-.14-.27-.41-.18-.61-.4-1.99-.4-4.02-.25-6.04v.3c.02.39.03.77.07 1.17 0-.06-.02-.13-.02-.19.03.31.04.63.08.95.03.25.1.48.14.73.03.21.05.43.09.64v.06.17.06c-.12.11-.2.27-.21.46-.01.35.29.71.65.7h.12c-.01.35-.03.69-.05 1.04-.01.2-.11.59-.36.59-.03 0-.05 0-.08-.01z"/><path d="m2.9 135.11c-.47-.23-.48-.92-.61-1.37-.66-4.11-.5-8.29-.31-12.43.07.59.14 1.19.21 1.8v.25-.18c-.01.77.03 1.53.14 2.3v.42c0 .33 0 .66.02 1 .02.84.08 1.69.1 2.52 0 .39.02.77.06 1.17 0-.06-.02-.13-.02-.19.03.31.04.63.08.95.03.25.1.48.14.73.03.22.06.44.09.65v.04.17.06c-.12.11-.2.27-.21.46 0 .27.17.55.42.65.01.18.02.35.03.52.13-.22.39-.1.35.14-.03.19-.21.36-.41.36-.03 0-.06 0-.08-.01z"/><path d="m3.69 135.25c-.08-.11-.08-.24-.05-.36 0-.02.02-.06.04-.1-.04-.22-.08-.43-.11-.65h.59c-.02.27-.05.54-.09.82.02.15-.1.37-.24.37-.04 0-.09-.02-.14-.08z"/><path d="m4.93 135.35c-.2 0-.32-.22-.32-.4-.04-.27-.07-.53-.09-.8.3 0 .6.01.91.02-.03.27-.08.54-.14.81-.03.18-.16.37-.35.37z"/><path d="m5.7 134.84c-.15-.04-.24-.19-.23-.35.03-.11.06-.22.09-.33.22 0 .44.01.66.02-.05.18-.12.36-.21.53-.06.08-.14.14-.24.14-.02 0-.05 0-.07-.02z"/><path d="m8.9 134.48s0 .03 0 .04c-.01.05-.02.1-.04.14-.08.29-.21.5-.39.56-.05.03-.09.03-.14.03-.08 0-.16-.02-.26-.06-.12-.13-.15-.32-.11-.49 0-.06.03-.11.06-.17.02-.07.03-.15.05-.23.11.03.23.05.35.07.11.02.21.04.32.06.05.01.1.02.14.03h.03z"/><path d="m9.39 134.55c.1.01.2.02.3.02h.18c-.06.09-.15.14-.26.14s-.18-.08-.22-.17z"/><path d="m11.6 134.48s0-.03 0-.05c.08-.02.15-.03.23-.05.1-.02.21-.05.32-.08-.03.11-.08.22-.16.32-.05.06-.12.08-.19.08-.11 0-.21-.08-.2-.22z"/><path d="m12.41 134.19c.05-.03.11-.06.16-.09h.02c.12 0 .24-.03.35-.06.06-.02.13-.04.2-.06-.14.26-.32.45-.54.54-.14-.07-.19-.19-.19-.33z"/><path d="m13.27 134.39c-.05-.05-.08-.23-.09-.41.05-.02.1-.03.14-.05.11-.05.21-.13.26-.24.09-.17.09-.37.1-.56.04-.67.08-1.35.13-2.02.06-.74.11-1.49.13-2.23 0-.07 0-.13-.03-.19.02-.19.03-.37.05-.56 0 .1-.01.19-.02.28.05-.58.09-1.17.13-1.75.06-.16.11-.34.14-.51.05-.27.08-.55.11-.83.02-.26.04-.52.05-.79.14 3.37.51 6.85-.78 9.94-.04.03-.09.04-.13.04-.07 0-.14-.04-.18-.11z"/><path d="m14.3 121.88c.01-.06.03-.13.04-.19 0 .16-.01.32-.02.48 0-.1-.01-.19-.02-.29z"/><path d="m2.82 134.43c-.95-3.14-.88-6.62-.6-9.99.02.35.06.69.11 1.04v.42c0 .33 0 .66.02 1 .02.84.08 1.69.1 2.52 0 .39.02.77.06 1.17 0-.06-.02-.13-.02-.19.03.31.04.63.08.95.03.25.1.48.14.72l.09.66v.04.17.06c-.12.11-.2.27-.21.45 0 .3.2.6.49.68v.03c.02.12-.08.29-.21.29-.02 0-.03 0-.05-.01z"/><path d="m3.85 135.36c-.07-.4-.13-.81-.17-1.22h.52v.93c.11.17-.04.42-.19.42-.06 0-.11-.04-.16-.13z"/><path d="m9.54 135.32c-1.67-.15-3.27-.28-4.93-.02-.22-.01-.45 0-.68 0-.61.02-1.23.05-1.74-.24-.04-.04-.06-.1-.06-.16-.33-.42.12-.66.88-.8.07.03.15.05.24.05 1.16-.03 2.32.03 3.48.06.29 0 .57.02.86.02.06.01.12.02.18.03.21.04.43.09.64.13.43.08.85.17 1.29.19h.31c.38 0 .75-.03 1.13-.08.23-.03.47-.07.69-.13.15-.03.31-.07.45-.12.11-.04.2-.09.29-.15h.03c.12 0 .24-.03.35-.06.12-.03.25-.06.37-.12.11-.05.2-.13.26-.23.06.11.05.24-.04.4.31.55-.57.62-.93.72-.91.2-1.81.53-2.75.53-.1 0-.21 0-.31-.01z"/><path d="m3.77 134.19s-.03-.03-.04-.05h.3c-.04.05-.09.08-.15.08-.03 0-.06-.01-.1-.03z"/><path d="m3.56 134.26s-.02-.08-.03-.12h.6c-.06.19-.14.32-.27.32-.08 0-.18-.06-.31-.2z"/><path d="m4.95 135.32c-.35-.02-.35-.45-.37-.69-.02-.16-.03-.33-.04-.49.29 0 .58.01.87.02 0 .15 0 .31-.01.46.04.29-.09.69-.43.69h-.02z"/><path d="m4.89 134.59c-.06-.15-.12-.3-.17-.45.18 0 .37 0 .55.01.08.08.23.11.29.22.04.18-.2.34-.42.34-.1 0-.2-.04-.26-.13z"/><path d="m4.19 134.76c-.1-.2-.17-.41-.22-.63h.45v.04c-.06.18.08.32.14.47-.04.1-.13.16-.23.16-.05 0-.09-.01-.13-.04z"/><path d="m5.57 134.35v-.18c.2 0 .41.01.62.02-.07.19-.17.29-.31.29-.08 0-.19-.04-.31-.13z"/><path d="m6.16 134.61c-.08-.14-.15-.28-.21-.43.18 0 .37.01.55.02.06.18-.06.44-.25.44-.03 0-.06 0-.1-.02z"/><path d="m8.98 134.65s-.09-.11-.11-.17c.13.02.27.05.4.06-.07.07-.15.11-.24.11-.02 0-.03 0-.05 0z"/><path d="m13.94 133.87c-.1-.2-.06-.42.09-.59.11.13.06.51-.09.59z"/><path d="m14.52 30.22c-.2-3.3-.4-6.59-.38-9.89.11-1.37-.34-3.05.48-4.23 1.91-.94 0 12.77-.1 14.12z"/><path d="m13.71 23.62c-.03-.46-.08-.91-.11-1.37v-.12c0-.46 0-.91-.05-1.37 0-.42-.02-.83-.04-1.25-.02-.34-.03-.68-.05-1.02.56-3.58 1.56-1.65.34 5.63-.03-.17-.06-.34-.09-.52z"/><path d="m13.55 20.77c0-.42-.02-.83-.04-1.25-.02-.51-.05-1.03-.1-1.54-.03-.32-.1-.6-.32-.78.52-.2.61 1.85.51 4.38 0-.27-.02-.54-.05-.81z"/><path d="m12.28 17.12c.21-.68.42-.7.56-.07-.19-.06-.39-.02-.55.07z"/><path d="m14 31.58c-.07-1.44-.1-2.88-.1-4.31.05-.61.08-1.23.05-1.85 0-.19-.03-.38-.05-.57.02-2.43.07-4.86.09-7.27-.2 0-.24-.15-.18-.3.07-.19.27-.39.44-.26.82.97.75 2.43.86 3.65.09 3.67-.3 7.36-1.09 10.94 0 0 0 0 0-.01z"/><path d="m12.9 17.08c-.09-.04-.18-.06-.27-.05.19-1.19.44-1.79.76-1.21-.04.54-.07 1.07-.11 1.61-.08-.14-.19-.26-.38-.34z"/><path d="m11.67 16.81v.22c-.06 0-.12 0-.18 0-.08 0-.15 0-.23 0 .11-.24.24-.33.41-.23z"/><path d="m6.27 19.77s.04-.09.06-.14 0 0 .02-.01v.11s-.01.06-.02.09c-.01.01-.02.02-.03.03h-.02v-.07z"/><path d="m4.31 24.08s.05.03.07.04l-.03.19c-.01-.08-.02-.15-.04-.23z"/><path d="m5.31 17.13v.04c-.09.02-.17.04-.25.05.03 0 .06-.02.1-.02-.14.02-.28.05-.41.07.14-.26.32-.39.56-.14z"/><path d="m3.77 18.63s-.03-.03-.04-.04c-.01 0-.02-.02-.03-.02v-.02c.11.02.22.04.32.06-.03.03-.05.07-.07.1-.05-.04-.12-.07-.18-.09z"/><path d="m3.17 16.92v.17.27h-.02c-.02 0-.03.01-.05.02-.01 0-.02.01-.03.02-.02.01-.03.02-.05.04s-.03.03-.05.05c-.03.03-.05.06-.07.09-.03.06-.06.13-.08.19 0 .02 0 .03-.01.05v.05c0 .02-.01.05-.02.07-.04.12-.07.24-.1.35 0 .04-.02.08-.02.12-.04.3-.05.59-.03.9s.07.63.11.95c.02.13.03.25.05.37-.01.06-.02.11-.03.18-.02.13-.05.26-.07.39s-.04.26-.06.39c-.08.48-.13.97-.17 1.45-.03.33-.06.66-.08.98-.01.27-.02.53-.03.79-.02.53-.03 1.06-.01 1.59.02.58.05 1.14.08 1.72v.18s0 .1 0 .15c-.07.6-.16 1.2-.24 1.79 0 0 0 0-.01 0-.19-2.18-.31-4.39-.27-6.58 0-.13 0-.26 0-.39.02-.84.06-1.69.14-2.53.04-.49.1-.99.16-1.48.06-.47.14-.94.23-1.41.03-.14.11-.49.23-.77.14-.35.33-.59.52-.14z"/><path d="m1.85 23.6c-.03-.1-.03-.16-.01-.27.02-.06.08-.13.15-.12.59-1.11-1.31-9.08 1.43-6.61 1.51-.4 3.09-.31 4.62-.55.39-.06.87-.14 1.21.1 1.43-.02 2.86-.08 4.29.04.22.04.42.13.53.33.93-.11 1.87.18 1.37 1.3-.46.6-1.21.75-1.97.79-.01-.21-.03-.42-.05-.63-.04-.39-.13-.73-.51-.9-.21-.09-.43-.06-.62.05-.05-.02-.11-.04-.16-.05-.2-.05-.42-.03-.63-.03-.23 0-.46.02-.69.02-.11 0-.23-.02-.34-.03-.01 0-.02 0-.03 0-.47-.06-.94-.11-1.41-.14-.21-.01-.41-.02-.61-.03-.26-.01-.51-.03-.77-.03-.25 0-.49 0-.73.03-.23.02-.46.06-.69.11-.39.08-.77.18-1.15.26.03 0 .06-.02.1-.02-.28.05-.56.09-.84.12h.09c-.26.02-.53.04-.8.03-.23-.03-.48-.06-.66.14-.1.12-.14.24-.16.39 0 .02-.01.04-.02.06-.05.16-.1.31-.12.47-.04.3-.05.6-.03.9.02.32.07.64.11.95.02.12.03.24.05.35-.02.13-.04.26-.06.39-.03.19-.06.39-.1.58-.01.07-.02.14-.03.21-.06.4-.12.79-.16 1.19.01.21-.16.74-.39.74-.06 0-.13-.04-.19-.14z"/><path d="m3.77 18.64s-.03-.03-.04-.03c0 0-.02-.02-.03-.02.1.01.21.03.32.04-.02.03-.05.07-.07.1-.05-.04-.12-.07-.18-.09z"/><path d="m147.47 19.72c-.05-.66-.1-1.32-.14-1.99-.03-.35-.05-.71-.07-1.06 0-.14-.02-.27-.03-.41-.02-.14-.03-.29-.06-.43s-.16-.22-.29-.21-.01 0-.02 0h-.01s-.07.02-.11.04c-.1.06-.14.18-.11.29s-.07-.05-.11-.06c.24-1.84.65-2.89 1.31-1.9 0 2.22-.04 4.46-.29 6.66-.02-.31-.04-.63-.07-.94z"/><path d="m145.82 15.54c-.14-.03-.27 0-.39.05h-.02c.16-.92.42-1.51.85-1.29.13.52.19 1.05.19 1.58-.04 0-.08.02-.11.04-.01 0-.02.01-.03.02-.1-.2-.26-.36-.49-.4z"/><path d="m144.2 15.27c-.06 0-.12 0-.18 0 .21-.58.44-.55.54.06-.12-.03-.23-.05-.36-.06z"/><path d="m142.44 15.26c.24-.56.57-.55.73 0-.24 0-.48 0-.73 0z"/><path d="m141.22 15.27c-.14 0-.28 0-.41 0 .16-.2.31-.2.41 0z"/><path d="m139.3 15.43c-.05 0-.1.01-.15.02-.19.02-.41.03-.6.09.19-.33.43-.41.75-.11z"/><path d="m136.87 20c.06-.69.34-6.81 1.64-5.12-.02.23-.03.46-.04.69-.13.05-.23.12-.34.22-.09.08-.14.18-.18.28-.05.05-.09.11-.13.17-.03.05-.05.11-.08.16.02-.03.03-.06.05-.08-.1.16-.16.31-.19.49 0 0 0-.02 0-.03v.03s-.02.08-.03.12c-.05.2-.09.4-.11.61v-.11c0 .14-.02.27-.03.41 0 .05-.02.1-.02.14-.04.15-.08.3-.1.46-.02.18-.04.36-.06.53-.03.22-.08.44-.1.66-.02.12-.03.23-.05.35v-.02c-.02.11-.05.22-.08.34v-.04c-.08.32-.16.63-.17.97 0 .16-.01.33 0 .5.01.15.03.31.04.46v.12c-.02.22-.06.43-.09.64-.03-.98-.01-1.97.09-2.95z"/><path d="m136.24 27.72c-.11-3.2 0-6.41.52-9.57.15-.73.63-4.66 1.2-3.04-.03.35-.07.71-.1 1.06-.02.02-.03.05-.05.07-.03.05-.05.11-.08.16.02-.03.03-.06.05-.08-.1.16-.16.31-.19.5v.03-.03s-.01.08-.02.12c-.05.2-.09.4-.11.61v-.11c0 .14-.02.27-.03.41 0 .05-.02.1-.02.14-.04.15-.09.3-.1.46-.02.18-.04.36-.06.53-.03.22-.08.44-.1.66-.01.11-.03.23-.05.34-.02.1-.04.21-.07.31v-.02c-.09.32-.17.63-.18.97 0 .16-.01.33 0 .5 0 .16.03.31.04.46v.12c-.04.34-.1.66-.14 1-.07.53-.07 1.09-.05 1.63v.17c-.14.88-.28 1.75-.43 2.63 0 0 0 0 0-.01z"/><path d="m147.59 21.65c-.02-.64-.07-1.29-.12-1.93-.05-.66-.1-1.32-.14-1.99-.03-.35-.05-.71-.07-1.06 0-.06 0-.12-.01-.18.44 1.89.5 3.91.36 5.92 0-.25 0-.5-.02-.76z"/><path d="m146.63 15.95s-.1-.06-.16-.06c0-.31 0-.63-.02-.95-.02-.13.05-.35.21-.32.13.34.25.68.35 1.03-.05-.02-.1-.03-.15-.03h.01s-.02 0-.02 0h-.01s-.07.02-.1.04c-.1.06-.14.18-.11.29z"/><path d="m145.82 15.54c-.14-.03-.27 0-.39.05-.03 0-.05 0-.08-.01 0-.3 0-.59 0-.89.21-.77.68.04.67.46.03.17.06.35.08.52-.08-.07-.17-.11-.28-.13z"/><path d="m144.8 15.4s.03 0 .04 0c-.02 0-.05-.01-.07-.02h.03c-.06 0-.12-.02-.18-.04.04-.31.08-.61.12-.91.33-.23.46.27.47 1.11-.03-.01-.06-.02-.09-.03.03.01.06.02.09.04-.14-.05-.27-.11-.41-.15z"/><path d="m144.2 15.27s-.07 0-.11 0c0-.05.01-.09.02-.14.02-.08.06-.16.13-.21.31-.09.47.1.52.46-.18-.05-.36-.1-.56-.11z"/><path d="m136.39 16.18c-.23-.27-.16-.8.2-.94-.27-.4-.11-1.06.38-1.19 1.27-.24 2.58-.4 3.88-.35 1.59.07 3.1.67 4.69.69.08.01.14.1.15.17.28.07.58.08.86.16.29.1.22.66-.1.66-.49.01-.98.04-1.47.07-.05-.02-.11-.04-.16-.05h.03c-.02 0-.05-.01-.08-.02.02 0 .03 0 .04.01-.2-.05-.39-.11-.6-.13-.18-.01-.37 0-.55 0-.72 0-1.43 0-2.14 0-.4 0-.8 0-1.2.04-.38.04-.77.09-1.15.14-.2.02-.42.03-.61.09-.16.05-.29.13-.42.24-.09.08-.14.18-.18.28-.05.05-.09.11-.13.17-.26.07-.51.11-.76.11s-.47-.04-.67-.16z"/><path d="m2.7 15.57c-.1-.05-.22-.05-.32-.04-.27 0-.48-.33-.26-.55.17-.12.35-.22.53-.3.02.02.04.03.06.04.08.04.16.06.25.06.17 0 .35-.07.51-.12h-.02.03.04c-.01 0-.02 0-.03 0 .03 0 .07-.01.1-.02-.03.08-.02.19.04.26s.16.11.25.11c.06 0 .11-.02.15-.06.18 0 .35 0 .52.02h-.03c.27 0 .54.02.81.03h-.03c.16 0 .33.03.5.05.19.02.38.04.57.06.38.04.75.07 1.13.12.36.04.72.08 1.07.13.24.03.48.07.72.11-.91 0-1.82 0-2.73 0-1.12 0-2.25 0-3.36.02-.02.12-.1.16-.2.16s-.23-.04-.3-.08z"/><path d="m14.11 15.14c.1-.04.19-.1.27-.19h.02c.53-.06 1.07-.12 1.61-.17.47-.05.95-.1 1.43-.13.51-.03 1.03-.05 1.53-.14.15-.03.29-.06.43-.1h.07c-1.92.5-3.89.76-5.88.9.18-.05.36-.11.53-.18z"/><path d="m6.85 15.74c-1.04 0-2.09-.02-3.14-.08-.33-.02-.66-.04-.98-.06-.16.17-.44.06-.64.05-.78-.43.31-.64 1.58-.73.06.06.15.09.24.09.06 0 .11-.02.15-.06.17 0 .35 0 .52.02h-.03c.27 0 .54.02.81.03h-.03c.16 0 .33.03.5.05l.57.06c.38.04.75.07 1.13.12.36.04.72.08 1.07.13.34.05.69.11 1.03.14.38.04.75.07 1.13.08-1.15.1-2.3.15-3.46.15-.14 0-.29 0-.43 0z"/><path d="m14.11 15.14c.1-.04.19-.1.27-.19h.02c.45-.05.91-.1 1.37-.15.34 0 .68.01 1.02.02-1 .15-2.01.3-3.01.43.12-.04.23-.08.34-.12z"/><path d="m1.6 14.78c-.22.02-.74-.16-.46-.42.1-.08.25-.09.35 0 .31-.04.63-.08.94-.12.02.2.12.37.3.47.08.05.16.06.25.06.17 0 .34-.06.5-.11h.04s.06-.02.09-.02c-.02.04-.02.09-.01.14-.34 0-.67 0-1 0s-.66 0-.99 0z"/><path d="m1.32 13.23c.1-.09.27-.12.37-.03.25-.02.5-.04.75-.06 0 .15 0 .3-.01.46-.16 0-.31.02-.46.02-.45 0-.8-.07-.65-.38z"/><path d="m2.16 11.97c.03-.15.16-.26.3-.27.04 0 .08-.02.12-.02v.23c0 .06 0 .12.01.18-.07.08-.12.19-.13.3-.18-.07-.36-.21-.31-.41z"/><path d="m2.06 11.75c-.39 0-.88-.31-.73-.73.07-.2.29-.33.5-.33.26-.02.51-.03.77-.04-.02.37-.03.73-.02 1.1-.16 0-.32 0-.47 0z"/><path d="m2.25 9.64c-.04-.27.25-.3.46-.35-.02.14-.03.29-.04.43 0 .06-.01.13-.02.19-.17-.02-.32-.1-.4-.28z"/><path d="m1.88 8.61c.26-.26.6-.39.95-.43-.03.27-.07.54-.1.8-.31-.06-.62-.18-.85-.37z"/><path d="m2.62 6.94s.02 0 .03.02c.11-.01.23-.02.34-.04-.02.14-.04.28-.06.42-.21-.06-.51-.24-.31-.4z"/><path d="m2.49 5.99c.16.05.32.05.47.02.08-.02.16-.04.24-.06-.03.12-.06.24-.08.36-.26-.05-.51-.14-.63-.33z"/><path d="m2.84 5.18c-.23-.12-.46-.26-.59-.48.27-.27.65-.43 1.03-.51.01.1.05.19.11.26v.1c-.12.19-.15.41-.16.64v.13c-.13-.03-.27-.08-.4-.14z"/><path d="m3.01 3.35c.82-.27 1.67-.32 2.52-.45 2.99-.27 6-.13 9-.02-.04 0-.09 0-.13 0-.55.03-1.09.07-1.64.13.02 0 .05 0 .07-.01-.21.03-.41.05-.61.07h.03c-.28.03-.56.07-.84.1-.07 0-.14.02-.21.03-.08.01-.17.02-.25.03h-.01c-.48-.07-.95-.11-1.43-.15-.53-.05-1.05-.09-1.58-.09-.21 0-.43 0-.64.02-.19.02-.39.05-.57.08h-.05s-.02.01-.03.01c-.18.03-.36.06-.54.07-.18.02-.35.02-.53.05s-.37.08-.55.12c-.13.02-.26.04-.4.05h-.05s.01 0 .02 0-.03 0-.05 0c-.16.01-.32.03-.48.06-.15.03-.32.07-.46.14-.08.04-.16.09-.22.16h-.03s-.04 0-.06 0c-.24 0-.59-.22-.31-.43z"/><path d="m16.95 2.96h.07s-.02 0-.03 0z"/><path d="m3.75 2.84c-.63-.48 1.03-.5 1.29-.59 5.54-.75 11.22-1.32 16.73-.07-5.89 1.11-12.08.37-18.02.66z"/><path d="m2.83 16.39c-.53-.09-.76-.78-.67-1.24-.69-3.18.02-6.42.45-9.58.19-.82-.34-4.04 1.04-3.33.53.29.7.71.71 1.18-.09.01-.18.03-.27.05-.15.03-.32.07-.46.14-.18.09-.34.26-.35.47-.01.15.03.27.11.37v.1c-.12.19-.16.41-.16.65 0 .21-.01.42-.02.63-.04.18-.08.35-.12.53-.08.36-.14.73-.18 1.1-.08.76-.19 1.51-.26 2.26-.06.72-.11 1.45-.08 2.18 0 .06 0 .12.02.18-.07.09-.12.2-.13.32-.02.44-.03.87-.04 1.31 0 .18-.02.35 0 .53.02.2.12.38.3.48.08.05.16.06.25.06.17 0 .35-.07.51-.11h.02s0 0 .02 0c.03 0 .06 0 .08-.01-.02.05-.02.11 0 .17-.02.11-.04.22-.06.33 1.77.17 3.65.24 5.35.55-1.79.39-3.63.89-5.47.58-.13.09-.28.14-.43.14-.05 0-.1 0-.15-.02z"/><path d="m1.42 13.5c.34-.07.68-.04 1.01-.14v.35c0 .18-.02.35 0 .53v.02c-.74-.16-1.21-.39-1-.76z"/><path d="m2.13 12.79s-.1-.1-.02-.15c.11-.01.23-.03.34-.04v.27c-.11-.02-.21-.05-.32-.08z"/><path d="m2.48 11.97c.02-.06.05-.11.1-.14v.08s0 .05 0 .07h-.1z"/><path d="m2.44 10.73s.02-.11.04-.05c.04 0 .07 0 .11-.01v.21c-.05-.04-.1-.09-.14-.14z"/><path d="m2.54 9.65s.08 0 .12 0v.07c-.01.05-.02.11-.02.16-.07-.07-.11-.14-.1-.23z"/><path d="m4.81 6.25s.03.06.04.09c-.01.02-.02.04-.03.07 0-.05 0-.1-.01-.15z"/><path d="m6.3 2.82c1.76-.11 3.52-.1 5.28-.04h-.01c.89.02 1.8.06 2.71.11-.51.03-1.02.07-1.53.13.02 0 .05 0 .07-.01-.21.03-.41.05-.61.07h.03c-.28.03-.56.07-.84.1h.01c-.07 0-.14.02-.22.03-.08 0-.16.02-.24.03h-.03c-.48-.07-.95-.11-1.43-.16-.53-.05-1.05-.09-1.58-.09-.21 0-.43 0-.64.02-.19.02-.38.05-.57.08h-.02s-.02 0-.03 0h.03c-.2.03-.41.06-.61.08-.18.02-.35.02-.53.05-.19.03-.37.08-.55.12-.13.02-.27.04-.4.05s-.02 0-.03 0h.02-.05c-.08.01-.15.02-.23.03.57-.33 1.28-.53 1.95-.61z"/><path d="m3.2 5.48s.02.03.03.05v.3l-.04.18c0-.18.01-.36.02-.54z"/><path d="m4.82 6.25s.03.06.04.08c-.01.02-.02.04-.03.07v-.15z"/><path d="m5.77 2.26c.45-.3 1.11-.03 1.31.44.05.12.05.23.02.33-.13.02-.26.04-.38.06s-.02 0-.03 0h.03c-.2.03-.41.06-.61.08-.18.02-.35.02-.53.05-.19.03-.37.08-.55.12-.12.02-.24.04-.36.05.32-.42.69-.8 1.11-1.13z"/><path d="m2.25 4.21c-.23 0-.4-.2-.44-.42-.12-.46-.49-1.04-.16-1.48.7-.55 1.61-1.01 2.52-.91 2.24-.06 4.5-.03 6.72.08h.28c.14 0 .27 0 .36.03-2.04.5-4.06 1.2-6.17 1.34.01.03.02.06.01.09-.02.15-.18.23-.32.31.04.02.08.04.13.06l-.11.02s-.02 0-.02 0h-.03c-.13.03-.26.04-.4.06h.01s-.02 0-.03 0h.02-.02c-.13-.17-.12-.39.17-.51-.55-.09-1.12-.11-1.62.19-.03.07-.08.13-.13.2-.03.04-.06.08-.1.11.04.39-.21.83-.63.83h-.05z"/><path d="m146.38 4.23s-.1-.08-.16-.11c-.09-.1-.21-.16-.36-.19-.07-.01-.14-.02-.22-.03-.11-.02-.22-.04-.33-.06-.33-.05-.66-.08-1-.11-.23-.02-.46-.03-.69-.07-.13-.03-.26-.06-.4-.08-.13-.02-.26-.01-.4 0-.59.02-1.17.05-1.76.05h.01c-.32 0-.65-.02-.97-.05-.04 0-.09 0-.13-.01-.05 0-.1-.01-.14-.02-.42-.04-.85-.09-1.27-.12s-.84-.03-1.25-.04c-.08 0-.17 0-.25 0-.17 0-.34 0-.51-.01-.03 0-.06-.01-.08-.02h.01s-.02 0-.03 0h-.02s-.07-.02-.1-.03h-.04l-.03-.02h.03l.04.02c-.21-.05-.41-.1-.63-.08-.29.03-.59.11-.87.18-.29.08-.58.16-.87.24-2.19-.15-4.35-.38-6.46-.85 6.49-.64 13.08-.71 19.48.64.27.08.76-.06.8.32 0 .12-.1.21-.2.25-.37.14-.74.23-1.13.28-.02-.03-.04-.05-.06-.07z"/><path d="m146.59 4.77c-.03-.19-.07-.39-.21-.53-.05-.05-.1-.08-.16-.11-.09-.1-.21-.16-.36-.19-.07-.01-.14-.02-.22-.03-.11-.02-.22-.04-.33-.06-.33-.05-.66-.08-1-.11-.23-.02-.46-.03-.69-.07-.13-.03-.26-.06-.4-.08-.13-.02-.26-.01-.4 0-.59.02-1.17.05-1.76.05h.02c-.32 0-.65-.02-.97-.05 2.53-.12 5.06-.06 7.53.33.34.11.44.56.13.76-.36.19-.74.28-1.14.32 0-.07-.02-.15-.03-.22z"/><path d="m146.59 4.77s-.02-.09-.03-.14c.35.06.7.13 1.04.22.18.03.44.06.48.28.03.18-.21.27-.35.19-.37.01-.74.04-1.11.07 0-.21-.01-.41-.05-.61z"/><path d="m146.64 5.45c0-.07 0-.13 0-.2.37.08.73.18 1.08.26.25.2-.12.44-.33.32-.19.06-.38.1-.57.14-.05-.18-.11-.36-.18-.53z"/><path d="m146.89 6.3c.25.07.37.19.2.4-.03.04-.07.08-.11.11-.02-.17-.05-.34-.09-.5z"/><path d="m146.94 6.62c-.02-.11-.04-.22-.06-.32-.01-.08-.03-.16-.05-.24 1.07.13 1.71.34.85.59-.24-.01-.49-.02-.74-.03z"/><path d="m146.89 6.3s-.01-.06-.02-.08c.87 0 1.79.11 1.22.53-.37.1-.74.14-1.11.14-.02-.2-.06-.39-.1-.59z"/><path d="m147.02 7.31c0-.07 0-.13-.01-.2.18.01.35.02.53.04.12.03.26.12.27.25.01.14-.14.24-.24.29-.17.04-.35.08-.53.11 0-.16-.01-.32-.02-.48z"/><path d="m147.05 8.34c0-.19 0-.39 0-.58.4.12.78.29 1.13.53-.35.04-.73.05-1.12.05z"/><path d="m147.05 8.42c.5.05.78.17.46.38-.15.06-.3.11-.46.15 0-.18 0-.35 0-.53z"/><path d="m147.05 9.39c.25.04.49.09.73.16-.23.05-.47.1-.72.15 0-.1 0-.2-.01-.3z"/><path d="m147.08 10.28c0-.06 0-.13 0-.19.36.07.72.17 1.08.28-.36 0-.72.01-1.08.04 0-.04 0-.09 0-.13z"/><path d="m147.07 10.39c.32.08.62.21.83.47-.28.03-.56.07-.85.1 0-.19.02-.38.02-.57z"/><path d="m147.04 11.22c0-.1.01-.19.02-.29.16-.01.32-.03.48-.04.18-.03.48.15.34.37-.25.17-.54.26-.85.31 0-.12 0-.23.01-.35z"/><path d="m133.83 12.55c.07 0 .14.02.22.02-.07 0-.14 0-.22-.02z"/><path d="m146.98 12.02c.02-.12.03-.24.04-.36h.09c.1.02.22.02.33.02.19 0 .39-.02.55.1.13.11.02.31-.14.32-.3.04-.6.09-.9.14.01-.07.02-.13.03-.2z"/><path d="m132.91 13.48c.72-.16 1.44-.3 2.16-.42.52.09 1.06.12 1.59.16.47.03.94.04 1.41.02.19.01.39.02.58.03.63.02 1.26.02 1.88.03h-.06s.07 0 .1 0h.04c.19.03.38.04.57.05.35.02.71.03 1.06.05s.03 0 .05 0h.04-.02c.32.03.63.06.95.07h.55.3c-1.73.22-3.51.26-5.23.28-1.98-.03-4.07-.1-5.97-.29z"/><path d="m146.87 12.81v-.03s0-.06 0-.1c0-.08.02-.16.03-.24.01-.05.02-.09.03-.14.3.01.59.05.87.11.07.05.13.13.08.22-.34.12-.68.23-1.03.32.02-.04.02-.09.02-.14z"/><path d="m147.04 11.22c.02-.31.03-.63.04-.94 0-.31-.01-.61-.02-.92 0-.34 0-.68 0-1.02s-.01-.69-.03-1.03c-.01-.34-.07-.68-.13-1.01-.05-.29-.15-.57-.25-.84 0-.23-.01-.46-.05-.69-.03-.19-.07-.39-.21-.53h-.01c.45-.06.94.16 1.04.69.33 1.03.23 2.13.61 3.13.3 1.12.18 2.78-.99 3.31s0-.1 0-.14z"/><path d="m147.05 8.24c0-.11 0-.23 0-.34.41.1.53.21.22.36-.07 0-.14 0-.21-.01z"/><path d="m2.72 138.52c.26 0 .26.49 0 .49s-.26-.49 0-.49z"/><path d="m4.84 139.2c-.57-.12-2.88.23-2.41-.77.12-.13.29-.02.32.13 3.68.53 7.35-.27 11-.56 5.72-.16 11.34-1.19 17.02-1.68-5.1 1.76-10.81 1.8-16.21 2.13-3.25.14-6.46.86-9.72.75z"/><path d="m93.68 141.9c-3.49-.37-8.62.91-10.7-2.68-.67-1.09-.28-2.82 1-3.24.28-.02.37.15.18.36-.26.23-.64.33-.82.67-.37.52-.4 1.23-.12 1.79 1.63 3.57 8.47 2.13 11.81 2.44 3.08-.21 20.58.5 20.37-3.19-.46-1.47-2.15-1.82-3.37-2.41 1.06 0 2.47.28 3.2 1.2.86.89.79 2.37-.33 3.01-6.61 2.91-14.2 1.86-21.24 2.04z"/><path d="m93.05 139.43c-1.4 0-2.82-.07-4.19-.41-1.16-.19-2.47-1.52-1.35-2.57 1.83-.89 3.87-1.47 5.91-1.43 2.62.29-.44.58-1.17.51-1.57.26-3.29.61-4.65 1.44-.46.78.62 1.34 1.23 1.48 5.5.92 11.17.06 16.71-.14.86-.06 1.84-.46.95-1.37-.49-.38-1.11-.54-1.67-.72s-1.28-.25-1.77-.43h.97c1.33.03 3.66.49 3.18 2.29-.56 1.05-2.05.78-3.05.91-3.7.18-7.41.46-11.12.43z"/><path d="m95.66 137.73c-.68-.05-1.5-.31-1.75-1.01-.39-.75.4-1.61 1.18-1.43.89.49-.01.42-.44.51-.53.12-.55.73-.18 1.03 2.08 1.15 4.54-.22 6.75-.14-.02-.04-.04-.08-.06-.12 1.71.64-5.11 1.32-5.51 1.17z"/><path d="m104.11 147.68c-4.11-.63-8.23-.27-12.38-.56-3.28-.16-6.28-1.49-9.46-2.1-3.22-.26-6.46.03-9.64-.62-6.22-1.2-12.38-2.76-18.74-2.94-7.83-.54-15.7-.81-23.52-.05-8.17.88-16.42 1.67-24.59 2.58-1.06.15-2.13.35-3.2.37-.11 0-.18-.11-.19-.2-.02-.12.05-.28.19-.28 1.58-.07 3.13-.4 4.7-.58 8.79-.71 17.53-2.02 26.34-2.78 6.69-.5 13.4-.17 20.09.3 7.29.18 14.29 2.29 21.46 3.32 2.41.32 4.88.05 7.3.4 1.51.29 2.99.84 4.44 1.21 4.17 1.25 8.56 1.05 12.86 1 1.93.06 3.78.69 5.7.89-.39.09-.9.03-1.35.05z"/><path d="m74.74 146.7c-5.46.23-10.48-2.23-15.87-2.6-4.43-.78-8.93-.67-13.42-.74-4.16.04-8.3-.51-12.45-.1-8.84.14-17.44 2.54-26.24 3.28-.42.02-.87.08-1.29 0-.39-.31.1-.66.48-.46 7.91-.41 15.55-2.78 23.46-3.3 8.19-.74 16.39-.08 24.59.05 3.84.41 7.74.83 11.48 1.82 4.02 1.21 8.2 1.78 12.38 2.01-.95.09-2.1.01-3.13.02z"/><path d="m138.15 146.61c-3.88-.63-7.81-1.42-11.74-1.63-2.88-.02-5.75.37-8.61.61-7.33.38-14.71.2-22.04-.14-3.33-.1-6.38-1.51-9.55-2.36-1.64-.54-3.07-1.64-4.77-2.01-6.8-1.9-13.83-3-20.8-4.05-1.09-.12-2.23-.02-3.29-.31-.1-.06-.19-.15-.25-.26.04-.07.19-.12.27-.14 1.06.03 2.13.17 3.2.21 2.84.17 5.57.97 8.36 1.41 4.26.48 8.46 1.32 12.59 2.47 1.7.37 3.14 1.42 4.75 1.99 2.99.82 5.87 2.09 8.99 2.32 7.02.49 14.08.57 21.11.37 4.46-.27 8.95-1.07 13.42-.39 2.98.56 6.1.63 8.96 1.67.3.1.64.13.88.26-.48.02-.98.03-1.46-.03z"/><path d="m138.85 144.12c-3.78-1.05-7.58-1.97-11.5-2.33-3.82-.15-9.73-.1-9.05-5.51 0-.31.39-.32.39 0-.71 5.02 5.04 4.75 8.5 4.91 4 .37 8.13 1 11.65 2.94z"/><path d="m143.92 144.26c-2.44.17-6.47-2-5.14-4.86.62-.89 1.71-1.33 2.74-1.54 1.84-.4 3.72-.5 5.59-.45.14 0 .21.14.21.26s-.08.27-.21.27c-.68 0-1.36 0-2.04.03-2.02.25-4.69.11-6.01 1.88-.39.83.06 1.76.68 2.32 1.89 1.88 4.62 1.74 7.09 1.8-.87.21-1.95.28-2.9.3z"/><path d="m9.67 119.62c-7.32-2.19-5.13-20.76-4.53-26.89.35-4.46 2.43-8.52 3.24-12.87.69-4.02 1.27-8.06 1.6-12.13.8-6.05 1.2-12.21-.74-18.08-.97-2.98-2.61-5.66-3.63-8.6-.99-2.26-1.55-5.1-3.48-6.71-.25.13-.39-.32-.2-.44.43-.21.79.34 1.06.61 1.44 1.89 2.09 4.24 3.04 6.39.98 2.57 2.33 4.92 3.31 7.48 1.38 4.09 2.03 8.46 1.85 12.77-.66 7.39-1.02 14.9-3.04 22.08-2.87 7.48-3.25 15.53-3.06 23.46-.1 2.53.3 5.03 1 7.47.52 1.43 1.05 3.08 2.32 4 1.23.96 2.24.88 2.95-.57.57-1.42.71-3.02.78-4.5-.13-1.21.77-4.55-.79-4.85-1.6.15-1.74 3.22-1.6 4.47.02.27.18.52.25.73-.87-.37-.91-1.48-.82-2.31.17-1.28.52-3.41 2.12-3.51.57.04 1.04.47 1.21 1 .37 2.42.76 11.23-2.85 11.02z"/><path d="m2.42 91.97c-.44-3.36.48-6.67 1.52-9.81.86-3.34 1.91-6.64 2.82-9.96 1.37-5.38.95-11.01.36-16.47-1.11-3.73-2.18-7.53-3.52-11.18-.1-.41-.62-.77-.42-1.16.39-.26.58.7.76.92 1.37 3.72 2.45 7.53 3.57 11.31.6 5.56 1.02 11.27-.35 16.74-1.62 6.53-4.27 12.86-4.73 19.62 0 0 0 0 0-.01z"/><path d="m11.76 45.36c-2.97-8.92-3.79-18.67-2.07-27.93.1-.32.33-1.29.75-.96.13.13.07.53-.15.49-1.29 4.35-.9 9.12-.83 13.62.16 5.01 1.6 9.9 2.29 14.79z"/><path d="m11.18 104.77c-.79-1.11-.7-2.56-.58-3.85.34-3.17 1.29-6.23 2.06-9.32 1-3.7 1.31-7.52 1.4-11.33.03-.48.68-.5.4.05-.08 4.31-.39 8.62-1.64 12.78-.93 3.76-2.53 7.83-1.64 11.67z"/><path d="m7.27 135.06c-.79-1.95-.95-4.17-1.41-6.23-.75-4.01-2.01-8.12-1.78-12.19.76 5.82 2.24 11.53 3.24 17.31.43-.39.41 1.47-.04 1.11z"/><path d="m10.68 130.46c-.29-2.54-.55-5.08-.72-7.63 0-.11.07-.24.19-.24.21.01.21.25.19.4.15 2.47.4 5.05.34 7.47z"/><path d="m19.18 10.17c-5.44-.02-10.76-1.47-16.16-1.72-.15.04-.33-.02-.33-.19 0-.51.8-.25 1.13-.29 3.63.3 7.23.92 10.86 1.3 7.02.86 14.06-.42 21.09-.45 7.89-.18 15.96.17 23.4-2.89 1.05-.39 2.13-.76 3.07-1.36.69-.44 1.23-1.1 1.98-1.43-.86 1.97-3.19 2.75-5.13 3.42-6.95 2.76-14.43 2.72-21.78 2.82-6.05.01-12.07.83-18.11.78z"/><path d="m24.66 7.03c-4.81-.12-15.51.16-17.85-4.84 0-.57.55-.29.46.15 4.57 7.13 36.21 3.69 43.46.44.14-.07.28-.2.44-.11.16.11.08.37-.05.47-3.12 1.67-6.71 2.07-10.16 2.63-5.4.78-10.84 1.41-16.31 1.26z"/><path d="m9.78 16.82c.08-2.28 13.59-3.8 15.97-4.01 7.84-.76 15.7-1.18 23.58-.96 7.43.29 15.01-.09 22.09-2.32 2.02-.61 4.22-1.34 6.18-1.95-.99.57-2.02 1.08-3.09 1.49-4.95 1.77-10.17 2.83-15.4 3.25-6.75.31-13.51-.19-20.26.07-5.98.25-11.96.7-17.89 1.47-3.82.56-7.76 1.17-11.18 2.96z"/><path d="m67.63 7.94c-.43-.1-.07-.72.28-.51 9.28-2.6 19.22-1.59 28.96-1.21 6.74.26 14.43 1.71 20.36-2.31.56-.35.88-1 1.27-1.43-.26.78-.58 1.6-1.29 2.07-6.1 3.96-13.92 2.47-20.79 2.17-6.24-.33-12.51-.4-18.75-.32-3.42-.03-6.71.91-10.03 1.53z"/><path d="m75.51 15.5c-.42-1.1 6.75-2.77 7.82-3.04 4.13-.94 8.25-2.01 12.48-2.43 4.7-.44 9.43-.21 14.14-.01 1.16.04 2.33.08 3.49.1-1.04.15-2.28.16-3.4.23-5.15.16-10.34-.31-15.47.31-6.42 1.05-13.12 2.36-19.05 4.84z"/><path d="m121.42 8.59c-1.31-.07-2.68-.15-3.93-.47-.14-.28.24-.43.47-.37 3.09.53 6.25.34 9.37.13 2.97-.28 6.27-.2 8.84-1.75-1.68 1.63-4.08 1.87-6.31 2.06-2.81.22-5.63.47-8.45.39z"/><path d="m128.04 13.07c-.06-1.14 1.23-1.55 2.06-1.97 5.16-2.55 11-2.79 16.5-4.16.05-.25.33-.16.51-.14.26.08.19.48-.07.52-6.32 1.69-13.65 1.72-19 5.75z"/><path d="m141.27 46.24c-.51-4.19-1.52-8.31-1.84-12.51-.26-6.21.07-12.44.28-18.65.04-.29.43-.25.39.07-.24 6.14-.44 12.33-.2 18.46.3 4.21 1.53 8.44 1.37 12.63z"/><path d="m145.29 81.15c-1-.74-1.24-2.05-1.56-3.18-1.29-4.41-1.81-9.02-1.6-13.61.45-7.32 3.94-14.11 4.42-21.43 0-.12.05-.29.19-.29.13 0 .19.13.19.24-.03.48-.1.95-.16 1.43-.58 5.71-2.59 11.09-3.75 16.67-.95 6.73-.15 13.87 2.25 20.17z"/><path d="m147.89 76.58c-3.84-6.32-1.78-14.42-.05-21.12.27-.28.46.2.24.4-1.11 4.4-2.11 8.93-1.82 13.49.08 2.5 1.21 4.81 1.62 7.23z"/><path d="m137.15 123.86c-.27-1.85-.47-3.75-.26-5.62.44-2.3 1.34-4.51 2.1-6.72 2.94-8.88 8.77-16.91 9.17-26.53-.07-.16-.02-.41.18-.43.31.07.19.52.21.75-.42 6.51-2.81 12.62-5.78 18.36-2.71 6.42-5.84 13.14-5.61 20.18z"/><path d="m143.71 132.79c-1.67-3.85-1.64-8.24-.9-12.3.62-4.97 2.11-9.73 4.27-14.24.3-.41.76-2.78 1.32-2.12.11.13-.01.28-.14.33-2.86 6.24-4.82 12.85-5.38 19.71-.15 2.86.46 5.84.82 8.63z"/><path d="m141.36 132.46c-1.83-2.87-1.7-6.34-1.63-9.61-.03-.2.07-.77.34-.47.03 3.36.05 6.93 1.29 10.07z"/><path d="m140.65 98.08c.74-5.54 2.12-11.21.7-16.75-.05-.24.28-.54.38-.19 1.37 5.62.33 11.5-1.08 16.94z"/><path d="m138.56 66.3c-.91-6.87 1.9-13.35 3.98-19.74 1.64-4.84 2.75-9.82 3.86-14.79.69-3.58 1.65-7.18 1.6-10.83-.35-.06-.1-.8.21-.53.23.27.19.66.21 1-.01 2.15-.47 4.28-.8 6.4-1.69 9.42-4.42 18.62-7.53 27.64-1.05 3.53-1.39 7.23-1.52 10.88 0 0 0 0 0-.01z"/><path d="m144.49 29.83c-.68-4.84-.06-9.78-.23-14.61.32-.47.45.3.43.55.07 4.69-.1 9.39-.19 14.07z"/><g fill="#fff"><path d="m147.78 76.4c-.14 2.36-.29 4.71-.27 7.04 0 2.15 0 4.31-.02 6.47-1.69 7.54-6.08 14.29-8.5 21.62-.38 1.1-.8 2.2-1.17 3.32.64-5.44.93-10.92 1.07-16.4.44-8.39-.13-16.77-.06-25.18-.11-3.85.06-7.68.05-11.53.23-2.13.59-4.25 1.2-6.3 2.86-8.28 5.39-16.7 7.09-25.32-.14 3.8-.29 7.6-.39 11.4.02.38.03.77.05 1.15-.02-.02-.05-.02-.08-.02-.15 0-.21.16-.19.29-.48 7.32-3.97 14.11-4.42 21.43-.21 4.59.32 9.2 1.6 13.61.32 1.12.56 2.44 1.56 3.18-2.4-6.3-3.2-13.44-2.25-20.17 1.15-5.58 3.17-10.96 3.74-16.67.03-.24.06-.48.09-.72.2 4.39.4 8.82.61 13.24-1.62 6.35-3.15 13.7.3 19.56zm-7.13 21.69c1.41-5.45 2.45-11.33 1.08-16.94-.1-.35-.43-.05-.38.19 1.42 5.54.04 11.21-.7 16.75z"/><path d="m147.47 91.9c-.06 4.75-.19 9.51-.34 14.26-.02.03-.03.06-.05.08-2.15 4.51-3.65 9.27-4.27 14.24-.75 4.07-.77 8.45.89 12.3-.36-2.79-.97-5.76-.82-8.63.48-5.89 1.99-11.58 4.21-17.03-.07 2.4-.16 4.8-.24 7.2-.1 3.35-.1 6.69-.07 10.04v.02c.02.27.03.54.03.81 0 .25.02.5 0 .75 0 .17-.01.34-.02.51v.06.16c0 .11-.02.24-.04.35-.03.29-.08.59-.14.88-.01.19-.02.39-.03.58.02.15.04.29.05.44.05.51.05 1.02.06 1.53 0-.01 0-.02 0-.03 0 .63-.04 1.27-.13 1.9v.02c-.03.16-.06.32-.11.47v.02c-.02.07-.02.15-.03.22v.04c-.01.09-.03.17-.05.26v.03c-.03.06-.08.11-.13.15.02.13-.02.25-.09.34-.02.11-.07.21-.17.27-.02.02-.05.03-.07.04-.05.02-.09.03-.14.04-.05 0-.1.02-.16.02-.08.01-.16.02-.24.02-.15 0-.29 0-.44 0-.06 0-.12 0-.18 0-.27.02-.55.03-.82.03-.34 0-.67 0-1.01 0-.19 0-.39 0-.58 0-.21 0-.43.02-.64.03-.06 0-.11.01-.17.02-.16.02-.32.03-.48.03-.04 0-.08 0-.12-.01-.16.03-.32.05-.48.06-.14.02-.29.03-.44.05-.05 0-.11.01-.16.02-.26.02-.51.04-.77.05-.08 0-.17 0-.26 0h-.05c-.06 0-.11 0-.17 0-.04 0-.08 0-.12-.01-.05 0-.1-.01-.15-.02-.06-.01-.13-.03-.19-.05-.14-.04-.27-.1-.39-.19s-.06-.06-.09-.09c-.09-.09-.17-.22-.21-.35-.01-.03-.02-.07-.03-.11h-.01s-.05-.1-.05-.17c0-.06.02-.12.05-.18-.06-.11-.06-.24-.07-.36-.01-.2 0-.4 0-.59 0-.11 0-.23 0-.35-.08-.32-.11-.65-.13-.98-.03-.54-.05-1.08-.04-1.62 0-.71.02-1.41.05-2.11.01-.34.03-.67.04-1.01 0-.08.01-.16.02-.24-.03-.56-.03-1.12-.02-1.68-.02-.95-.04-1.89-.04-2.83.39-6.23 3.15-12.21 5.57-17.94 1.95-3.76 3.65-7.68 4.71-11.77zm-6.11 40.56c-1.24-3.15-1.26-6.71-1.29-10.07-.27-.31-.37.26-.34.47-.07 3.27-.21 6.74 1.63 9.61z"/><path d="m147.61 22.4c0 .45 0 .89-.02 1.34-.02.59-.03 1.17-.07 1.75-.02.27-.04.55-.06.82v.2c-.32 1.76-.72 3.51-1.05 5.25-1.11 4.98-2.22 9.96-3.86 14.79-1.32 4.06-2.94 8.15-3.7 12.35-.02-.74-.05-1.48-.1-2.22-.08-6.06-1.26-12.24-1.68-18.3-.24-4.01-.82-7.96-.37-11.98-.02-.42-.01-.85-.02-1.27 0-.01 0-.02 0-.03 0-.06 0-.11 0-.17-.02-.54-.02-1.1.05-1.63 0-.02 0-.04 0-.06.02-.1.03-.19.05-.29.03-.21.07-.43.09-.64 0-.03 0-.07 0-.11v.03s0-.02 0-.03c0-.16-.03-.31-.04-.47 0-.16 0-.33 0-.49.01-.33.09-.65.18-.95v-.02c.03-.1.05-.19.07-.3.02-.11.03-.22.05-.34.01-.11.03-.22.05-.33s.04-.22.06-.33c.02-.16.04-.34.06-.5 0 0 0-.02 0-.03.02-.16.06-.31.1-.46 0-.05.02-.1.02-.15 0-.1.02-.2.03-.29v-.05s0-.02 0-.02c.02-.19.06-.37.11-.55 0-.03.02-.07.02-.1v-.02c.02-.1.04-.18.07-.26.03-.07.07-.14.11-.21v.02s0-.02 0-.04.03-.05.04-.08 0-.02.02-.03c0-.02.02-.03.03-.05.03-.04.05-.07.08-.1 0 0 0-.01.01-.02.02-.04.03-.09.06-.13l.05-.07s.04-.04.06-.06c.03-.02.05-.05.08-.07.08-.06.16-.11.26-.15s.05-.02.08-.03h.02c.19-.05.4-.06.59-.08.05 0 .1-.02.15-.02.13-.02.27-.03.4-.05-.21 6.11-.53 12.24-.27 18.35.32 4.21 1.33 8.32 1.84 12.51.15-4.19-1.07-8.42-1.37-12.63-.23-6.07-.04-12.2.19-18.28.07 0 .14-.02.21-.02.17-.02.34-.02.51-.03h.41.29.93.73.48.37.02.16.06c.17 4.81-.44 9.73.23 14.55.09-4.67.26-9.38.19-14.06 0-.1 0-.27-.04-.42.04.01.09.02.13.03h.02.02c.14.05.26.1.4.15-.03-.01-.06-.02-.09-.04.03.01.06.02.09.03 0-.03 0-.07 0-.1h.14v.15c.02 0 .04.01.06.01h.02c.13-.05.25-.08.39-.05.11.02.2.06.28.13.09.07.16.17.21.27.01 0 .02-.02.03-.02.03-.02.07-.03.11-.04 0-.17-.01-.34-.03-.5h.01s.02 0 .02 0v.5h.05s.03.01.05.02c.05.03.06.04.06.04-.02-.1 0-.22.11-.29.04-.02.07-.03.11-.04h.05s.04 0 .06 0 .04 0 .06.02c.07.03.13.1.14.19.03.14.04.29.06.43 0 .08.02.16.02.23v.18c.03.35.06.71.08 1.06.05.66.1 1.32.14 1.99v.02c0 .07.01.14.02.21 0 .08.01.15.02.23v.03c.01.15.02.29.03.43s0 .03 0 .03c.02.32.04.64.05.96.01.25.02.5.02.75z"/><path d="m148.02 68.38c.08 2.54-.06 5.12-.22 7.71-.47-2.24-1.46-4.4-1.53-6.73-.25-3.8.41-7.58 1.27-11.28.16 3.44.32 6.88.48 10.3z"/><path d="m146.95 6.62c0 .05.02.1.02.16-.16-.02-.33-.03-.36.16-5.5 1.37-11.34 1.61-16.5 4.16-.8.41-2.02.8-2.06 1.83-6.67-.07-13.35.2-20.02.26-9.31.12-18.61.1-27.91.66h-.06c4.69-1.46 9.67-2.4 14.5-3.19 5.13-.62 10.31-.16 15.47-.31 1.12-.07 2.36-.09 3.4-.23-1.16-.02-2.33-.06-3.49-.1-4.71-.2-9.43-.43-14.14.01-4.23.42-8.35 1.48-12.48 2.43-.59.15-3.11.74-5.13 1.42-14.83.2-29.66-.02-44.5.45-5.37-.01-10.74.18-16.11.5.63-.11 1.25-.24 1.86-.4h-.07c-.14.03-.28.06-.43.09-.5.09-1.02.1-1.53.14-.48.03-.95.08-1.43.13-.08 0-.16.02-.24.03-.16.02-.32.03-.47.05 1.87-.43 3.79-.72 5.67-1 5.93-.77 11.91-1.22 17.89-1.47 6.75-.26 13.51.24 20.26-.07 5.24-.42 10.46-1.48 15.4-3.25 1.07-.41 2.1-.92 3.09-1.49-1.96.61-4.16 1.34-6.18 1.95-7.09 2.23-14.67 2.61-22.09 2.32-7.88-.22-15.74.2-23.58.96-1.93.17-11.13 1.2-14.62 2.79-.06 0-.13 0-.19 0s-.13 0-.19 0h-.01c-.38-.01-.75-.04-1.13-.08-.1-.01-.21-.03-.31-.04h-.02c-.11-.02-.23-.03-.34-.05h-.02c-.11-.02-.22-.03-.34-.05-.35-.06-.71-.09-1.07-.13-.38-.05-.75-.08-1.13-.12-.19-.02-.38-.04-.57-.06-.16-.02-.33-.04-.5-.05-.26-.01-.52-.02-.78-.03-.16 0-.32-.02-.49-.02-.04.03-.09.06-.15.06-.02 0-.05 0-.07 0-.04 0-.08-.02-.12-.05-.02-.01-.03-.03-.05-.04 0 0-.01-.01-.02-.02-.02-.03-.04-.06-.05-.09 0-.02-.01-.05-.01-.08 0-.02 0-.04 0-.06v-.03s-.04 0-.06.01h-.05v.02h-.02c-.12.03-.24.08-.36.1-.04 0-.08.01-.13.01s-.08 0-.13-.01c-.02 0-.04-.01-.06-.02s-.04-.02-.06-.03-.08-.06-.11-.09-.06-.07-.09-.11c-.05-.08-.08-.18-.08-.27-.02-.19 0-.36 0-.54 0-.04 0-.08 0-.11v-.46c.01-.18.02-.35.03-.53 0-.07 0-.14 0-.21 0-.02 0-.05 0-.07 0-.01 0-.02 0-.03.02-.05.03-.09.06-.13.02-.03.03-.06.06-.08 0-.04 0-.07 0-.11 0-.02 0-.05 0-.07 0-.03 0-.05 0-.08s0-.06 0-.1v-.06c0-.22 0-.44 0-.66 0-.01 0-.02 0-.03 0-.1 0-.2.02-.3v-.04c.01-.24.03-.48.05-.73 0-.06.01-.13.02-.19 0-.02 0-.05 0-.07 0-.12.02-.24.04-.36 0-.1.02-.21.03-.31.02-.18.04-.37.07-.55.06.03.14.03.21.02 5.4.25 10.73 1.7 16.16 1.72 6.04.05 12.06-.77 18.11-.78 7.35-.1 14.83-.06 21.78-2.82 1.93-.67 4.24-1.44 5.11-3.39 2.97.07 5.95.14 8.92.21 14.97-.1 29.97-.64 44.95-.35-.24.32-.49.65-.84.87-5.93 4.02-13.62 2.58-20.36 2.31-9.74-.38-19.68-1.39-28.96 1.21-.35-.22-.71.4-.28.5 3.32-.62 6.62-1.56 10.03-1.53 6.25-.08 12.51 0 18.75.32 6.87.3 14.68 1.79 20.79-2.17.54-.36.85-.91 1.09-1.5 1.72.03 3.43.08 5.15.14 1.99.07 4 .04 5.99 0 1.48.24 2.99.38 4.5.48.29-.09.58-.17.87-.24s.58-.15.87-.18c.21-.02.4.02.59.07h.04s.07.03.1.03h.02.02s.06.02.08.02c.17.01.34.01.51.01h.25c.42 0 .84.01 1.25.04.42.03.85.08 1.27.12.05 0 .1.01.14.02h.13c.32.04.64.05.97.06h-.01c.39 0 .78-.02 1.17-.03h.03c.18 0 .37-.02.55-.02h.4c.14.02.27.05.4.08.06 0 .11.02.17.02.11.02.23.02.34.03.06 0 .12 0 .18.02h.11s.09.02.13.02c.25.02.5.05.75.09.11.02.22.05.33.06.07.01.14.02.22.03.04 0 .07.02.1.03.1.03.18.08.24.15h.02c.06.04.11.08.16.13.02.02.04.05.06.07.02.03.04.07.06.11.03.06.05.14.06.21.01.05.02.1.03.14.02.1.03.2.03.31v.18.13.07c.06.18.13.36.18.54 0 .02.01.05.02.07s.02.08.03.12v.03c0 .02 0 .05.02.08.01.06.02.11.03.17.01.05.02.11.03.16zm-17.08 1.58c2.22-.19 4.62-.43 6.31-2.06-2.57 1.54-5.87 1.47-8.84 1.75-3.13.21-6.28.4-9.37-.13-.23-.05-.61.1-.47.37 1.24.32 2.62.39 3.93.47 2.82.08 5.64-.17 8.45-.39z"/><path d="m147.45 12.14v.2c-.18-.02-.35-.04-.53-.05 0 .05-.02.09-.03.13-.01.09-.02.17-.03.26s0 .05 0 .08v.03s0 .02 0 .03c0 .03 0 .06-.02.08-.02.07-.06.13-.12.18-.04.09-.12.16-.21.22-.14.09-.29.13-.45.15-.2.03-.38 0-.55-.07-.05.03-.11.05-.18.05-.09.01-.18.02-.28.02-.29 0-.58 0-.87.01h-.09c-.1 0-.19 0-.29 0-.18 0-.36 0-.55 0-.31 0-.63-.04-.95-.07 0 0-.02 0-.03 0h-.02s-.02 0-.02 0c-.35-.02-.7-.03-1.06-.05-.19-.01-.38-.02-.57-.04-.02 0-.03 0-.04 0 0 0-.02 0-.03 0h-.02c-.63 0-1.25-.01-1.88-.03-.19 0-.39-.02-.58-.03-.47.01-.94 0-1.41-.02-.53-.03-1.06-.07-1.59-.16-.14.02-.27.05-.41.07-2.14-.11-4.29-.17-6.43-.19 5.33-3.9 12.55-3.95 18.79-5.61 0 .14.02.29.02.44v.03.44.11.6.42.02c0 .1 0 .2.01.3v.26.34s0 .08 0 .13c0 .18-.01.37-.02.55v.04c0 .08 0 .15-.02.23 0 .11 0 .23-.01.35.14-.03.27-.06.41-.1v.2c-.11 0-.23 0-.33 0-.03 0-.06 0-.08-.01-.01.12-.03.24-.04.37 0 .07-.02.13-.03.2.17-.03.34-.05.51-.08z"/><path d="m64.13 3.18c-.71.34-1.24.98-1.9 1.4-.93.59-2.02.97-3.07 1.36-7.44 3.05-15.51 2.71-23.4 2.89-7.04.03-14.08 1.31-21.09.45-3.63-.38-7.22-1-10.86-1.3-.23.02-.71-.1-.96.01.02-.18.04-.35.06-.53 0-.04 0-.08.02-.11 0-.07.02-.14.03-.21s.02-.15.03-.21c.03-.19.07-.38.11-.56 0-.01 0-.03 0-.04.02-.1.05-.2.07-.3 0-.02.01-.04.02-.06 0-.04.02-.08.03-.13 0-.1 0-.19 0-.29 0-.07 0-.14 0-.21s0-.08 0-.13c0-.18.03-.35.08-.5.02-.05.05-.1.07-.15v-.1s-.03-.04-.04-.06-.02-.04-.03-.06v-.03s-.03-.07-.04-.11c0-.03 0-.07 0-.11 0-.12.06-.22.13-.31.03-.03.06-.06.09-.08.02-.02.03-.03.05-.03.02-.02.05-.03.07-.05.14-.07.31-.11.46-.14.09-.02.18-.03.27-.05.04 0 .08-.01.11-.01h.08.07l.08-.02s.06 0 .1 0h.02c.06 0 .13-.02.19-.03h.03.02s.06-.02.1-.03.08-.02.13-.03c.09-.02.18-.04.27-.05.18-.03.35-.03.53-.05s.36-.05.54-.07h.03.05c.06-.02.12-.03.18-.04h.03.07l.1-.02c.06-.01.13-.02.19-.02 3.07 4.14 12.83 3.9 17.36 4.02 5.47.16 10.91-.48 16.31-1.26 3.45-.56 7.04-.96 10.16-2.63.06-.05.11-.15.13-.24 4.29.08 8.59.18 12.88.28z"/><path d="m37.17 2.72c4.44.02 8.88.08 13.31.16-7.44 3.11-36.7 6.29-42.68.11h.21c.24 0 .48.01.72.03.26.02.52.04.79.06.48.04.95.08 1.43.15h.02.02c.08-.01.16-.02.24-.03.07 0 .14-.02.21-.03.27-.03.55-.07.83-.1h-.03c.2-.02.4-.05.61-.07-.03 0-.05 0-.07.01.24-.03.47-.05.71-.07.22-.02.44-.04.66-.05.09 0 .18-.01.27-.02h.13c-.51-.02-1.01-.04-1.52-.05 2.22 0 4.43-.05 6.61-.31.84 0 1.67-.02 2.5-.02 5.01-.04 10.02-.08 15.06.23z"/><path d="m14.3 84.19c.35 4.14.64 8.27.62 12.45-.1 3.42.13 6.87-.14 10.28-.61 4.99-.71 10-.19 15-.03 1.09-.11 2.18-.2 3.27-.01-.23-.02-.45-.03-.68-.01.26-.03.53-.05.79-.03.28-.06.56-.11.83-.03.18-.08.35-.14.51-.03.49-.07.98-.11 1.47-.01.19-.03.37-.05.56.02.06.03.12.03.19-.02.74-.07 1.49-.13 2.23-.05.67-.09 1.35-.13 2.02 0 .18-.01.39-.1.56s-.03.06-.05.08c-.05.06-.13.12-.21.16-.05.03-.11.05-.17.06-.06.02-.13.04-.19.06-.11.03-.24.06-.35.06h-.03c-.09.06-.19.11-.29.15-.07.03-.14.05-.22.07s-.15.03-.23.05c-.23.06-.46.1-.69.13-.38.05-.75.08-1.13.08-.07 0-.14 0-.22 0-.03 0-.06 0-.09 0-.1 0-.2-.01-.3-.02-.22-.02-.45-.06-.67-.11-.11-.02-.21-.04-.32-.06-.12-.02-.24-.05-.35-.07-.1-.02-.19-.04-.29-.06-.05 0-.11-.02-.16-.03-.03-.25-.13-.42-.3-.28-.99-5.78-2.47-11.48-3.23-17.31-.23 4.06 1.03 8.18 1.78 12.19.4 1.77.57 3.66 1.11 5.38-.08 0-.17 0-.25 0-.18 0-.35 0-.52-.02-.06 0-.12 0-.18 0-.02 0-.05 0-.07 0-.09 0-.18 0-.27 0-.04 0-.08 0-.11 0s-.08 0-.13 0h-.02s-.09 0-.13 0c-.18 0-.37-.02-.55-.02h-.2c-.11 0-.22 0-.32 0h-.64s-.02 0-.03 0c-.06 0-.11 0-.17 0h-.15s-.06 0-.08-.01c-.02 0-.03 0-.05 0-.03 0-.05-.02-.08-.03-.01 0-.02-.01-.03-.02-.03-.02-.06-.03-.08-.05-.03-.02-.06-.05-.08-.07s-.04-.04-.06-.06-.03-.03-.03-.05c-.03-.05-.06-.11-.08-.17-.01-.03-.02-.05-.02-.08-.01-.05-.02-.1-.02-.15 0-.19.09-.34.21-.46v-.06s0-.06 0-.09 0-.06 0-.08v-.04s0-.01 0-.02c0-.03-.01-.06-.02-.09-.03-.18-.05-.37-.08-.55-.05-.24-.11-.48-.14-.73-.04-.31-.05-.63-.08-.93 0 .05.02.11.02.17-.05-.39-.06-.77-.06-1.16v-.3c-.04-.74-.09-1.48-.1-2.22 0-.33 0-.66 0-1 0-.14 0-.28-.01-.42-.03-.17-.05-.35-.06-.52-.02-.17-.03-.34-.05-.51-.03-.42-.04-.84-.03-1.27v.18c0-.08 0-.17 0-.25 0-.07-.02-.14-.02-.2.06-2.73.1-5.45-.1-8.17-.22-7.2 0-14.56.09-21.81-.32-5.27 0-10.52.35-15.78.41-5.37.34-10.75.87-16.1.28-5.72.13-11.44-.14-17.15.12.21.31.43.37.66 1.35 3.65 2.42 7.44 3.52 11.18.59 5.46 1.01 11.08-.36 16.47-.91 3.32-1.96 6.62-2.82 9.96-1.04 3.14-1.96 6.46-1.52 9.81 0 0 0 .01.01.01.46-6.76 3.1-13.09 4.73-19.62 1.37-5.48.95-11.18.35-16.74-1.11-3.78-2.2-7.6-3.57-11.31-.18-.22-.35-1.13-.73-.94-.14-2.81-.31-5.63-.47-8.45 1.46 1.66 2 4.12 2.88 6.13 1.02 2.95 2.67 5.62 3.63 8.6 1.94 5.87 1.54 12.03.74 18.08-.34 4.06-.91 8.11-1.6 12.13-.81 4.35-2.89 8.41-3.24 12.87-.6 6.13-2.79 24.7 4.53 26.89 3.61.22 3.22-8.59 2.86-11.02-.16-.53-.64-.96-1.21-1-1.6.1-1.95 2.23-2.12 3.51-.09.82-.05 1.93.82 2.31-.06-.21-.22-.47-.25-.73-.14-1.25 0-4.32 1.6-4.47 1.56.31.66 3.65.79 4.85-.06 1.48-.21 3.08-.78 4.5-.71 1.45-1.72 1.53-2.95.57-1.27-.93-1.8-2.57-2.32-4-.69-2.43-1.09-4.93-1-7.47-.19-7.93.19-15.98 3.06-23.46 2.02-7.18 2.38-14.68 3.03-22.08.19-4.32-.46-8.69-1.85-12.77-.99-2.55-2.33-4.9-3.31-7.48-.95-2.15-1.6-4.5-3.04-6.39-.09-.09-.19-.22-.31-.33-.11-1.91-.21-3.82-.29-5.74 0-.05.01-.1.02-.15v-.18c-.05-.57-.08-1.14-.1-1.72-.02-.53-.01-1.06.01-1.59.01-.26.02-.52.03-.79.02-.32.05-.65.08-.98.04-.48.09-.97.17-1.45l.06-.39c.02-.13.05-.26.07-.39.01-.06.02-.11.03-.18-.02-.12-.04-.24-.05-.37-.04-.31-.1-.63-.11-.95-.01-.31 0-.6.03-.9 0-.04.01-.08.02-.12.02-.12.06-.23.1-.35 0-.02.01-.05.02-.07 0-.02 0-.03 0-.05s0-.04.01-.05c.02-.07.04-.13.08-.19.02-.03.04-.06.07-.09l.05-.05c.02-.02.03-.03.05-.04.01 0 .02-.02.03-.02.02-.01.03-.02.05-.02h.02c.14-.04.3-.02.45 0 .24 0 .48-.01.71-.03.26-.03.51-.06.76-.11h.08s.1-.03.14-.05c.07-.02.14-.03.22-.05.23-.05.46-.1.69-.15s.45-.09.69-.11c.24-.03.48-.03.73-.03.26 0 .51.02.77.03.21.01.41.02.61.03.09 0 .18.01.27.02.05 0 .1 0 .14.01.14.02.27.03.41.04-.07.18-.12.37-.15.48-1.71 9.26-.9 19.01 2.07 27.93-.69-4.88-2.13-9.78-2.29-14.79-.07-4.48-.46-9.22.81-13.57l.18.02s.08 0 .12 0h.03.03c.06 0 .11.01.16.01.16 0 .31 0 .47-.02h.23c.2 0 .42-.02.62.03.06.02.11.03.16.05s.06-.03.08-.04c.08-.03.17-.05.26-.06h.03s.08 0 .11.02h.02c.04 0 .08.02.11.03.08.04.16.08.21.14 0 0 .01 0 .02.02 0 0 .01 0 .02.02.02.02.04.05.06.07s.04.07.06.1c0 0 .01.01.01.02.02.04.03.08.05.12.01.04.02.08.03.13.02.09.03.18.04.28.01.11.02.21.03.31v.21h.01s0 .08 0 .11c0 .14.02.27.02.4v.13c0 .13 0 .26.02.38.01.21.02.42.03.63 0 .21.01.41.02.62.01.12.02.24.03.35v.24c.02.26.03.52.02.78v.12c.03.46.08.91.11 1.37.03.17.06.34.08.51.04-.24.08-.48.11-.72 0 .48-.01.96-.02 1.43.02.19.04.38.05.58.03.62 0 1.23-.05 1.85 0 1.43.04 2.87.1 4.31v.01-.02c.06 2.17.26 4.37.31 6.51-.07 6.17-.26 12.31-.02 18.49-.69 7.97-.61 16.03-.26 24.05-.09 3.7-.42 7.39-1.38 10.97-.77 3.08-1.72 6.15-2.06 9.32-.13 1.29-.22 2.74.58 3.85-.89-3.84.7-7.91 1.64-11.67.87-2.92 1.29-5.91 1.49-8.92zm-3.63 46.27c.07-2.41-.18-5-.34-7.47.02-.15.02-.39-.19-.4-.13 0-.19.13-.19.24.17 2.55.43 5.09.72 7.63zm-6.65-111.84c-.11-.02-.21-.04-.32-.06v.02s.02.02.03.03c0 0 .02 0 .02.02 0 0 .01.02.02.02.06.02.13.05.18.09s.05-.07.06-.1z"/><path d="m22.69 136.45c2.34-.02 4.67-.05 7.01-.04-5.32.52-10.59 1.43-15.94 1.58-3.62.28-7.27 1.08-10.92.57-.02-.02-.05-.04-.09-.04-.02-.09-.11-.15-.19-.15-.02-.79-.03-1.59-.06-2.38 3.74.33 7.51.46 11.27.49.28.19.51.17.69 0 2.74.02 5.49 0 8.23-.03z"/><path d="m147.06 137.94c.05 2.61.1 5.22.11 7.84-.67.04-1.35.1-2.01.13-1.98.2-3.97.42-5.96.59-.15-.04-.31-.07-.47-.12-2.86-1.04-5.97-1.12-8.96-1.67-4.47-.68-8.95.11-13.42.39-7.03.21-14.09.12-21.11-.37-3.12-.22-6-1.5-8.99-2.32-1.61-.57-3.05-1.62-4.75-1.99-4.13-1.15-8.32-1.99-12.59-2.47-2.8-.44-5.53-1.24-8.36-1.41-1.07-.04-2.13-.18-3.2-.21-.08.02-.23.06-.27.14.06.11.14.19.25.26 1.06.29 2.2.18 3.29.31 6.97 1.04 14 2.15 20.8 4.05 1.7.37 3.13 1.47 4.77 2.01 3.17.86 6.23 2.27 9.55 2.36 7.33.34 14.71.51 22.04.14 2.86-.24 5.73-.63 8.61-.61 3.9.21 7.8.98 11.65 1.61-2.05.16-4.11.27-6.17.26-10.09.05-20.18.04-30.26.08-.61-.1-1.23-.18-1.86-.2-4.3.05-8.69.25-12.87-1-1.45-.37-2.93-.93-4.44-1.21-2.42-.35-4.89-.08-7.3-.4-7.17-1.03-14.17-3.13-21.46-3.32-6.69-.47-13.39-.79-20.09-.3-8.81.76-17.54 2.07-26.34 2.78-1.53.18-3.05.5-4.59.58-.07-1.63-.09-3.27-.11-4.91.5.31 1.86.14 2.28.23 3.26.11 6.47-.61 9.72-.75 5.28-.32 10.87-.37 15.9-2.03 1.72 0 3.44.03 5.15.09 1.55.03 3.1.05 4.64.05 6.42 0 12.83-.23 19.25-.46 9.44-.34 18.88-.67 28.34-.27.37 0 .73.02 1.1.03-.49.18-.96.39-1.43.61-1.12 1.04.19 2.37 1.35 2.57 1.37.34 2.78.41 4.19.41 3.71.03 7.42-.24 11.12-.43 1.01-.13 2.49.14 3.05-.91.21-.78-.11-1.31-.65-1.66.2 0 .4-.01.6-.02 2.1-.07 4.21-.15 6.31-.1h.1c.81.37 1.55.86 1.83 1.75.21 3.69-17.29 2.97-20.37 3.19-3.34-.31-10.18 1.12-11.81-2.44-.28-.56-.24-1.27.12-1.79.17-.34.56-.44.82-.67.19-.21.1-.38-.18-.36-1.29.41-1.67 2.15-1 3.23 2.08 3.59 7.21 2.31 10.7 2.68 7.05-.18 14.63.87 21.24-2.04 1.12-.64 1.19-2.12.33-3.01-.19-.24-.43-.44-.7-.6 1.29-.08 2.59-.14 3.88-.2-.07.03-.13.1-.13.23-.69 5.41 5.23 5.36 9.05 5.51 3.92.36 7.72 1.28 11.5 2.33-3.52-1.93-7.66-2.57-11.65-2.94-3.46-.15-9.21.11-8.5-4.91 0-.13-.06-.21-.14-.23 7.94-.31 15.87-.14 23.81.07.47-.01.96 0 1.45.03 1.09.04 2.2.09 3.19-.21l.02-.02c.02.5.02 1 .03 1.5-1.86-.05-3.72.06-5.53.45-1.03.21-2.12.64-2.74 1.54-1.33 2.86 2.7 5.03 5.14 4.86.95-.02 2.03-.09 2.9-.3-2.47-.06-5.21.08-7.09-1.8-.62-.55-1.06-1.48-.68-2.31 1.33-1.76 3.99-1.62 6.01-1.88.67-.03 1.33-.04 1.99-.03z"/><path d="m82.26 145.02c2.8.54 5.46 1.63 8.3 1.99-6.99.06-13.98.16-20.96.33-3.28.06-6.52-.5-9.79-.62-6.86.14-13.71.11-20.57.26-10.66.14-21.34 0-32.01.36-.61.05-1.23.05-1.85.05-.83 0-1.66 0-2.46.12 0-.08-.01-.17-.02-.27-.1-.96-.17-1.92-.22-2.88 1.03-.03 2.05-.22 3.07-.36 8.18-.91 16.42-1.7 24.59-2.58 7.82-.76 15.69-.49 23.52.05 6.37.18 12.53 1.74 18.74 2.94 3.19.64 6.43.35 9.64.62zm-7.52 1.68c1.02 0 2.18.07 3.13-.02-4.18-.24-8.36-.81-12.38-2.01-3.74-.99-7.64-1.41-11.48-1.82-8.2-.13-16.4-.78-24.59-.05-7.91.52-15.55 2.89-23.46 3.3-.37-.2-.86.15-.47.46.41.07.86.01 1.29 0 8.8-.75 17.4-3.14 26.24-3.28 4.15-.41 8.29.14 12.45.1 4.48.06 8.98-.04 13.42.74 5.38.37 10.4 2.83 15.87 2.6z"/><path d="m106.51 136.94c.89.9-.09 1.31-.95 1.37-5.54.21-11.21 1.06-16.71.15-.61-.14-1.69-.7-1.23-1.48.82-.5 1.78-.83 2.75-1.07 1.15.06 2.31.14 3.47.22-.04.19-.02.39.08.59.25.7 1.07.96 1.75 1.01.4.15 7.22-.52 5.51-1.17.02.04.05.08.06.12-2.21-.07-4.67 1.3-6.75.14-.21-.17-.3-.44-.23-.66 2.18.16 4.37.31 6.52.35 1.61.04 3.22 0 4.82-.05.32.11.64.26.91.47z"/></g></g></svg>