<svg viewBox="0 0 150 147.95" xmlns="http://www.w3.org/2000/svg" xmlns:xlink="http://www.w3.org/1999/xlink"><clipPath id="a"><path d="m0 0h150v147.95h-150z"/></clipPath><g clip-path="url(#a)"><path d="m144.12 6.45s0 .05 0 .07c0 .04 0 .08-.01.11v.03c0 .03-.02.07-.03.1 0 .01 0 .02-.01.03-.1.22-.31.39-.55.43h-.44c-2.15.05-4.3-.17-6.45-.25-16.4-.13-32.8-.51-49.2-.15-9.29-.29-18.6-.53-27.91-.18-7.39.1-14.83.21-22.21.69-3.35.45-6.69.92-10.06.92-.98 0-1.97-.04-2.95-.13-2.85-.34-5.71-.25-8.58-.21-1.7-.08-3.4-.28-5.09-.43-.95-.09-1.89-.15-2.84-.18-.25.2-.48-.34-.19-.45.29-.1.59-.11.88-.18.32-.06.65-.12.98-.17.24-.04.49-.07.73-.1s.49-.05.74-.08c.24-.02.49-.04.73-.06.38-.03.75-.05 1.13-.06.14 0 .27-.01.41-.02.29 0 .58-.01.86-.02.75-.01 1.5-.01 2.25 0 1.39 0 2.78.01 4.16-.06 4 .18 8.07.67 12.04.08.37-.05.74-.11 1.11-.15.44-.06.88-.11 1.32-.17.32-.04.65-.08.97-.11.72-.08 1.44-.15 2.16-.2.17-.01.34-.03.51-.04.51-.04 1.02-.08 1.53-.11l.36-.02c.29-.02.58-.04.87-.05.18-.01.37-.02.56-.03.29-.02.58-.03.86-.04.39-.02.78-.03 1.17-.05.51-.02 1.02-.04 1.53-.05.26 0 .51-.02.76-.02.51-.01 1.02-.03 1.53-.04 1.01-.02 2.01-.04 3.02-.06.48 0 .96-.02 1.45-.02h.01c1.57-.02 3.13-.05 4.7-.08 7.4-.34 14.8-.2 22.2-.07 4.13.08 8.25.15 12.38.14 3.51 0 7.02 0 10.53-.01 7.9-.02 15.79-.03 23.69.1 5.58.37 11.28-.16 16.83.6.12.02.24.04.36.05.3.03.6.04.82.16.02 0 .03.02.05.03.09.06.18.14.23.24.02.06.05.11.06.17s.02.06.02.1z"/><path d="m9.61 6.51c.46-.03 1.26.04 1.14.67-.03.11-.07.21-.12.29-.51.84-1.95.29-2.74.75.18 7.31-.17 14.67-.38 22.01.14 6.63.52 13.24.37 19.88.1 7.85-.83 15.65-.69 23.49.21 9.04.44 18.08.39 27.13-.16 10.72.09 21.58.5 32.26.2 2.67.13 5.36.39 8.01.01.09.02.19.03.29 0 .14-.03.29-.09.42-.09.18-.25.32-.44.35-.03 0-.05 0-.08 0-.34 0-.58-.35-.61-.67-1.96-22-.55-44.16-1.47-66.23-.03-13.75 1.36-27.53.4-41.28-.26-6.87.38-13.74.41-20.61.09-1.41-.27-3.25-.05-4.66.06-.4.17-.75.34-1.06.07-.12.14-.23.23-.32.03-.03.06-.07.09-.1.4-.41 1.01-.65 1.92-.65.11 0 .22 0 .34.01.05 0 .1 0 .15.01z"/><path d="m142.95 140.8c.36.13.61.41.53.96-.01.08-.03.17-.07.26-.03.06-.06.13-.1.19-.02.03-.04.05-.06.08-.01.02-.02.03-.03.04s-.03.03-.04.04c-.05.05-.11.09-.17.11-.03.01-.06.02-.1.03-.03 0-.07.01-.1.01-.04 0-.08 0-.12-.02-.53-.05-1.06-.02-1.59 0-.53.03-1.06.06-1.59 0-3.3-.15-6.61-.06-9.92.04-2.13.06-4.27.12-6.4.11-3.1.02-6.2-.04-9.29-.09-3.92-.07-7.85-.15-11.77-.06-2.71.03-5.4-.12-8.1-.28-3.03-.17-6.06-.35-9.09-.26-3.09-.01-6.17 0-9.26.01-5.52.02-11.03.04-16.54-.06-9.89.41-19.78.96-29.67 1.22-5.09-.13-10.07-1.22-15.18-.78-.41 0-.83 0-1.25 0-.37 0-.73.01-1.09 0-.18 0-.36 0-.54-.01-.79-.03-1.58-.12-2.32-.38-.15-.05-.29-.1-.44-.17-.08-.03-.16-.07-.24-.11-.11-.05-.21-.11-.32-.17-.34-.06-.18-.7.14-.5.08-.02.16-.03.24-.04 2.8-.44 5.66-.43 8.51-.41 1.19 0 2.39 0 3.58-.02 3.04.29 6.05.88 9.11.82 9.95-.27 19.89-.86 29.83-1.23 5.06.14 10.12.1 15.18.06 7.79-.06 15.57-.11 23.34.47 14.57.22 29.14.13 43.69.03.39-.04.89-.05 1.25.08z"/><path d="m145.1 35.93c.3 10.9-.46 21.79-.73 32.68-.52 9.28-.24 18.58-.38 27.88-.35 13.26.08 26.54.32 39.8.14 1.57.31 3.15.06 4.72-.06.41-.24.94-.71 1.02-.03 0-.07.01-.1.01-.05 0-.1 0-.14-.02-.29-.08-.51-.41-.54-.72.03-.17.05-.34.08-.5.33-2.64-.26-5.34-.12-8.01-.11-7.05-.35-14.08-.37-21.12-.03-10.27.24-20.53.16-30.8-.02-8.59.71-17.15.72-25.73.22-4.71.65-9.41.4-14.13.14-6.44-.77-12.82-1.04-19.24-.11-4.71.14-9.41.32-14.11.02-.13.03-.28.06-.41.04-.26.12-.51.34-.68.08-.13.08-.26.21-.36.11-.09.31-.11.41 0h.01c.04.05.06.11.06.17 0 .11-.06.22-.18.24.06.06.11.13.14.2s.04.08.05.12c.03.06.05.12.06.18.02.06.03.13.04.2 0 .05.01.09.02.14v.12c.03.4 0 .82.03 1.18.14 3.3-.26 6.59-.17 9.89-.13 5.8.75 11.54.99 17.32z"/><path d="m12.91 1.5c.02.14-.07.28-.28.26-.36.44-.76.85-1.21 1.23-.82.7-1.78 1.27-2.8 1.6-.1.03-.2.06-.31.09-.31.08-.62.15-.94.18-.09.01-.18.02-.27.03-.62.04-1.25-.02-1.87-.2.84 2.08.95 4.48.27 6.61 0 .04-.01.08-.02.11-.06.26-.26.5-.48.63-.1.06-.21.09-.32.09-.12 0-.23-.04-.34-.14-.05-.05-.1-.11-.14-.2-.15-.3-.17-.67-.05-.98.69-1.74.47-3.64.01-5.41-.1-.81-1.26-1.98-.33-2.55.15-.06.31-.02.43.08 1.14.57 2.48.38 3.64.14 1.64-.42 3.14-1.51 4.77-1.78.14.03.21.12.23.21z"/><path d="m146.93 9.31s0 .07 0 .1c0 .14-.04.26-.1.37-.09.16-.24.27-.47.27-.03 0-.07 0-.11 0 0 0-.02 0-.03 0-.08-.01-.15-.04-.22-.07-.1-.05-.18-.12-.26-.2-.17-.18-.26-.44-.31-.7 0-.03-.01-.06-.02-.09-.02-.12-.03-.24-.03-.35.02-1.83.03-3.66.08-5.49-1.1.41-2.31.64-3.52.64-.12 0-.23 0-.35 0-.1 0-.2 0-.31-.01-.14-.01-.27-.02-.4-.04-.11-.01-.23-.03-.34-.05-.34-.05-.68-.13-1.01-.23-.1-.03-.2-.06-.29-.09-.23-.08-.46-.17-.68-.27-.09-.04-.18-.08-.27-.13-.02-.01-.05-.02-.07-.04-.09-.05-.18-.1-.27-.15h-.02c-.39-.24-.76-.52-1.1-.85-.31.12-.36-.49-.09-.54.18-.03.38.09.54.14.34.11.68.19 1.03.27 2.04.44 4.21.37 6.26.06.5-.09.98-.29 1.45-.09.26.17.48.4.5.72.03 1.4.09 2.79.21 4.18.05.67 0 1.35.06 2.02.08.18.12.42.12.64z"/><path d="m19.42 5.08c-2.25-.37-3.25-3.3-5.72-3.16-.85.16-1.44.86-2.22 1.08-.26 0-.26-.48 0-.48.1.01.19-.08.27-.12.53-.4 1.04-.85 1.62-1.2 1.57-.54 3.26.44 4.45 1.39.86.85 2.17 1.3 3.33.79 1.68-1.09 3.56-2.11 5.63-1.92 1.11.24 1.85 1.25 2.89 1.65 1.47.42 2.74-.31 3.89-1.12 2.49-1.46 5.01-.43 7.12 1.15.92.14 2-.24 2.84-.55 1.77-1.04 3.61-2.05 5.42-.46 3.66 2.93 3.45.14 6.71-.89 1.27-.31 2.58.2 3.59.96.47.42 1.03.7 1.66.61.4-.05.84-.27 1.09-.52 1.1-1.51 2.98-1.9 4.75-1.58 1.28.04 2.02 1.19 3.15 1.56 1.15.03 2.25-.75 3.36-1.02 1.74-.61 3.12.44 4.45 1.4 1.34.34 2.57-.72 3.8-1.08 1.89-.69 3.88-.17 5.31 1.2.36.21.69.2 1.07.2 2.29-.13 3.84-2.52 6.25-2.11.81-.02 1.56.34 2.29.7.81.4 1.6.8 2.48.68.77-.15.95-.96 1.5-1.41.91-.53 2.07-.3 3.07-.23 1.27.11 2.46.72 3.03 1.91 1.61-.25 3.21-.62 4.81-.93 1.72-.74 3.78-1.32 5.37.04 1.12.93 2.57 1.37 4 .96.73-.16 1.11-.57 1.62-1.03 1.01-.55 2.24-.55 3.36-.47 1.09.05 2.09.47 2.89 1.2.95.55 2.32.85 3.32.35.79-.77 1.35-1.8 2.5-2.07.64-.2 1.29-.04 1.83.12.73.23 1.74.33 2.11 1.08.18.4-.02 1.01-.51 1.02-1.87-.9-3.52-1.68-4.84.51-1.23 1.42-3.79 1.25-5.12.05-1.16-1.42-3.31-1.3-4.88-.75-1.4 1.57-3.95 2.35-5.8 1.03-1.63-1.41-2.81-2.06-4.89-.96-1.72.47-3.51.65-5.21 1.18-.39.1-.86.23-1.19-.06-.43-.39-.61-.97-.98-1.41-1.01-.73-2.46-.73-3.63-.64-.24.02-.4.21-.49.4-1.45 2.55-2.9 1.67-4.54.79-.93-.5-1.91-1.01-2.99-.87-2.14.41-3.53 2.68-6 2.41-.93-.02-1.51-.8-2.18-1.31-2.3-1.5-4.53.92-6.8 1.15-.79.08-1.44-.4-2-.89-1.84-1.99-4.06.14-6.07.63-1.25.14-2.03-.97-2.98-1.54-1.04-.45-2.29-.5-3.31-.1-1.09.78-1.83 2.28-3.38 2.15-1 .04-1.69-.71-2.39-1.3-.76-.54-1.78-.83-2.67-.41-1.39.58-2.17 2.23-3.79 2.33-1.94.17-2.99-1.91-4.65-2.53-2.38.18-4.4 2.97-6.91 2.02-1.01-.54-1.75-1.51-2.92-1.76-1.92-.62-3.5.63-5 1.62-.98.4-2.15.56-3.15.13-.84-.42-1.44-1.22-2.3-1.62-.94-.23-1.99 0-2.89.31-1.21.72-2.28 1.9-3.7 1.9-.24 0-.48-.03-.74-.1z"/><path d="m3.73 104.85c-1.3-1.01-.64-3.29-.32-4.66.25-1.06 1.59-2.04 1.11-3.14-.45-1.11-1.42-1.86-1.85-2.98-.37-1.08-.24-2.32.17-3.37.76-1.51 1.81-2.7 1.1-4.43-1.25-1.72-1.96-4.03-.59-5.9.56-.7.96-1.71.67-2.6-2.84-2.58-1.58-6.25.02-9.15.35-.65.22-1.35-.07-1.94-2.03-1.83-1.91-4.3-.6-6.54.47-.97 1.3-2 .99-3.14-.48-.92-1.36-1.56-1.98-2.38-1.5-2.94 1.32-5.79 2.13-8.47-.03-1.1-.49-2.16-1.02-3.07-1.02-1.39-2.31-2.86-1.83-4.72.17-1.12 1.02-1.91 1.62-2.82.24-.67.25-1.4.29-2.11.16-2.58-2.34-4.66-1.71-7.2.23-.96.89-1.74 1.16-2.69 1.03-2.99-1.95-5.93-.29-8.87.44-1.37 1.77-2.31 2.04-3.71.14-.2.42.05.32.23-.08.7-.03 1.4-.24 2.08-.39 1.27-1.29 2.44-1.22 3.82.2 1.83 1.3 3.48 1.01 5.4.05 1.79-1.24 3.08-1.54 4.71 1.24 2.94 2.73 6.21 1.31 9.37-.5.92-1.57 1.65-1.41 2.81.03.23.12.52.24.71 1.13 1.46 2.17 2.95 2.54 4.79.86 3.1-2.58 5.36-2.39 8.42.57.97 1.57 1.68 2.05 2.74.62 1.31.29 2.85-.37 4.08-.67 1.34-1.92 2.92-1.11 4.45.84.9 1.5 1.99 1.48 3.27-.02 2.4-2.14 4.21-1.85 6.64.11 1.16 1.2 1.88 1.53 2.96.5 1.47-.11 3.03-.93 4.25-.67 1.34.11 2.66.73 3.85.34.89.44 1.87.38 2.82-.18 1.21-1.05 2.15-1.45 3.29-.5 1.35.13 2.61.96 3.68.42.76.86 1.59.8 2.47-.17 1.07-.8 1.98-1.13 2.99-.48 1.35-.18 2.78-.35 4.15-.14 0-.29-.02-.41-.09z"/><path d="m3.1 146.27c-.43-.26-.4-.84-.2-1.24.37-.82.69-1.68 1-2.53.33-.96 0-1.64-.69-2.3-.58-.78-.95-1.73-.84-2.72.34-3.9 4.13-6.15 1.15-10.21-3.28-6.01 1.47-5.04.29-10.72-.02-.52-.46-.79-.69-1.2-1.11-2.57.2-5.24 1.07-7.66-.02-1.15-.69-2.23-.68-3.41-.41-.25.25-.89.39-.28 3.42 4.36.06 5.43.26 9.73-.03.49.27.79.56 1.13.89 1.93.92 4.47.15 6.46-.45 1.01-1.53 1.88-.98 3.09.37 1.22 1.07 2.29 1.63 3.41.78 1.76.69 3.9-.07 5.65-.55 1.19-1.41 2.28-1.6 3.61-.58 1.72 1.6 2.51 1.56 4.14.08 1.55-.52 3.45-1.49 4.62-.08.26-.32.49-.58.49-.08 0-.16-.02-.24-.07z"/><path d="m12.75 147.3c-1.4-.04-2.33-1.15-3.56-1.61-.92-.27-1.85-.06-2.78.14-.98.22-1.94.44-2.87.11-.15.31-.46-.08-.32-.29.05-.14.19-.21.33-.19.89-.34 1.68-.83 2.57-1.16 1.15-.38 2.43-.65 3.6-.26 1.27.48 2.26 1.72 3.76 1.53.9-.12 1.58-.77 2.35-1.19 1.18-.58 2.54-.67 3.83-.75 1.51-.25 2.57.99 3.96 1.18 1.73.18 3.38-.29 4.99-.83 2.7-.83 5.17.88 7.75 1.33.7.09 1.46.24 2.16.14.87-.27 1.63-.78 2.47-1.12 1.53-.66 3.31-.95 4.94-.51 1.26.5 2.37 1.44 3.78 1.5.99.11 1.68-.69 2.35-1.28 2-1.9 4.81-.48 6.67.92 1.04-.16 1.92-.86 2.89-1.24 1.98-.85 4.36-.86 6.17.38.97.58 2.12 1.15 3.24 1.12 2.24-.35 4.1-2.63 6.51-1.51.96.28 1.67 1.26 2.73 1.13 1.43-.15 2.45-1.42 3.91-1.48.95-.05 1.8.35 2.64.75 1 .47 2 .95 3.16.67-1.39 2.08-2.46 1.48-3.7.87-.73-.35-1.51-.71-2.45-.52-1.1.35-1.96 1.26-3.14 1.41-1.16.21-2.02-.29-2.83-.79-1.21-.74-2.33-1.49-4.25.14-2.74 1.81-4.39.82-6.13-.17-1.88-1.07-3.87-2.15-7.44.34-1.25.84-2.32.14-3.4-.56-.94-.61-1.88-1.22-2.95-.81-1.36.74-2.16 2.51-3.93 2.35-1.76 0-3.01-1.36-4.52-1.97-1.67-.52-3.13.14-4.6.8-1.32.6-2.64 1.19-4.12.93-2.1-.07-3.83-1.51-5.91-1.7-1.14-.04-2.2.34-3.27.72-1.06.38-2.12.76-3.27.73-1.24.18-2.27-.6-3.34-1.07-1.28-.24-2.61.03-3.87.31-1.2.49-2.25 1.57-3.59 1.57-.17 0-.34-.02-.53-.06z"/><path d="m104.09 146.66c-2.43-2.44-3.71-1.64-5.21-.83-1.07.58-2.25 1.15-4.03.53-1.2-.4-2.05-1.97-3.37-1.47-.97.34-1.97.95-3.02.73-.1-.04-.17-.08-.2-.18-.09-.18.12-.47.29-.29.41.15.75-.14 1.06-.34 2.56-2.2 3.35-1.45 4.55-.71.63.39 1.36.77 2.51.75 1.95-.11 3.6-2.05 5.59-1.34 1.14.26 1.82 1.3 2.84 1.74 1.44.41 2.66-.54 3.85-1.16 1.52-.66 3.38-.51 4.67.58 1.98 1.8 3.94-.91 5.9-1.39 1.93-.67 3.45.81 5.07 1.5 1.04.24 1.97.38 2.94-.04 1.33-.88 2.78-1.79 4.45-1.39 1.37.16 2 1.59 3.15 2.13 1.31.05 2.46-.58 3.62-1.21 1.24-.67 2.49-1.35 3.95-1.18 1.64.3 3.64.57 4.71 1.97-.2.15-.51.23-.77.31-.76.15-1.47-.28-2.17-.53-3.18-1.7-5.9 1.28-8.9 1.87-.69.09-1.47-.11-1.91-.67-.45-.73-1.13-1.37-2-1.48-1.45-.25-2.54.59-3.56 1.45-1.48.9-3.54.84-5.01-.08-1.11-.99-2.66-1.61-4.05-.83-1.53.7-3.12 2.45-4.92 1.82-1.11-.49-1.93-1.51-3.18-1.63-1.4-.21-2.35.92-3.52 1.47-.51.23-1.07.35-1.64.35-.61 0-1.21-.14-1.73-.45z"/><path d="m146.27 94.25c.32-.47.89-.96.85-1.56-.02-.61-.52-.97-.77-1.48-1.02-1.89-.8-4.25.43-5.98.97-1.24.14-2.58-.54-3.71-1.36-2.41-.62-5.47.9-7.61.34-.62.16-1.33-.07-1.95-.38-.78-1.18-1.35-1.35-2.25-.43-1.62.19-3.2.92-4.62.14-.81.03-1.59-.64-2.12-.98-1.06-.79-2.67-.17-3.88.34-.72 1.06-1.19 1.22-1.99.11-.41.25-.89.03-1.28-2.2-1.61-.95-4.69-.2-6.79.53-1.53.11-3.16-.3-4.68-3.07-6.83 2.35-4.92.7-10.29-1.77-3.31-1.58-6.07.08-9.38.01-1.35-1.1-2.38-1.51-3.63-.41-1.24-.67-2.69-.26-3.97.71-1.21 1.56-2.5 1.05-3.96-.58-1.31-.76-2.85-.03-4.13.32-.19.43.46.21.59-.01 1.04.66 1.78.99 2.7.43 1.23.47 2.64 0 3.86-.2.65-.71 1.17-1.01 1.75-.18.6.04 1.28.11 1.88.42 1.67 1.72 3.09 1.68 4.89 0 1.35-.92 2.56-1.1 3.84-.51 3.02 2.09 5.69 1.38 8.76-.17 1.42-1.69 2.25-1.86 3.61 1.2 3.6 2.4 7.13.47 10.73-.15.76-.43 1.69-.12 2.41.23.34.54.61.72.99.79 1.68-.05 3.51-1.17 4.8-.28.46-.43 1-.4 1.54.17.49.54.87.84 1.28.57 1.01.62 2.35.29 3.45-.43.8-.87 1.62-.78 2.56.02.85.61 1.48.98 2.19.46.96.69 2.06.51 3.12-.14.87-.79 1.51-1.12 2.31-.37.84-.52 1.77-.48 2.68.66 3.23 2.83 4.45.57 7.95-.43.81-.55 1.73-.34 2.62.09.73.39 1.39.78 1.99.43.87.33 1.93-.14 2.77-.41.73-.99 1.19-1.08 2.03-.14.83.11 1.64.14 2.45-1.81-.44-1.28-3.38-.42-4.51z"/><path d="m147.44 140.42c.26.37.65.76.51 1.26-.07.33-.41.61-.59.85-.42.51-.59 1.24-.6 1.86h-.05c-.13 0-.25-.04-.37-.13-.06-.06-.11-.13-.15-.2-.03-.06-.06-.12-.09-.18-.02-.05-.03-.09-.05-.14-.02-.06-.03-.11-.03-.17 0-.05-.01-.11-.01-.16 0-.69.49-1.44.93-1.92-.7-.79-1.57-1.53-1.68-2.65-.03-1.66-.24-3.53.63-5.02.8-1.05 1.43-2.32 1.71-3.55.04-.17.02-.34-.03-.5-.06-.21-.2-.44-.34-.57-.86-.69-1.81-1.42-2-2.58-.18-.67-.07-1.36.24-1.97.24-.5.88-.78 1.08-1.29.34-.9.07-2.07-.49-2.78-1.35-1.38-1.62-3.68-.69-5.35.85-1.4 1.52-2.86 1.01-4.46-.19-.68-.6-1.18-.9-1.77-.82-1.66-1.04-3.71-.54-5.5.35-1.61 2.38-2.89 1.46-4.64-.01-.02-.02-.04-.03-.06-.02-.04-.04-.09-.06-.13 0-.02-.02-.03-.02-.05-.07-.18-.12-.38 0-.53.06-.12.19-.15.31-.12.1.03.18.11.18.24 2.02 1.09.72 3.61-.3 4.97-.63 1.07-.57 2.36-.34 3.54.56 1.9 1.84 3.58 1.57 5.67 0 1.85-1.41 3.15-1.59 4.86-.2 1.41.99 2.35 1.36 3.61.41 1.34.37 2.89-.54 4.02-.25.28-.56.55-.6.94-.15.91.55 1.58 1.15 2.15 2.25 2.07.13 5.03-.96 7.11-.26 1.28-.28 2.63-.08 3.91.17.59.6.98.96 1.44z"/><path d="m33.33 11.13c-3.82-.55-7.65-.44-11.48-.33-3.87.11-7.73.22-11.58-.34.1.34-.45.36-.52.07.14-1.23 3.22-1.12 5.67-1.02 1.16.05 2.18.1 2.68 0 5.13-.45 10.32-.32 15.42.34 2.53.05 5.06-.07 7.58-.18 3.07-.14 6.14-.29 9.22-.12 5.06.08 10.11-.12 15.17-.33 6.15-.25 12.3-.5 18.46-.23 6.95-.06 13.91-.81 20.86-.31 4.08.13 8.18.08 12.28.02 7.32-.1 14.64-.2 21.89.79.57.05 1.13.06 1.7.09.42.03.83.29 1.02.65-.17.27-.45.47-.75.56-1.71.12-3.47-.14-5.19-.17-11.71-.89-23.48-.45-35.21-.92-3.08-.08-6.15.05-9.23.18-3.26.14-6.53.28-9.8.17-7.68-.45-15.37.1-23.05.48-2.48.19-4.96.17-7.44.15-1.64-.01-3.28-.02-4.91.03-3.66.09-7.32.44-10.98.44-.61 0-1.22 0-1.84-.03z"/><path d="m11.13 138.5c-.24-.33-.31-.72-.31-1.12-.08-2.29-.17-4.62-.22-6.83-.52-2.92-.51-5.81-.6-8.77-.11-13.5.17-27.01.13-40.51-.19-22.99-1.66-45.98-.09-68.96.26-3.51 1.07-3.29 1.17.24-.08 10.87-.73 21.73-.47 32.6.24 13.45.78 26.9.65 40.36-.22 12.44-.2 24.88-.13 37.32.09 4.9.42 9.71.27 14.6 0 .38-.07.81-.38 1.07z"/><path d="m16.34 139.33c-1.66-.14-3.45-.08-4.98-.72-.12-.03-.18-.18-.15-.29-.13-.43.12-1.01.63-.96 3.1.36 6.25.14 9.36.45 3 .45 5.91.86 8.92.85 7.97.41 15.95.15 23.92-.11 6.66-.21 13.34 0 20-.35 10.53-.24 21.08-.33 31.56-1.22 2.49-.12 4.99 0 7.48.1 2.15.09 4.31.19 6.47.14 5.8-.16 11.61-.55 17.41-.62.46.1.91.41 1.09.85-.32.76-1.17.95-1.92.88-5.69.1-11.37.2-17.05.31-8.74-.33-17.47-.35-26.19.33-21.68.06-43.32 1.23-65 1.32-3.88-.08-7.66-1.02-11.54-.95z"/><path d="m138.38 138.42c-.45-.31-.51-.96-.02-1.27.24-6.48 0-12.96.41-19.38.35-4.17 1.16-8.29 1.17-12.49.18-7.39.42-14.9.44-22.26-.24-4.68-.41-9.34-.14-14.02.13-8.28.57-16.46.06-24.7-.39-6.74-.84-13.48-.94-20.23.12-4.3.67-8.59.78-12.88-.32.15-.44-.4-.11-.46.03-.06.07-.12.09-.18 0 .02 0 .03-.01.04v.03c2.28-3.1.49 12.8.66 13.71.12 8.01.75 16.02 1.16 24.02.09 8.65-.22 17.27-.43 25.91.42 11.75.22 23.51-.37 35.24-.58 5.12-1.32 10.29-1.18 15.4-.05 3.77-.06 7.36-.14 11.1-.06.86.15 2.68-.75 2.69-.18 0-.41-.07-.69-.24z"/><path d="m36.77 12.74c-8.28-1.08-16.68-.56-24.99-1.33-.2-.04-.45-.03-.59-.19-.15-.14-.16-.41-.03-.57 3.03-.9 6.43-.52 9.58-.5 4.91.03 9.87.11 14.75.72 2.54.23 5.07.08 7.59-.07 2.39-.14 4.79-.28 7.2-.1 3.83-.35 7.79-.5 11.62-.38 2.82-.25 5.63-.35 8.46-.31 4.22-.41 8.43-.54 12.66-.4 4.78-.26 9.57-.14 14.35-.04 3.5-.19 6.95-.32 10.44-.51 4.56-.1 9.1.34 13.66.42 4.42-.2 8.8-.29 13.19.35 1.9.17 3.83.08 5.72.33.51-.02.89.42.85.93 0 .39-.31.86-.74.84-3.48-.28-6.97-.34-10.44-.77-1.74-.19-3.48-.1-5.22 0-1.35.07-2.7.14-4.06.08-6.26-.32-12.65-.59-18.89-.12-3.59.28-7.2.21-10.81.08-4.64.06-9.26.27-13.89.08-7.09.52-14.2.84-21.31.76-3.58.37-7.14.48-10.73.37-2.37.08-4.73.38-7.1.38-.41 0-.83 0-1.24-.03z"/><path d="m11.75 138.86c-.68-4.44-.43-9.14-.56-13.56-.31-11.29-.43-22.56-.92-33.82.43-13.03-.75-26.04-.06-39.06.18-6.13-.03-12.18-.03-18.29.06-5.71.48-11.42.6-17.13-.02-1.4.09-8.36 1.53-6.18.2.06.18.4 0 .46-.12 7.35-.44 14.61-.73 21.93.17 9.63.12 19.24-.23 28.87-.1 6.12.46 12.16.5 18.26-.29 7.04-.13 13.99.22 20.99.32 11.8.35 23.7.86 35.43.02.61.16 1.2.14 1.8-.06.35-.32.71-.7.72-.26 0-.49-.18-.6-.43z"/><path d="m17.37 139.4c-1.36-.17-2.72-.38-4.07-.68-.14.03-.27.16-.41.08-.22-.13-.08-.63.19-.49 2.16-.79 4.45-.67 6.75-.56 1.3.06 2.61.13 3.88.03 6.69 0 13.37-.18 20.03-.44 3.41.15 6.79-.16 10.19-.32 3.42-.06 6.86.14 10.28.25 4.85-.42 9.71-.35 14.57-.29 4.76.07 9.53.13 14.29-.26 8.83-.59 17.65-1.28 26.49-.5 1.82.16 3.62-.11 5.44-.21 4.45.03 8.9.18 13.35.07 1.01.2.67 1.47.11 2.01-.51.64-1.88.7-2.02-.28-2.25.19-4.5.11-6.76.03-1.54-.06-3.09-.11-4.62-.08-3.11.37-6.24.19-9.37.02-2.21-.12-4.42-.24-6.62-.17-7.63.2-15.23.97-22.84 1.17-2.73.04-5.46 0-8.19-.04-3.01-.05-6.02-.09-9.02-.02-3.28.35-6.49.25-9.72.15-2.22-.07-4.43-.14-6.68-.06-4.4.51-8.86.14-13.27.46-4.99.09-10 .29-15 .29-2.33 0-4.67-.04-6.99-.17z"/><path d="m137.79 136.2c-.32-3.54-.12-7.25-.09-10.79.33-5.78 1.39-11.48 1.39-17.25.11-9.23-.16-18.38.37-27.55-.35-8.61.02-17.32.13-25.92.05-14.09-2.57-28.14-.25-42.18.11-.48.07-.99.26-1.44.06-.11.19-.18.31-.12.2 0 .34.23.22.4.54 6.11-.68 12.41-.37 18.52.33 5.7.83 11.4 1.11 17.1.33 7.37-.05 14.6-.12 21.94 0 7.66.18 15.12-.27 22.74-.04 6.46.27 12.74-.07 19.17-.31 6.96-1.66 13.8-1.38 20.77-.02 1.47.24 3-.08 4.44-.09.24-.27.57-.55.64-.03 0-.06.01-.09.01-.25 0-.43-.29-.52-.49z"/><g fill="#fff"><path d="m147.59 129.77c.05.16.07.33.03.5-.28 1.23-.91 2.5-1.71 3.55-.88 1.49-.67 3.36-.63 5.02.1 1.12.98 1.86 1.68 2.65-.59.64-1.26 1.74-.76 2.56-1.05-.55-2.35-.75-3.47-.95-1.46-.17-2.71.51-3.95 1.18-1.16.63-2.32 1.26-3.62 1.21-1.15-.54-1.78-1.97-3.15-2.13-1.67-.4-3.12.51-4.45 1.39-.97.42-1.89.28-2.94.04-1.62-.69-3.15-2.17-5.07-1.5-1.96.48-3.92 3.19-5.9 1.39-1.28-1.09-3.15-1.23-4.67-.58-1.19.62-2.41 1.57-3.85 1.16-1.01-.44-1.7-1.48-2.84-1.74-2-.71-3.64 1.23-5.59 1.34-1.15.02-1.89-.36-2.51-.75-1.2-.74-2-1.49-4.55.71-.02.01-.03.02-.05.03-.99.09-1.87-.32-2.75-.74-.84-.4-1.7-.8-2.64-.75-1.45.05-2.48 1.32-3.91 1.48-1.06.13-1.77-.85-2.73-1.13-2.41-1.12-4.27 1.16-6.51 1.51-1.12.03-2.26-.54-3.24-1.12-1.82-1.24-4.19-1.24-6.17-.38-.97.38-1.85 1.09-2.89 1.24-1.85-1.41-4.66-2.82-6.67-.92-.68.59-1.36 1.39-2.35 1.28-1.42-.06-2.52-1-3.78-1.5-1.63-.44-3.4-.15-4.94.51-.84.34-1.59.85-2.47 1.12-.7.11-1.46-.05-2.16-.14-2.58-.45-5.04-2.16-7.75-1.33-1.62.54-3.26 1.01-4.99.83-1.39-.19-2.45-1.42-3.96-1.18-1.29.08-2.65.17-3.83.75-.77.42-1.45 1.07-2.35 1.19-1.49.19-2.49-1.04-3.76-1.53-1.18-.39-2.46-.12-3.6.26-.57.21-1.1.5-1.65.76.64-1.13 1.01-2.59.95-3.82.04-1.63-2.14-2.42-1.56-4.14.2-1.33 1.05-2.42 1.6-3.61.76-1.75.84-3.89.07-5.65-.57-1.13-1.26-2.19-1.63-3.41-.55-1.21.53-2.07.98-3.09.76-1.99.74-4.53-.15-6.46-.29-.35-.59-.64-.56-1.13-.19-4.17 2.96-5.3.02-9.35.06-1.2-.11-2.43.31-3.6.32-1.01.96-1.92 1.13-2.99.06-.89-.38-1.71-.8-2.47-.83-1.06-1.45-2.32-.96-3.68.4-1.13 1.28-2.08 1.45-3.29.06-.95-.05-1.93-.38-2.82-.62-1.19-1.4-2.5-.73-3.85.81-1.23 1.43-2.79.93-4.25-.33-1.09-1.42-1.8-1.53-2.96-.29-2.43 1.83-4.24 1.85-6.64.02-1.28-.64-2.37-1.48-3.27-.81-1.53.44-3.12 1.11-4.45.66-1.24.99-2.77.37-4.08-.48-1.06-1.48-1.77-2.05-2.74-.19-3.06 3.25-5.32 2.39-8.42-.38-1.84-1.42-3.33-2.54-4.79-.12-.19-.21-.48-.24-.71-.16-1.16.92-1.9 1.41-2.81 1.41-3.16-.07-6.43-1.31-9.37.3-1.63 1.59-2.92 1.54-4.71.28-1.91-.82-3.56-1.01-5.39-.07-1.38.82-2.55 1.22-3.82.12-.41.15-.82.18-1.24.26-.14.47-.44.5-.74.68-2.13.57-4.53-.27-6.61 2.21.64 4.47-.24 6.18-1.7h.05c.78-.22 1.37-.92 2.22-1.08 2.47-.14 3.47 2.79 5.72 3.16.26.07.5.11.73.11 1.42 0 2.5-1.19 3.7-1.9.9-.31 1.95-.54 2.89-.31.86.4 1.45 1.2 2.3 1.62 1 .43 2.17.27 3.15-.13 1.5-.98 3.07-2.23 5-1.62 1.17.24 1.91 1.22 2.92 1.76 2.51.95 4.52-1.83 6.91-2.02 1.39.52 2.35 2.07 3.77 2.45-6.11.1-12.23.26-18.27 1.15-3.97.6-8.05.11-12.04-.08-1.38.07-2.77.06-4.16.06-2.29 0-4.58-.01-6.85.32-4.18-.25-2.71 4.06-2.87 6.78-.03 6.86-.67 13.74-.41 20.61.96 13.75-.42 27.52-.4 41.28.92 22.07-.49 44.23 1.47 66.23.03.32.28.67.61.67.23 0 .42-.16.53-.36 1.42.71 3.04.69 4.63.67.42 0 .84-.01 1.25 0 5.11-.44 10.09.65 15.18.78 9.89-.26 19.78-.82 29.67-1.22 5.51.11 11.03.09 16.54.06 3.09-.01 6.17-.02 9.26-.01 3.04-.09 6.07.08 9.09.26 2.7.16 5.4.31 8.1.28 3.92-.09 7.84-.01 11.77.06 3.1.06 6.2.11 9.29.09 2.13 0 4.27-.06 6.4-.11 3.31-.09 6.62-.18 9.92-.04.53.05 1.06.02 1.59 0 .53-.03 1.06-.06 1.59 0 .34.08.61-.19.73-.49.05.01.09.02.14.02.03 0 .07 0 .1-.01.47-.08.65-.61.71-1.02.24-1.56.08-3.15-.06-4.72-.25-13.26-.67-26.53-.32-39.8.14-9.3-.14-18.6.38-27.88.28-10.9 1.04-21.78.73-32.68-.25-5.78-1.13-11.52-.99-17.32-.09-3.3.31-6.59.17-9.89-.07-.61.1-1.38-.21-1.93.05-.11.07-.22.06-.34 0-.03-.02-.06-.02-.09 0-.06-.02-.12-.06-.16h-.01c-.26-.49-.91-.38-1.46-.49-5.55-.76-11.24-.23-16.83-.6-7.9-.13-15.79-.12-23.69-.1-3.51 0-7.02.02-10.53.01-4.13 0-8.26-.07-12.38-.14-7.4-.14-14.8-.27-22.2.07-1.57.03-3.13.06-4.71.08 1.25-.39 2-1.72 3.21-2.22.89-.41 1.91-.13 2.67.41.7.59 1.39 1.33 2.39 1.3 1.56.13 2.29-1.37 3.38-2.15 1.02-.4 2.27-.35 3.31.1.95.57 1.74 1.68 2.98 1.54 2-.49 4.23-2.61 6.07-.63.55.5 1.21.98 2 .89 2.28-.24 4.51-2.65 6.8-1.15.67.51 1.25 1.3 2.18 1.31 2.46.27 3.86-2.01 6-2.41 1.08-.14 2.06.37 2.99.87 1.63.89 3.08 1.77 4.54-.79.09-.19.25-.38.49-.4 1.17-.09 2.63-.09 3.63.64.37.44.55 1.02.98 1.41.34.29.8.16 1.19.06 1.71-.52 3.5-.7 5.21-1.18 2.08-1.09 3.26-.44 4.89.96 1.85 1.31 4.4.53 5.8-1.03 1.57-.55 3.73-.68 4.88.75 1.34 1.2 3.9 1.37 5.12-.05 1.32-2.19 2.97-1.41 4.84-.51.05 0 .09 0 .14-.02 2.21 1.33 5.15 1.28 7.52.4-.05 1.83-.06 3.66-.08 5.49 0 .57.19 1.29.83 1.41-.22 1.03 0 2.13.42 3.1.51 1.47-.34 2.75-1.05 3.96-.41 1.27-.15 2.73.26 3.97s1.53 2.28 1.51 3.63c-1.66 3.31-1.85 6.08-.08 9.38 1.64 5.37-3.78 3.46-.7 10.29.41 1.51.83 3.14.3 4.68-.75 2.09-2 5.18.2 6.79.22.39.08.87-.03 1.28-.16.8-.88 1.28-1.22 1.99-.62 1.2-.81 2.81.17 3.88.67.53.78 1.3.64 2.12-.73 1.42-1.34 2.99-.92 4.62.17.9.97 1.47 1.35 2.25.23.62.41 1.33.07 1.95-1.52 2.14-2.26 5.2-.9 7.61.68 1.14 1.51 2.47.54 3.71-1.23 1.73-1.45 4.09-.43 5.98.26.51.76.87.77 1.48.04.6-.53 1.09-.85 1.56-.79 1.04-1.3 3.62.03 4.36.04.09.08.17.11.24.92 1.75-1.11 3.03-1.46 4.64-.5 1.79-.28 3.84.54 5.5.31.59.72 1.09.9 1.77.51 1.6-.16 3.07-1.01 4.46-.94 1.68-.67 3.97.69 5.35.57.72.83 1.88.49 2.78-.2.51-.84.79-1.08 1.29-.31.61-.42 1.3-.24 1.97.2 1.15 1.14 1.89 2 2.58.15.14.28.36.34.57z"/><path d="m143.74 40.99c.24 4.72-.18 9.42-.4 14.13-.01 8.58-.73 17.15-.72 25.73.08 10.27-.19 20.53-.16 30.8.01 7.04.26 14.08.37 21.12-.14 2.67.45 5.37.12 8.01-.37-.14-.86-.12-1.25-.08-14.55.1-29.13.19-43.69-.03-7.77-.58-15.56-.52-23.34-.47-5.06.03-10.12.07-15.18-.06-9.95.38-19.89.96-29.83 1.23-3.06.06-6.07-.53-9.11-.82-1.19.03-2.38.02-3.58.02-2.85-.01-5.72-.02-8.51.41-.26-2.66-.19-5.34-.39-8.01-.41-10.68-.66-21.53-.5-32.26.06-9.05-.17-18.08-.39-27.13-.14-7.84.79-15.64.69-23.49.16-6.64-.22-13.25-.37-19.88.21-7.34.57-14.7.38-22.01.8-.46 2.23.09 2.74-.75 1.7.15 3.39.35 5.09.43 2.87-.04 5.73-.13 8.58.21.99.09 1.97.13 2.95.13 3.37 0 6.71-.47 10.06-.92 7.37-.47 14.82-.59 22.21-.69 9.3-.35 18.61-.1 27.91.18 16.4-.36 32.8.02 49.2.15 2.15.08 4.3.3 6.45.26-.03.14-.04.28-.06.41-.18 4.7-.43 9.4-.32 14.11.26 6.42 1.17 12.8 1.04 19.24zm-2.24 33.24c.2-8.64.52-17.25.43-25.91-.4-8-1.03-16-1.16-24.02-.13-.68.84-9.74.38-12.97.03-.09.05-.18.05-.26.01-.13 0-.25-.04-.37.22-.11.41-.27.55-.48-.2-.36-.61-.61-1.02-.65-.57-.03-1.13-.03-1.7-.09-7.25-.99-14.57-.89-21.89-.79-4.1.06-8.19.11-12.28-.02-6.96-.5-13.91.25-20.86.31-6.16-.27-12.31-.02-18.46.23-5.06.2-10.11.41-15.17.33-3.08-.17-6.15-.02-9.22.12-2.53.12-5.06.23-7.58.18-5.1-.65-10.29-.79-15.42-.34-.5.09-1.52.04-2.68 0-2.45-.11-5.53-.21-5.67 1.02.05.22.37.26.49.13-.08.41-.16.96-.21 1.66-1.57 22.97-.09 45.97.09 68.96.04 13.5-.24 27.01-.13 40.51.09 2.95.08 5.85.6 8.77.05 2.22.15 4.54.22 6.83 0 .4.07.79.31 1.12s.05-.03.07-.06c.02.08.07.15.15.17.13.05.25.1.38.14 0 .04.01.07.02.11.11.24.34.43.6.43.21 0 .38-.11.5-.26 1.14.2 2.34.2 3.48.3h.44c.2.03.4.05.59.08.84.05 1.69.08 2.53.1 2.66.26 5.29.73 7.98.78 21.67-.09 43.32-1.26 65-1.32 8.72-.69 17.45-.66 26.19-.33 5.68-.11 11.37-.21 17.05-.31.2.02.4.02.6 0 .38.35 1.09.3 1.53-.02.04.05.08.09.14.12.28.17.51.24.69.24.9 0 .69-1.83.75-2.69.08-3.74.09-7.33.14-11.1-.14-5.1.61-10.28 1.18-15.4.58-11.74.79-23.49.37-35.24z"/></g></g></svg>