<svg viewBox="0 0 16 16.62" xmlns="http://www.w3.org/2000/svg" xmlns:xlink="http://www.w3.org/1999/xlink"><clipPath id="a"><path d="m0 0h16v16.62h-16z"/></clipPath><g clip-path="url(#a)"><path d="m7.64 16.2c-.46-.17-.81-.55-1.11-.93-.4-.43-.94-.8-1.05-1.41 1.09-.23 1.54 1.03 2.32 1.46.04.01.08.02.09.03 1.41-.27 2.4-1.57 3.35-2.54 1.73-1.87 3.44-4.04 3.73-6.64.02-1.08-.76-1.94-1.42-2.71-.74-.56-1.8-.45-2.62-.25-1.09.3-1.82 1.11-2.77 1.64-.31.21-.69 0-.9-.27-.48-.7-1.03-1.48-1.91-1.66-.31-.12-.06-.71.21-.44.48.11.99.11 1.4.43.39.29.54.81.91 1.11 1.8-1.47 5.19-3.15 6.76-.49.56.77 1.11 1.57 1.05 2.58-.22 2.95-2.15 5.41-4.1 7.5-1.07 1.03-2.32 2.76-3.95 2.58z"/><path d="m7.41 16.15c-2.48-2.15-5.62-4.35-6.43-7.71-.74-3.34 1.28-8.2 5.31-6.14.31.1 1.78 2.08.88 1.84-.35-.52-.86-.9-1.4-1.19-3.79-1.38-4.93 3.64-3.77 6.3.96 2.06 2.9 3.5 4.45 5.08.46.51 1.71.86 1.46 1.68-.09.19-.33.27-.5.13z"/></g></svg>