<svg viewBox="0 0 29 28.76" xmlns="http://www.w3.org/2000/svg" xmlns:xlink="http://www.w3.org/1999/xlink"><clipPath id="a"><path d="m0 0h29v28.76h-29z"/></clipPath><g clip-path="url(#a)"><path d="m14.21 2.11c-1.84-.18-3.7-.16-5.55-.14-2.13.02-4.26.04-6.36-.24-.2-.04-.49-.11-.49-.34.21-.05.42-.09.63-.13h.07c1.19.17 2.39.07 3.59-.04.83-.07 1.67-.15 2.5-.13 3.69.05 7.37.47 11.07.12.83 0 1.68-.05 2.52-.1 1.22-.07 2.44-.15 3.65-.05.05 0 .09 0 .14.02.02 0 .05.02.08.02.22.07.39.26.35.51-.08.34-.46.43-.75.3-2.03-.05-4.06.03-6.08.1-1.61.06-3.22.12-4.82.12h-.54z"/><path d="m8.15 27.62c-1.99-.19-4-.37-5.97-.78-.41-.06-.63-.43-.64-.82-.18-3.34-.59-6.62-.68-9.96-.3-4.54.53-9.07.32-13.61.02-.3 0-.64.22-.87.47-.23 1.03-.38 1.55-.23.28-.25.43.22.22.4-.08.13-.3.25-.39.07-.3-.02-.64.21-.92.27.15 3.51-.06 7.05-.37 10.54.02 4.43.48 8.86.78 13.28 5.14 1.06 10.42.98 15.61.59.7-.07 1.42-.06 2.14-.04 1.06.02 2.13.05 3.15-.22.98-.31 2.07-.05 3.01-.38.04-.43.07-.86.09-1.29v-.02c.02-.09.02-.18.02-.28 0-.03 0-.05 0-.08.29-5.41-.18-10.85-.11-16.28-.04-2 .59-4.09.32-6.04-.26-.16-.57-.4-.5-.75.01-.02.02-.04.04-.06.04.01.08.02.12.02h.02s.03.02.04.02c.16.13.37.18.57.21h.14.02v.02s.02.04.02.07c.04.16.1.31.19.46.05.07.1.14.17.2v.03c-.07 2.7-.55 5.37-.38 8.08-.02 5.2.4 10.39 0 15.59-.1 1.61-2.15 1.04-3.24 1.28-.99.33-2.03.32-3.07.31-.38 0-.77 0-1.15.01-2.89.12-5.79.3-8.69.3-.88 0-1.76-.02-2.65-.06z"/><path d="m7.29 9.48c0-.14.01-.27.02-.41v-.07c.1 0 .2.06.21.23 0 .16-.1.26-.21.26z"/><path d="m7.44 9.54c-.06.01-.11.01-.16 0 0-.15.01-.31.02-.46v-.06s.05 0 .07 0c.17-.18.45-.14.71-.09.15.02.29.05.4.04 2.47-.17 4.96-.28 7.41-.2 1.69-.06 3.28.05 4.94.12h.16c.09 0 .19 0 .28.02v.3.06s0 .09 0 .14c-.18.06-.46.02-.63.06-1.39.09-2.78.09-4.16.09-1.29 0-2.58 0-3.87.07-1.74-.04-3.47-.03-5.19-.08z"/><path d="m8.79 14.52c-.45.01-.92.02-1.37.01-.12 0-.2-.06-.24-.14v-.28c.03-.05.08-.1.15-.12.05-.14.19-.17.32-.16.59.02 1.18.01 1.77 0 .45-.01.89-.02 1.34-.01 3.01-.17 6.02-.09 9.02.03.51.02.99 0 1.48.06v.2.31c-.11.02-.23 0-.35 0-.12-.01-.23-.02-.32 0-3.17.13-6.29 0-9.45.17-.78-.1-1.56-.08-2.33-.06z"/><path d="m11.28 19.6c-1.2-.13-2.4-.13-3.59-.03-.14 0-.28-.02-.42-.03-.01-.01-.03-.03-.04-.05 0-.11 0-.23 0-.34.09-.15.3-.19.47-.23 1.06.01 2.14-.05 3.23-.1 1.88-.1 3.77-.19 5.56.07.16.22.02.59-.28.57-1.27.05-2.54.18-3.81.18-.38 0-.76-.01-1.13-.04z"/><path d="m5.26 1.26c.76.03 1.39.05 1.62 0 6.39.12 12.82.07 19.16-.19.04 0 .08.02.12.02h.02c.01 0 .03 0 .04.01.16.13.37.18.57.21h.13c.02.12 0 .25-.06.36-.16.3-.5.3-.82.3-.13 0-.26 0-.36.02-1.41-.02-2.8.06-4.18.13-1.79.1-3.58.19-5.41.1-1.84.03-3.7 0-5.55-.03-3.03-.05-6.07-.11-9 .14-1-1.22 1.79-1.15 3.74-1.08z"/><path d="m24.47 1.24c.26 0 .26.5 0 .5s-.26-.5 0-.5z"/><path d="m25.64 1.22c.26 0 .26.5 0 .5s-.26-.5 0-.5z"/><path d="m26.05 26.67c-.45-.2-.23-.8.09-1 .55-3.4.07-6.9.11-10.34-.1-4.43.11-8.88.4-13.29-.11-.02-.22-.07-.31-.14-.3.01-.6-.03-.89-.04-.35-.08-.38-.68-.05-.8.16-.04.35-.11.52-.07h-.02c.31.02.63-.04.89.16.64.09.63.87.56 1.36-.24 2.54-.18 5.14-.4 7.68-.06 3.13.05 6.27.13 9.39-.16 1.38.62 6.97-1.04 7.08z"/><path d="m.92 14.72c-.3-1.41.06-2.94.17-4.36-.02-1.67-.05-3.32-.04-5 .02-.91.07-1.79.05-2.7-.04-.49.14-1.04.64-1.23.15-.02.3-.07.44-.12.08-.02.16-.03.25-.05.05 0 .09-.01.14-.02h.02s.08 0 .11 0c.02 0 .04 0 .06.01.38.15.52.52.14.77-.25.17-.83.19-1.06.36-.16 3.5.14 7.09-.28 10.6-.08.4.17 1.88-.32 1.88-.08 0-.19-.04-.32-.14z"/><path d="m1.88 26.37c-.32-.15-.31-.62-.32-.9-.04-.21-.11-.45-.12-.69-.28-2.96-.41-5.93-.56-8.88-.15-.42.19-1.26.64-.66.2 1.14.18 2.41.23 3.56.08 2.27.29 4.54.55 6.79.08.32.06.9-.41.79z"/><path d="m8.4 27.66c-1.44-.02-2.79-.31-4.2-.49-.68-.12-1.4.04-2.05-.24-.75-.32-.72-1.15-.68-1.81-.02-.27-.13-.6.02-.84-.19-.53.51-.7.42-.11.48.44.18 1.21.31 1.76.16.22.49.23.72.26 1.41-.03 2.84.35 4.22.49 2.16.26 4.29-.15 6.44-.2 2.68.42 5.44.08 8.09-.35 1.45-.22 2.99.03 4.37-.44.33-.92 1.03-.18.63.47-.14.37-.56.48-.91.55-1.12.23-2.33.19-3.46.26-3 .46-6.05.81-9.07.42-1.65.02-3.2.38-4.85.26z"/><path d="m1.82 26.13c-.56-1.91-.24-4.02-.51-6.01-.15-2.24-.63-4.43-.68-6.68-.15-2.55.37-5.09.46-7.61-.08-1 .1-1.96.07-2.95-.03-.42-.04-.87.19-1.23.1-.13.24-.2.39-.26.21-.05.41-.09.62-.13.17.04.36.19.45.27.1.18-.04.44-.25.4-.16.22-.44.28-.68.36.16 4.15-.8 8.31-.45 12.45.37 3.16.81 6.33.79 9.51.03.34.06.68.05 1.02.09.28.09.94-.23.94-.06 0-.13-.03-.22-.08z"/><path d="m7.27 9.83c.01-.25.02-.5.03-.76v-.24s.09-.02.13-.03h.38.18c.16 0 .32 0 .49-.01h.07c.97.02 1.92.05 2.91 0 1.53 0 3.07-.11 4.61-.18h1.57c.6-.01 1.21-.02 1.81-.03h.33c.34.02.68.04 1.01.07.12.02.24.04.37.07.05 0 .09.02.13.04 0 .15.01.3.01.45v.27s-.07.02-.11.03c-.83.02-1.67-.03-2.49-.06-.7.09-1.4.08-2.1.08-.85 0-1.69-.01-2.52.15-2.22.12-4.41.03-6.61.19h-.02c-.06 0-.11-.01-.17-.03z"/><path d="m7.37 13.88c.58-.28 1.25-.25 1.93-.22.39.02.78.04 1.15 0 1.88.06 3.77.05 5.65.03 1.72-.01 3.45-.02 5.15.02 0 .13 0 .26-.01.4v.46c-4.44.04-8.88.07-13.32.19-.02 0-.05 0-.07 0-.45 0-.83-.5-.46-.87z"/><path d="m10.36 19.6c-.54 0-1.09 0-1.63 0h-.67s-.05 0-.07 0c-.25-.02-.5-.03-.75-.05 0-.21 0-.42 0-.63.06-.05.13-.08.22-.08 1.89-.03 3.86-.25 5.76-.18.37.03.75.01 1.13 0 .64-.03 1.3-.05 1.9.14.21-.04.33.14.34.33 0 .17-.08.34-.28.33-1.38.07-2.8.1-4.19.18-.59-.02-1.18-.03-1.76-.03z"/><path d="m22.81 26.37c.36-.48.89-.74 1.45-.86.26-.02.51-.05.77-.09.23 0 .45 0 .67.02.26 0 .39-.21.45-.46.03-.06.07-.13.08-.2.02-.07.04-.15.05-.22.01-.09.02-.18.02-.28 0-.12-.01-.23-.03-.34 0-.01 0-.03 0-.04 0-.02 0-.04 0-.06 0-.03 0-.07-.02-.09 0-.03-.02-.06-.03-.09-.25-6.88.07-13.76.2-20.64 0-.68-.49-1.44.21-1.95.44-.41 1.19-.15 1.25.5.47 5.59-.48 11.2-.14 16.81-.19 2.57 1.02 6.96-1.69 8.44-.43.09-.82.35-1.28.31-.55-.12-1.04.04-1.58.07-.54-.04-1.07-.53-.36-.84z"/><path d="m8.33 27.96c-2.37-.28-5.8.55-7.14-1.98-.3-.83-.42-1.81-.19-2.68.43-.9 1.3-.55 1.61.24.12.92.08 1.8.48 2.65 5.27.54 10.71.04 15.98-.02-.02 0-.03 0-.05 0 2.02-.11 4.04-.27 6.02-.7 1.42-.09 1.63 1.44.11 1.53-5.55 1.05-11.24.6-16.82.95z"/><path d="m1.38 25.1c-.54-.49-.34-1.56-.42-2.14-.12-3.3-.15-6.62-.49-9.87-.1-2.56-.03-5.12-.05-7.68.07-1.36-.18-3.05 1.02-3.98.77-.51 2.59-1.13 2.93.1-.02.32-.14.54-.33.69h-.05c-.06 0-.12 0-.18.02-.04 0-.09 0-.13 0-.18.02-.35.06-.52.09-.29.06-.6.13-.83.32h.01s-.01 0-.02 0-.03.03-.04.05c-.03 0-.05.02-.07.03-.07.05-.14.12-.17.2-.02 0-.03.02-.04.03-.26 4.92-.07 9.77.28 14.65.03 1.63.13 3.38.16 4.97.03.75.34 2.61-.63 2.61-.12 0-.26-.03-.42-.09z"/><path d="m27.05 2.9c-.42-.15-.64-.6-.83-.98-3.73-.11-7.45.39-11.17.35-3.96-.05-7.98-.55-11.88.04-1.07-.06-1.34-1.44-.13-1.57 3.75-.49 7.54-.06 11.28 0 3.34.02 6.67-.26 10.01-.38 1.39-.06 3.42-.1 3.64 1.69.11.54-.36 1.12-.92.84z"/><path d="m23.75 26.17c.6-.29 1.49-.24 1.92-.87h.04.07c.12-.04.23-.1.3-.2.07-.09.13-.2.16-.31.02-.07.03-.15.05-.22.01-.09.02-.18.02-.28 0-.12-.01-.23-.03-.34v-.05s0-.04 0-.06c0-.03 0-.06-.02-.09.03-.14.06-.27.09-.41.17-.37.42-.12.43.18.15.04.17.24.09.36-.24 1.08-.75 2.35-1.99 2.47-.13.03-.27.06-.41.06-.26 0-.52-.07-.71-.24z"/><path d="m7.28 9.74c0-.22.02-.44.03-.66v-.08c.15-.09.34-.13.51-.19h.18.49c.97-.04 1.93-.11 2.9-.14l.99-.03c.87 0 1.72.02 2.59-.01h.21 2.46c.6-.01 1.21-.02 1.81-.03.4 0 .8-.02 1.2-.02.06 0 .12 0 .19.02.24.01.46.22.46.47 0 .31-.32.52-.61.49-2.41.06-4.83.2-7.24.3-.03 0-.07 0-.1 0-.12 0-.25-.01-.37-.02-.29-.01-.58-.02-.87-.02-.64 0-1.29 0-1.93 0-.58 0-1.16.02-1.74.06-.18 0-.36.02-.54.03-.2-.04-.43-.07-.6-.16z"/><path d="m17.44 14.71c-.76-.07-1.52-.05-2.28-.03-.4 0-.8.02-1.19.02-.7 0-1.39-.04-2.08-.08-1.18-.07-2.36-.14-3.52.02-.43.07-1.07.13-1.18-.44 0-.54.47-.49.89-.44.14.02.28.03.39.03.67.16 1.38.02 2.02-.08 2.37-.14 4.74-.21 7.1-.11 1.04-.05 2.11-.21 3.13.07.16.05.36.07.54.12v.33c0 .18 0 .35-.01.53l-.14.04c-.19 0-.37 0-.56 0-.36 0-.73 0-1.09 0-.58.01-1.16.03-1.74.04-.09 0-.17 0-.26-.01z"/><path d="m16.18 19.41s-.07-.05-.09-.08c-.42.17-.91-.04-1.08-.47-2.45.05-4.88.21-7.29.3-.14.09-.35.09-.48-.01 0-.12 0-.24 0-.36v-.09c.05-.06.11-.1.19-.13.45-.02.91-.03 1.37-.05.31-.01.62-.01.93-.02h.88 1.64-.03c.42 0 .85.02 1.27.02h-.03c.16 0 .33 0 .49.01h-.03.41-.03c.42.01.84.02 1.26.03h-.03c.26.01.52.02.78.03h-.03s.07 0 .11 0c.31.14.41.33.18.6 0 .14-.1.23-.23.23-.05 0-.1-.01-.14-.04z"/><path d="m7.29 9.03c.02-.32.42-.3.4.02s-.42.3-.4-.02z"/><path d="m7.18 9.77c-.39-.31-.05-1.24.46-.92.25.1.11.59-.17.46-.02 0-.04 0-.06 0v.04c.34.15.05.71-.24.4z"/><path d="m20.66 9.48c-.07-.07-.08-.19 0-.25.05-.04.1-.06.15-.07.02-.04.05-.05.08-.08-.15 0-.27.07-.4-.03-.16-.1-.09-.32.09-.35.18-.25.73-.17.8.15 0 .11.03.19.03.29.13.36-.52.52-.75.33z"/><path d="m20.96 14.68c-.33.03-.43-.39-.06-.41 0-.01.02-.05.02-.04 0-.04 0-.07 0-.11-.11-.02-.24 0-.32-.09-.28.05-.49-.29-.15-.39.35.02.85-.09 1.08.26.07.18.06.44-.1.58-.05.2-.28.23-.45.2z"/><path d="m7.44 14.59c-.4-.14-.37-.69.02-.81.36-.08.78-.18 1.11-.07.38.54-.76.27-.94.46s.01.04.02.06c1.24-.11.54.6-.22.36z"/><path d="m7.38 19.6c-.27-.07-.45-.5-.27-.72.16-.34.71-.33 1.03-.24.27.16 0 .44-.24.35s-.05.08-.09.1c.09.03.19.12.16.22.07.3-.38.31-.58.29z"/><path d="m16.12 19.45c-.09-.05-.13-.14-.09-.24.03-.06.08-.08.14-.11v-.02s0-.02 0 0c-.01-.02-.02-.03-.03-.04-.14-.02-.31 0-.46-.03-.14-.04-.23-.17-.14-.3.17-.17.45-.07.66-.07.65.04.6 1.03-.08.82z"/><path d="m14.72 19.64c-.45-.02-.89-.05-1.33-.11-.34.16-.37-.43-.07-.48.95.05 1.93.19 2.88 0 .17-.31.49.02.32.27-.35.44-1.28.26-1.8.31z"/><path d="m25.48 26.96c-.34-.03-1.25.14-.79-.46.74-.12 1.46-.39 2.14-.67.06-.15.22-.31.4-.23.06-1.22.23-2.51.19-3.71-.24-.14-.02-.61.24-.44.43.71.03 1.76.07 2.54-.03 1.83-.08 2.95-2.25 2.98z"/></g></svg>