<svg viewBox="0 0 18 25.08" xmlns="http://www.w3.org/2000/svg" xmlns:xlink="http://www.w3.org/1999/xlink"><clipPath id="a"><path d="m0 0h18v25.08h-18z"/></clipPath><g clip-path="url(#a)"><path d="m15.08.93c.26 0 .26.49 0 .49s-.26-.49 0-.49z"/><path d="m2.08 24.3c-.38-.08-.44-.54-.52-.85-.15-2.72-.24-5.45-.2-8.18.01-3.12-.01-6.24.06-9.36.12-1.53-.39-3.2.37-4.6.36-.77 1.3-.67 2.02-.68 2.21-.02 4.42-.02 6.63.02 1.55-.08 3.1 0 4.63.21.18.04.23.31.1.43-.09.11-.24.15-.32.04-4.03.39-8.11.1-12.15.21-1.13.89-.39 2.73-.57 3.99-.09 5.93-.11 11.9.08 17.8 2.08-1.35 4.43-2.22 6.45-3.66.43-.22.9-.65 1.41-.42 1.72 1.05 3.25 2.45 4.98 3.47.44.38 1.29.55 1.34 1.21-.04.51-.62.35-.87.1-1.84-1.11-3.56-2.43-5.3-3.69-.61-.6-1.27.25-1.83.54-2.04 1.22-4.25 2.36-6.32 3.44z"/><path d="m12.76.97c.26 0 .26.49 0 .49s-.26-.49 0-.49z"/><path d="m16.36 24.38c-.15-.16-.16-.44-.04-.62-.13-7.33.32-14.73-.26-22.02v-.04c-1.67 0-3.34.02-4.98-.22-.11-.07-.14-.21-.1-.33.03-.09.13-.17.22-.14 1.69-.09 3.43-.41 5.11-.16.48.27.5.93.55 1.42.21 4.93.25 9.85.15 14.79-.01 1.84.02 3.68.02 5.52-.04.55.25 2.26-.68 1.81z"/><path d="m2.01 24.18c-.39-.1-.47-.55-.43-.89-.01-3.55-.35-7.02-.48-10.52-.08-2.75-.11-5.5-.15-8.25-.04-1.25.05-3.01 1.39-3.56.28 0 .71-.22.65.24-.3.4-.82.8-.75 1.39.27 3.66.24 7.34.12 11.01-.08 3.24.12 6.49.19 9.73.05.35-.11.89-.55.84z"/><path d="m16.29 23.82c-.24-7.39.37-14.84-.31-22.22-.04-.2-.21-.35-.2-.57.01-.17.14-.41.33-.31 1.09.53 1.25 1.72 1.32 2.82.25 3.41 0 6.72-.15 10.1-.16 3.06-.14 6.18-.22 9.22-.08.41.1 1.01-.32 1.26-.21.1-.39-.13-.45-.32z"/><path d="m16.58 24.34c-.15-.05-.23-.23-.22-.38-.04-1.62-.19-3.23-.03-4.85-.07-1.19.2-6.9.67-2.66-.19 2.56.76 5.19-.08 7.68-.04.14-.19.25-.33.21z"/><path d="m16.22 24.45s-.09-.03-.14-.04c-.03-.04-.06-.07-.1-.1-.09-.05-.18-.09-.27-.13-.08-.03-.15-.06-.23-.08-.04-.01-.08-.03-.12-.05-1.53-.79-2.93-1.72-4.3-2.75-.65-.46-1.02-1.13-1.42-1.78-.05-.1-.07-.25.04-.32.13-.08.27.03.33.15.8.2 1.42.76 2.09 1.23 1.28.99 2.77 1.62 3.98 2.7.63.31.61 1.12.17 1.17h-.01z"/><path d="m16.22 24.45-.07-.02v-.03c.05-.24.52-.28.46.02-.01.06-.05.1-.09.14-.1-.04-.2-.07-.3-.11z"/><path d="m16.22 24.45s-.05-.02-.08-.03c-.07-.29.38-.37.59-.3.21.18 0 .37-.24.43-.09-.04-.18-.07-.27-.1z"/><path d="m2.08 24.32c-.67-.12-.28-1.07.29-.93 1.48-.91 2.88-1.97 4.48-2.67 1.14-.56 2.94-2.41 3.95-.81.42.78-1 .56-1.35.33-1.87 1.23-3.72 2.46-5.73 3.43-.49.31-1.04.66-1.65.64z"/><path d="m1.56 3.46c-1.31-3.03 2.9-3.05 4.84-2.96 3.21-.25 6.39.43 9.57.27.63-.07.87.9.29 1.14-.18.06-.39.07-.57.12-2.91-.16-5.85-.12-8.78-.15-1.44 0-2.91-.09-4.33.15-.09.05-.16.13-.23.21-.19.33-.18.74-.22 1.1.03.17-.04.39-.22.41-.18.03-.29-.14-.36-.28z"/><path d="m1.91 24.16c-.55-.47-.37-1.36-.36-2.02-.02-.8-.08-1.57 0-2.36-.05-1.12-.18-2.34.15-3.42.21-.26.47.14.31.35.34 2.11.22 4.24.3 6.37 2.64-1.06 4.75-2.24 7.19-3.61.49-.15.72.61.4.9-.47.35-1.01.73-1.56.91-1.33.74-2.67 1.65-4.12 2.13-.72.31-1.5.98-2.32.75z"/><path d="m16.22 24.45s-.09-.03-.13-.05c-.03-.04-.07-.07-.11-.09-.09-.05-.18-.09-.27-.13-.04-.01-.07-.03-.11-.04-.86-.83-2-1.18-2.97-1.88-.95-.76-2.09-1.24-2.74-2.3-.24.02-.42-.42-.14-.49 2.34.95 4.35 2.75 6.63 3.89.14.08.25.22.29.39.02.11 0 .23-.06.32 0 .21-.15.35-.33.39l-.05-.02z"/><path d="m16.76 24.67c-.09-.06-.2-.1-.3-.14-.11-.11-.17-.26-.17-.4-.02-.7.02-1.43.12-2.12.2-.35.71-.11.79.22.1.39.09.81.03 1.21-.03.34.14.64.1.95-.05.03-.09.08-.13.13-.07.05-.12.1-.18.16-.09 0-.18 0-.26 0z"/><path d="m16.28 23.31c-.16-.08-.32-.17-.47-.25-1.16-.95-2.53-1.56-3.72-2.48-.5-.35-.97-.76-1.51-1.02h-.01c-.17-.12-.33-.22-.5-.33-.35-.16-.69 0-1.01.19h-.01c-.77.32-1.58 1-2.2 1.3-.82.36-1.6.82-2.35 1.3-.39.2-.77.4-1.15.62-.26.12-.53.23-.8.33-.08-3.12-.26-6.25-.18-9.37.12-3.67.16-7.35-.12-11.01 0-.04 0-.07 0-.11.03-.1.06-.18.11-.27.07-.08.14-.16.23-.21 1.42-.24 2.88-.15 4.32-.15 2.93.03 5.87 0 8.78.15.11-.03.22-.04.33-.06.61 7.1.07 14.25.26 21.35z" fill="#ffa500"/></g></svg>